G04*
G04 #@! TF.GenerationSoftware,Altium Limited,Altium Designer,24.4.1 (13)*
G04*
G04 Layer_Physical_Order=1*
G04 Layer_Color=1118658*
%FSTAX24Y24*%
%MOIN*%
G70*
G04*
G04 #@! TF.SameCoordinates,973A198C-3906-4392-A1E8-A13353080A71*
G04*
G04*
G04 #@! TF.FilePolarity,Positive*
G04*
G01*
G75*
%ADD13C,0.0100*%
%ADD23R,0.0374X0.0315*%
%ADD24R,0.0315X0.0315*%
%ADD25R,0.0315X0.0315*%
%ADD26R,0.0315X0.0374*%
%ADD27O,0.0571X0.0157*%
%ADD28R,0.0354X0.0787*%
%ADD29R,0.0315X0.0984*%
%ADD30R,0.0984X0.0315*%
%ADD31R,0.0157X0.0591*%
%ADD32R,0.0787X0.0354*%
G04:AMPARAMS|DCode=33|XSize=90.5mil|YSize=22.3mil|CornerRadius=11.2mil|HoleSize=0mil|Usage=FLASHONLY|Rotation=0.000|XOffset=0mil|YOffset=0mil|HoleType=Round|Shape=RoundedRectangle|*
%AMROUNDEDRECTD33*
21,1,0.0905,0.0000,0,0,0.0*
21,1,0.0681,0.0223,0,0,0.0*
1,1,0.0223,0.0341,0.0000*
1,1,0.0223,-0.0341,0.0000*
1,1,0.0223,-0.0341,0.0000*
1,1,0.0223,0.0341,0.0000*
%
%ADD33ROUNDEDRECTD33*%
%ADD34R,0.0905X0.0223*%
%ADD35R,0.1043X0.0689*%
%ADD36R,0.1850X0.0591*%
%ADD37R,0.0236X0.0394*%
%ADD38R,0.0630X0.1024*%
G04:AMPARAMS|DCode=39|XSize=51.4mil|YSize=126.9mil|CornerRadius=18mil|HoleSize=0mil|Usage=FLASHONLY|Rotation=90.000|XOffset=0mil|YOffset=0mil|HoleType=Round|Shape=RoundedRectangle|*
%AMROUNDEDRECTD39*
21,1,0.0514,0.0909,0,0,90.0*
21,1,0.0154,0.1269,0,0,90.0*
1,1,0.0359,0.0455,0.0077*
1,1,0.0359,0.0455,-0.0077*
1,1,0.0359,-0.0455,-0.0077*
1,1,0.0359,-0.0455,0.0077*
%
%ADD39ROUNDEDRECTD39*%
G04:AMPARAMS|DCode=40|XSize=51.4mil|YSize=35.9mil|CornerRadius=18mil|HoleSize=0mil|Usage=FLASHONLY|Rotation=90.000|XOffset=0mil|YOffset=0mil|HoleType=Round|Shape=RoundedRectangle|*
%AMROUNDEDRECTD40*
21,1,0.0514,0.0000,0,0,90.0*
21,1,0.0154,0.0359,0,0,90.0*
1,1,0.0359,0.0000,0.0077*
1,1,0.0359,0.0000,-0.0077*
1,1,0.0359,0.0000,-0.0077*
1,1,0.0359,0.0000,0.0077*
%
%ADD40ROUNDEDRECTD40*%
%ADD41R,0.0359X0.0514*%
%ADD42R,0.0433X0.1000*%
%ADD43R,0.1098X0.0291*%
%ADD44C,0.0591*%
G04:AMPARAMS|DCode=45|XSize=55.1mil|YSize=19.7mil|CornerRadius=2.5mil|HoleSize=0mil|Usage=FLASHONLY|Rotation=90.000|XOffset=0mil|YOffset=0mil|HoleType=Round|Shape=RoundedRectangle|*
%AMROUNDEDRECTD45*
21,1,0.0551,0.0148,0,0,90.0*
21,1,0.0502,0.0197,0,0,90.0*
1,1,0.0049,0.0074,0.0251*
1,1,0.0049,0.0074,-0.0251*
1,1,0.0049,-0.0074,-0.0251*
1,1,0.0049,-0.0074,0.0251*
%
%ADD45ROUNDEDRECTD45*%
%ADD71C,0.0200*%
%ADD72C,0.0080*%
%ADD73C,0.0150*%
%ADD74C,0.0300*%
%ADD75C,0.0500*%
%ADD76C,0.0866*%
%ADD77R,0.0591X0.0591*%
%ADD78C,0.0630*%
%ADD79R,0.0630X0.0630*%
%ADD80C,0.0650*%
%ADD81R,0.0650X0.0650*%
%ADD82C,0.1299*%
%ADD83O,0.0591X0.0866*%
%ADD84O,0.0709X0.0866*%
%ADD85C,0.0709*%
%ADD86C,0.0236*%
G36*
X003836Y024636D02*
X003823Y024624D01*
X003812Y024611D01*
X003802Y024595D01*
X003794Y024578D01*
X003787Y024559D01*
X003782Y024538D01*
X003778Y024516D01*
X003776Y024491D01*
X003775Y024464D01*
X003625D01*
X003624Y024491D01*
X003622Y024516D01*
X003618Y024538D01*
X003613Y024559D01*
X003606Y024578D01*
X003598Y024595D01*
X003588Y024611D01*
X003577Y024624D01*
X003564Y024636D01*
X00355Y024646D01*
X00385D01*
X003836Y024636D01*
D02*
G37*
G36*
X00337Y0252D02*
X003344Y025173D01*
X003285Y025072D01*
X003255Y024959D01*
Y024841D01*
X003285Y024728D01*
X003344Y024627D01*
X003427Y024544D01*
X003457Y024526D01*
X003463Y02452D01*
X003465Y024518D01*
X003466Y024515D01*
X003468Y024507D01*
X00347Y024496D01*
X003471Y024492D01*
Y023493D01*
X003469Y023453D01*
X001D01*
X001Y023453D01*
X000922Y023442D01*
X000849Y023412D01*
X000786Y023364D01*
X000436Y023014D01*
X000388Y022951D01*
X000358Y022878D01*
X000347Y0228D01*
Y022502D01*
X000347Y0225D01*
X000347Y022498D01*
Y00985D01*
Y0062D01*
X000358Y006122D01*
X000388Y006049D01*
X000436Y005986D01*
X000781Y005641D01*
X000781Y005641D01*
X000843Y005593D01*
X000856Y005557D01*
X000835Y005522D01*
X000805Y005409D01*
Y005291D01*
X000835Y005178D01*
X000894Y005077D01*
X000977Y004994D01*
X001078Y004935D01*
X001191Y004905D01*
X001309D01*
X001422Y004935D01*
X001523Y004994D01*
X001606Y005077D01*
X001665Y005178D01*
X001695Y005291D01*
Y005409D01*
X001671Y005497D01*
X001704Y005547D01*
X002417D01*
X002422Y005497D01*
X002391Y005491D01*
X002342Y005458D01*
X002309Y005409D01*
X002297Y00535D01*
Y00425D01*
X002309Y004191D01*
X002342Y004142D01*
X002391Y004109D01*
X0024Y004107D01*
Y003843D01*
X002391Y003841D01*
X002342Y003808D01*
X002309Y003759D01*
X002297Y0037D01*
Y00295D01*
X002309Y002891D01*
X002342Y002842D01*
X002391Y002809D01*
X00245Y002797D01*
X004597D01*
Y0015D01*
X004609Y001441D01*
X004635Y001402D01*
Y001397D01*
X004639D01*
X004642Y001392D01*
X004691Y001359D01*
X00475Y001347D01*
X005797D01*
Y0004D01*
X005809Y000341D01*
X005842Y000292D01*
X005891Y000259D01*
X00595Y000247D01*
X00715D01*
X007209Y000259D01*
X007258Y000292D01*
X007291Y000341D01*
X007303Y0004D01*
Y002644D01*
X007349Y002663D01*
X007406Y002606D01*
Y00165D01*
X007421Y001576D01*
X007463Y001513D01*
X007713Y001263D01*
X007776Y001221D01*
X00785Y001206D01*
X007885D01*
Y000691D01*
X007996D01*
Y000591D01*
X007885D01*
Y000224D01*
X00785Y000189D01*
X005515Y000195D01*
Y000591D01*
X005404D01*
Y000691D01*
X005515D01*
Y001253D01*
X00515D01*
Y001142D01*
X00505D01*
Y001253D01*
X004685D01*
Y000691D01*
X004796D01*
Y000591D01*
X004685D01*
Y000232D01*
X00465Y000197D01*
X0013Y000205D01*
X00129Y000255D01*
X001379Y000291D01*
X00151Y000379D01*
X001621Y00049D01*
X001709Y000621D01*
X001769Y000767D01*
X0018Y000921D01*
Y001079D01*
X001769Y001233D01*
X001709Y001379D01*
X001621Y00151D01*
X00151Y001621D01*
X001379Y001709D01*
X001233Y001769D01*
X001079Y0018D01*
X000921D01*
X000767Y001769D01*
X000621Y001709D01*
X00049Y001621D01*
X000379Y00151D01*
X000291Y001379D01*
X000254Y001288D01*
X000204Y001298D01*
X000204Y024399D01*
X000254Y024404D01*
X000281Y024267D01*
X000341Y024121D01*
X000429Y02399D01*
X00054Y023879D01*
X000671Y023791D01*
X000817Y023731D01*
X000971Y0237D01*
X001129D01*
X001283Y023731D01*
X001429Y023791D01*
X00156Y023879D01*
X001671Y02399D01*
X001759Y024121D01*
X001819Y024267D01*
X00185Y024421D01*
Y024579D01*
X001819Y024733D01*
X001759Y024879D01*
X001671Y02501D01*
X00156Y025121D01*
X001447Y025196D01*
X001463Y025246D01*
X003351D01*
X00337Y0252D01*
D02*
G37*
G36*
X003775Y023524D02*
X00379Y023298D01*
X003795Y023279D01*
X0038Y023265D01*
X003806Y023256D01*
X003594D01*
X0036Y023265D01*
X003605Y023279D01*
X00361Y023298D01*
X003614Y023323D01*
X00362Y023388D01*
X003625Y023524D01*
X003625Y02358D01*
X003775D01*
X003775Y023524D01*
D02*
G37*
G36*
X01715Y025246D02*
X022549D01*
X022554Y025196D01*
X022417Y025169D01*
X022271Y025109D01*
X02214Y025021D01*
X022029Y02491D01*
X021941Y024779D01*
X021881Y024633D01*
X02185Y024479D01*
Y024321D01*
X021881Y024167D01*
X021941Y024021D01*
X022029Y02389D01*
X02214Y023779D01*
X022271Y023691D01*
X022417Y023631D01*
X022571Y0236D01*
X022729D01*
X022883Y023631D01*
X023029Y023691D01*
X02316Y023779D01*
X023271Y02389D01*
X023359Y024021D01*
X023419Y024167D01*
X023446Y024304D01*
X023496Y024299D01*
X023496Y001248D01*
X023446Y001238D01*
X023409Y001329D01*
X023321Y00146D01*
X02321Y001571D01*
X023079Y001659D01*
X022933Y001719D01*
X022779Y00175D01*
X022621D01*
X022467Y001719D01*
X022321Y001659D01*
X02219Y001571D01*
X022079Y00146D01*
X021991Y001329D01*
X021931Y001183D01*
X0219Y001029D01*
Y000871D01*
X021931Y000717D01*
X021991Y000571D01*
X022079Y00044D01*
X02219Y000329D01*
X022321Y000241D01*
X02241Y000204D01*
X0224Y000155D01*
X021499Y000157D01*
X021499Y000158D01*
X021499D01*
Y000385D01*
X021388D01*
Y000485D01*
X021499D01*
Y000712D01*
X021539Y000738D01*
X021549D01*
Y001392D01*
X021199D01*
Y005961D01*
X021245Y005981D01*
X021963Y005263D01*
X022026Y005221D01*
X0221Y005206D01*
X022533D01*
Y00475D01*
X023267D01*
Y00605D01*
X022533D01*
Y005594D01*
X02218D01*
X021444Y00633D01*
Y00675D01*
X021494Y006756D01*
X021517Y006671D01*
X021578Y006565D01*
X021665Y006478D01*
X021771Y006417D01*
X021889Y006385D01*
X022011D01*
X022129Y006417D01*
X022235Y006478D01*
X022322Y006565D01*
X022383Y006671D01*
X022415Y006789D01*
Y006911D01*
X022383Y007029D01*
X022322Y007135D01*
X022235Y007222D01*
X022129Y007283D01*
X022011Y007315D01*
X021889D01*
X021771Y007283D01*
X021665Y007222D01*
X021578Y007135D01*
X021517Y007029D01*
X021494Y006944D01*
X021444Y00695D01*
Y00875D01*
X021494Y008756D01*
X021517Y008671D01*
X021578Y008565D01*
X021665Y008478D01*
X021771Y008417D01*
X021889Y008385D01*
X022011D01*
X022129Y008417D01*
X022235Y008478D01*
X022322Y008565D01*
X022383Y008671D01*
X022415Y008789D01*
Y008911D01*
X022383Y009029D01*
X022322Y009135D01*
X022235Y009222D01*
X022129Y009283D01*
X022011Y009315D01*
X021889D01*
X021771Y009283D01*
X021665Y009222D01*
X021578Y009135D01*
X021517Y009029D01*
X021494Y008944D01*
X021444Y00895D01*
Y009364D01*
X021485Y009385D01*
X021494Y009385D01*
X022415D01*
Y010315D01*
X021485D01*
Y009899D01*
X021435Y009894D01*
X021429Y009924D01*
X021387Y009987D01*
X019137Y012237D01*
X019074Y012279D01*
X019Y012294D01*
X01513D01*
X014944Y01248D01*
Y013491D01*
X014958Y013501D01*
X015008Y013476D01*
Y012993D01*
X015058D01*
Y01285D01*
X015169D01*
Y01275D01*
X015058D01*
Y012543D01*
X0156D01*
Y012653D01*
X0157D01*
Y012543D01*
X016242D01*
Y01275D01*
X016131D01*
Y01285D01*
X016242D01*
Y012993D01*
X016292D01*
Y013096D01*
X0169D01*
X016978Y013112D01*
X017044Y013156D01*
X018434Y014546D01*
X020436D01*
X020439Y014546D01*
X020448Y014542D01*
X020462Y014536D01*
X020479Y014526D01*
X0205Y014512D01*
X020523Y014495D01*
X02058Y014444D01*
X020611Y014414D01*
X020623Y014406D01*
X020658Y01437D01*
X020767Y014308D01*
X020887Y014275D01*
X021013D01*
X021133Y014308D01*
X021242Y01437D01*
X02133Y014458D01*
X021392Y014567D01*
X021425Y014687D01*
Y014813D01*
X021392Y014933D01*
X021356Y014996D01*
X021385Y015046D01*
X02145D01*
X021523Y015061D01*
X021537Y01505D01*
X021559Y015022D01*
X021508Y014933D01*
X021475Y014813D01*
Y014687D01*
X021508Y014567D01*
X021561Y014474D01*
X021568Y014453D01*
X021548Y01441D01*
X021513Y014387D01*
X021313Y014187D01*
X02129Y014152D01*
X021247Y014132D01*
X021226Y014139D01*
X021133Y014192D01*
X021013Y014225D01*
X020887D01*
X020767Y014192D01*
X020658Y01413D01*
X02057Y014042D01*
X020508Y013933D01*
X020475Y013813D01*
Y013687D01*
X020508Y013567D01*
X02057Y013458D01*
X020658Y01337D01*
X020767Y013308D01*
X020872Y013279D01*
X020889Y01324D01*
X02089Y013225D01*
X02089Y013225D01*
X020887D01*
X020767Y013192D01*
X020658Y01313D01*
X02057Y013042D01*
X020508Y012933D01*
X020475Y012813D01*
Y012687D01*
X020508Y012567D01*
X02057Y012458D01*
X020658Y01237D01*
X020767Y012308D01*
X020887Y012275D01*
X021013D01*
X021133Y012308D01*
X021242Y01237D01*
X02133Y012458D01*
X021392Y012567D01*
X021425Y012687D01*
Y01269D01*
X021425Y01269D01*
X02144Y012689D01*
X021479Y012672D01*
X021508Y012567D01*
X02157Y012458D01*
X021658Y01237D01*
X021767Y012308D01*
X021887Y012275D01*
X022013D01*
X022133Y012308D01*
X022242Y01237D01*
X02233Y012458D01*
X022392Y012567D01*
X022425Y012687D01*
Y012813D01*
X022392Y012933D01*
X02233Y013042D01*
X022242Y01313D01*
X022133Y013192D01*
X022013Y013225D01*
X021887D01*
X021767Y013192D01*
X021658Y01313D01*
X021658Y01313D01*
X02162Y013162D01*
X021629Y013176D01*
X021644Y01325D01*
Y013321D01*
X021694Y01335D01*
X021767Y013308D01*
X021887Y013275D01*
X022013D01*
X022133Y013308D01*
X022242Y01337D01*
X022277Y013406D01*
X02229Y013414D01*
X022323Y013447D01*
X022383Y013501D01*
X022407Y01352D01*
X022429Y013535D01*
X022447Y013546D01*
X022461Y013553D01*
X022469Y013556D01*
X02265D01*
X022724Y013571D01*
X022787Y013613D01*
X023037Y013863D01*
X023079Y013926D01*
X023094Y014D01*
Y019351D01*
X023079Y019425D01*
X023037Y019488D01*
X022802Y019723D01*
Y020093D01*
X022128D01*
Y019494D01*
X021496D01*
X021238Y019752D01*
X021237Y019752D01*
Y020093D01*
X020563D01*
Y019478D01*
X020963D01*
X02117Y019271D01*
X021151Y019225D01*
X020475D01*
Y018954D01*
X01735D01*
X017272Y018938D01*
X017206Y018894D01*
X016816Y018504D01*
X016292D01*
Y018607D01*
X016242D01*
Y01875D01*
X016131D01*
Y01885D01*
X016242D01*
Y019057D01*
X0157D01*
Y018947D01*
X0156D01*
Y019057D01*
X015058D01*
Y01885D01*
X015169D01*
Y01875D01*
X015058D01*
Y018607D01*
X015008D01*
Y017993D01*
Y017494D01*
X0148D01*
X014726Y017479D01*
X014663Y017437D01*
X014163Y016937D01*
X014121Y016874D01*
X014106Y0168D01*
Y012642D01*
X00963D01*
Y012592D01*
X009488D01*
Y012481D01*
X009388D01*
Y012592D01*
X00918D01*
Y01205D01*
X009291D01*
Y01195D01*
X00918D01*
Y011408D01*
X009388D01*
Y011519D01*
X009488D01*
Y011408D01*
X00963D01*
Y011358D01*
X009744D01*
Y011144D01*
X00593D01*
X004518Y012556D01*
X004538Y012606D01*
X007094D01*
Y012493D01*
X008379D01*
Y012993D01*
Y013493D01*
Y013993D01*
Y014493D01*
Y014993D01*
Y015493D01*
Y015993D01*
Y016493D01*
Y016993D01*
Y017493D01*
Y018107D01*
X008329D01*
Y01825D01*
X008218D01*
Y01835D01*
X008329D01*
Y018493D01*
X008379D01*
Y019107D01*
X007254D01*
X007246Y019109D01*
X007244Y019109D01*
X007242Y019109D01*
X007161Y019107D01*
X007094D01*
Y019106D01*
X00704Y019105D01*
X007037Y019107D01*
Y019107D01*
X006895D01*
X006886Y019109D01*
X006885Y019109D01*
X006884Y019109D01*
X006876Y019107D01*
X006523D01*
X006514Y019109D01*
X006513Y019109D01*
X006511Y019109D01*
X006429Y019107D01*
X006363D01*
Y019107D01*
X006337Y019107D01*
X006337Y019107D01*
X006195D01*
X006186Y019109D01*
X006185Y019109D01*
X006184Y019109D01*
X006176Y019107D01*
X006012D01*
X005993Y01911D01*
X005818D01*
X005753Y019175D01*
Y019271D01*
X00595D01*
Y019382D01*
X00605D01*
Y019271D01*
X006287D01*
Y019478D01*
X006176D01*
Y019578D01*
X006287D01*
Y019786D01*
X00605D01*
Y019675D01*
X00595D01*
Y019786D01*
X005753D01*
Y0224D01*
X005742Y022478D01*
X005712Y022551D01*
X005664Y022614D01*
X004914Y023364D01*
X004851Y023412D01*
X004778Y023442D01*
X0047Y023453D01*
X003933D01*
X003929Y023512D01*
Y024492D01*
X00393Y024496D01*
X003932Y024507D01*
X003934Y024515D01*
X003935Y024518D01*
X003937Y02452D01*
X003943Y024526D01*
X003973Y024544D01*
X004056Y024627D01*
X004115Y024728D01*
X004145Y024841D01*
Y024959D01*
X004115Y025072D01*
X004056Y025173D01*
X00403Y0252D01*
X004049Y025246D01*
X004966D01*
X004987Y025196D01*
X004934Y025143D01*
X004882Y025053D01*
X004855Y024952D01*
Y024848D01*
X004882Y024747D01*
X004934Y024657D01*
X004935Y024656D01*
X005016Y024737D01*
X005087Y024666D01*
X005006Y024585D01*
X005007Y024584D01*
X005097Y024532D01*
X005198Y024505D01*
X005302D01*
X005403Y024532D01*
X005493Y024584D01*
X005494Y024585D01*
X005413Y024666D01*
X005484Y024737D01*
X005565Y024656D01*
X005566Y024657D01*
X005618Y024747D01*
X005645Y024848D01*
Y024952D01*
X005618Y025053D01*
X005566Y025143D01*
X005513Y025196D01*
X005534Y025246D01*
X0063D01*
X006309Y025248D01*
X006456Y025234D01*
X006606Y025188D01*
X006744Y025114D01*
X006865Y025015D01*
X006964Y024894D01*
X007038Y024756D01*
X007084Y024606D01*
X007098Y024459D01*
X007096Y02445D01*
Y023229D01*
X007046Y023208D01*
X006977Y023277D01*
X006856Y023347D01*
X00672Y023383D01*
X00658D01*
X006444Y023347D01*
X006323Y023277D01*
X006308Y023263D01*
X006389Y023182D01*
X006318Y023112D01*
X006238Y023192D01*
X006223Y023178D01*
X006153Y023056D01*
X006117Y022921D01*
Y02278D01*
X006153Y022645D01*
X006223Y022523D01*
X006238Y022509D01*
X006318Y022589D01*
X006389Y022518D01*
X006308Y022438D01*
X006323Y022424D01*
X006444Y022354D01*
X00658Y022317D01*
X00672D01*
X006856Y022354D01*
X006977Y022424D01*
X007046Y022493D01*
X007096Y022472D01*
Y0205D01*
X007097Y020495D01*
X00711Y020363D01*
X00715Y020231D01*
X007215Y020109D01*
X007303Y020003D01*
X007409Y019915D01*
X007531Y01985D01*
X007663Y01981D01*
X007795Y019797D01*
X0078Y019796D01*
X01565D01*
X015655Y019797D01*
X015787Y01981D01*
X015919Y01985D01*
X016041Y019915D01*
X016147Y020003D01*
X016235Y020109D01*
X0163Y020231D01*
X01634Y020363D01*
X016353Y020495D01*
X016354Y0205D01*
Y021D01*
Y02445D01*
X016352Y024459D01*
X016366Y024606D01*
X016412Y024756D01*
X016486Y024894D01*
X016585Y025015D01*
X016706Y025114D01*
X016844Y025188D01*
X016994Y025234D01*
X017141Y025248D01*
X01715Y025246D01*
D02*
G37*
G36*
X003598Y022572D02*
X0036Y022566D01*
X003604Y02256D01*
X00361Y022554D01*
X003617Y02255D01*
X003626Y022546D01*
X003637Y022544D01*
X003649Y022542D01*
X003663Y02254D01*
X003678Y02254D01*
Y02246D01*
X003663Y02246D01*
X003649Y022458D01*
X003637Y022456D01*
X003626Y022454D01*
X003617Y02245D01*
X00361Y022446D01*
X003604Y02244D01*
X0036Y022434D01*
X003598Y022428D01*
X003597Y02242D01*
Y02258D01*
X003598Y022572D01*
D02*
G37*
G36*
X000803Y022771D02*
X000812Y022746D01*
X000827Y022724D01*
X000848Y022704D01*
X000875Y022687D01*
X000908Y022674D01*
X000947Y022664D01*
X000992Y022656D01*
X001043Y022652D01*
X0011Y02265D01*
Y02235D01*
X001043Y022347D01*
X000992Y022338D01*
X000947Y022323D01*
X000908Y022302D01*
X000875Y022275D01*
X000848Y022242D01*
X000827Y022203D01*
X000812Y022158D01*
X000803Y022107D01*
X0008Y02205D01*
X0005Y0225D01*
X0008Y0228D01*
X000803Y022771D01*
D02*
G37*
G36*
X003598Y022072D02*
X0036Y022066D01*
X003604Y02206D01*
X00361Y022054D01*
X003617Y02205D01*
X003626Y022046D01*
X003637Y022044D01*
X003649Y022042D01*
X003663Y02204D01*
X003678Y02204D01*
Y02196D01*
X003663Y02196D01*
X003649Y021958D01*
X003637Y021956D01*
X003626Y021954D01*
X003617Y02195D01*
X00361Y021946D01*
X003604Y02194D01*
X0036Y021934D01*
X003598Y021928D01*
X003597Y02192D01*
Y02208D01*
X003598Y022072D01*
D02*
G37*
G36*
Y021572D02*
X0036Y021566D01*
X003604Y02156D01*
X00361Y021554D01*
X003617Y02155D01*
X003626Y021546D01*
X003637Y021544D01*
X003649Y021542D01*
X003663Y02154D01*
X003678Y02154D01*
Y02146D01*
X003663Y02146D01*
X003649Y021458D01*
X003637Y021456D01*
X003626Y021454D01*
X003617Y02145D01*
X00361Y021446D01*
X003604Y02144D01*
X0036Y021434D01*
X003598Y021428D01*
X003597Y02142D01*
Y02158D01*
X003598Y021572D01*
D02*
G37*
G36*
Y021072D02*
X0036Y021066D01*
X003604Y02106D01*
X00361Y021054D01*
X003617Y02105D01*
X003626Y021046D01*
X003637Y021044D01*
X003649Y021042D01*
X003663Y02104D01*
X003678Y02104D01*
Y02096D01*
X003663Y02096D01*
X003649Y020958D01*
X003637Y020956D01*
X003626Y020954D01*
X003617Y02095D01*
X00361Y020946D01*
X003604Y02094D01*
X0036Y020934D01*
X003598Y020928D01*
X003597Y02092D01*
Y02108D01*
X003598Y021072D01*
D02*
G37*
G36*
X003231Y020355D02*
X003214Y020349D01*
X003199Y020339D01*
X003186Y020325D01*
X003175Y020306D01*
X003166Y020284D01*
X003159Y020258D01*
X003154Y020228D01*
X003151Y020194D01*
X00315Y020156D01*
X00295D01*
X002949Y020194D01*
X002946Y020228D01*
X002941Y020258D01*
X002934Y020284D01*
X002925Y020306D01*
X002914Y020325D01*
X002901Y020339D01*
X002886Y020349D01*
X002869Y020355D01*
X00285Y020357D01*
X00325D01*
X003231Y020355D01*
D02*
G37*
G36*
X02108Y019737D02*
X021078Y019729D01*
X021078Y019721D01*
X021081Y019711D01*
X021085Y019701D01*
X021092Y019689D01*
X021101Y019676D01*
X021113Y019661D01*
X021142Y01963D01*
X021086Y019573D01*
X021069Y019589D01*
X02104Y019614D01*
X021027Y019623D01*
X021015Y01963D01*
X021004Y019635D01*
X020994Y019637D01*
X020986Y019637D01*
X020979Y019635D01*
X020973Y019631D01*
X021085Y019743D01*
X02108Y019737D01*
D02*
G37*
G36*
X022644Y019708D02*
X022641Y019702D01*
X02264Y019694D01*
X022642Y019685D01*
X022647Y019675D01*
X022654Y019663D01*
X022663Y019649D01*
X022675Y019634D01*
X022707Y0196D01*
X02265Y019545D01*
X022629Y019565D01*
X022576Y01961D01*
X022561Y019619D01*
X022548Y019627D01*
X022536Y019632D01*
X022525Y019634D01*
X022516Y019634D01*
X022508Y019631D01*
X02265Y019713D01*
X022644Y019708D01*
D02*
G37*
G36*
X005147Y022275D02*
Y019433D01*
X005141Y01943D01*
X005075Y019447D01*
X005065Y019465D01*
X00505Y019479D01*
X005044Y019489D01*
Y0215D01*
X005029Y021574D01*
X004987Y021637D01*
X003987Y022637D01*
X003924Y022679D01*
X00385Y022694D01*
X003749D01*
Y022796D01*
X002351D01*
Y022204D01*
Y021704D01*
Y021204D01*
Y020704D01*
Y020204D01*
X002767D01*
X002782Y020185D01*
Y020115D01*
X0028Y020047D01*
X002835Y019985D01*
X002885Y019935D01*
X002947Y0199D01*
X003015Y019882D01*
X003085D01*
X003153Y0199D01*
X003215Y019935D01*
X003265Y019985D01*
X0033Y020047D01*
X003318Y020115D01*
Y02016D01*
X00336Y020204D01*
X003749D01*
X003756Y020157D01*
Y017944D01*
X003269D01*
X003261Y017947D01*
X003247Y017954D01*
X003229Y017965D01*
X00321Y017978D01*
X003122Y018054D01*
X00309Y018086D01*
X003077Y018094D01*
X003042Y01813D01*
X002933Y018192D01*
X002813Y018225D01*
X002687D01*
X002567Y018192D01*
X002458Y01813D01*
X00237Y018042D01*
X002308Y017933D01*
X002275Y017813D01*
Y017687D01*
X002308Y017567D01*
X00237Y017458D01*
X002458Y01737D01*
X002567Y017308D01*
X002687Y017275D01*
X002813D01*
X002933Y017308D01*
X003042Y01737D01*
X003077Y017406D01*
X00309Y017414D01*
X003123Y017447D01*
X003183Y017501D01*
X003207Y01752D01*
X003229Y017535D01*
X003247Y017546D01*
X003261Y017553D01*
X003269Y017556D01*
X003756D01*
Y0173D01*
X003771Y017226D01*
X003813Y017163D01*
X004813Y016163D01*
X004876Y016121D01*
X00495Y016106D01*
X007094D01*
Y015994D01*
X00463D01*
X003737Y016887D01*
X003674Y016929D01*
X0036Y016944D01*
X003269D01*
X003261Y016947D01*
X003247Y016954D01*
X003229Y016965D01*
X00321Y016978D01*
X003122Y017054D01*
X00309Y017086D01*
X003077Y017094D01*
X003042Y01713D01*
X002933Y017192D01*
X002813Y017225D01*
X002687D01*
X002567Y017192D01*
X002458Y01713D01*
X00237Y017042D01*
X002308Y016933D01*
X002279Y016828D01*
X00224Y016811D01*
X002225Y01681D01*
X002225Y01681D01*
Y016813D01*
X002192Y016933D01*
X00213Y017042D01*
X002042Y01713D01*
X001933Y017192D01*
X001813Y017225D01*
X001687D01*
X001567Y017192D01*
X001458Y01713D01*
X00137Y017042D01*
X001308Y016933D01*
X001275Y016813D01*
Y016687D01*
X001308Y016567D01*
X00137Y016458D01*
X001458Y01637D01*
X001567Y016308D01*
X001687Y016275D01*
X00169D01*
X00169Y016275D01*
X001689Y01626D01*
X001672Y016221D01*
X001567Y016192D01*
X001458Y01613D01*
X00137Y016042D01*
X001308Y015933D01*
X001275Y015813D01*
Y015687D01*
X001308Y015567D01*
X00137Y015458D01*
X001458Y01537D01*
X001567Y015308D01*
X001687Y015275D01*
X00169D01*
X00169Y015275D01*
X001689Y01526D01*
X001672Y015221D01*
X001567Y015192D01*
X001458Y01513D01*
X00137Y015042D01*
X001308Y014933D01*
X001275Y014813D01*
Y014687D01*
X001308Y014567D01*
X00137Y014458D01*
X001458Y01437D01*
X001567Y014308D01*
X001687Y014275D01*
X00169D01*
X00169Y014275D01*
X001689Y01426D01*
X001672Y014221D01*
X001567Y014192D01*
X001458Y01413D01*
X00137Y014042D01*
X001308Y013933D01*
X001275Y013813D01*
Y013687D01*
X001308Y013567D01*
X00137Y013458D01*
X001458Y01337D01*
X001567Y013308D01*
X001687Y013275D01*
X001738D01*
X001753Y013272D01*
X001799Y013272D01*
X00188Y013268D01*
X00191Y013264D01*
X001937Y013259D01*
X001957Y013254D01*
X001972Y01325D01*
X00198Y013246D01*
X002113Y013113D01*
X002176Y013071D01*
X00225Y013056D01*
X002321D01*
X00235Y013006D01*
X002308Y012933D01*
X002275Y012813D01*
Y012687D01*
X002308Y012567D01*
X00237Y012458D01*
X002404Y012425D01*
X00241Y012415D01*
X002418Y012405D01*
X002422Y0124D01*
X002426Y012394D01*
X00243Y012384D01*
X002434Y012372D01*
X002438Y012357D01*
X002442Y012341D01*
X002446Y012292D01*
X002447Y012264D01*
X002447Y012262D01*
Y012238D01*
X002447Y012236D01*
X002446Y012206D01*
X002445Y012182D01*
X002442Y012161D01*
X002438Y012143D01*
X002434Y012128D01*
X00243Y012116D01*
X002426Y012106D01*
X002422Y0121D01*
X002418Y012095D01*
X00241Y012085D01*
X002404Y012075D01*
X00237Y012042D01*
X002308Y011933D01*
X002275Y011813D01*
Y011687D01*
X002308Y011567D01*
X00237Y011458D01*
X002404Y011425D01*
X00241Y011415D01*
X002418Y011405D01*
X002422Y0114D01*
X002426Y011394D01*
X00243Y011384D01*
X002434Y011372D01*
X002438Y011357D01*
X002442Y011341D01*
X002446Y011292D01*
X002447Y011264D01*
X002447Y011262D01*
Y011075D01*
X002036Y010664D01*
X001988Y010601D01*
X001958Y010528D01*
X001947Y01045D01*
Y010273D01*
X001897Y010244D01*
X001829Y010283D01*
X001711Y010315D01*
X001589D01*
X001471Y010283D01*
X001365Y010222D01*
X001332Y01019D01*
X001323Y010184D01*
X001314Y010177D01*
X001312Y010175D01*
X001306Y010172D01*
X001298Y010168D01*
X001287Y010164D01*
X001273Y010161D01*
X001257Y010158D01*
X001209Y010153D01*
X001181Y010153D01*
X001179Y010153D01*
X001109D01*
X001108Y010153D01*
X00106Y010155D01*
X00103Y010161D01*
X001008Y010168D01*
X000993Y010176D01*
X000984Y010184D01*
X000976Y010193D01*
X000968Y010208D01*
X000961Y01023D01*
X000955Y01026D01*
X000953Y010308D01*
X000953Y010309D01*
Y020254D01*
X001398D01*
Y020365D01*
X001498D01*
Y020254D01*
X002097D01*
Y02045D01*
X001986D01*
Y02055D01*
X002097D01*
Y020704D01*
X002147D01*
Y021296D01*
X002097D01*
Y02145D01*
X001986D01*
Y02155D01*
X002097D01*
Y021746D01*
X002097D01*
Y021754D01*
X002097D01*
Y02195D01*
X001986D01*
Y02205D01*
X002097D01*
Y022204D01*
X002147D01*
Y022796D01*
X001537D01*
X001535Y022797D01*
X001555Y022847D01*
X004575D01*
X005147Y022275D01*
D02*
G37*
G36*
X00489Y019471D02*
X004892Y01946D01*
X004894Y01945D01*
X004897Y01944D01*
X004901Y01943D01*
X004905Y01942D01*
X004911Y019411D01*
X004917Y019402D01*
X004925Y019393D01*
X004933Y019384D01*
X004767D01*
X004775Y019393D01*
X004783Y019402D01*
X004789Y019411D01*
X004795Y01942D01*
X004799Y01943D01*
X004803Y01944D01*
X004806Y01945D01*
X004808Y01946D01*
X00481Y019471D01*
X00481Y019482D01*
X00489D01*
X00489Y019471D01*
D02*
G37*
G36*
X004925Y019207D02*
X004917Y019198D01*
X004911Y019189D01*
X004905Y01918D01*
X004901Y01917D01*
X004897Y01916D01*
X004894Y01915D01*
X004892Y01914D01*
X00489Y019129D01*
X00489Y019118D01*
X00481D01*
X00481Y019129D01*
X004808Y01914D01*
X004806Y01915D01*
X004803Y01916D01*
X004799Y01917D01*
X004795Y01918D01*
X004789Y019189D01*
X004783Y019198D01*
X004775Y019207D01*
X004767Y019216D01*
X004933D01*
X004925Y019207D01*
D02*
G37*
G36*
X006514Y018644D02*
X006511Y018645D01*
X006502Y018646D01*
X006487Y018647D01*
X006391Y018648D01*
X006186Y018644D01*
Y018956D01*
X006189Y018955D01*
X006198Y018954D01*
X006213Y018953D01*
X006309Y018952D01*
X006514Y018956D01*
Y018644D01*
D02*
G37*
G36*
X007246D02*
X007243Y018645D01*
X007234Y018646D01*
X007219Y018647D01*
X007102Y018648D01*
X006886Y018644D01*
Y018956D01*
X006889Y018955D01*
X006898Y018954D01*
X006913Y018953D01*
X00703Y018952D01*
X007246Y018956D01*
Y018644D01*
D02*
G37*
G36*
X00459Y018921D02*
X004592Y01891D01*
X004594Y0189D01*
X004597Y01889D01*
X004601Y01888D01*
X004605Y01887D01*
X004611Y018861D01*
X004617Y018852D01*
X004625Y018843D01*
X004633Y018834D01*
X004467D01*
X004475Y018843D01*
X004483Y018852D01*
X004489Y018861D01*
X004495Y01887D01*
X004499Y01888D01*
X004503Y01889D01*
X004506Y0189D01*
X004508Y01891D01*
X00451Y018921D01*
X00451Y018932D01*
X00459D01*
X00459Y018921D01*
D02*
G37*
G36*
X020628Y01865D02*
X020627Y018659D01*
X020624Y018668D01*
X020618Y018676D01*
X020611Y018682D01*
X020602Y018687D01*
X020591Y018692D01*
X020578Y018695D01*
X020563Y018698D01*
X020546Y0187D01*
X020526Y0187D01*
Y0188D01*
X020546Y0188D01*
X020563Y018802D01*
X020578Y018805D01*
X020591Y018808D01*
X020602Y018813D01*
X020611Y018818D01*
X020618Y018824D01*
X020624Y018832D01*
X020627Y018841D01*
X020628Y01885D01*
Y01865D01*
D02*
G37*
G36*
X004625Y018657D02*
X004617Y018648D01*
X004611Y018639D01*
X004605Y01863D01*
X004601Y01862D01*
X004597Y01861D01*
X004594Y0186D01*
X004592Y01859D01*
X00459Y018579D01*
X00459Y018568D01*
X00451D01*
X00451Y018579D01*
X004508Y01859D01*
X004506Y0186D01*
X004503Y01861D01*
X004499Y01862D01*
X004495Y01863D01*
X004489Y018639D01*
X004483Y018648D01*
X004475Y018657D01*
X004467Y018666D01*
X004633D01*
X004625Y018657D01*
D02*
G37*
G36*
X021947Y018425D02*
X021899Y018425D01*
X021813Y018419D01*
X021775Y018414D01*
X021741Y018408D01*
X02171Y018399D01*
X021683Y018389D01*
X021659Y018378D01*
X021638Y018365D01*
X021621Y01835D01*
X02155Y018421D01*
X021565Y018438D01*
X021578Y018459D01*
X021589Y018483D01*
X021599Y01851D01*
X021608Y018541D01*
X021614Y018575D01*
X021619Y018613D01*
X021625Y018699D01*
X021625Y018747D01*
X021947Y018425D01*
D02*
G37*
G36*
X00429Y018421D02*
X004292Y01841D01*
X004294Y0184D01*
X004297Y01839D01*
X004301Y01838D01*
X004305Y01837D01*
X004311Y018361D01*
X004317Y018352D01*
X004325Y018343D01*
X004333Y018334D01*
X004167D01*
X004175Y018343D01*
X004183Y018352D01*
X004189Y018361D01*
X004195Y01837D01*
X004199Y01838D01*
X004203Y01839D01*
X004206Y0184D01*
X004208Y01841D01*
X00421Y018421D01*
X00421Y018432D01*
X00429D01*
X00429Y018421D01*
D02*
G37*
G36*
X016141Y018391D02*
X016144Y018382D01*
X016149Y018375D01*
X016156Y018368D01*
X016165Y018362D01*
X016176Y018358D01*
X016189Y018355D01*
X016204Y018352D01*
X016222Y01835D01*
X016241Y01835D01*
Y01825D01*
X016222Y018249D01*
X016204Y018248D01*
X016189Y018246D01*
X016176Y018242D01*
X016165Y018238D01*
X016156Y018232D01*
X016149Y018226D01*
X016144Y018218D01*
X016141Y01821D01*
X01614Y0182D01*
Y0184D01*
X016141Y018391D01*
D02*
G37*
G36*
X004325Y018157D02*
X004317Y018148D01*
X004311Y018139D01*
X004305Y01813D01*
X004301Y01812D01*
X004297Y01811D01*
X004294Y0181D01*
X004292Y01809D01*
X00429Y018079D01*
X00429Y018068D01*
X00421D01*
X00421Y018079D01*
X004208Y01809D01*
X004206Y0181D01*
X004203Y01811D01*
X004199Y01812D01*
X004195Y01813D01*
X004189Y018139D01*
X004183Y018148D01*
X004175Y018157D01*
X004167Y018166D01*
X004333D01*
X004325Y018157D01*
D02*
G37*
G36*
X005147Y019167D02*
Y01905D01*
X005158Y018972D01*
X005188Y018899D01*
X005236Y018836D01*
X005479Y018594D01*
X005541Y018545D01*
X005614Y018515D01*
X005663Y018509D01*
Y018493D01*
X006177D01*
X006186Y018491D01*
X006187Y018491D01*
X006189Y018491D01*
X006271Y018493D01*
X006337D01*
Y018493D01*
X006363Y018493D01*
X006363Y018493D01*
X006505D01*
X006514Y018491D01*
X006515Y018491D01*
X006516Y018491D01*
X006524Y018493D01*
X006877D01*
X006886Y018491D01*
X006887Y018491D01*
X006889Y018491D01*
X006971Y018493D01*
X007037D01*
Y018494D01*
X007092Y018495D01*
X007094Y018493D01*
Y018493D01*
X007144D01*
Y01835D01*
X007255D01*
Y01825D01*
X007144D01*
Y018107D01*
X007094D01*
Y017994D01*
X00523D01*
X005044Y01818D01*
Y019111D01*
X00505Y019121D01*
X005065Y019135D01*
X005075Y019153D01*
X005141Y01917D01*
X005147Y019167D01*
D02*
G37*
G36*
X007247Y01772D02*
X007246Y017728D01*
X007244Y017734D01*
X00724Y01774D01*
X007234Y017746D01*
X007227Y01775D01*
X007218Y017754D01*
X007207Y017756D01*
X007195Y017758D01*
X007181Y01776D01*
X007166Y01776D01*
Y01784D01*
X007181Y01784D01*
X007195Y017842D01*
X007207Y017844D01*
X007218Y017846D01*
X007227Y01785D01*
X007234Y017854D01*
X00724Y01786D01*
X007244Y017866D01*
X007246Y017872D01*
X007247Y01788D01*
Y01772D01*
D02*
G37*
G36*
X016141Y01789D02*
X016144Y017882D01*
X016149Y017874D01*
X016156Y017868D01*
X016165Y017862D01*
X016176Y017858D01*
X016189Y017854D01*
X016204Y017852D01*
X016222Y017851D01*
X016241Y01785D01*
Y01775D01*
X016222Y01775D01*
X016204Y017748D01*
X016189Y017745D01*
X016176Y017742D01*
X016165Y017737D01*
X016156Y017732D01*
X016149Y017725D01*
X016144Y017718D01*
X016141Y017709D01*
X01614Y0177D01*
Y0179D01*
X016141Y01789D01*
D02*
G37*
G36*
X00399Y01775D02*
X00391Y01763D01*
X003909Y017645D01*
X003907Y017659D01*
X003903Y017671D01*
X003897Y017681D01*
X00389Y01769D01*
X003881Y017697D01*
X003871Y017703D01*
X003859Y017707D01*
X003845Y017709D01*
X00383Y01771D01*
Y01779D01*
X003845Y017791D01*
X003859Y017793D01*
X003871Y017797D01*
X003881Y017803D01*
X00389Y01781D01*
X003897Y017819D01*
X003903Y017829D01*
X003907Y017841D01*
X003909Y017855D01*
X00391Y01787D01*
X00399Y01775D01*
D02*
G37*
G36*
X020718Y017523D02*
X020684Y017556D01*
X020619Y017613D01*
X020589Y017636D01*
X02056Y017656D01*
X020532Y017672D01*
X020506Y017684D01*
X020481Y017693D01*
X020457Y017698D01*
X020434Y0177D01*
Y0178D01*
X020457Y017802D01*
X020481Y017807D01*
X020506Y017816D01*
X020532Y017828D01*
X02056Y017844D01*
X020589Y017864D01*
X020619Y017887D01*
X020684Y017944D01*
X020718Y017977D01*
Y017523D01*
D02*
G37*
G36*
X003018Y017942D02*
X003116Y017857D01*
X003145Y017837D01*
X003173Y01782D01*
X003199Y017807D01*
X003223Y017797D01*
X003246Y017792D01*
X003267Y01779D01*
Y01771D01*
X003246Y017708D01*
X003223Y017703D01*
X003199Y017693D01*
X003173Y01768D01*
X003145Y017663D01*
X003116Y017643D01*
X003085Y017618D01*
X003018Y017558D01*
X002982Y017523D01*
Y017977D01*
X003018Y017942D01*
D02*
G37*
G36*
X021947Y017425D02*
X021899Y017425D01*
X021813Y017419D01*
X021775Y017414D01*
X021741Y017408D01*
X02171Y017399D01*
X021683Y017389D01*
X021659Y017378D01*
X021638Y017365D01*
X021621Y01735D01*
X02155Y017421D01*
X021565Y017438D01*
X021578Y017459D01*
X021589Y017483D01*
X021599Y01751D01*
X021608Y017541D01*
X021614Y017575D01*
X021619Y017613D01*
X021625Y017699D01*
X021625Y017747D01*
X021947Y017425D01*
D02*
G37*
G36*
X01516Y01722D02*
X015159Y017228D01*
X015157Y017234D01*
X015153Y01724D01*
X015147Y017246D01*
X01514Y01725D01*
X015131Y017254D01*
X01512Y017256D01*
X015108Y017258D01*
X015094Y01726D01*
X015079Y01726D01*
Y01734D01*
X015094Y01734D01*
X015108Y017342D01*
X01512Y017344D01*
X015131Y017346D01*
X01514Y01735D01*
X015147Y017354D01*
X015153Y01736D01*
X015157Y017366D01*
X015159Y017372D01*
X01516Y01738D01*
Y01722D01*
D02*
G37*
G36*
X007247D02*
X007246Y017228D01*
X007244Y017234D01*
X00724Y01724D01*
X007234Y017246D01*
X007227Y01725D01*
X007218Y017254D01*
X007207Y017256D01*
X007195Y017258D01*
X007181Y01726D01*
X007166Y01726D01*
Y01734D01*
X007181Y01734D01*
X007195Y017342D01*
X007207Y017344D01*
X007218Y017346D01*
X007227Y01735D01*
X007234Y017354D01*
X00724Y01736D01*
X007244Y017366D01*
X007246Y017372D01*
X007247Y01738D01*
Y01722D01*
D02*
G37*
G36*
Y01672D02*
X007246Y016728D01*
X007244Y016734D01*
X00724Y01674D01*
X007234Y016746D01*
X007227Y01675D01*
X007218Y016754D01*
X007207Y016756D01*
X007195Y016758D01*
X007181Y01676D01*
X007166Y01676D01*
Y01684D01*
X007181Y01684D01*
X007195Y016842D01*
X007207Y016844D01*
X007218Y016846D01*
X007227Y01685D01*
X007234Y016854D01*
X00724Y01686D01*
X007244Y016866D01*
X007246Y016872D01*
X007247Y01688D01*
Y01672D01*
D02*
G37*
G36*
X016141Y01689D02*
X016144Y016882D01*
X016149Y016875D01*
X016156Y016868D01*
X016165Y016862D01*
X016176Y016858D01*
X016189Y016854D01*
X016204Y016852D01*
X016222Y016851D01*
X016241Y01685D01*
Y01675D01*
X016222Y01675D01*
X016204Y016748D01*
X016189Y016746D01*
X016176Y016742D01*
X016165Y016738D01*
X016156Y016732D01*
X016149Y016725D01*
X016144Y016718D01*
X016141Y01671D01*
X01614Y0167D01*
Y0169D01*
X016141Y01689D01*
D02*
G37*
G36*
X020718Y016523D02*
X020684Y016556D01*
X020619Y016613D01*
X020589Y016636D01*
X02056Y016656D01*
X020532Y016672D01*
X020506Y016684D01*
X020481Y016693D01*
X020457Y016698D01*
X020434Y0167D01*
Y0168D01*
X020457Y016802D01*
X020481Y016807D01*
X020506Y016816D01*
X020532Y016828D01*
X02056Y016844D01*
X020589Y016864D01*
X020619Y016887D01*
X020684Y016944D01*
X020718Y016977D01*
Y016523D01*
D02*
G37*
G36*
X003018Y016942D02*
X003116Y016857D01*
X003145Y016837D01*
X003173Y01682D01*
X003199Y016807D01*
X003223Y016797D01*
X003246Y016792D01*
X003267Y01679D01*
Y01671D01*
X003246Y016708D01*
X003223Y016703D01*
X003199Y016693D01*
X003173Y01668D01*
X003145Y016663D01*
X003116Y016643D01*
X003085Y016618D01*
X003018Y016558D01*
X002982Y016523D01*
Y016977D01*
X003018Y016942D01*
D02*
G37*
G36*
X002075Y016696D02*
X002085Y016567D01*
X002091Y016532D01*
X002098Y016501D01*
X002108Y016473D01*
X002118Y016449D01*
X00213Y016429D01*
X002144Y016413D01*
X002087Y016356D01*
X002071Y01637D01*
X002051Y016382D01*
X002027Y016392D01*
X001999Y016402D01*
X001968Y016409D01*
X001933Y016415D01*
X001894Y01642D01*
X001804Y016425D01*
X001753Y016425D01*
X002075Y016747D01*
X002075Y016696D01*
D02*
G37*
G36*
X021947Y016425D02*
X021899Y016425D01*
X021813Y016419D01*
X021775Y016414D01*
X021741Y016408D01*
X02171Y016399D01*
X021683Y016389D01*
X021659Y016378D01*
X021638Y016365D01*
X021621Y01635D01*
X02155Y016421D01*
X021565Y016438D01*
X021578Y016459D01*
X021589Y016483D01*
X021599Y01651D01*
X021608Y016541D01*
X021614Y016575D01*
X021619Y016613D01*
X021625Y016699D01*
X021625Y016747D01*
X021947Y016425D01*
D02*
G37*
G36*
X007247Y01622D02*
X007246Y016228D01*
X007244Y016234D01*
X00724Y01624D01*
X007234Y016246D01*
X007227Y01625D01*
X007218Y016254D01*
X007207Y016256D01*
X007195Y016258D01*
X007181Y01626D01*
X007166Y01626D01*
Y01634D01*
X007181Y01634D01*
X007195Y016342D01*
X007207Y016344D01*
X007218Y016346D01*
X007227Y01635D01*
X007234Y016354D01*
X00724Y01636D01*
X007244Y016366D01*
X007246Y016372D01*
X007247Y01638D01*
Y01622D01*
D02*
G37*
G36*
X016141Y016391D02*
X016144Y016382D01*
X016149Y016374D01*
X016156Y016368D01*
X016165Y016363D01*
X016176Y016358D01*
X016189Y016355D01*
X016204Y016352D01*
X016222Y016351D01*
X016241Y01635D01*
Y01625D01*
X016222Y01625D01*
X016204Y016248D01*
X016189Y016245D01*
X016176Y016242D01*
X016165Y016237D01*
X016156Y016232D01*
X016149Y016226D01*
X016144Y016218D01*
X016141Y016209D01*
X01614Y0162D01*
Y0164D01*
X016141Y016391D01*
D02*
G37*
G36*
X015043Y015875D02*
X015052Y015867D01*
X015061Y015861D01*
X01507Y015855D01*
X01508Y015851D01*
X01509Y015847D01*
X0151Y015844D01*
X01511Y015842D01*
X01512Y015844D01*
X015131Y015846D01*
X01514Y01585D01*
X015147Y015854D01*
X015153Y01586D01*
X015157Y015866D01*
X015159Y015872D01*
X01516Y01588D01*
Y01572D01*
X015159Y015728D01*
X015157Y015734D01*
X015153Y01574D01*
X015147Y015746D01*
X01514Y01575D01*
X015131Y015754D01*
X01512Y015756D01*
X01511Y015758D01*
X0151Y015756D01*
X01509Y015753D01*
X01508Y015749D01*
X01507Y015745D01*
X015061Y015739D01*
X015052Y015733D01*
X015043Y015725D01*
X015034Y015717D01*
Y015883D01*
X015043Y015875D01*
D02*
G37*
G36*
X007247Y01572D02*
X007246Y015728D01*
X007244Y015734D01*
X00724Y01574D01*
X007234Y015746D01*
X007227Y01575D01*
X007218Y015754D01*
X007207Y015756D01*
X007195Y015758D01*
X007181Y01576D01*
X007166Y01576D01*
Y01584D01*
X007181Y01584D01*
X007195Y015842D01*
X007207Y015844D01*
X007218Y015846D01*
X007227Y01585D01*
X007234Y015854D01*
X00724Y01586D01*
X007244Y015866D01*
X007246Y015872D01*
X007247Y01588D01*
Y01572D01*
D02*
G37*
G36*
X016141Y015891D02*
X016144Y015882D01*
X016149Y015875D01*
X016156Y015868D01*
X016165Y015862D01*
X016176Y015858D01*
X016189Y015855D01*
X016204Y015852D01*
X016222Y01585D01*
X016241Y01585D01*
Y01575D01*
X016222Y015749D01*
X016204Y015748D01*
X016189Y015746D01*
X016176Y015742D01*
X016165Y015738D01*
X016156Y015732D01*
X016149Y015726D01*
X016144Y015718D01*
X016141Y01571D01*
X01614Y0157D01*
Y0159D01*
X016141Y015891D01*
D02*
G37*
G36*
X020718Y015523D02*
X020684Y015556D01*
X020619Y015613D01*
X020589Y015636D01*
X02056Y015656D01*
X020532Y015672D01*
X020506Y015684D01*
X020481Y015693D01*
X020457Y015698D01*
X020434Y0157D01*
Y0158D01*
X020457Y015802D01*
X020481Y015807D01*
X020506Y015816D01*
X020532Y015828D01*
X02056Y015844D01*
X020589Y015864D01*
X020619Y015887D01*
X020684Y015944D01*
X020718Y015977D01*
Y015523D01*
D02*
G37*
G36*
X003018Y015942D02*
X003116Y015857D01*
X003145Y015837D01*
X003173Y01582D01*
X003199Y015807D01*
X003223Y015797D01*
X003246Y015792D01*
X003267Y01579D01*
Y01571D01*
X003246Y015708D01*
X003223Y015703D01*
X003199Y015693D01*
X003173Y01568D01*
X003145Y015663D01*
X003116Y015643D01*
X003085Y015618D01*
X003018Y015558D01*
X002982Y015523D01*
Y015977D01*
X003018Y015942D01*
D02*
G37*
G36*
X002075Y015696D02*
X002085Y015567D01*
X002091Y015532D01*
X002098Y015501D01*
X002108Y015473D01*
X002118Y015449D01*
X00213Y015429D01*
X002144Y015413D01*
X002087Y015356D01*
X002071Y01537D01*
X002051Y015382D01*
X002027Y015392D01*
X001999Y015402D01*
X001968Y015409D01*
X001933Y015415D01*
X001894Y01542D01*
X001804Y015425D01*
X001753Y015425D01*
X002075Y015747D01*
X002075Y015696D01*
D02*
G37*
G36*
X021947Y015425D02*
X021899Y015425D01*
X021813Y015419D01*
X021775Y015414D01*
X021741Y015408D01*
X02171Y015399D01*
X021683Y015389D01*
X021659Y015378D01*
X021638Y015365D01*
X021621Y01535D01*
X02155Y015421D01*
X021565Y015438D01*
X021578Y015459D01*
X021589Y015483D01*
X021599Y01551D01*
X021608Y015541D01*
X021614Y015575D01*
X021619Y015613D01*
X021625Y015699D01*
X021625Y015747D01*
X021947Y015425D01*
D02*
G37*
G36*
X01516Y01522D02*
X015159Y015228D01*
X015157Y015234D01*
X015153Y01524D01*
X015147Y015246D01*
X01514Y01525D01*
X015131Y015254D01*
X01512Y015256D01*
X015108Y015258D01*
X015094Y01526D01*
X015079Y01526D01*
Y01534D01*
X015094Y01534D01*
X015108Y015342D01*
X01512Y015344D01*
X015131Y015346D01*
X01514Y01535D01*
X015147Y015354D01*
X015153Y01536D01*
X015157Y015366D01*
X015159Y015372D01*
X01516Y01538D01*
Y01522D01*
D02*
G37*
G36*
X007247D02*
X007246Y015228D01*
X007244Y015234D01*
X00724Y01524D01*
X007234Y015246D01*
X007227Y01525D01*
X007218Y015254D01*
X007207Y015256D01*
X007195Y015258D01*
X007181Y01526D01*
X007166Y01526D01*
Y01534D01*
X007181Y01534D01*
X007195Y015342D01*
X007207Y015344D01*
X007218Y015346D01*
X007227Y01535D01*
X007234Y015354D01*
X00724Y01536D01*
X007244Y015366D01*
X007246Y015372D01*
X007247Y01538D01*
Y01522D01*
D02*
G37*
G36*
X014693Y015375D02*
X014702Y015367D01*
X014711Y015361D01*
X01472Y015355D01*
X01473Y015351D01*
X01474Y015347D01*
X01475Y015344D01*
X01476Y015342D01*
X014771Y01534D01*
X014782Y01534D01*
Y01526D01*
X014771Y01526D01*
X01476Y015258D01*
X01475Y015256D01*
X01474Y015253D01*
X01473Y015249D01*
X01472Y015245D01*
X014711Y015239D01*
X014702Y015233D01*
X014693Y015225D01*
X014684Y015217D01*
Y015383D01*
X014693Y015375D01*
D02*
G37*
G36*
X016141Y01539D02*
X016144Y015382D01*
X016149Y015374D01*
X016156Y015368D01*
X016165Y015362D01*
X016176Y015358D01*
X016189Y015354D01*
X016204Y015352D01*
X016222Y015351D01*
X016241Y01535D01*
Y01525D01*
X016222Y01525D01*
X016204Y015248D01*
X016189Y015245D01*
X016176Y015242D01*
X016165Y015237D01*
X016156Y015232D01*
X016149Y015225D01*
X016144Y015218D01*
X016141Y015209D01*
X01614Y0152D01*
Y0154D01*
X016141Y01539D01*
D02*
G37*
G36*
X007247Y01472D02*
X007246Y014728D01*
X007244Y014734D01*
X00724Y01474D01*
X007234Y014746D01*
X007227Y01475D01*
X007218Y014754D01*
X007207Y014756D01*
X007195Y014758D01*
X007181Y01476D01*
X007166Y01476D01*
Y01484D01*
X007181Y01484D01*
X007195Y014842D01*
X007207Y014844D01*
X007218Y014846D01*
X007227Y01485D01*
X007234Y014854D01*
X00724Y01486D01*
X007244Y014866D01*
X007246Y014872D01*
X007247Y01488D01*
Y01472D01*
D02*
G37*
G36*
X016141Y014891D02*
X016144Y014882D01*
X016149Y014875D01*
X016156Y014868D01*
X016165Y014863D01*
X016176Y014858D01*
X016189Y014855D01*
X016204Y014852D01*
X016222Y01485D01*
X016241Y01485D01*
Y01475D01*
X016222Y014749D01*
X016204Y014748D01*
X016189Y014746D01*
X016176Y014742D01*
X016165Y014737D01*
X016156Y014732D01*
X016149Y014726D01*
X016144Y014718D01*
X016141Y01471D01*
X01614Y0147D01*
Y0149D01*
X016141Y014891D01*
D02*
G37*
G36*
X020718Y014523D02*
X020684Y014556D01*
X020619Y014613D01*
X020589Y014636D01*
X02056Y014656D01*
X020532Y014672D01*
X020506Y014684D01*
X020481Y014693D01*
X020457Y014698D01*
X020434Y0147D01*
Y0148D01*
X020457Y014802D01*
X020481Y014807D01*
X020506Y014816D01*
X020532Y014828D01*
X02056Y014844D01*
X020589Y014864D01*
X020619Y014887D01*
X020684Y014944D01*
X020718Y014977D01*
Y014523D01*
D02*
G37*
G36*
X003018Y014942D02*
X003116Y014857D01*
X003145Y014837D01*
X003173Y01482D01*
X003199Y014807D01*
X003223Y014797D01*
X003246Y014792D01*
X003267Y01479D01*
Y01471D01*
X003246Y014708D01*
X003223Y014703D01*
X003199Y014693D01*
X003173Y01468D01*
X003145Y014663D01*
X003116Y014643D01*
X003085Y014618D01*
X003018Y014558D01*
X002982Y014523D01*
Y014977D01*
X003018Y014942D01*
D02*
G37*
G36*
X002075Y014696D02*
X002085Y014567D01*
X002091Y014532D01*
X002098Y014501D01*
X002108Y014473D01*
X002118Y014449D01*
X00213Y014429D01*
X002144Y014413D01*
X002087Y014356D01*
X002071Y01437D01*
X002051Y014382D01*
X002027Y014392D01*
X001999Y014402D01*
X001968Y014409D01*
X001933Y014415D01*
X001894Y01442D01*
X001804Y014425D01*
X001753Y014425D01*
X002075Y014747D01*
X002075Y014696D01*
D02*
G37*
G36*
X007247Y01422D02*
X007246Y014228D01*
X007244Y014234D01*
X00724Y01424D01*
X007234Y014246D01*
X007227Y01425D01*
X007218Y014254D01*
X007207Y014256D01*
X007195Y014258D01*
X007181Y01426D01*
X007166Y01426D01*
Y01434D01*
X007181Y01434D01*
X007195Y014342D01*
X007207Y014344D01*
X007218Y014346D01*
X007227Y01435D01*
X007234Y014354D01*
X00724Y01436D01*
X007244Y014366D01*
X007246Y014372D01*
X007247Y01438D01*
Y01422D01*
D02*
G37*
G36*
X016141Y01439D02*
X016144Y014382D01*
X016149Y014375D01*
X016156Y014368D01*
X016165Y014362D01*
X016176Y014358D01*
X016189Y014354D01*
X016204Y014352D01*
X016222Y014351D01*
X016241Y01435D01*
Y01425D01*
X016222Y01425D01*
X016204Y014248D01*
X016189Y014246D01*
X016176Y014242D01*
X016165Y014238D01*
X016156Y014232D01*
X016149Y014225D01*
X016144Y014218D01*
X016141Y01421D01*
X01614Y0142D01*
Y0144D01*
X016141Y01439D01*
D02*
G37*
G36*
X01516Y01372D02*
X015159Y013728D01*
X015157Y013734D01*
X015153Y01374D01*
X015147Y013746D01*
X01514Y01375D01*
X015131Y013754D01*
X01512Y013756D01*
X015108Y013758D01*
X015094Y01376D01*
X015079Y01376D01*
Y01384D01*
X015094Y01384D01*
X015108Y013842D01*
X01512Y013844D01*
X015131Y013846D01*
X01514Y01385D01*
X015147Y013854D01*
X015153Y01386D01*
X015157Y013866D01*
X015159Y013872D01*
X01516Y01388D01*
Y01372D01*
D02*
G37*
G36*
X007247D02*
X007246Y013728D01*
X007244Y013734D01*
X00724Y01374D01*
X007234Y013746D01*
X007227Y01375D01*
X007218Y013754D01*
X007207Y013756D01*
X007195Y013758D01*
X007181Y01376D01*
X007166Y01376D01*
Y01384D01*
X007181Y01384D01*
X007195Y013842D01*
X007207Y013844D01*
X007218Y013846D01*
X007227Y01385D01*
X007234Y013854D01*
X00724Y01386D01*
X007244Y013866D01*
X007246Y013872D01*
X007247Y01388D01*
Y01372D01*
D02*
G37*
G36*
X006893Y013875D02*
X006902Y013867D01*
X006911Y013861D01*
X00692Y013855D01*
X00693Y013851D01*
X00694Y013847D01*
X00695Y013844D01*
X00696Y013842D01*
X006971Y01384D01*
X006982Y01384D01*
Y01376D01*
X006971Y01376D01*
X00696Y013758D01*
X00695Y013756D01*
X00694Y013753D01*
X00693Y013749D01*
X00692Y013745D01*
X006911Y013739D01*
X006902Y013733D01*
X006893Y013725D01*
X006884Y013717D01*
Y013883D01*
X006893Y013875D01*
D02*
G37*
G36*
X006716Y013717D02*
X006707Y013725D01*
X006698Y013733D01*
X006689Y013739D01*
X00668Y013745D01*
X00667Y013749D01*
X00666Y013753D01*
X00665Y013756D01*
X00664Y013758D01*
X006629Y01376D01*
X006618Y01376D01*
Y01384D01*
X006629Y01384D01*
X00664Y013842D01*
X00665Y013844D01*
X00666Y013847D01*
X00667Y013851D01*
X00668Y013855D01*
X006689Y013861D01*
X006698Y013867D01*
X006707Y013875D01*
X006716Y013883D01*
Y013717D01*
D02*
G37*
G36*
X022218Y013942D02*
X022316Y013857D01*
X022345Y013837D01*
X022373Y01382D01*
X022399Y013807D01*
X022423Y013797D01*
X022446Y013792D01*
X022467Y01379D01*
Y01371D01*
X022446Y013708D01*
X022423Y013703D01*
X022399Y013693D01*
X022373Y01368D01*
X022345Y013663D01*
X022316Y013643D01*
X022285Y013618D01*
X022218Y013558D01*
X022182Y013523D01*
Y013977D01*
X022218Y013942D01*
D02*
G37*
G36*
X003018D02*
X003116Y013857D01*
X003145Y013837D01*
X003173Y01382D01*
X003199Y013807D01*
X003223Y013797D01*
X003246Y013792D01*
X003267Y01379D01*
Y01371D01*
X003246Y013708D01*
X003223Y013703D01*
X003199Y013693D01*
X003173Y01368D01*
X003145Y013663D01*
X003116Y013643D01*
X003085Y013618D01*
X003018Y013558D01*
X002982Y013523D01*
Y013977D01*
X003018Y013942D01*
D02*
G37*
G36*
X002075Y013696D02*
X002085Y013567D01*
X002091Y013532D01*
X002098Y013501D01*
X002108Y013473D01*
X002118Y013449D01*
X00213Y013429D01*
X002144Y013413D01*
X002087Y013356D01*
X002071Y01337D01*
X002051Y013382D01*
X002027Y013392D01*
X001999Y013402D01*
X001968Y013409D01*
X001933Y013415D01*
X001894Y01342D01*
X001804Y013425D01*
X001753Y013425D01*
X002075Y013747D01*
X002075Y013696D01*
D02*
G37*
G36*
X007247Y01322D02*
X007246Y013228D01*
X007244Y013234D01*
X00724Y01324D01*
X007234Y013246D01*
X007227Y01325D01*
X007218Y013254D01*
X007207Y013256D01*
X007195Y013258D01*
X007181Y01326D01*
X007166Y01326D01*
Y01334D01*
X007181Y01334D01*
X007195Y013342D01*
X007207Y013344D01*
X007218Y013346D01*
X007227Y01335D01*
X007234Y013354D01*
X00724Y01336D01*
X007244Y013366D01*
X007246Y013372D01*
X007247Y01338D01*
Y01322D01*
D02*
G37*
G36*
X016141Y013391D02*
X016144Y013382D01*
X016149Y013375D01*
X016156Y013368D01*
X016165Y013362D01*
X016176Y013358D01*
X016189Y013355D01*
X016204Y013352D01*
X016222Y01335D01*
X016241Y01335D01*
Y01325D01*
X016222Y013249D01*
X016204Y013248D01*
X016189Y013246D01*
X016176Y013242D01*
X016165Y013238D01*
X016156Y013232D01*
X016149Y013226D01*
X016144Y013218D01*
X016141Y01321D01*
X01614Y0132D01*
Y0134D01*
X016141Y013391D01*
D02*
G37*
G36*
X021344Y013087D02*
X02133Y013071D01*
X021318Y013051D01*
X021308Y013027D01*
X021298Y012999D01*
X021291Y012968D01*
X021285Y012933D01*
X02128Y012894D01*
X021275Y012804D01*
X021275Y012753D01*
X020953Y013075D01*
X021004Y013075D01*
X021133Y013085D01*
X021168Y013091D01*
X021199Y013098D01*
X021227Y013108D01*
X021251Y013118D01*
X021271Y01313D01*
X021287Y013144D01*
X021344Y013087D01*
D02*
G37*
G36*
X007247Y01272D02*
X007246Y012728D01*
X007244Y012734D01*
X00724Y01274D01*
X007234Y012746D01*
X007227Y01275D01*
X007218Y012754D01*
X007207Y012756D01*
X007195Y012758D01*
X007181Y01276D01*
X007166Y01276D01*
Y01284D01*
X007181Y01284D01*
X007195Y012842D01*
X007207Y012844D01*
X007218Y012846D01*
X007227Y01285D01*
X007234Y012854D01*
X00724Y01286D01*
X007244Y012866D01*
X007246Y012872D01*
X007247Y01288D01*
Y01272D01*
D02*
G37*
G36*
X002963Y012502D02*
X00295Y012484D01*
X002938Y012464D01*
X002928Y012441D01*
X002919Y012417D01*
X002912Y012391D01*
X002907Y012363D01*
X002903Y012333D01*
X002901Y012301D01*
X0029Y012267D01*
X0026D01*
X002599Y012301D01*
X002593Y012363D01*
X002588Y012391D01*
X002581Y012417D01*
X002572Y012441D01*
X002562Y012464D01*
X00255Y012484D01*
X002537Y012502D01*
X002523Y012518D01*
X002977D01*
X002963Y012502D01*
D02*
G37*
G36*
X002901Y012199D02*
X002907Y012137D01*
X002912Y012109D01*
X002919Y012083D01*
X002928Y012059D01*
X002938Y012036D01*
X00295Y012016D01*
X002963Y011998D01*
X002977Y011982D01*
X002523D01*
X002537Y011998D01*
X00255Y012016D01*
X002562Y012036D01*
X002572Y012059D01*
X002581Y012083D01*
X002588Y012109D01*
X002593Y012137D01*
X002597Y012167D01*
X002599Y012199D01*
X0026Y012233D01*
X0029D01*
X002901Y012199D01*
D02*
G37*
G36*
X015043Y011725D02*
X015052Y011717D01*
X015061Y011711D01*
X01507Y011705D01*
X01508Y011701D01*
X01509Y011697D01*
X0151Y011694D01*
X01511Y011692D01*
X015121Y01169D01*
X015132Y01169D01*
Y01161D01*
X015121Y01161D01*
X01511Y011608D01*
X0151Y011606D01*
X01509Y011603D01*
X01508Y011599D01*
X01507Y011595D01*
X015061Y011589D01*
X015052Y011583D01*
X015043Y011575D01*
X015034Y011567D01*
Y011733D01*
X015043Y011725D01*
D02*
G37*
G36*
X01301Y011509D02*
X013003Y011507D01*
X012997Y011503D01*
X012992Y011497D01*
X012988Y01149D01*
X012984Y011481D01*
X012981Y01147D01*
X012979Y011458D01*
X012978Y011444D01*
X012978Y011429D01*
X012898D01*
X012897Y011444D01*
X012896Y011458D01*
X012894Y01147D01*
X012891Y011481D01*
X012888Y01149D01*
X012883Y011497D01*
X012878Y011503D01*
X012872Y011507D01*
X012865Y011509D01*
X012858Y01151D01*
X013018D01*
X01301Y011509D01*
D02*
G37*
G36*
X01251D02*
X012503Y011507D01*
X012497Y011503D01*
X012492Y011497D01*
X012488Y01149D01*
X012484Y011481D01*
X012481Y01147D01*
X012479Y011458D01*
X012478Y011444D01*
X012478Y011429D01*
X012398D01*
X012397Y011444D01*
X012396Y011458D01*
X012394Y01147D01*
X012391Y011481D01*
X012388Y01149D01*
X012383Y011497D01*
X012378Y011503D01*
X012372Y011507D01*
X012365Y011509D01*
X012358Y01151D01*
X012518D01*
X01251Y011509D01*
D02*
G37*
G36*
X01201D02*
X012003Y011507D01*
X011997Y011503D01*
X011992Y011497D01*
X011988Y01149D01*
X011984Y011481D01*
X011981Y01147D01*
X011979Y011458D01*
X011978Y011444D01*
X011978Y011429D01*
X011898D01*
X011897Y011444D01*
X011896Y011458D01*
X011894Y01147D01*
X011891Y011481D01*
X011888Y01149D01*
X011883Y011497D01*
X011878Y011503D01*
X011872Y011507D01*
X011865Y011509D01*
X011858Y01151D01*
X012018D01*
X01201Y011509D01*
D02*
G37*
G36*
X01151D02*
X011503Y011507D01*
X011497Y011503D01*
X011492Y011497D01*
X011488Y01149D01*
X011484Y011481D01*
X011481Y01147D01*
X011479Y011458D01*
X011478Y011444D01*
X011478Y011429D01*
X011398D01*
X011397Y011444D01*
X011396Y011458D01*
X011394Y01147D01*
X011391Y011481D01*
X011388Y01149D01*
X011383Y011497D01*
X011378Y011503D01*
X011372Y011507D01*
X011365Y011509D01*
X011358Y01151D01*
X011518D01*
X01151Y011509D01*
D02*
G37*
G36*
X01101D02*
X011003Y011507D01*
X010997Y011503D01*
X010992Y011497D01*
X010988Y01149D01*
X010984Y011481D01*
X010981Y01147D01*
X010979Y011458D01*
X010978Y011444D01*
X010978Y011429D01*
X010898D01*
X010897Y011444D01*
X010896Y011458D01*
X010894Y01147D01*
X010891Y011481D01*
X010888Y01149D01*
X010883Y011497D01*
X010878Y011503D01*
X010872Y011507D01*
X010865Y011509D01*
X010858Y01151D01*
X011018D01*
X01101Y011509D01*
D02*
G37*
G36*
X01051D02*
X010503Y011507D01*
X010497Y011503D01*
X010492Y011497D01*
X010488Y01149D01*
X010484Y011481D01*
X010481Y01147D01*
X010479Y011458D01*
X010478Y011444D01*
X010478Y011429D01*
X010398D01*
X010397Y011444D01*
X010396Y011458D01*
X010394Y01147D01*
X010391Y011481D01*
X010388Y01149D01*
X010383Y011497D01*
X010378Y011503D01*
X010372Y011507D01*
X010365Y011509D01*
X010358Y01151D01*
X010518D01*
X01051Y011509D01*
D02*
G37*
G36*
X01001D02*
X010003Y011507D01*
X009997Y011503D01*
X009992Y011497D01*
X009988Y01149D01*
X009984Y011481D01*
X009981Y01147D01*
X009979Y011458D01*
X009978Y011444D01*
X009978Y011429D01*
X009898D01*
X009897Y011444D01*
X009896Y011458D01*
X009894Y01147D01*
X009891Y011481D01*
X009888Y01149D01*
X009883Y011497D01*
X009878Y011503D01*
X009872Y011507D01*
X009865Y011509D01*
X009858Y01151D01*
X010018D01*
X01001Y011509D01*
D02*
G37*
G36*
X014028Y011509D02*
X01402Y011506D01*
X014012Y011501D01*
X014006Y011494D01*
X014Y011485D01*
X013996Y011474D01*
X013992Y011461D01*
X01399Y011446D01*
X013988Y011428D01*
X013988Y011409D01*
X013888D01*
X013887Y011428D01*
X013886Y011446D01*
X013883Y011461D01*
X01388Y011474D01*
X013875Y011485D01*
X01387Y011494D01*
X013863Y011501D01*
X013856Y011506D01*
X013847Y011509D01*
X013838Y01151D01*
X014038D01*
X014028Y011509D01*
D02*
G37*
G36*
X013528D02*
X01352Y011506D01*
X013512Y011501D01*
X013506Y011494D01*
X0135Y011485D01*
X013496Y011474D01*
X013492Y011461D01*
X01349Y011446D01*
X013488Y011428D01*
X013488Y011409D01*
X013388D01*
X013387Y011428D01*
X013386Y011446D01*
X013383Y011461D01*
X01338Y011474D01*
X013375Y011485D01*
X01337Y011494D01*
X013363Y011501D01*
X013356Y011506D01*
X013347Y011509D01*
X013338Y01151D01*
X013538D01*
X013528Y011509D01*
D02*
G37*
G36*
X014703Y01151D02*
X01471Y011502D01*
X014718Y011495D01*
X014727Y011489D01*
X014736Y011484D01*
X014745Y011479D01*
X014755Y011476D01*
X014765Y011474D01*
X014776Y011472D01*
X014787Y011472D01*
X014774Y011392D01*
X014763Y011392D01*
X014752Y01139D01*
X014742Y011389D01*
X014731Y011386D01*
X014721Y011383D01*
X014711Y011379D01*
X0147Y011374D01*
X01469Y011369D01*
X014681Y011362D01*
X014671Y011355D01*
X014696Y011519D01*
X014703Y01151D01*
D02*
G37*
G36*
X012978Y011371D02*
X01298Y01136D01*
X012982Y01135D01*
X012985Y01134D01*
X012989Y01133D01*
X012993Y01132D01*
X012999Y011311D01*
X013005Y011302D01*
X013012Y011293D01*
X013021Y011284D01*
X012855D01*
X012863Y011293D01*
X012871Y011302D01*
X012877Y011311D01*
X012883Y01132D01*
X012887Y01133D01*
X012891Y01134D01*
X012894Y01135D01*
X012896Y01136D01*
X012897Y011371D01*
X012898Y011382D01*
X012978D01*
X012978Y011371D01*
D02*
G37*
G36*
X012478D02*
X01248Y01136D01*
X012482Y01135D01*
X012485Y01134D01*
X012489Y01133D01*
X012493Y01132D01*
X012499Y011311D01*
X012505Y011302D01*
X012512Y011293D01*
X012521Y011284D01*
X012355D01*
X012363Y011293D01*
X012371Y011302D01*
X012377Y011311D01*
X012383Y01132D01*
X012387Y01133D01*
X012391Y01134D01*
X012394Y01135D01*
X012396Y01136D01*
X012397Y011371D01*
X012398Y011382D01*
X012478D01*
X012478Y011371D01*
D02*
G37*
G36*
X011978D02*
X01198Y01136D01*
X011982Y01135D01*
X011985Y01134D01*
X011989Y01133D01*
X011993Y01132D01*
X011999Y011311D01*
X012005Y011302D01*
X012012Y011293D01*
X012021Y011284D01*
X011855D01*
X011863Y011293D01*
X011871Y011302D01*
X011877Y011311D01*
X011883Y01132D01*
X011887Y01133D01*
X011891Y01134D01*
X011894Y01135D01*
X011896Y01136D01*
X011897Y011371D01*
X011898Y011382D01*
X011978D01*
X011978Y011371D01*
D02*
G37*
G36*
X011478D02*
X01148Y01136D01*
X011482Y01135D01*
X011485Y01134D01*
X011489Y01133D01*
X011493Y01132D01*
X011499Y011311D01*
X011505Y011302D01*
X011512Y011293D01*
X011521Y011284D01*
X011355D01*
X011363Y011293D01*
X011371Y011302D01*
X011377Y011311D01*
X011383Y01132D01*
X011387Y01133D01*
X011391Y01134D01*
X011394Y01135D01*
X011396Y01136D01*
X011397Y011371D01*
X011398Y011382D01*
X011478D01*
X011478Y011371D01*
D02*
G37*
G36*
X010978D02*
X01098Y01136D01*
X010982Y01135D01*
X010985Y01134D01*
X010989Y01133D01*
X010993Y01132D01*
X010999Y011311D01*
X011005Y011302D01*
X011012Y011293D01*
X011021Y011284D01*
X010855D01*
X010863Y011293D01*
X010871Y011302D01*
X010877Y011311D01*
X010883Y01132D01*
X010887Y01133D01*
X010891Y01134D01*
X010894Y01135D01*
X010896Y01136D01*
X010897Y011371D01*
X010898Y011382D01*
X010978D01*
X010978Y011371D01*
D02*
G37*
G36*
X010478D02*
X01048Y01136D01*
X010482Y01135D01*
X010485Y01134D01*
X010489Y01133D01*
X010493Y01132D01*
X010499Y011311D01*
X010505Y011302D01*
X010512Y011293D01*
X010521Y011284D01*
X010355D01*
X010363Y011293D01*
X010371Y011302D01*
X010377Y011311D01*
X010383Y01132D01*
X010387Y01133D01*
X010391Y01134D01*
X010394Y01135D01*
X010396Y01136D01*
X010397Y011371D01*
X010398Y011382D01*
X010478D01*
X010478Y011371D01*
D02*
G37*
G36*
X002963Y011502D02*
X00295Y011484D01*
X002938Y011464D01*
X002928Y011441D01*
X002919Y011417D01*
X002912Y011391D01*
X002907Y011363D01*
X002903Y011333D01*
X002901Y011301D01*
X0029Y011267D01*
X0026D01*
X002599Y011301D01*
X002593Y011363D01*
X002588Y011391D01*
X002581Y011417D01*
X002572Y011441D01*
X002562Y011464D01*
X00255Y011484D01*
X002537Y011502D01*
X002523Y011518D01*
X002977D01*
X002963Y011502D01*
D02*
G37*
G36*
X013012Y011107D02*
X013005Y011098D01*
X012999Y011089D01*
X012993Y01108D01*
X012989Y01107D01*
X012985Y01106D01*
X012982Y01105D01*
X01298Y01104D01*
X012978Y011029D01*
X012978Y011018D01*
X012898D01*
X012897Y011029D01*
X012896Y01104D01*
X012894Y01105D01*
X012891Y01106D01*
X012887Y01107D01*
X012883Y01108D01*
X012877Y011089D01*
X012871Y011098D01*
X012863Y011107D01*
X012855Y011116D01*
X013021D01*
X013012Y011107D01*
D02*
G37*
G36*
X012512D02*
X012505Y011098D01*
X012499Y011089D01*
X012493Y01108D01*
X012489Y01107D01*
X012485Y01106D01*
X012482Y01105D01*
X01248Y01104D01*
X012478Y011029D01*
X012478Y011018D01*
X012398D01*
X012397Y011029D01*
X012396Y01104D01*
X012394Y01105D01*
X012391Y01106D01*
X012387Y01107D01*
X012383Y01108D01*
X012377Y011089D01*
X012371Y011098D01*
X012363Y011107D01*
X012355Y011116D01*
X012521D01*
X012512Y011107D01*
D02*
G37*
G36*
X009979Y011055D02*
X009981Y011041D01*
X009985Y011029D01*
X009991Y011019D01*
X009998Y01101D01*
X010007Y011003D01*
X010017Y010997D01*
X010029Y010993D01*
X010043Y010991D01*
X010058Y01099D01*
X009938Y01091D01*
X009818Y01099D01*
X009833Y010991D01*
X009847Y010993D01*
X009859Y010997D01*
X009869Y011003D01*
X009878Y01101D01*
X009885Y011019D01*
X009891Y011029D01*
X009895Y011041D01*
X009897Y011055D01*
X009898Y01107D01*
X009978D01*
X009979Y011055D01*
D02*
G37*
G36*
X010114Y010258D02*
X010112Y010269D01*
X010106Y010278D01*
X010096Y010287D01*
X010082Y010294D01*
X010064Y0103D01*
X010042Y010305D01*
X010016Y010309D01*
X009986Y010312D01*
X009978Y010312D01*
X009934Y010309D01*
X009908Y010305D01*
X009886Y0103D01*
X009868Y010294D01*
X009854Y010287D01*
X009844Y010278D01*
X009838Y010269D01*
X009836Y010258D01*
Y01057D01*
X009838Y01056D01*
X009844Y01055D01*
X009854Y010542D01*
X009868Y010534D01*
X009886Y010528D01*
X009908Y010523D01*
X009934Y010519D01*
X009964Y010516D01*
X009972Y010516D01*
X010016Y010519D01*
X010042Y010523D01*
X010064Y010528D01*
X010082Y010534D01*
X010096Y010542D01*
X010106Y01055D01*
X010112Y01056D01*
X010114Y01057D01*
Y010258D01*
D02*
G37*
G36*
X009481Y010611D02*
X00951Y010586D01*
X009523Y010577D01*
X009535Y01057D01*
X009546Y010566D01*
X009555Y010564D01*
X009564D01*
X009571Y010566D01*
X009577Y01057D01*
X009464Y010457D01*
X009469Y010464D01*
X009471Y010471D01*
Y010479D01*
X009469Y010489D01*
X009464Y0105D01*
X009457Y010512D01*
X009448Y010525D01*
X009437Y010539D01*
X009408Y01057D01*
X009464Y010627D01*
X009481Y010611D01*
D02*
G37*
G36*
X008066Y010271D02*
X008065Y010278D01*
X008061Y010285D01*
X008056Y010291D01*
X008049Y010296D01*
X008039Y0103D01*
X008027Y010304D01*
X008013Y010306D01*
X007997Y010308D01*
X007979Y01031D01*
X007959Y01031D01*
Y01039D01*
X007979Y01039D01*
X008013Y010394D01*
X008027Y010396D01*
X008039Y0104D01*
X008049Y010404D01*
X008056Y010409D01*
X008061Y010415D01*
X008065Y010422D01*
X008066Y010429D01*
Y010271D01*
D02*
G37*
G36*
X004038Y009996D02*
X004044Y009986D01*
X004054Y009978D01*
X004068Y00997D01*
X004086Y009964D01*
X004108Y009959D01*
X004134Y009955D01*
X004164Y009952D01*
X004226Y00995D01*
X004262Y00995D01*
Y00975D01*
X004183Y009748D01*
X004134Y009745D01*
X004108Y009741D01*
X004086Y009736D01*
X004068Y00973D01*
X004054Y009722D01*
X004044Y009714D01*
X004038Y009704D01*
X004036Y009694D01*
Y009745D01*
X003956Y009744D01*
Y009956D01*
X00396Y009955D01*
X00397Y009954D01*
X004008Y009952D01*
X004036Y009952D01*
Y010006D01*
X004038Y009996D01*
D02*
G37*
G36*
X011606Y01042D02*
Y009922D01*
X011489D01*
X011457Y009972D01*
X011468Y010015D01*
Y010085D01*
X01145Y010153D01*
X011415Y010215D01*
X011365Y010265D01*
X011303Y0103D01*
X011235Y010318D01*
X011165D01*
X011097Y0103D01*
X011035Y010265D01*
X010985Y010215D01*
X01095Y010153D01*
X010932Y010085D01*
Y010015D01*
X010943Y009972D01*
X010911Y009922D01*
X010863D01*
Y009307D01*
X013337D01*
Y009759D01*
X013383Y009778D01*
X013692Y00947D01*
X013692Y00947D01*
X013758Y009426D01*
X013836Y00941D01*
X013836Y00941D01*
X014063D01*
Y009307D01*
X014737D01*
Y009409D01*
X015043D01*
X015075Y009371D01*
X015072Y009357D01*
X01509Y009268D01*
X015116Y00923D01*
X01509Y009191D01*
X015072Y009102D01*
X015052Y009077D01*
X014737D01*
Y009193D01*
X014063D01*
Y00888D01*
X013925D01*
X013827Y00886D01*
X013745Y008805D01*
X01352Y00858D01*
X013464Y008498D01*
X013445Y0084D01*
Y006956D01*
X01313Y006641D01*
X013066Y006647D01*
X013058Y006658D01*
X013009Y006691D01*
X01295Y006703D01*
X01205D01*
X011991Y006691D01*
X011942Y006658D01*
X011909Y006609D01*
X011897Y00655D01*
Y0063D01*
X011909Y006241D01*
X011921Y006223D01*
X011894Y006173D01*
X011482D01*
X01125Y006174D01*
X01125Y006174D01*
X01125Y006174D01*
X011248Y006173D01*
X011203Y006179D01*
X010294D01*
X010225Y00617D01*
X010214Y00617D01*
X010211Y006169D01*
X009952Y006153D01*
X0099Y006153D01*
X009898Y006153D01*
X007337D01*
X007321Y006203D01*
X007337Y006213D01*
X007687Y006563D01*
X007729Y006626D01*
X007744Y0067D01*
Y00957D01*
X00783Y009656D01*
X007965D01*
X007972Y009651D01*
X007974Y009649D01*
X007976Y009647D01*
X008001Y009629D01*
X008005Y009603D01*
Y009597D01*
X008001Y009571D01*
X007955Y009537D01*
X007913Y009482D01*
X007887Y009418D01*
X007878Y00935D01*
X007887Y009282D01*
X007913Y009218D01*
X007955Y009163D01*
X00801Y009122D01*
X008061Y009101D01*
X008059Y009053D01*
X008059Y009049D01*
X008032Y009031D01*
X008114Y008948D01*
X008044Y008878D01*
X007961Y00896D01*
X007943Y008933D01*
X007926Y00885D01*
X007943Y008767D01*
X007961Y00874D01*
X008044Y008822D01*
X008114Y008752D01*
X008032Y008669D01*
X008059Y008651D01*
X008059Y008647D01*
X008061Y008599D01*
X00801Y008578D01*
X007955Y008537D01*
X007913Y008482D01*
X007887Y008418D01*
X007878Y00835D01*
X007887Y008282D01*
X007913Y008218D01*
X007955Y008163D01*
X008001Y008129D01*
X008005Y008103D01*
Y008097D01*
X008001Y008071D01*
X007955Y008037D01*
X007913Y007982D01*
X007887Y007918D01*
X007878Y00785D01*
X007887Y007782D01*
X007913Y007718D01*
X007955Y007663D01*
X008001Y007629D01*
X008005Y007603D01*
Y007597D01*
X008001Y007571D01*
X007955Y007537D01*
X007913Y007482D01*
X007887Y007418D01*
X007878Y00735D01*
X007887Y007282D01*
X007913Y007218D01*
X007955Y007163D01*
X008001Y007129D01*
X008005Y007103D01*
Y007097D01*
X008001Y007071D01*
X007955Y007037D01*
X007913Y006982D01*
X007887Y006918D01*
X007878Y00685D01*
X007887Y006782D01*
X007913Y006718D01*
X007955Y006663D01*
X00801Y006622D01*
X008074Y006595D01*
X008142Y006586D01*
X008823D01*
X008892Y006595D01*
X008955Y006622D01*
X00901Y006663D01*
X009052Y006718D01*
X009078Y006782D01*
X009087Y00685D01*
X009078Y006918D01*
X009052Y006982D01*
X00901Y007037D01*
X008965Y007071D01*
X00896Y007097D01*
Y007103D01*
X008965Y007129D01*
X00901Y007163D01*
X009052Y007218D01*
X009078Y007282D01*
X009087Y00735D01*
X009078Y007418D01*
X009052Y007482D01*
X00901Y007537D01*
X008965Y007571D01*
X00896Y007597D01*
Y007603D01*
X008965Y007629D01*
X00901Y007663D01*
X009052Y007718D01*
X009078Y007782D01*
X009087Y00785D01*
X009078Y007918D01*
X009052Y007982D01*
X00901Y008037D01*
X008965Y008071D01*
X00896Y008097D01*
Y008103D01*
X008965Y008129D01*
X00901Y008163D01*
X009052Y008218D01*
X009078Y008282D01*
X009087Y00835D01*
X009078Y008418D01*
X009052Y008482D01*
X00901Y008537D01*
X008955Y008578D01*
X008905Y008599D01*
X008906Y008647D01*
X008907Y008651D01*
X008934Y008669D01*
X008851Y008752D01*
X008922Y008822D01*
X009004Y00874D01*
X009014Y008755D01*
X009033Y008768D01*
X009074Y008771D01*
X009138Y008729D01*
X009236Y008709D01*
X009313D01*
Y008657D01*
X009455D01*
X009464Y008655D01*
X009473Y008657D01*
X009827D01*
X009836Y008655D01*
X009845Y008657D01*
X009987D01*
Y008709D01*
X010115D01*
X010165Y008696D01*
X010235D01*
X010303Y008714D01*
X010365Y00875D01*
X010415Y0088D01*
X01045Y008861D01*
X010468Y008929D01*
Y008999D01*
X01045Y009068D01*
X010415Y009129D01*
X010368Y009176D01*
X010365Y009179D01*
X010362Y009238D01*
X010437Y009313D01*
X010479Y009376D01*
X010479Y009378D01*
X010637D01*
Y009993D01*
X009581D01*
X009513Y01006D01*
X009533Y010107D01*
X009827D01*
X009836Y010105D01*
X009845Y010107D01*
X010105D01*
X010114Y010105D01*
X010123Y010107D01*
X010637D01*
Y010722D01*
X010673Y010756D01*
X01127D01*
X011606Y01042D01*
D02*
G37*
G36*
X016866Y009817D02*
X016859Y009824D01*
X016852Y009829D01*
X016844Y009834D01*
X016835Y009838D01*
X016826Y009842D01*
X016817Y009845D01*
X016813Y009846D01*
X016799Y009841D01*
X016786Y009834D01*
X016775Y009825D01*
X016766Y009814D01*
X016759Y009801D01*
X016754Y009786D01*
X016751Y009769D01*
X01675Y00975D01*
X01665D01*
X016649Y009769D01*
X016646Y009786D01*
X016641Y009801D01*
X016634Y009814D01*
X016625Y009825D01*
X016614Y009834D01*
X016601Y009841D01*
X016586Y009846D01*
X016569Y009849D01*
X01655Y00985D01*
X0167Y00995D01*
X016772Y009902D01*
Y00995D01*
X016784Y00995D01*
X016796Y009951D01*
X016806Y009953D01*
X016817Y009955D01*
X016826Y009958D01*
X016835Y009962D01*
X016844Y009966D01*
X016852Y009971D01*
X016859Y009976D01*
X016866Y009983D01*
Y009817D01*
D02*
G37*
G36*
X011275Y009957D02*
X011267Y009948D01*
X011261Y009939D01*
X011255Y00993D01*
X011251Y00992D01*
X011247Y00991D01*
X011244Y0099D01*
X011242Y00989D01*
X01124Y009879D01*
X01124Y009868D01*
X01116D01*
X01116Y009879D01*
X011158Y00989D01*
X011156Y0099D01*
X011153Y00991D01*
X011149Y00992D01*
X011145Y00993D01*
X011139Y009939D01*
X011133Y009948D01*
X011125Y009957D01*
X011117Y009966D01*
X011283D01*
X011275Y009957D01*
D02*
G37*
G36*
X004996Y009915D02*
X005007Y00991D01*
X005021Y009905D01*
X005038Y009901D01*
X005059Y009898D01*
X005109Y009893D01*
X005173Y00989D01*
X005209Y00989D01*
Y00981D01*
X005173Y00981D01*
X005059Y009802D01*
X005038Y009799D01*
X005021Y009795D01*
X005007Y00979D01*
X004996Y009785D01*
X004988Y009779D01*
Y009921D01*
X004996Y009915D01*
D02*
G37*
G36*
X008066Y009771D02*
X008065Y009778D01*
X008061Y009785D01*
X008056Y009791D01*
X008049Y009796D01*
X008039Y0098D01*
X008027Y009804D01*
X008013Y009806D01*
X007997Y009808D01*
X007979Y00981D01*
X007959Y00981D01*
Y00989D01*
X007979Y00989D01*
X008013Y009894D01*
X008027Y009896D01*
X008039Y0099D01*
X008049Y009904D01*
X008056Y009909D01*
X008061Y009915D01*
X008065Y009922D01*
X008066Y009929D01*
Y009771D01*
D02*
G37*
G36*
X005335Y009922D02*
X005339Y009915D01*
X005344Y009909D01*
X005351Y009904D01*
X005361Y0099D01*
X005373Y009896D01*
X005387Y009894D01*
X005403Y009892D01*
X005421Y00989D01*
X005441Y00989D01*
Y00981D01*
X005421Y00981D01*
X005387Y009806D01*
X005373Y009804D01*
X005361Y0098D01*
X005351Y009796D01*
X005344Y009791D01*
X005339Y009785D01*
X005335Y009778D01*
X005334Y009771D01*
Y009929D01*
X005335Y009922D01*
D02*
G37*
G36*
X012978Y009835D02*
X012979Y009821D01*
X012981Y009809D01*
X012984Y009798D01*
X012988Y00979D01*
X012992Y009782D01*
X012997Y009777D01*
X013003Y009772D01*
X01301Y00977D01*
X013018Y009769D01*
X012858D01*
X012865Y00977D01*
X012872Y009772D01*
X012878Y009777D01*
X012883Y009782D01*
X012888Y00979D01*
X012891Y009798D01*
X012894Y009809D01*
X012896Y009821D01*
X012897Y009835D01*
X012898Y00985D01*
X012978D01*
X012978Y009835D01*
D02*
G37*
G36*
X012478D02*
X012479Y009821D01*
X012481Y009809D01*
X012484Y009798D01*
X012488Y00979D01*
X012492Y009782D01*
X012497Y009777D01*
X012503Y009772D01*
X01251Y00977D01*
X012518Y009769D01*
X012358D01*
X012365Y00977D01*
X012372Y009772D01*
X012378Y009777D01*
X012383Y009782D01*
X012388Y00979D01*
X012391Y009798D01*
X012394Y009809D01*
X012396Y009821D01*
X012397Y009835D01*
X012398Y00985D01*
X012478D01*
X012478Y009835D01*
D02*
G37*
G36*
X01184D02*
X011842Y009821D01*
X011844Y009809D01*
X011846Y009798D01*
X01185Y00979D01*
X011854Y009782D01*
X01186Y009777D01*
X011866Y009772D01*
X011872Y00977D01*
X01188Y009769D01*
X01172D01*
X011728Y00977D01*
X011734Y009772D01*
X01174Y009777D01*
X011746Y009782D01*
X01175Y00979D01*
X011754Y009798D01*
X011756Y009809D01*
X011758Y009821D01*
X01176Y009835D01*
X01176Y00985D01*
X01184D01*
X01184Y009835D01*
D02*
G37*
G36*
X01124D02*
X011242Y009821D01*
X011244Y009809D01*
X011246Y009798D01*
X01125Y00979D01*
X011254Y009782D01*
X01126Y009777D01*
X011266Y009772D01*
X011272Y00977D01*
X01128Y009769D01*
X01112D01*
X011128Y00977D01*
X011134Y009772D01*
X01114Y009777D01*
X011146Y009782D01*
X01115Y00979D01*
X011154Y009798D01*
X011156Y009809D01*
X011158Y009821D01*
X01116Y009835D01*
X01116Y00985D01*
X01124D01*
X01124Y009835D01*
D02*
G37*
G36*
X004548Y009742D02*
X004542Y009744D01*
X004533Y009745D01*
X004504Y009747D01*
X004368Y00975D01*
X00433Y00975D01*
Y00995D01*
X004548Y009958D01*
Y009742D01*
D02*
G37*
G36*
X009475Y009882D02*
X009505Y009857D01*
X009518Y009848D01*
X00953Y009841D01*
X00954Y009836D01*
X00955Y009834D01*
X009558Y009834D01*
X009565Y009836D01*
X009571Y009841D01*
X009465Y009723D01*
X00947Y009729D01*
X009471Y009737D01*
X009471Y009745D01*
X009469Y009755D01*
X009464Y009766D01*
X009457Y009777D01*
X009448Y00979D01*
X009437Y009804D01*
X009408Y009836D01*
X009458Y009899D01*
X009475Y009882D01*
D02*
G37*
G36*
X008933Y009867D02*
X008936Y009855D01*
X008939Y009843D01*
X008944Y009832D01*
X008949Y009821D01*
X008955Y00981D01*
X008962Y009799D01*
X00897Y009789D01*
X008979Y009778D01*
X008988Y009769D01*
X008942Y009702D01*
X008927Y009716D01*
X008902Y009737D01*
X00889Y009744D01*
X00888Y00975D01*
X008871Y009753D01*
X008863Y009753D01*
X008856Y009752D01*
X00885Y009748D01*
X008845Y009743D01*
X008931Y009879D01*
X008933Y009867D01*
D02*
G37*
G36*
X00314Y010057D02*
X003157Y010045D01*
X003176Y010035D01*
X003197Y010025D01*
X00322Y010018D01*
X003245Y010011D01*
X003272Y010006D01*
X003301Y010003D01*
X003333Y010001D01*
X003365Y01D01*
X003664Y010006D01*
Y009694D01*
X003661Y009695D01*
X003652Y009696D01*
X003637Y009697D01*
X003365Y0097D01*
X003333Y009699D01*
X003272Y009694D01*
X003245Y009689D01*
X00322Y009682D01*
X003197Y009675D01*
X003176Y009665D01*
X003157Y009655D01*
X00314Y009643D01*
X003125Y00963D01*
Y01007D01*
X00314Y010057D01*
D02*
G37*
G36*
X002675Y00963D02*
X00266Y009643D01*
X002643Y009655D01*
X002624Y009665D01*
X002603Y009675D01*
X00258Y009682D01*
X002555Y009689D01*
X002528Y009694D01*
X002499Y009697D01*
X002467Y009699D01*
X002434Y0097D01*
Y01D01*
X002467Y010001D01*
X002528Y010006D01*
X002555Y010011D01*
X00258Y010018D01*
X002603Y010025D01*
X002624Y010035D01*
X002643Y010045D01*
X00266Y010057D01*
X002675Y01007D01*
Y00963D01*
D02*
G37*
G36*
X00189Y010057D02*
X001907Y010045D01*
X001926Y010035D01*
X001947Y010025D01*
X00197Y010018D01*
X001995Y010011D01*
X002022Y010006D01*
X002051Y010003D01*
X002083Y010001D01*
X002116Y01D01*
Y0097D01*
X002083Y009699D01*
X002022Y009694D01*
X001995Y009689D01*
X00197Y009682D01*
X001947Y009675D01*
X001926Y009665D01*
X001907Y009655D01*
X00189Y009643D01*
X001875Y00963D01*
Y01007D01*
X00189Y010057D01*
D02*
G37*
G36*
X001425Y00963D02*
X00141Y009643D01*
X001393Y009655D01*
X001374Y009665D01*
X001353Y009675D01*
X00133Y009682D01*
X001305Y009689D01*
X001278Y009694D01*
X001249Y009697D01*
X001217Y009699D01*
X001184Y0097D01*
Y01D01*
X001217Y010001D01*
X001278Y010006D01*
X001305Y010011D01*
X00133Y010018D01*
X001353Y010025D01*
X001374Y010035D01*
X001393Y010045D01*
X00141Y010057D01*
X001425Y01007D01*
Y00963D01*
D02*
G37*
G36*
X020764Y009662D02*
X020738Y009617D01*
X020735Y009618D01*
X020665D01*
X020597Y0096D01*
X020535Y009565D01*
X020485Y009515D01*
X02045Y009453D01*
X020432Y009385D01*
Y009315D01*
X02045Y009247D01*
X020485Y009185D01*
X020535Y009135D01*
X020597Y0091D01*
X020665Y009082D01*
X020735D01*
X020762Y009089D01*
X020812Y009051D01*
Y001392D01*
X020635D01*
X020634Y001392D01*
X020629Y001392D01*
X020622D01*
X020613Y001394D01*
X020604Y001392D01*
X020462D01*
Y00132D01*
X020456Y00132D01*
X019738D01*
Y001392D01*
X019596D01*
X019587Y001394D01*
X019578Y001392D01*
X019571D01*
X019566Y001392D01*
X019565Y001392D01*
X018651D01*
Y001112D01*
X018601Y001095D01*
X018582Y00112D01*
X018499Y001183D01*
X018403Y001223D01*
X0183Y001236D01*
X018197Y001223D01*
X018101Y001183D01*
X018058Y00115D01*
X018137Y001071D01*
X018066Y001001D01*
X017987Y00108D01*
X017955Y001037D01*
X017915Y000941D01*
X017901Y000838D01*
Y00075D01*
X018015D01*
Y00065D01*
X017901D01*
Y000562D01*
X017915Y000459D01*
X017955Y000363D01*
X017987Y00032D01*
X018066Y000399D01*
X018137Y000329D01*
X018058Y00025D01*
X018101Y000217D01*
X018106Y000215D01*
X018096Y000165D01*
X015718Y00017D01*
X015704Y000205D01*
X015704Y00022D01*
X015742Y00025D01*
X015663Y000329D01*
X015734Y000399D01*
X015813Y00032D01*
X015845Y000363D01*
X015885Y000459D01*
X015899Y000562D01*
Y00065D01*
X015785D01*
Y00075D01*
X015899D01*
Y000838D01*
X015885Y000941D01*
X015845Y001037D01*
X015813Y00108D01*
X015734Y001001D01*
X015663Y001071D01*
X015742Y00115D01*
X015699Y001183D01*
X015603Y001223D01*
X0155Y001236D01*
X015397Y001223D01*
X015301Y001183D01*
X015258Y00115D01*
X015337Y001071D01*
X015266Y001001D01*
X015187Y00108D01*
X015155Y001037D01*
X015115Y000941D01*
X015101Y000838D01*
Y00075D01*
X015215D01*
Y00065D01*
X015101D01*
Y000562D01*
X015115Y000459D01*
X015155Y000363D01*
X015187Y00032D01*
X015266Y000399D01*
X015337Y000329D01*
X015258Y00025D01*
X015295Y000221D01*
X015294Y000201D01*
X015281Y000171D01*
X008715Y000187D01*
Y000591D01*
X008604D01*
Y000691D01*
X008715D01*
Y001206D01*
X009313D01*
Y001036D01*
X009424D01*
Y000936D01*
X009313D01*
Y000728D01*
X00955D01*
Y000839D01*
X00965D01*
Y000728D01*
X009851D01*
X009859Y000691D01*
X009892Y000642D01*
X009941Y000609D01*
X01Y000597D01*
X0113D01*
X011359Y000609D01*
X011408Y000642D01*
X011441Y000691D01*
X011453Y00075D01*
Y0019D01*
X011441Y001959D01*
X011408Y002008D01*
X011359Y002041D01*
X0113Y002053D01*
X008803D01*
Y00265D01*
Y00535D01*
X008791Y005409D01*
X008758Y005458D01*
X008709Y005491D01*
X008678Y005497D01*
X008683Y005547D01*
X009808D01*
X00981Y005547D01*
X009853Y005546D01*
X009889Y005543D01*
X009921Y005538D01*
X009948Y005531D01*
X009972Y005523D01*
X009992Y005515D01*
X010009Y005505D01*
X010023Y005495D01*
X010035Y005484D01*
X010051Y005465D01*
X010055Y005462D01*
X010059Y005458D01*
X010077Y005444D01*
X010084Y005436D01*
X010088Y005435D01*
X010128Y005405D01*
X010189Y005379D01*
X01019Y005378D01*
X010191Y005378D01*
X010208Y005371D01*
X01023Y005369D01*
X010232Y005368D01*
X010252Y005366D01*
X010263Y005364D01*
X010269Y005362D01*
X010275Y005358D01*
X010285Y005347D01*
X010299Y005325D01*
X010313Y005289D01*
X010326Y005239D01*
X010337Y005176D01*
X010343Y0051D01*
X010345Y00503D01*
Y003136D01*
X010359Y003031D01*
X010399Y002934D01*
X010463Y002851D01*
X010547Y002786D01*
X01058Y002773D01*
X010582Y002771D01*
X010662Y002738D01*
X010748Y002726D01*
X010834Y002738D01*
X010915Y002771D01*
X010917Y002773D01*
X01095Y002786D01*
X011034Y002851D01*
X011098Y002934D01*
X011138Y003031D01*
X011152Y003136D01*
Y00503D01*
X011154Y0051D01*
X01116Y005176D01*
X011171Y005239D01*
X011184Y005289D01*
X011198Y005325D01*
X011212Y005347D01*
X011221Y005358D01*
X011228Y005362D01*
X011234Y005364D01*
X011244Y005366D01*
X011249Y005366D01*
X01125Y005366D01*
X01125Y005366D01*
X01125Y005366D01*
X011482Y005366D01*
X01277D01*
X012771Y005366D01*
X012777Y005349D01*
X012773Y005336D01*
X01274Y005299D01*
X01255D01*
Y005188D01*
X01245D01*
Y005299D01*
X012213D01*
Y005091D01*
X012324D01*
Y004991D01*
X012213D01*
Y004784D01*
X01245D01*
Y004895D01*
X01255D01*
Y004784D01*
X012734D01*
X012767Y004737D01*
X012767Y004734D01*
X012766Y004732D01*
X012763Y004729D01*
X012D01*
X011912Y004712D01*
X011838Y004662D01*
X011488Y004312D01*
X011438Y004238D01*
X011421Y00415D01*
Y003553D01*
X0114D01*
X011341Y003541D01*
X011292Y003508D01*
X011259Y003459D01*
X011247Y0034D01*
Y00285D01*
X011259Y002791D01*
X011292Y002742D01*
X011341Y002709D01*
X0114Y002697D01*
X011947D01*
Y00085D01*
X011959Y000791D01*
X011992Y000742D01*
X012041Y000709D01*
X0121Y000697D01*
X0129D01*
X012959Y000709D01*
X013008Y000742D01*
X013041Y000791D01*
X013053Y00085D01*
Y002697D01*
X0134D01*
X013459Y002709D01*
X013508Y002742D01*
X013541Y002791D01*
X013553Y00285D01*
Y002913D01*
X0137D01*
Y003023D01*
X0138D01*
Y002913D01*
X014007D01*
Y00312D01*
X013897D01*
Y00322D01*
X014007D01*
Y003428D01*
X0138D01*
Y003317D01*
X0137D01*
Y003428D01*
X013594D01*
X013585Y003443D01*
X013614Y003493D01*
X014057D01*
Y004107D01*
X013614D01*
X013613Y004108D01*
X013605Y004107D01*
X013602D01*
X013593Y004109D01*
X013584Y004107D01*
X013487D01*
Y004172D01*
X012813D01*
Y004161D01*
X012787Y004122D01*
X012763Y004122D01*
X01255D01*
Y004011D01*
X01245D01*
Y004122D01*
X012213D01*
Y003914D01*
X012324D01*
Y003814D01*
X012213D01*
Y003607D01*
X01245D01*
Y003717D01*
X01255D01*
Y003607D01*
X012734D01*
X012766Y00356D01*
X012766Y003557D01*
X012766Y003556D01*
X012763Y003553D01*
X011879D01*
Y004055D01*
X012095Y004271D01*
X014393D01*
X014398Y004221D01*
X014351Y004211D01*
X014302Y004178D01*
X014269Y004129D01*
X014257Y00407D01*
Y00367D01*
X014269Y003611D01*
X014302Y003562D01*
X014303Y003561D01*
Y003557D01*
X01431D01*
X014351Y003529D01*
X014368Y003525D01*
Y003475D01*
X014351Y003471D01*
X01431Y003443D01*
X014303D01*
Y003439D01*
X014302Y003438D01*
X014269Y003389D01*
X014257Y00333D01*
Y00299D01*
Y002483D01*
X013692Y001918D01*
X013659Y001869D01*
X013647Y00181D01*
Y00082D01*
X013659Y000761D01*
X013692Y000712D01*
X013741Y000679D01*
X0138Y000667D01*
X01487D01*
X014929Y000679D01*
X014978Y000712D01*
X015011Y000761D01*
X015023Y00082D01*
Y002854D01*
X015063Y002878D01*
X015073Y002878D01*
X0153D01*
Y002989D01*
X0154D01*
Y002878D01*
X015637D01*
Y003086D01*
X015526D01*
Y003186D01*
X015637D01*
Y003366D01*
X015687Y003387D01*
X015937Y003137D01*
Y002548D01*
X01589Y002532D01*
X015874Y002553D01*
X015779Y002626D01*
X015669Y002671D01*
X01555Y002687D01*
X015431Y002671D01*
X015321Y002626D01*
X015266Y002583D01*
X015345Y002505D01*
X015274Y002434D01*
X015195Y002513D01*
X015153Y002458D01*
X015107Y002347D01*
X015092Y002229D01*
Y0022D01*
X015206D01*
Y0021D01*
X015092D01*
Y002071D01*
X015107Y001953D01*
X015153Y001842D01*
X015195Y001787D01*
X015274Y001866D01*
X015345Y001795D01*
X015266Y001717D01*
X015321Y001674D01*
X015431Y001629D01*
X01555Y001613D01*
X015669Y001629D01*
X015779Y001674D01*
X015834Y001717D01*
X015755Y001795D01*
X015826Y001866D01*
X015905Y001787D01*
X015915Y001801D01*
X015977Y001799D01*
X015982Y001792D01*
X016031Y001759D01*
X01609Y001747D01*
X016159D01*
Y001746D01*
X017385D01*
Y001796D01*
X017591D01*
Y002142D01*
X01748D01*
Y002242D01*
X017591D01*
Y002587D01*
X017385D01*
Y002637D01*
X017132D01*
X017111Y002687D01*
X01718Y002756D01*
X0174D01*
X017474Y002771D01*
X017537Y002813D01*
X017787Y003063D01*
X017829Y003126D01*
X017844Y0032D01*
Y003469D01*
X01785Y003473D01*
X017888Y003531D01*
X017902Y003599D01*
Y004101D01*
X017888Y004169D01*
X01785Y004227D01*
X017792Y004265D01*
X017724Y004279D01*
X017576D01*
X017508Y004265D01*
X01745Y004227D01*
X01743Y004197D01*
X017398Y004218D01*
X017369Y004224D01*
X017349Y004275D01*
X017413Y004339D01*
X017455Y004402D01*
X017456Y004407D01*
X017502Y004427D01*
X017508Y004423D01*
X017576Y004409D01*
X017724D01*
X017792Y004423D01*
X01785Y004461D01*
X017888Y004519D01*
X017902Y004587D01*
Y005089D01*
X017888Y005157D01*
X01785Y005215D01*
X017844Y005219D01*
Y005775D01*
X018122Y006053D01*
X018494D01*
X018584Y006071D01*
X018659Y006122D01*
X01871Y006197D01*
X018728Y006287D01*
X01871Y006376D01*
X018684Y006415D01*
X01871Y006453D01*
X018728Y006543D01*
X01875Y00657D01*
X018928D01*
Y006463D01*
X018963D01*
X018991Y006413D01*
X018986Y006403D01*
X018968Y006335D01*
Y006265D01*
X018986Y006197D01*
X019021Y006135D01*
X019071Y006085D01*
X019132Y00605D01*
X019201Y006032D01*
X019271D01*
X019339Y00605D01*
X0194Y006085D01*
X01945Y006135D01*
X019486Y006197D01*
X019504Y006265D01*
Y006335D01*
X019486Y006403D01*
X01948Y006413D01*
X019509Y006463D01*
X019543D01*
Y007007D01*
X019579Y007043D01*
X019707Y007043D01*
Y00685D01*
X019817D01*
Y00675D01*
X019707D01*
Y006513D01*
X019914D01*
Y006624D01*
X020014D01*
Y006513D01*
X020222D01*
Y00675D01*
X020111D01*
Y00685D01*
X020222D01*
Y007043D01*
X020222D01*
Y007384D01*
X020437Y007598D01*
X020479Y007661D01*
X020494Y007735D01*
Y008649D01*
X020479Y008723D01*
X020437Y008786D01*
X020287Y008936D01*
X020286Y008937D01*
Y009337D01*
X019671D01*
Y008663D01*
Y008193D01*
X019636Y008157D01*
X019593D01*
X019557Y008193D01*
Y008663D01*
Y009337D01*
X018943D01*
Y009192D01*
X018922Y009188D01*
X018856Y009144D01*
X018717Y009005D01*
X018675Y009005D01*
X018657Y009011D01*
X018653Y009018D01*
X018663Y009032D01*
X018677Y009102D01*
X018663Y009171D01*
X018652Y009188D01*
X018659Y009193D01*
X01871Y009268D01*
X018728Y009357D01*
X01871Y009447D01*
X018684Y009485D01*
X01871Y009524D01*
X018728Y009613D01*
X01871Y009703D01*
X018659Y009778D01*
X018584Y009829D01*
X018494Y009847D01*
X018081D01*
X017992Y009829D01*
X017916Y009778D01*
X017866Y009703D01*
X017848Y009613D01*
X017866Y009524D01*
X017891Y009485D01*
X017866Y009447D01*
X017848Y009357D01*
X017866Y009268D01*
X017916Y009193D01*
X017924Y009188D01*
X017913Y009171D01*
X017899Y009102D01*
X017913Y009032D01*
X017952Y008974D01*
X017913Y008915D01*
X017899Y008846D01*
X017913Y008776D01*
X017924Y00876D01*
X017916Y008755D01*
X017866Y008679D01*
X017848Y00859D01*
X017866Y008501D01*
X017891Y008462D01*
X017866Y008423D01*
X017848Y008334D01*
X017866Y008245D01*
X017891Y008206D01*
X017866Y008167D01*
X017848Y008078D01*
X017866Y007989D01*
X017916Y007913D01*
X017924Y007908D01*
X017913Y007892D01*
X017899Y007822D01*
X017877Y007796D01*
X017566D01*
X017478Y007778D01*
X017404Y007728D01*
X016138Y006462D01*
X016088Y006388D01*
X016071Y0063D01*
Y005095D01*
X015705Y004729D01*
X014062D01*
X014057Y004778D01*
X014057Y004779D01*
Y005393D01*
X013443D01*
Y005349D01*
X01331D01*
X0133Y005399D01*
X013352Y00542D01*
X013406Y005462D01*
X013444D01*
X013493Y005457D01*
X013493D01*
X013493Y005457D01*
X0137D01*
Y005568D01*
X0138D01*
Y005457D01*
X014007D01*
Y005665D01*
X013897D01*
Y005765D01*
X014007D01*
Y005972D01*
X0138D01*
Y005862D01*
X0137D01*
Y005972D01*
X013499D01*
X013492Y005981D01*
Y006281D01*
X01388Y00667D01*
X013936Y006752D01*
X013955Y00685D01*
Y008294D01*
X014013Y008353D01*
X014063Y008332D01*
Y008057D01*
X014737D01*
X014746Y00801D01*
Y00799D01*
X014737Y007943D01*
X014063D01*
Y007328D01*
X014737D01*
Y007432D01*
X014814Y007447D01*
X01488Y007492D01*
X015038Y00765D01*
X015084Y007625D01*
X015072Y007566D01*
X01509Y007477D01*
X015116Y007438D01*
X01509Y007399D01*
X015072Y00731D01*
X01509Y007221D01*
X015116Y007182D01*
X01509Y007144D01*
X015072Y007054D01*
X01509Y006965D01*
X015116Y006926D01*
X01509Y006888D01*
X015072Y006798D01*
X01509Y006709D01*
X015116Y00667D01*
X01509Y006632D01*
X015072Y006543D01*
X01509Y006453D01*
X015116Y006415D01*
X01509Y006376D01*
X015072Y006287D01*
X01509Y006197D01*
X015141Y006122D01*
X015216Y006071D01*
X015306Y006053D01*
X015719D01*
X015808Y006071D01*
X015884Y006122D01*
X015934Y006197D01*
X015952Y006287D01*
X015934Y006376D01*
X015909Y006415D01*
X015934Y006453D01*
X015952Y006543D01*
X015934Y006632D01*
X015909Y00667D01*
X015934Y006709D01*
X015952Y006798D01*
X015947Y006822D01*
X015979Y006861D01*
X016154D01*
X016228Y006875D01*
X016291Y006917D01*
X017687Y008313D01*
X017729Y008376D01*
X017744Y00845D01*
Y0103D01*
X017729Y010374D01*
X017687Y010437D01*
X016464Y01166D01*
X016483Y011706D01*
X01872D01*
X020764Y009662D01*
D02*
G37*
G36*
X015459Y00956D02*
X015457Y009561D01*
X015452Y009561D01*
X015433Y009562D01*
X015306Y009563D01*
Y009663D01*
X015459Y009666D01*
Y00956D01*
D02*
G37*
G36*
X004401Y009545D02*
X00439Y009537D01*
X004348Y009482D01*
X004322Y009418D01*
X004313Y00935D01*
X004322Y009282D01*
X004348Y009218D01*
X00439Y009163D01*
X004435Y009129D01*
X00444Y009103D01*
Y009097D01*
X004435Y009071D01*
X00439Y009037D01*
X004348Y008982D01*
X004322Y008918D01*
X004313Y00885D01*
X004322Y008782D01*
X004348Y008718D01*
X00439Y008663D01*
X004435Y008629D01*
X00444Y008603D01*
Y008597D01*
X004435Y008571D01*
X00439Y008537D01*
X004348Y008482D01*
X004322Y008418D01*
X004313Y00835D01*
X004322Y008282D01*
X004348Y008218D01*
X00439Y008163D01*
X004435Y008129D01*
X00444Y008103D01*
Y008097D01*
X004435Y008071D01*
X00439Y008037D01*
X004348Y007982D01*
X004322Y007918D01*
X004313Y00785D01*
X004322Y007782D01*
X004348Y007718D01*
X00439Y007663D01*
X004435Y007629D01*
X00444Y007603D01*
Y007597D01*
X004435Y007571D01*
X00439Y007537D01*
X004348Y007482D01*
X004322Y007418D01*
X004313Y00735D01*
X004322Y007282D01*
X004348Y007218D01*
X00439Y007163D01*
X004435Y007129D01*
X00444Y007103D01*
Y007097D01*
X004435Y007071D01*
X00439Y007037D01*
X004348Y006982D01*
X004322Y006918D01*
X004313Y00685D01*
X004315Y006829D01*
X004268Y006806D01*
X003994Y00708D01*
Y007211D01*
X004Y007221D01*
X004015Y007235D01*
X00405Y007297D01*
X004068Y007365D01*
Y007435D01*
X00405Y007503D01*
X004015Y007565D01*
X003965Y007615D01*
X003903Y00765D01*
X003835Y007668D01*
X003765D01*
X003697Y00765D01*
X003635Y007615D01*
X003585Y007565D01*
X00355Y007503D01*
X003532Y007435D01*
Y007365D01*
X00355Y007297D01*
X003585Y007235D01*
X0036Y007221D01*
X003606Y007211D01*
Y007D01*
X003621Y006926D01*
X003663Y006863D01*
X003889Y006637D01*
X003858Y006597D01*
X003853Y0066D01*
X003785Y006618D01*
X003715D01*
X003647Y0066D01*
X003585Y006565D01*
X003535Y006515D01*
X0035Y006453D01*
X003482Y006385D01*
Y006315D01*
X0035Y006247D01*
X003526Y006203D01*
X003502Y006153D01*
X001499D01*
X001459Y006158D01*
X00112D01*
X000953Y006325D01*
Y009391D01*
X000953Y009392D01*
X000955Y00944D01*
X000961Y00947D01*
X000968Y009492D01*
X000976Y009507D01*
X000984Y009516D01*
X000993Y009524D01*
X001008Y009532D01*
X00103Y009539D01*
X00106Y009545D01*
X001108Y009547D01*
X001109Y009547D01*
X001179D01*
X001181Y009547D01*
X001211Y009546D01*
X001234Y009545D01*
X001255Y009542D01*
X001273Y009539D01*
X001287Y009536D01*
X001298Y009532D01*
X001306Y009528D01*
X001312Y009525D01*
X001314Y009523D01*
X001323Y009516D01*
X001332Y00951D01*
X001365Y009478D01*
X001471Y009417D01*
X001589Y009385D01*
X001711D01*
X001829Y009417D01*
X001935Y009478D01*
X001968Y00951D01*
X001977Y009516D01*
X001986Y009523D01*
X001988Y009525D01*
X001994Y009528D01*
X002002Y009532D01*
X002013Y009536D01*
X002027Y009539D01*
X002043Y009542D01*
X002091Y009547D01*
X002119Y009547D01*
X002121Y009547D01*
X002429D01*
X002431Y009547D01*
X002461Y009546D01*
X002484Y009545D01*
X002505Y009542D01*
X002523Y009539D01*
X002537Y009536D01*
X002548Y009532D01*
X002556Y009528D01*
X002562Y009525D01*
X002564Y009523D01*
X002573Y009516D01*
X002582Y00951D01*
X002615Y009478D01*
X002721Y009417D01*
X002839Y009385D01*
X002961D01*
X003079Y009417D01*
X003185Y009478D01*
X003218Y00951D01*
X003227Y009516D01*
X003236Y009523D01*
X003238Y009525D01*
X003244Y009528D01*
X003252Y009532D01*
X003263Y009536D01*
X003277Y009539D01*
X003293Y009542D01*
X003341Y009547D01*
X003366Y009547D01*
X003513Y009545D01*
Y009543D01*
X003655D01*
X003664Y009541D01*
X003665Y009541D01*
X003666Y009541D01*
X003674Y009543D01*
X004027D01*
X004036Y009541D01*
X004045Y009543D01*
X004187D01*
Y009595D01*
X004384D01*
X004401Y009545D01*
D02*
G37*
G36*
X015275Y00954D02*
X015268Y009545D01*
X015259Y009549D01*
X015249Y009552D01*
X015238Y009555D01*
X015226Y009558D01*
X015197Y009561D01*
X015181Y009562D01*
X015146Y009563D01*
Y009663D01*
X015164Y009664D01*
X015212Y009667D01*
X015226Y009669D01*
X015249Y009675D01*
X015259Y009678D01*
X015268Y009682D01*
X015275Y009686D01*
Y00954D01*
D02*
G37*
G36*
X016058Y009526D02*
X016055Y009528D01*
X016052Y00953D01*
X016047Y009532D01*
X016041Y009533D01*
X016034Y009534D01*
X016016Y009536D01*
X015993Y009537D01*
X015979Y009537D01*
X015999Y009687D01*
X016074Y009691D01*
X016058Y009526D01*
D02*
G37*
G36*
X014215Y009514D02*
X014214Y009524D01*
X014211Y009532D01*
X014206Y00954D01*
X014199Y009546D01*
X01419Y009552D01*
X014179Y009556D01*
X014166Y00956D01*
X014151Y009562D01*
X014133Y009564D01*
X014114Y009564D01*
Y009664D01*
X014133Y009665D01*
X014151Y009666D01*
X014166Y009669D01*
X014179Y009672D01*
X01419Y009677D01*
X014199Y009682D01*
X014206Y009689D01*
X014211Y009696D01*
X014214Y009705D01*
X014215Y009714D01*
Y009514D01*
D02*
G37*
G36*
X014586Y009704D02*
X014589Y009695D01*
X014594Y009688D01*
X014601Y009681D01*
X01461Y009676D01*
X014621Y009671D01*
X014634Y009668D01*
X014649Y009665D01*
X014667Y009664D01*
X014686Y009663D01*
Y009563D01*
X014667Y009563D01*
X014649Y009561D01*
X014634Y009559D01*
X014621Y009555D01*
X01461Y009551D01*
X014601Y009545D01*
X014594Y009539D01*
X014589Y009531D01*
X014586Y009523D01*
X014585Y009513D01*
Y009713D01*
X014586Y009704D01*
D02*
G37*
G36*
X010372Y00953D02*
X010365Y009528D01*
X010359Y009523D01*
X010354Y009518D01*
X01035Y009511D01*
X010346Y009502D01*
X010344Y009491D01*
X010342Y009479D01*
X01034Y009465D01*
X01034Y00945D01*
X01026D01*
X01026Y009465D01*
X010258Y009479D01*
X010256Y009491D01*
X010254Y009502D01*
X01025Y009511D01*
X010246Y009518D01*
X010241Y009523D01*
X010235Y009528D01*
X010228Y00953D01*
X01022Y009531D01*
X01038D01*
X010372Y00953D01*
D02*
G37*
G36*
X000803Y010243D02*
X000812Y010192D01*
X000827Y010147D01*
X000848Y010108D01*
X000875Y010075D01*
X000908Y010048D01*
X000947Y010027D01*
X000992Y010012D01*
X001043Y010003D01*
X0011Y01D01*
Y0097D01*
X001043Y009697D01*
X000992Y009688D01*
X000947Y009673D01*
X000908Y009652D01*
X000875Y009625D01*
X000848Y009592D01*
X000827Y009553D01*
X000812Y009508D01*
X000803Y009457D01*
X0008Y0094D01*
X0005Y00985D01*
X0008Y0103D01*
X000803Y010243D01*
D02*
G37*
G36*
X020793Y009425D02*
X020802Y009417D01*
X020811Y009411D01*
X02082Y009405D01*
X02083Y009401D01*
X02084Y009397D01*
X02085Y009394D01*
X02086Y009392D01*
X020871Y00939D01*
X020882Y00939D01*
Y00931D01*
X020871Y00931D01*
X02086Y009308D01*
X02085Y009306D01*
X02084Y009303D01*
X02083Y009299D01*
X02082Y009295D01*
X020811Y009289D01*
X020802Y009283D01*
X020793Y009275D01*
X020784Y009267D01*
Y009433D01*
X020793Y009425D01*
D02*
G37*
G36*
X021046Y00935D02*
X020966Y00923D01*
X020965Y009245D01*
X020962Y009259D01*
X020958Y009271D01*
X020953Y009281D01*
X020946Y00929D01*
X020937Y009297D01*
X020926Y009303D01*
X020914Y009307D01*
X020901Y009309D01*
X020886Y00931D01*
Y00939D01*
X020901Y009391D01*
X020914Y009393D01*
X020926Y009397D01*
X020937Y009403D01*
X020946Y00941D01*
X020953Y009419D01*
X020958Y009429D01*
X020962Y009441D01*
X020965Y009455D01*
X020966Y00947D01*
X021046Y00935D01*
D02*
G37*
G36*
X017307Y0092D02*
X017299Y009192D01*
X017293Y009184D01*
X017287Y009175D01*
X017282Y009166D01*
X017278Y009156D01*
X017274Y009146D01*
X017271Y009135D01*
X017269Y009124D01*
X017268Y009113D01*
X017268Y009101D01*
X017151Y009218D01*
X017163Y009218D01*
X017174Y009219D01*
X017185Y009221D01*
X017196Y009224D01*
X017206Y009228D01*
X017216Y009232D01*
X017225Y009237D01*
X017234Y009243D01*
X017242Y009249D01*
X01725Y009257D01*
X017307Y0092D01*
D02*
G37*
G36*
X008924Y009407D02*
X008934Y0094D01*
X008947Y009388D01*
X009048Y009293D01*
X009126Y009216D01*
X008961Y009097D01*
X008923Y009135D01*
X008852Y009194D01*
X00882Y009216D01*
X008791Y009233D01*
X008764Y009244D01*
X008739Y009251D01*
X008716Y009252D01*
X008696Y009249D01*
X008678Y00924D01*
X00892Y009406D01*
X00892Y009409D01*
X008924Y009407D01*
D02*
G37*
G36*
X018051Y009029D02*
X018043Y009033D01*
X018035Y009037D01*
X018025Y00904D01*
X018014Y009043D01*
X018001Y009046D01*
X017973Y00905D01*
X017957Y009051D01*
X017921Y009052D01*
Y009152D01*
X01794Y009152D01*
X017988Y009155D01*
X018001Y009157D01*
X018025Y009163D01*
X018035Y009166D01*
X018043Y00917D01*
X018051Y009175D01*
Y009029D01*
D02*
G37*
G36*
X015759Y009168D02*
X01577Y009162D01*
X015781Y009157D01*
X015792Y009153D01*
X015804Y009149D01*
X015816Y009146D01*
X015828Y009144D01*
X01584Y009142D01*
X015853Y009141D01*
X015866Y009141D01*
X015865Y009061D01*
X015852Y00906D01*
X015826Y009058D01*
X015814Y009056D01*
X015802Y009053D01*
X015791Y009049D01*
X01578Y009045D01*
X015769Y00904D01*
X015759Y009035D01*
X015749Y009029D01*
Y009175D01*
X015759Y009168D01*
D02*
G37*
G36*
X015965Y009018D02*
X015957Y009026D01*
X015948Y009033D01*
X015939Y00904D01*
X01593Y009045D01*
X01592Y00905D01*
X01591Y009054D01*
X0159Y009057D01*
X01589Y009059D01*
X015879Y00906D01*
X015868Y009061D01*
X015868Y009141D01*
X015879Y009141D01*
X01589Y009142D01*
X015901Y009145D01*
X015911Y009148D01*
X015921Y009151D01*
X01593Y009156D01*
X01594Y009162D01*
X015949Y009168D01*
X015958Y009175D01*
X015966Y009183D01*
X015965Y009018D01*
D02*
G37*
G36*
X019095Y008906D02*
X019094Y008915D01*
X019091Y008922D01*
X019086Y008929D01*
X01908Y008934D01*
X019071Y008939D01*
X019061Y008943D01*
X019048Y008946D01*
X019034Y008948D01*
X019018Y00895D01*
X019Y00895D01*
Y00905D01*
X019018Y00905D01*
X019034Y009052D01*
X019048Y009054D01*
X019061Y009057D01*
X019071Y009061D01*
X01908Y009066D01*
X019086Y009071D01*
X019091Y009078D01*
X019094Y009085D01*
X019095Y009094D01*
Y008906D01*
D02*
G37*
G36*
X009838Y00911D02*
X009844Y0091D01*
X009854Y009092D01*
X009868Y009084D01*
X009886Y009078D01*
X009908Y009073D01*
X009934Y009069D01*
X009964Y009066D01*
X010036Y009064D01*
Y008864D01*
X009998Y008864D01*
X009934Y008859D01*
X009908Y008855D01*
X009886Y00885D01*
X009868Y008844D01*
X009854Y008837D01*
X009844Y008828D01*
X009838Y008819D01*
X009836Y008808D01*
Y00912D01*
X009838Y00911D01*
D02*
G37*
G36*
X009464Y008808D02*
X009462Y008819D01*
X009456Y008828D01*
X009446Y008837D01*
X009432Y008844D01*
X009414Y00885D01*
X009392Y008855D01*
X009366Y008859D01*
X009336Y008862D01*
X009264Y008864D01*
Y009064D01*
X009302Y009065D01*
X009366Y009069D01*
X009392Y009073D01*
X009414Y009078D01*
X009432Y009084D01*
X009446Y009092D01*
X009456Y0091D01*
X009462Y00911D01*
X009464Y00912D01*
Y008808D01*
D02*
G37*
G36*
X018051Y008773D02*
X018043Y008777D01*
X018035Y008781D01*
X018025Y008784D01*
X018014Y008787D01*
X018001Y00879D01*
X017973Y008794D01*
X017957Y008795D01*
X017921Y008796D01*
Y008896D01*
X01794Y008896D01*
X017988Y008899D01*
X018001Y008901D01*
X018025Y008907D01*
X018035Y00891D01*
X018043Y008914D01*
X018051Y008919D01*
Y008773D01*
D02*
G37*
G36*
X02013Y008921D02*
X020128Y008914D01*
Y008905D01*
X02013Y008896D01*
X020135Y008885D01*
X020141Y008873D01*
X02015Y00886D01*
X020162Y008846D01*
X020191Y008814D01*
X020135Y008758D01*
X020118Y008773D01*
X020089Y008798D01*
X020076Y008807D01*
X020064Y008814D01*
X020053Y008819D01*
X020044Y008821D01*
X020035D01*
X020028Y008819D01*
X020021Y008814D01*
X020135Y008927D01*
X02013Y008921D01*
D02*
G37*
G36*
X014586Y008983D02*
X014591Y00897D01*
X014598Y008959D01*
X014609Y008949D01*
X014623Y008941D01*
X014639Y008934D01*
X014659Y008929D01*
X014681Y008925D01*
X014707Y008923D01*
X014736Y008922D01*
Y008772D01*
X014707Y008772D01*
X014659Y008768D01*
X01464Y008765D01*
X014623Y008761D01*
X01461Y008757D01*
X014599Y008751D01*
X014592Y008745D01*
X014587Y008738D01*
X014586Y00873D01*
X014585Y008997D01*
X014586Y008983D01*
D02*
G37*
G36*
X014294Y008519D02*
X01429Y00852D01*
X01428Y008521D01*
X014242Y008523D01*
X013988Y008525D01*
Y008725D01*
X014294Y008731D01*
Y008519D01*
D02*
G37*
G36*
X015757Y008658D02*
X015765Y008655D01*
X015775Y008651D01*
X015786Y008648D01*
X015799Y008646D01*
X015827Y008642D01*
X015843Y008641D01*
X015879Y00864D01*
Y00854D01*
X01586Y00854D01*
X015812Y008536D01*
X015799Y008534D01*
X015775Y008528D01*
X015765Y008525D01*
X015757Y008521D01*
X015749Y008517D01*
Y008663D01*
X015757Y008658D01*
D02*
G37*
G36*
X015275Y008517D02*
X015268Y008521D01*
X015259Y008525D01*
X015249Y008528D01*
X015238Y008531D01*
X015226Y008534D01*
X015197Y008538D01*
X015181Y008539D01*
X015146Y00854D01*
Y00864D01*
X015164Y00864D01*
X015212Y008643D01*
X015226Y008646D01*
X015249Y008651D01*
X015259Y008655D01*
X015268Y008658D01*
X015275Y008663D01*
Y008517D01*
D02*
G37*
G36*
X018532Y008403D02*
X018541Y008399D01*
X018551Y008395D01*
X018562Y008392D01*
X018574Y00839D01*
X018603Y008386D01*
X018619Y008385D01*
X018654Y008384D01*
Y008284D01*
X018636Y008284D01*
X018588Y00828D01*
X018574Y008278D01*
X018551Y008273D01*
X018541Y008269D01*
X018532Y008265D01*
X018525Y008261D01*
Y008407D01*
X018532Y008403D01*
D02*
G37*
G36*
X019094Y008214D02*
X019093Y008221D01*
X01909Y008227D01*
X019085Y008233D01*
X019079Y008238D01*
X019071Y008242D01*
X01906Y008245D01*
X019048Y008248D01*
X019034Y00825D01*
X019019Y008251D01*
X019001Y008251D01*
Y008351D01*
X019019Y008352D01*
X019035Y008353D01*
X019049Y008355D01*
X019061Y008358D01*
X019071Y008362D01*
X01908Y008366D01*
X019086Y008372D01*
X019091Y008378D01*
X019094Y008386D01*
X019095Y008394D01*
X019094Y008214D01*
D02*
G37*
G36*
X019987Y008215D02*
X019981Y008212D01*
X019975Y008208D01*
X019969Y008202D01*
X019965Y008195D01*
X019961Y008186D01*
X019959Y008176D01*
X019957Y008163D01*
X019955Y00815D01*
X019955Y008134D01*
X019875D01*
X019875Y00815D01*
X019873Y008163D01*
X019871Y008176D01*
X019869Y008186D01*
X019865Y008195D01*
X019861Y008202D01*
X019855Y008208D01*
X019849Y008212D01*
X019843Y008215D01*
X019835Y008215D01*
X019995D01*
X019987Y008215D01*
D02*
G37*
G36*
X019955Y008071D02*
X019957Y008057D01*
X019959Y008045D01*
X019961Y008035D01*
X019965Y008026D01*
X019969Y008019D01*
X019975Y008013D01*
X019981Y008009D01*
X019987Y008007D01*
X019995Y008006D01*
X019835D01*
X019843Y008007D01*
X019849Y008009D01*
X019855Y008013D01*
X019861Y008019D01*
X019865Y008026D01*
X019869Y008035D01*
X019871Y008045D01*
X019873Y008057D01*
X019875Y008071D01*
X019875Y008086D01*
X019955D01*
X019955Y008071D01*
D02*
G37*
G36*
X018532Y008147D02*
X018541Y008143D01*
X018551Y008139D01*
X018562Y008136D01*
X018574Y008134D01*
X018603Y00813D01*
X018619Y008129D01*
X018654Y008128D01*
Y008028D01*
X018636Y008028D01*
X018588Y008024D01*
X018574Y008022D01*
X018551Y008017D01*
X018541Y008013D01*
X018532Y008009D01*
X018525Y008005D01*
Y008151D01*
X018532Y008147D01*
D02*
G37*
G36*
X015757D02*
X015765Y008143D01*
X015775Y008139D01*
X015786Y008136D01*
X015799Y008134D01*
X015827Y00813D01*
X015843Y008129D01*
X015879Y008128D01*
Y008028D01*
X01586Y008028D01*
X015812Y008024D01*
X015799Y008022D01*
X015775Y008017D01*
X015765Y008013D01*
X015757Y008009D01*
X015749Y008005D01*
Y008151D01*
X015757Y008147D01*
D02*
G37*
G36*
X018051Y007749D02*
X018043Y007753D01*
X018035Y007757D01*
X018025Y007761D01*
X018014Y007764D01*
X018001Y007766D01*
X017973Y00777D01*
X017957Y007771D01*
X017921Y007772D01*
Y007872D01*
X01794Y007872D01*
X017988Y007876D01*
X018001Y007878D01*
X018025Y007883D01*
X018035Y007887D01*
X018043Y007891D01*
X018051Y007895D01*
Y007749D01*
D02*
G37*
G36*
X014586Y007726D02*
X014589Y007718D01*
X014594Y00771D01*
X014601Y007704D01*
X01461Y007698D01*
X014621Y007694D01*
X014634Y00769D01*
X014649Y007688D01*
X014667Y007686D01*
X014686Y007686D01*
Y007586D01*
X014667Y007585D01*
X014649Y007584D01*
X014634Y007581D01*
X014621Y007578D01*
X01461Y007573D01*
X014601Y007568D01*
X014594Y007561D01*
X014589Y007554D01*
X014586Y007545D01*
X014585Y007536D01*
Y007736D01*
X014586Y007726D01*
D02*
G37*
G36*
X019375Y007694D02*
X019372Y007691D01*
X019369Y007686D01*
X019367Y00768D01*
X019365Y007671D01*
X019363Y007661D01*
X019362Y007648D01*
X01936Y007618D01*
X01936Y0076D01*
X01936Y007582D01*
X019363Y00754D01*
X019365Y00753D01*
X019367Y007521D01*
X019369Y007515D01*
X019372Y00751D01*
X019375Y007507D01*
X019379Y007506D01*
X019191D01*
X019195Y007507D01*
X019198Y00751D01*
X019201Y007515D01*
X019203Y007521D01*
X019205Y00753D01*
X019207Y00754D01*
X019208Y007552D01*
X01921Y007582D01*
X01921Y0076D01*
X01921Y007618D01*
X019207Y007661D01*
X019205Y007671D01*
X019203Y00768D01*
X019201Y007686D01*
X019198Y007691D01*
X019195Y007694D01*
X019191Y007695D01*
X019379D01*
X019375Y007694D01*
D02*
G37*
G36*
X020128Y007506D02*
X020112Y00749D01*
X020087Y00746D01*
X020078Y007447D01*
X020071Y007436D01*
X020067Y007425D01*
X020064Y007415D01*
Y007407D01*
X020067Y007399D01*
X020071Y007393D01*
X019958Y007506D01*
X019964Y007502D01*
X019972Y007499D01*
X01998D01*
X01999Y007502D01*
X020001Y007506D01*
X020012Y007513D01*
X020025Y007522D01*
X02004Y007533D01*
X020071Y007563D01*
X020128Y007506D01*
D02*
G37*
G36*
X01688Y009077D02*
X016882Y009075D01*
Y009065D01*
X0169Y008997D01*
X016935Y008935D01*
X016985Y008885D01*
X017047Y00885D01*
X017115Y008832D01*
X017185D01*
X017253Y00885D01*
X017306Y008881D01*
X017356Y008864D01*
Y00853D01*
X016074Y007248D01*
X015979D01*
X015947Y007287D01*
X015952Y00731D01*
X015934Y007399D01*
X015909Y007438D01*
X015934Y007477D01*
X015952Y007566D01*
X015934Y007655D01*
X015909Y007694D01*
X015934Y007733D01*
X015952Y007822D01*
X015934Y007911D01*
X015884Y007987D01*
X015876Y007992D01*
X015887Y008008D01*
X015901Y008078D01*
X015887Y008148D01*
X015876Y008164D01*
X015884Y008169D01*
X015934Y008245D01*
X015952Y008334D01*
X015949Y008347D01*
X015981Y008386D01*
X01604D01*
X016118Y008401D01*
X016184Y008446D01*
X016832Y009094D01*
X01688Y009077D01*
D02*
G37*
G36*
X003875Y007307D02*
X003867Y007298D01*
X003861Y007289D01*
X003855Y00728D01*
X003851Y00727D01*
X003847Y00726D01*
X003844Y00725D01*
X003842Y00724D01*
X00384Y007229D01*
X00384Y007218D01*
X00376D01*
X00376Y007229D01*
X003758Y00724D01*
X003756Y00725D01*
X003753Y00726D01*
X003749Y00727D01*
X003745Y00728D01*
X003739Y007289D01*
X003733Y007298D01*
X003725Y007307D01*
X003717Y007316D01*
X003883D01*
X003875Y007307D01*
D02*
G37*
G36*
X018051Y006981D02*
X018043Y006986D01*
X018035Y00699D01*
X018025Y006993D01*
X018014Y006996D01*
X018001Y006999D01*
X017973Y007002D01*
X017957Y007003D01*
X017921Y007004D01*
Y007104D01*
X01794Y007105D01*
X017988Y007108D01*
X018001Y00711D01*
X018025Y007116D01*
X018035Y007119D01*
X018043Y007123D01*
X018051Y007127D01*
Y006981D01*
D02*
G37*
G36*
X015759Y007121D02*
X01577Y007115D01*
X01578Y007111D01*
X015791Y007106D01*
X015803Y007103D01*
X015815Y0071D01*
X015827Y007097D01*
X015839Y007096D01*
X015852Y007095D01*
X015865Y007094D01*
Y007014D01*
X015852Y007014D01*
X015827Y007011D01*
X015815Y007009D01*
X015803Y007006D01*
X015791Y007002D01*
X01578Y006998D01*
X01577Y006993D01*
X015759Y006988D01*
X015749Y006981D01*
Y007127D01*
X015759Y007121D01*
D02*
G37*
G36*
X01908Y006649D02*
X019078Y006663D01*
X019074Y006676D01*
X019066Y006687D01*
X019056Y006697D01*
X019042Y006705D01*
X019026Y006712D01*
X019006Y006717D01*
X018984Y006721D01*
X018958Y006723D01*
X01893Y006724D01*
Y006874D01*
X018958Y006875D01*
X018984Y006877D01*
X019006Y006881D01*
X019026Y006886D01*
X019042Y006893D01*
X019056Y006901D01*
X019066Y006911D01*
X019074Y006922D01*
X019078Y006935D01*
X01908Y006949D01*
Y006649D01*
D02*
G37*
G36*
X018051Y006469D02*
X018041Y006476D01*
X01803Y006481D01*
X01802Y006486D01*
X018009Y006491D01*
X017997Y006494D01*
X017985Y006497D01*
X017973Y0065D01*
X017961Y006501D01*
X017948Y006502D01*
X017935Y006503D01*
Y006583D01*
X017948Y006583D01*
X017973Y006585D01*
X017985Y006588D01*
X017997Y006591D01*
X018009Y006594D01*
X01802Y006599D01*
X01803Y006604D01*
X018041Y006609D01*
X018051Y006616D01*
Y006469D01*
D02*
G37*
G36*
X019372Y006614D02*
X019359Y006609D01*
X019348Y006602D01*
X019338Y006591D01*
X01933Y006578D01*
X019323Y006561D01*
X019318Y006541D01*
X019314Y006519D01*
X019312Y006493D01*
X019311Y006464D01*
X019161D01*
X01916Y006493D01*
X019158Y006519D01*
X019154Y006541D01*
X019149Y006561D01*
X019142Y006578D01*
X019134Y006591D01*
X019124Y006602D01*
X019113Y006609D01*
X0191Y006614D01*
X019086Y006615D01*
X019386D01*
X019372Y006614D01*
D02*
G37*
G36*
X019311Y006449D02*
X019315Y006395D01*
X019316Y00639D01*
X019317Y006386D01*
X019318Y006384D01*
X019153D01*
X019155Y006386D01*
X019156Y00639D01*
X019157Y006395D01*
X019158Y0064D01*
X01916Y006416D01*
X019161Y006437D01*
X019161Y006462D01*
X019311D01*
X019311Y006449D01*
D02*
G37*
G36*
X003843Y006425D02*
X003852Y006417D01*
X003861Y006411D01*
X00387Y006405D01*
X00388Y006401D01*
X00389Y006397D01*
X0039Y006394D01*
X00391Y006392D01*
X003921Y00639D01*
X003932Y00639D01*
Y00631D01*
X003921Y00631D01*
X00391Y006308D01*
X0039Y006306D01*
X00389Y006303D01*
X00388Y006299D01*
X00387Y006295D01*
X003861Y006289D01*
X003852Y006283D01*
X003843Y006275D01*
X003834Y006267D01*
Y006433D01*
X003843Y006425D01*
D02*
G37*
G36*
X018115Y006209D02*
X018109Y006213D01*
X018102Y006215D01*
X018094Y006216D01*
X018084Y006213D01*
X018074Y006209D01*
X018063Y006203D01*
X01805Y006194D01*
X018036Y006183D01*
X018022Y00617D01*
X018006Y006155D01*
X017949Y006211D01*
X017958Y006221D01*
X017974Y006241D01*
X017981Y006251D01*
X017988Y006261D01*
X017993Y006272D01*
X017998Y006283D01*
X018002Y006294D01*
X018005Y006305D01*
X018008Y006317D01*
X018115Y006209D01*
D02*
G37*
G36*
X01295Y0063D02*
X0128Y00615D01*
Y006072D01*
X012787Y006027D01*
X01255D01*
Y005916D01*
X01245D01*
Y006027D01*
X012213D01*
X0122Y006072D01*
Y00615D01*
X01205Y0063D01*
Y00655D01*
X01295D01*
Y0063D01*
D02*
G37*
G36*
X013336Y005926D02*
X013037D01*
X013056Y005928D01*
X013073Y005934D01*
X013088Y005944D01*
X013101Y005958D01*
X013112Y005976D01*
X013121Y005998D01*
X013128Y006024D01*
X013133Y006054D01*
X013136Y006088D01*
X013137Y006126D01*
X013337D01*
X013336Y005926D01*
D02*
G37*
G36*
X010167Y005565D02*
X010144Y005591D01*
X010119Y005614D01*
X010091Y005634D01*
X010061Y005652D01*
X010027Y005666D01*
X00999Y005678D01*
X00995Y005688D01*
X009908Y005695D01*
X009862Y005699D01*
X009814Y0057D01*
X0099Y006D01*
X009957Y006D01*
X010235Y006017D01*
X010247Y006021D01*
X010167Y005565D01*
D02*
G37*
G36*
X011752Y00602D02*
Y00552D01*
X01125Y005519D01*
Y006021D01*
X011752Y00602D01*
D02*
G37*
G36*
X022686Y00532D02*
X022685Y005328D01*
X022683Y005334D01*
X022679Y00534D01*
X022673Y005346D01*
X022666Y00535D01*
X022657Y005354D01*
X022646Y005356D01*
X022634Y005358D01*
X02262Y00536D01*
X022605Y00536D01*
Y00544D01*
X02262Y00544D01*
X022634Y005442D01*
X022646Y005444D01*
X022657Y005446D01*
X022666Y00545D01*
X022673Y005454D01*
X022679Y00546D01*
X022683Y005466D01*
X022685Y005472D01*
X022686Y00548D01*
Y00532D01*
D02*
G37*
G36*
X01769Y005179D02*
X017692Y005164D01*
X017694Y005152D01*
X017696Y005141D01*
X0177Y005132D01*
X017704Y005124D01*
X017709Y005118D01*
X017715Y005114D01*
X017722Y005112D01*
X01773Y005111D01*
X01757D01*
X017578Y005112D01*
X017585Y005114D01*
X017591Y005118D01*
X017596Y005124D01*
X0176Y005132D01*
X017604Y005141D01*
X017606Y005152D01*
X017608Y005164D01*
X01761Y005179D01*
X01761Y005195D01*
X01769D01*
X01769Y005179D01*
D02*
G37*
G36*
X016942D02*
X016944Y005164D01*
X016946Y005152D01*
X016948Y005141D01*
X016952Y005132D01*
X016956Y005124D01*
X016961Y005118D01*
X016967Y005114D01*
X016974Y005112D01*
X016982Y005111D01*
X016822D01*
X01683Y005112D01*
X016837Y005114D01*
X016843Y005118D01*
X016848Y005124D01*
X016852Y005132D01*
X016856Y005141D01*
X016858Y005152D01*
X01686Y005164D01*
X016862Y005179D01*
X016862Y005195D01*
X016942D01*
X016942Y005179D01*
D02*
G37*
G36*
X011201Y005515D02*
X011158Y005499D01*
X011121Y005474D01*
X011088Y005439D01*
X011061Y005393D01*
X011038Y005337D01*
X011021Y005271D01*
X011008Y005195D01*
X011001Y005109D01*
X010998Y005013D01*
X010498D01*
X010496Y005109D01*
X010488Y005195D01*
X010476Y005271D01*
X010458Y005337D01*
X010436Y005393D01*
X010408Y005439D01*
X010376Y005474D01*
X010339Y005499D01*
X010296Y005515D01*
X010249Y00552D01*
X011248D01*
X011201Y005515D01*
D02*
G37*
G36*
X013594Y004941D02*
X013593Y004951D01*
X01359Y004959D01*
X013585Y004967D01*
X013578Y004973D01*
X013569Y004979D01*
X013558Y004983D01*
X013545Y004987D01*
X01353Y004989D01*
X013513Y004991D01*
X013494Y004991D01*
Y005091D01*
X013513Y005092D01*
X01353Y005093D01*
X013545Y005096D01*
X013558Y005099D01*
X013569Y005104D01*
X013578Y005109D01*
X013585Y005116D01*
X01359Y005123D01*
X013593Y005132D01*
X013594Y005141D01*
Y004941D01*
D02*
G37*
G36*
X013336Y005132D02*
X013339Y005123D01*
X013344Y005116D01*
X013351Y005109D01*
X01336Y005104D01*
X013371Y005099D01*
X013384Y005096D01*
X013399Y005093D01*
X013417Y005092D01*
X013436Y005091D01*
Y004991D01*
X013417Y004991D01*
X013399Y004989D01*
X013384Y004987D01*
X013371Y004983D01*
X01336Y004979D01*
X013351Y004973D01*
X013344Y004967D01*
X013339Y004959D01*
X013336Y004951D01*
X013335Y004941D01*
Y005141D01*
X013336Y005132D01*
D02*
G37*
G36*
X017348Y004565D02*
X017341Y004562D01*
X017335Y004558D01*
X01733Y004552D01*
X017326Y004545D01*
X017322Y004535D01*
X01732Y004525D01*
X017318Y004512D01*
X017316Y004498D01*
X017316Y004482D01*
X017236D01*
X017236Y004498D01*
X017234Y004512D01*
X017232Y004525D01*
X01723Y004535D01*
X017226Y004545D01*
X017222Y004552D01*
X017217Y004558D01*
X017211Y004562D01*
X017204Y004565D01*
X017196Y004566D01*
X017356D01*
X017348Y004565D01*
D02*
G37*
G36*
X017848Y00731D02*
X017866Y007221D01*
X017916Y007145D01*
X017924Y00714D01*
X017913Y007124D01*
X017899Y007054D01*
X017913Y006985D01*
X017924Y006968D01*
X017916Y006963D01*
X017866Y006888D01*
X017848Y006798D01*
X017853Y006775D01*
X017821Y006736D01*
X017393D01*
X017318Y006722D01*
X017256Y006679D01*
X016765Y006189D01*
X016723Y006126D01*
X016708Y006052D01*
Y005219D01*
X016702Y005215D01*
X016664Y005157D01*
X01665Y005089D01*
Y004587D01*
X016663Y004521D01*
X016613Y004487D01*
X016106Y00398D01*
X015908Y004178D01*
X015859Y004211D01*
X0158Y004223D01*
X0158Y004271D01*
X015888Y004288D01*
X015962Y004338D01*
X016462Y004838D01*
X016512Y004912D01*
X016529Y005D01*
Y006205D01*
X017661Y007337D01*
X017826D01*
X017848Y00731D01*
D02*
G37*
G36*
X00585Y00385D02*
X00555D01*
Y00455D01*
X00445D01*
Y00425D01*
X00245D01*
Y00535D01*
X00585D01*
Y00385D01*
D02*
G37*
G36*
X006915Y003834D02*
X006915Y003842D01*
X006912Y003849D01*
X006908Y003855D01*
X006902Y00386D01*
X006895Y003864D01*
X006886Y003868D01*
X006876Y003871D01*
X006863Y003873D01*
X00685Y003874D01*
X006834Y003874D01*
Y003954D01*
X00685Y003955D01*
X006863Y003956D01*
X006876Y003958D01*
X006886Y003961D01*
X006895Y003964D01*
X006902Y003969D01*
X006908Y003974D01*
X006912Y00398D01*
X006915Y003987D01*
X006915Y003994D01*
Y003834D01*
D02*
G37*
G36*
X006685Y003987D02*
X006688Y00398D01*
X006692Y003974D01*
X006698Y003969D01*
X006705Y003964D01*
X006714Y003961D01*
X006724Y003958D01*
X006737Y003956D01*
X00675Y003955D01*
X006766Y003954D01*
Y003874D01*
X00675Y003874D01*
X006737Y003873D01*
X006724Y003871D01*
X006714Y003868D01*
X006705Y003864D01*
X006698Y00386D01*
X006692Y003855D01*
X006688Y003849D01*
X006685Y003842D01*
X006685Y003834D01*
Y003994D01*
X006685Y003987D01*
D02*
G37*
G36*
X004998Y003885D02*
X004992Y003883D01*
X004986Y003879D01*
X00498Y003873D01*
X004976Y003866D01*
X004972Y003857D01*
X00497Y003847D01*
X004968Y003835D01*
X004966Y003821D01*
X004966Y003806D01*
X004886D01*
X004886Y003821D01*
X004884Y003835D01*
X004882Y003847D01*
X00488Y003857D01*
X004876Y003866D01*
X004872Y003873D01*
X004866Y003879D01*
X00486Y003883D01*
X004854Y003885D01*
X004846Y003886D01*
X005006D01*
X004998Y003885D01*
D02*
G37*
G36*
X013595Y003764D02*
X013594Y003774D01*
X013591Y003782D01*
X013586Y00379D01*
X013579Y003796D01*
X013569Y003802D01*
X013558Y003806D01*
X013545Y00381D01*
X01353Y003812D01*
X013513Y003814D01*
X013494Y003814D01*
Y003914D01*
X013513Y003915D01*
X013545Y003918D01*
X013558Y003921D01*
X013569Y003925D01*
X013578Y003929D01*
X013585Y003935D01*
X01359Y003941D01*
X013593Y003948D01*
X013594Y003956D01*
X013595Y003764D01*
D02*
G37*
G36*
X013336Y003955D02*
X013339Y003946D01*
X013344Y003939D01*
X013351Y003932D01*
X01336Y003927D01*
X013371Y003922D01*
X013384Y003919D01*
X013399Y003916D01*
X013417Y003915D01*
X013436Y003914D01*
Y003814D01*
X013417Y003814D01*
X013399Y003812D01*
X013384Y00381D01*
X013371Y003806D01*
X01336Y003802D01*
X013351Y003796D01*
X013344Y00379D01*
X013339Y003782D01*
X013336Y003774D01*
X013335Y003764D01*
Y003964D01*
X013336Y003955D01*
D02*
G37*
G36*
X006427Y003759D02*
X006421Y003763D01*
X006414Y003766D01*
X006406Y003766D01*
X006396Y003763D01*
X006385Y003758D01*
X006373Y003752D01*
X00636Y003742D01*
X006346Y003731D01*
X006314Y003701D01*
X006258Y003758D01*
X006274Y003774D01*
X006299Y003804D01*
X006308Y003817D01*
X006315Y003829D01*
X006319Y00384D01*
X006322Y003849D01*
X006322Y003858D01*
X00632Y003865D01*
X006315Y003871D01*
X006427Y003759D01*
D02*
G37*
G36*
X017722Y003577D02*
X017715Y003574D01*
X017709Y00357D01*
X017704Y003564D01*
X0177Y003556D01*
X017696Y003547D01*
X017694Y003536D01*
X017692Y003524D01*
X01769Y00351D01*
X01769Y003494D01*
X01761D01*
X01761Y00351D01*
X017608Y003524D01*
X017606Y003536D01*
X017604Y003547D01*
X0176Y003556D01*
X017596Y003564D01*
X017591Y00357D01*
X017585Y003574D01*
X017578Y003577D01*
X01757Y003577D01*
X01773D01*
X017722Y003577D01*
D02*
G37*
G36*
X016974D02*
X016967Y003574D01*
X016961Y00357D01*
X016956Y003564D01*
X016952Y003556D01*
X016948Y003547D01*
X016946Y003536D01*
X016944Y003524D01*
X016942Y00351D01*
X016942Y003494D01*
X016862D01*
X016862Y00351D01*
X01686Y003524D01*
X016858Y003536D01*
X016856Y003547D01*
X016852Y003556D01*
X016848Y003564D01*
X016843Y00357D01*
X016837Y003574D01*
X01683Y003577D01*
X016822Y003577D01*
X016982D01*
X016974Y003577D01*
D02*
G37*
G36*
X01736Y003577D02*
X017353Y003571D01*
X017346Y003564D01*
X017341Y003556D01*
X017336Y003546D01*
X017333Y003534D01*
X01733Y003521D01*
X017328Y003507D01*
X017326Y003491D01*
X017326Y003476D01*
X017326Y003466D01*
X017327Y003454D01*
X017329Y003444D01*
X017331Y003433D01*
X017334Y003424D01*
X017338Y003415D01*
X017342Y003406D01*
X017347Y003398D01*
X017352Y003391D01*
X017359Y003384D01*
X017193D01*
X0172Y003391D01*
X017205Y003398D01*
X01721Y003406D01*
X017214Y003415D01*
X017218Y003424D01*
X017221Y003433D01*
X017223Y003444D01*
X017225Y003454D01*
X017226Y003466D01*
X017226Y003476D01*
X017226Y003491D01*
X017224Y003507D01*
X017222Y003521D01*
X017219Y003534D01*
X017216Y003546D01*
X017211Y003556D01*
X017206Y003564D01*
X017199Y003571D01*
X017192Y003577D01*
X017184Y003581D01*
X017368D01*
X01736Y003577D01*
D02*
G37*
G36*
X006243Y00326D02*
X006252Y003253D01*
X006261Y003247D01*
X00627Y003241D01*
X00628Y003237D01*
X006288Y003233D01*
X006295Y003236D01*
X006302Y00324D01*
X006308Y003245D01*
X006312Y003251D01*
X006315Y003258D01*
X006315Y003266D01*
Y003227D01*
X006321Y003226D01*
X006332Y003226D01*
Y003146D01*
X006321Y003145D01*
X006315Y003145D01*
Y003106D01*
X006315Y003113D01*
X006312Y00312D01*
X006308Y003126D01*
X006302Y003131D01*
X006295Y003136D01*
X006288Y003139D01*
X00628Y003135D01*
X00627Y00313D01*
X006261Y003125D01*
X006252Y003119D01*
X006243Y003111D01*
X006234Y003103D01*
Y003146D01*
X006234Y003146D01*
Y003226D01*
X006234Y003226D01*
Y003268D01*
X006243Y00326D01*
D02*
G37*
G36*
X00728Y003108D02*
X007277Y003102D01*
X007276Y003094D01*
X007278Y003085D01*
X007282Y003074D01*
X007289Y003062D01*
X007299Y003049D01*
X007311Y003034D01*
X007342Y003D01*
X007285Y002945D01*
X007264Y002965D01*
X007211Y003009D01*
X007196Y003019D01*
X007183Y003026D01*
X007171Y003031D01*
X00716Y003033D01*
X007151Y003032D01*
X007143Y00303D01*
X007286Y003113D01*
X00728Y003108D01*
D02*
G37*
G36*
X006272Y005497D02*
X006241Y005491D01*
X006192Y005458D01*
X006159Y005409D01*
X006147Y00535D01*
Y00455D01*
X006159Y004491D01*
X006192Y004442D01*
X006241Y004409D01*
X0063Y004397D01*
X007797D01*
Y002823D01*
X007747Y002808D01*
X007737Y002823D01*
X007437Y003123D01*
Y003129D01*
X007437Y003134D01*
X007437Y003135D01*
Y003493D01*
X006763D01*
Y003443D01*
X00655D01*
Y003333D01*
X00645D01*
Y003443D01*
X006344D01*
X006324Y003493D01*
X006436Y003606D01*
X006437Y003607D01*
X007437D01*
Y004222D01*
X006163D01*
Y003881D01*
X006079Y003797D01*
X006036Y003799D01*
X006002Y003843D01*
X006003Y00385D01*
Y00535D01*
X005991Y005409D01*
X005958Y005458D01*
X005909Y005491D01*
X005878Y005497D01*
X005883Y005547D01*
X006267D01*
X006272Y005497D01*
D02*
G37*
G36*
X01694Y002551D02*
X016941Y002537D01*
X016943Y002525D01*
X016946Y002515D01*
X016949Y002506D01*
X016954Y002499D01*
X016958Y002493D01*
X016964Y002489D01*
X01697Y002487D01*
X016978Y002486D01*
X016822D01*
X01683Y002487D01*
X016836Y002489D01*
X016842Y002493D01*
X016846Y002499D01*
X016851Y002506D01*
X016854Y002515D01*
X016857Y002525D01*
X016859Y002537D01*
X01686Y002551D01*
X01686Y002566D01*
X01694D01*
X01694Y002551D01*
D02*
G37*
G36*
X016684D02*
X016686Y002537D01*
X016687Y002525D01*
X01669Y002515D01*
X016693Y002506D01*
X016698Y002499D01*
X016702Y002493D01*
X016708Y002489D01*
X016715Y002487D01*
X016722Y002486D01*
X016567D01*
X016574Y002487D01*
X01658Y002489D01*
X016586Y002493D01*
X016591Y002499D01*
X016595Y002506D01*
X016598Y002515D01*
X016601Y002525D01*
X016603Y002537D01*
X016604Y002551D01*
X016604Y002566D01*
X016684D01*
X016684Y002551D01*
D02*
G37*
G36*
X01749Y002479D02*
X017493Y002473D01*
X017498Y002468D01*
X017505Y002463D01*
X017514Y002459D01*
X017525Y002456D01*
X017538Y002453D01*
X017553Y002451D01*
X01757Y00245D01*
X017589Y00245D01*
Y00235D01*
X01757Y00235D01*
X017553Y002348D01*
X017538Y002345D01*
X017525Y002342D01*
X017514Y002338D01*
X017505Y002332D01*
X017497Y002325D01*
X017492Y002318D01*
X017489Y002309D01*
X017488Y0023D01*
X017489Y002486D01*
X01749Y002479D01*
D02*
G37*
G36*
X017489Y00209D02*
X017492Y002082D01*
X017497Y002075D01*
X017504Y002068D01*
X017513Y002062D01*
X017525Y002058D01*
X017538Y002054D01*
X017553Y002052D01*
X01757Y002051D01*
X017589Y00205D01*
Y00195D01*
X01757Y001949D01*
X017553Y001948D01*
X017538Y001945D01*
X017525Y001942D01*
X017513Y001937D01*
X017504Y001932D01*
X017497Y001926D01*
X017492Y001918D01*
X017489Y00191D01*
X017488Y0019D01*
Y0021D01*
X017489Y00209D01*
D02*
G37*
G36*
X0158Y00407D02*
X01647Y0034D01*
Y0019D01*
X01609D01*
Y0032D01*
X01562Y00367D01*
X01441Y00367D01*
Y00407D01*
X0158Y00407D01*
D02*
G37*
G36*
X021046Y00132D02*
X021048Y001286D01*
X021049Y00128D01*
X021052Y001269D01*
X021056Y00126D01*
X02106Y001253D01*
X021065Y001247D01*
X021071Y001243D01*
X021078Y001241D01*
X021086Y00124D01*
X021051D01*
X021053Y001206D01*
X021057Y001186D01*
X021061Y001168D01*
X021065Y001154D01*
X02107Y001143D01*
X021076Y001136D01*
X020935D01*
X020941Y001143D01*
X020946Y001154D01*
X02095Y001168D01*
X020954Y001186D01*
X020958Y001206D01*
X020961Y00124D01*
X020926D01*
X020933Y001241D01*
X02094Y001243D01*
X020946Y001247D01*
X020951Y001253D01*
X020956Y00126D01*
X020959Y001269D01*
X020962Y00128D01*
X020964Y001292D01*
X020964Y001296D01*
X020965Y00132D01*
X020966Y001357D01*
X021046D01*
X021046Y00132D01*
D02*
G37*
G36*
X020613Y000889D02*
X020611Y000903D01*
X020605Y000916D01*
X020595Y000928D01*
X020581Y000938D01*
X020563Y000946D01*
X020541Y000953D01*
X020515Y000958D01*
X020485Y000962D01*
X020451Y000964D01*
X020413Y000965D01*
Y001165D01*
X020451Y001166D01*
X020515Y001172D01*
X020541Y001177D01*
X020563Y001184D01*
X020581Y001192D01*
X020595Y001202D01*
X020605Y001214D01*
X020611Y001226D01*
X020613Y001241D01*
Y000889D01*
D02*
G37*
G36*
X019589Y001226D02*
X019595Y001214D01*
X019605Y001202D01*
X019619Y001192D01*
X019637Y001184D01*
X019659Y001177D01*
X019685Y001172D01*
X019715Y001168D01*
X019749Y001166D01*
X019787Y001165D01*
Y000965D01*
X019749Y000964D01*
X019685Y000958D01*
X019659Y000953D01*
X019637Y000946D01*
X019619Y000938D01*
X019605Y000928D01*
X019595Y000916D01*
X019589Y000903D01*
X019587Y000889D01*
Y001241D01*
X019589Y001226D01*
D02*
G37*
G36*
X011726Y003484D02*
X011732Y003415D01*
X011734Y0034D01*
X0134D01*
Y00285D01*
X0129D01*
Y00085D01*
X0121D01*
Y00285D01*
X0114D01*
Y0034D01*
X011566D01*
X011568Y003415D01*
X011572Y003448D01*
X011574Y003484D01*
X011575Y003525D01*
X011725D01*
X011726Y003484D01*
D02*
G37*
G36*
X01487Y00082D02*
X0138D01*
Y00181D01*
X01441Y00242D01*
Y00299D01*
Y00333D01*
X01487D01*
Y00082D01*
D02*
G37*
G36*
X00865Y00265D02*
Y0019D01*
X0113D01*
Y00075D01*
X01D01*
Y0015D01*
X009641D01*
X00964Y001493D01*
X00964Y001478D01*
X00956D01*
X00956Y001493D01*
X009559Y0015D01*
X00795D01*
Y00455D01*
X0063D01*
Y00456D01*
Y00535D01*
X00865D01*
Y00265D01*
D02*
G37*
G36*
X0044Y0033D02*
X00545D01*
Y00275D01*
X00715D01*
Y0004D01*
X00595D01*
Y0015D01*
X00475D01*
Y00295D01*
X00245D01*
Y0037D01*
X0044D01*
Y0033D01*
D02*
G37*
G36*
X020462Y000738D02*
X020472D01*
X020512Y000712D01*
Y000485D01*
X020623D01*
Y000385D01*
X020512D01*
Y000194D01*
X020476Y000159D01*
X019688Y000161D01*
Y000385D01*
X019577D01*
Y000485D01*
X019688D01*
Y000712D01*
X019728Y000738D01*
X019738D01*
Y00081D01*
X019744Y00081D01*
X020462D01*
Y000738D01*
D02*
G37*
%LPC*%
G36*
X001302Y004745D02*
X001198D01*
X001097Y004718D01*
X001007Y004666D01*
X001006Y004665D01*
X001087Y004584D01*
X001016Y004513D01*
X000935Y004594D01*
X000934Y004593D01*
X000882Y004503D01*
X000855Y004402D01*
Y004298D01*
X000882Y004197D01*
X000934Y004107D01*
X000935Y004106D01*
X001016Y004187D01*
X001087Y004116D01*
X001006Y004035D01*
X001007Y004034D01*
X001097Y003982D01*
X001198Y003955D01*
X001302D01*
X001403Y003982D01*
X001493Y004034D01*
X001494Y004035D01*
X001413Y004116D01*
X001484Y004187D01*
X001565Y004106D01*
X001566Y004107D01*
X001618Y004197D01*
X001645Y004298D01*
Y004402D01*
X001618Y004503D01*
X001566Y004593D01*
X001565Y004594D01*
X001484Y004513D01*
X001413Y004584D01*
X001494Y004665D01*
X001493Y004666D01*
X001403Y004718D01*
X001302Y004745D01*
D02*
G37*
G36*
X001309Y003795D02*
X001191D01*
X001078Y003765D01*
X000977Y003706D01*
X000894Y003623D01*
X000835Y003522D01*
X000805Y003409D01*
Y003291D01*
X000835Y003178D01*
X000894Y003077D01*
X000977Y002994D01*
X001078Y002935D01*
X001191Y002905D01*
X001309D01*
X001422Y002935D01*
X001523Y002994D01*
X001606Y003077D01*
X001665Y003178D01*
X001695Y003291D01*
Y003409D01*
X001665Y003522D01*
X001606Y003623D01*
X001523Y003706D01*
X001422Y003765D01*
X001309Y003795D01*
D02*
G37*
G36*
X001695Y002795D02*
X000805D01*
Y001905D01*
X001695D01*
Y002795D01*
D02*
G37*
G36*
X022792Y023549D02*
X022138D01*
Y023539D01*
X022112Y023499D01*
X022088Y023499D01*
X021885D01*
Y023388D01*
X021785D01*
Y023499D01*
X021558D01*
Y023056D01*
X021669D01*
Y022956D01*
X021558D01*
Y022512D01*
X021785D01*
Y022623D01*
X021885D01*
Y022512D01*
X022088D01*
X022112Y022512D01*
X022138Y022472D01*
Y022462D01*
X02221D01*
X02221Y022456D01*
Y021738D01*
X022138D01*
Y021728D01*
X022112Y021688D01*
X022088Y021688D01*
X021885D01*
Y021577D01*
X021785D01*
Y021688D01*
X021558D01*
Y021244D01*
X021669D01*
Y021144D01*
X021558D01*
Y020701D01*
X021785D01*
Y020812D01*
X021885D01*
Y020701D01*
X022087D01*
X022117Y020678D01*
X022128Y020657D01*
X022127Y020652D01*
X022128Y02065D01*
Y020207D01*
X022802D01*
Y02065D01*
X022803Y020652D01*
X022802Y02066D01*
Y020662D01*
X022804Y02067D01*
X022802Y020679D01*
Y020822D01*
X022794D01*
X022792Y020823D01*
X022792Y020824D01*
Y021565D01*
X022792Y021566D01*
X022792Y021571D01*
Y021578D01*
X022794Y021587D01*
X022792Y021596D01*
Y021738D01*
X02272D01*
X02272Y021744D01*
Y022462D01*
X022792D01*
Y022604D01*
X022794Y022613D01*
X022792Y022622D01*
Y022629D01*
X022792Y022634D01*
X022792Y022635D01*
Y023549D01*
D02*
G37*
G36*
X021242D02*
X020588D01*
Y023539D01*
X020562Y023499D01*
X020538Y023499D01*
X020335D01*
Y023388D01*
X020235D01*
Y023499D01*
X020008D01*
Y023056D01*
X020119D01*
Y022956D01*
X020008D01*
Y022512D01*
X020235D01*
Y022623D01*
X020335D01*
Y022512D01*
X020538D01*
X020562Y022512D01*
X020588Y022472D01*
Y022462D01*
X020645D01*
Y021738D01*
X020588D01*
Y021728D01*
X020562Y021688D01*
X020538Y021688D01*
X020335D01*
Y021577D01*
X020235D01*
Y021688D01*
X020008D01*
Y021244D01*
X020119D01*
Y021144D01*
X020008D01*
Y020701D01*
X020235D01*
Y020812D01*
X020335D01*
Y020701D01*
X020522D01*
X020549Y02068D01*
X020562Y020652D01*
X020563Y02065D01*
Y020207D01*
X021237D01*
Y02065D01*
X021237Y020651D01*
X021242D01*
Y020793D01*
X021244Y020802D01*
X021242Y020811D01*
X021243Y02082D01*
X021242Y020822D01*
Y021567D01*
X021243Y021569D01*
X021242Y021578D01*
X021244Y021587D01*
X021242Y021596D01*
Y021738D01*
X021155D01*
X021155Y021742D01*
Y022458D01*
X021155Y022462D01*
X021242D01*
Y022604D01*
X021244Y022613D01*
X021242Y022622D01*
X021243Y022631D01*
X021242Y022633D01*
Y023549D01*
D02*
G37*
G36*
X019642D02*
X018988D01*
Y023539D01*
X018962Y023499D01*
X018938Y023499D01*
X018735D01*
Y023388D01*
X018635D01*
Y023499D01*
X018408D01*
Y023056D01*
X018519D01*
Y022956D01*
X018408D01*
Y022512D01*
X018635D01*
Y022623D01*
X018735D01*
Y022512D01*
X018938D01*
X018962Y022512D01*
X018988Y022472D01*
Y022462D01*
X01906D01*
X01906Y022456D01*
Y021738D01*
X018988D01*
Y021728D01*
X018962Y021688D01*
X018938Y021688D01*
X018735D01*
Y021577D01*
X018635D01*
Y021688D01*
X018408D01*
Y021244D01*
X018519D01*
Y021144D01*
X018408D01*
Y020701D01*
X018635D01*
Y020812D01*
X018735D01*
Y020701D01*
X018937D01*
X018967Y020678D01*
X018978Y020657D01*
X018977Y020652D01*
X018978Y02065D01*
Y020207D01*
X019652D01*
Y02065D01*
X019653Y020652D01*
X019652Y02066D01*
Y020662D01*
X019654Y02067D01*
X019652Y020679D01*
Y020822D01*
X019644D01*
X019642Y020823D01*
X019642Y020824D01*
Y021565D01*
X019642Y021566D01*
X019642Y021571D01*
Y021578D01*
X019644Y021587D01*
X019642Y021596D01*
Y021738D01*
X01957D01*
X01957Y021744D01*
Y022462D01*
X019642D01*
Y022604D01*
X019644Y022613D01*
X019642Y022622D01*
Y022629D01*
X019642Y022634D01*
X019642Y022635D01*
Y023549D01*
D02*
G37*
G36*
X017992D02*
X017338D01*
Y023539D01*
X017312Y023499D01*
X017288Y023499D01*
X017085D01*
Y023388D01*
X016985D01*
Y023499D01*
X016758D01*
Y023056D01*
X016869D01*
Y022956D01*
X016758D01*
Y022512D01*
X016985D01*
Y022623D01*
X017085D01*
Y022512D01*
X017288D01*
X017312Y022512D01*
X017338Y022472D01*
Y022462D01*
X01741D01*
X01741Y022456D01*
Y021738D01*
X017338D01*
Y021728D01*
X017312Y021688D01*
X017288Y021688D01*
X017085D01*
Y021577D01*
X016985D01*
Y021688D01*
X016758D01*
Y021244D01*
X016869D01*
Y021144D01*
X016758D01*
Y020701D01*
X016985D01*
Y020812D01*
X017085D01*
Y020701D01*
X017272D01*
X017293Y020685D01*
X017312Y020653D01*
X017313Y020651D01*
Y020207D01*
X017987D01*
Y020649D01*
X017987Y02065D01*
X017988Y020651D01*
X017992D01*
Y020793D01*
X017994Y020802D01*
X017992Y020811D01*
Y020813D01*
X017993Y020821D01*
X017992Y020822D01*
Y021565D01*
X017992Y021566D01*
X017992Y021571D01*
Y021578D01*
X017994Y021587D01*
X017992Y021596D01*
Y021738D01*
X01792D01*
X01792Y021744D01*
Y022462D01*
X017992D01*
Y022604D01*
X017994Y022613D01*
X017992Y022622D01*
Y022629D01*
X017992Y022634D01*
X017992Y022635D01*
Y023549D01*
D02*
G37*
G36*
X006987Y019786D02*
X00675D01*
Y019675D01*
X00665D01*
Y019786D01*
X006413D01*
Y019578D01*
X006524D01*
Y019478D01*
X006413D01*
Y019271D01*
X00665D01*
Y019382D01*
X00675D01*
Y019271D01*
X006987D01*
Y019478D01*
X006876D01*
Y019578D01*
X006987D01*
Y019786D01*
D02*
G37*
G36*
X019885Y02014D02*
X019815D01*
X019765Y020127D01*
X019315D01*
X019217Y020107D01*
X019197Y020093D01*
X018978D01*
Y019478D01*
X019652D01*
Y019616D01*
X019658Y019617D01*
X019765D01*
X019815Y019604D01*
X019885D01*
X019953Y019622D01*
X020015Y019657D01*
X020065Y019707D01*
X0201Y019768D01*
X020118Y019836D01*
Y019907D01*
X0201Y019975D01*
X020065Y020036D01*
X020015Y020086D01*
X019953Y020121D01*
X019885Y02014D01*
D02*
G37*
G36*
X018235D02*
X018165D01*
X018115Y020127D01*
X01765D01*
X017552Y020107D01*
X017532Y020093D01*
X017313D01*
Y019478D01*
X017987D01*
Y019616D01*
X017993Y019617D01*
X018115D01*
X018165Y019604D01*
X018235D01*
X018303Y019622D01*
X018365Y019657D01*
X018415Y019707D01*
X01845Y019768D01*
X018468Y019836D01*
Y019907D01*
X01845Y019975D01*
X018415Y020036D01*
X018365Y020086D01*
X018303Y020121D01*
X018235Y02014D01*
D02*
G37*
G36*
X022006Y012175D02*
X021894D01*
X021786Y012146D01*
X021689Y01209D01*
X021685Y012086D01*
X021766Y012005D01*
X021695Y011934D01*
X021614Y012015D01*
X02161Y012011D01*
X021554Y011914D01*
X021525Y011806D01*
Y011694D01*
X021554Y011586D01*
X02161Y011489D01*
X021614Y011485D01*
X021695Y011566D01*
X021766Y011495D01*
X021685Y011414D01*
X021689Y01141D01*
X021786Y011354D01*
X021894Y011325D01*
X022006D01*
X022114Y011354D01*
X022211Y01141D01*
X022215Y011414D01*
X022134Y011495D01*
X022205Y011566D01*
X022286Y011485D01*
X02229Y011489D01*
X022346Y011586D01*
X022375Y011694D01*
Y011806D01*
X022346Y011914D01*
X02229Y012011D01*
X022286Y012015D01*
X022205Y011934D01*
X022134Y012005D01*
X022215Y012086D01*
X022211Y01209D01*
X022114Y012146D01*
X022006Y012175D01*
D02*
G37*
G36*
X021013Y012225D02*
X020887D01*
X020767Y012192D01*
X020658Y01213D01*
X02057Y012042D01*
X020508Y011933D01*
X020475Y011813D01*
Y011687D01*
X020508Y011567D01*
X02057Y011458D01*
X020658Y01137D01*
X020767Y011308D01*
X020887Y011275D01*
X021013D01*
X021133Y011308D01*
X021242Y01137D01*
X02133Y011458D01*
X021392Y011567D01*
X021425Y011687D01*
Y011813D01*
X021392Y011933D01*
X02133Y012042D01*
X021242Y01213D01*
X021133Y012192D01*
X021013Y012225D01*
D02*
G37*
G36*
X022005Y008265D02*
X021895D01*
X02179Y008237D01*
X021695Y008182D01*
X021692Y008179D01*
X021773Y008098D01*
X021702Y008027D01*
X021621Y008108D01*
X021618Y008105D01*
X021563Y00801D01*
X021535Y007905D01*
Y007795D01*
X021563Y00769D01*
X021618Y007595D01*
X021621Y007592D01*
X021702Y007673D01*
X021773Y007602D01*
X021692Y007521D01*
X021695Y007518D01*
X02179Y007463D01*
X021895Y007435D01*
X022005D01*
X02211Y007463D01*
X022205Y007518D01*
X022208Y007521D01*
X022127Y007602D01*
X022198Y007673D01*
X022279Y007592D01*
X022282Y007595D01*
X022337Y00769D01*
X022365Y007795D01*
Y007905D01*
X022337Y00801D01*
X022282Y008105D01*
X022279Y008108D01*
X022198Y008027D01*
X022127Y008098D01*
X022208Y008179D01*
X022205Y008182D01*
X02211Y008237D01*
X022005Y008265D01*
D02*
G37*
G36*
X023217Y003087D02*
X02295D01*
Y002976D01*
X02285D01*
Y003087D01*
X022583D01*
Y002537D01*
X022694D01*
Y002437D01*
X022583D01*
Y001887D01*
X02285D01*
Y001997D01*
X02295D01*
Y001887D01*
X023217D01*
Y002437D01*
X023106D01*
Y002537D01*
X023217D01*
Y003087D01*
D02*
G37*
%LPD*%
G36*
X022626Y022611D02*
X022614Y022605D01*
X022602Y022595D01*
X022592Y022581D01*
X022584Y022563D01*
X022577Y022541D01*
X022572Y022515D01*
X022568Y022485D01*
X022566Y022451D01*
X022565Y022413D01*
X022365D01*
X022364Y022451D01*
X022358Y022515D01*
X022353Y022541D01*
X022346Y022563D01*
X022338Y022581D01*
X022328Y022595D01*
X022316Y022605D01*
X022303Y022611D01*
X022289Y022613D01*
X022641D01*
X022626Y022611D01*
D02*
G37*
G36*
X022566Y021749D02*
X022572Y021685D01*
X022577Y021659D01*
X022584Y021637D01*
X022592Y021619D01*
X022602Y021605D01*
X022614Y021595D01*
X022626Y021589D01*
X022641Y021587D01*
X022289D01*
X022303Y021589D01*
X022316Y021595D01*
X022328Y021605D01*
X022338Y021619D01*
X022346Y021637D01*
X022353Y021659D01*
X022358Y021685D01*
X022362Y021715D01*
X022364Y021749D01*
X022365Y021787D01*
X022565D01*
X022566Y021749D01*
D02*
G37*
G36*
X022566Y020832D02*
X022568Y020802D01*
X022641D01*
X022626Y0208D01*
X022614Y020794D01*
X022602Y020784D01*
X022592Y02077D01*
X022584Y020752D01*
X02258Y020739D01*
X022586Y02072D01*
X022596Y020702D01*
X022607Y020688D01*
X02262Y020678D01*
X022634Y020672D01*
X022651Y02067D01*
X022568D01*
X022566Y02064D01*
X022565Y020602D01*
X022365D01*
X022364Y02064D01*
X022361Y02067D01*
X022279D01*
X022295Y020672D01*
X02231Y020678D01*
X022323Y020688D01*
X022334Y020702D01*
X022344Y02072D01*
X02235Y020739D01*
X022346Y020752D01*
X022338Y02077D01*
X022328Y020784D01*
X022316Y020794D01*
X022303Y0208D01*
X022289Y020802D01*
X022362D01*
X022364Y020832D01*
X022365Y02087D01*
X022565D01*
X022566Y020832D01*
D02*
G37*
G36*
X021074Y022611D02*
X021058Y022605D01*
X021045Y022595D01*
X021033Y022581D01*
X021023Y022563D01*
X021015Y022541D01*
X021008Y022515D01*
X021004Y022485D01*
X021001Y022451D01*
X021Y022413D01*
X0208D01*
X020799Y022451D01*
X020795Y022515D01*
X02079Y022541D01*
X020785Y022563D01*
X020778Y022581D01*
X02077Y022595D01*
X020761Y022605D01*
X020751Y022611D01*
X020739Y022613D01*
X021091D01*
X021074Y022611D01*
D02*
G37*
G36*
X021001Y021749D02*
X021004Y021715D01*
X021008Y021685D01*
X021015Y021659D01*
X021023Y021637D01*
X021033Y021619D01*
X021045Y021605D01*
X021058Y021595D01*
X021074Y021589D01*
X021091Y021587D01*
X020739D01*
X020751Y021589D01*
X020761Y021595D01*
X02077Y021605D01*
X020778Y021619D01*
X020785Y021637D01*
X02079Y021659D01*
X020795Y021685D01*
X020798Y021715D01*
X0208Y021787D01*
X021D01*
X021001Y021749D01*
D02*
G37*
G36*
X021001Y020832D02*
X021003Y020802D01*
X021091D01*
X021074Y0208D01*
X021058Y020794D01*
X021045Y020784D01*
X021033Y02077D01*
X021023Y020752D01*
X021016Y020735D01*
X021021Y02072D01*
X021031Y020702D01*
X021042Y020688D01*
X021055Y020678D01*
X02107Y020672D01*
X021086Y02067D01*
X021003D01*
X021001Y02064D01*
X021Y020602D01*
X0208D01*
X020799Y02064D01*
X020797Y02067D01*
X020714D01*
X020731Y020672D01*
X020745Y020678D01*
X020758Y020688D01*
X020769Y020702D01*
X020779Y02072D01*
X020786Y020742D01*
X020787Y020744D01*
X020785Y020752D01*
X020778Y02077D01*
X02077Y020784D01*
X020761Y020794D01*
X020751Y0208D01*
X020739Y020802D01*
X020797D01*
X020799Y020832D01*
X0208Y02087D01*
X021D01*
X021001Y020832D01*
D02*
G37*
G36*
X019476Y022611D02*
X019464Y022605D01*
X019452Y022595D01*
X019442Y022581D01*
X019434Y022563D01*
X019427Y022541D01*
X019422Y022515D01*
X019418Y022485D01*
X019416Y022451D01*
X019415Y022413D01*
X019215D01*
X019214Y022451D01*
X019208Y022515D01*
X019203Y022541D01*
X019196Y022563D01*
X019188Y022581D01*
X019178Y022595D01*
X019166Y022605D01*
X019153Y022611D01*
X019139Y022613D01*
X019491D01*
X019476Y022611D01*
D02*
G37*
G36*
X019416Y021749D02*
X019422Y021685D01*
X019427Y021659D01*
X019434Y021637D01*
X019442Y021619D01*
X019452Y021605D01*
X019464Y021595D01*
X019476Y021589D01*
X019491Y021587D01*
X019139D01*
X019153Y021589D01*
X019166Y021595D01*
X019178Y021605D01*
X019188Y021619D01*
X019196Y021637D01*
X019203Y021659D01*
X019208Y021685D01*
X019212Y021715D01*
X019214Y021749D01*
X019215Y021787D01*
X019415D01*
X019416Y021749D01*
D02*
G37*
G36*
X019416Y020832D02*
X019418Y020802D01*
X019491D01*
X019476Y0208D01*
X019464Y020794D01*
X019452Y020784D01*
X019442Y02077D01*
X019434Y020752D01*
X01943Y020739D01*
X019436Y02072D01*
X019446Y020702D01*
X019457Y020688D01*
X01947Y020678D01*
X019484Y020672D01*
X019501Y02067D01*
X019418D01*
X019416Y02064D01*
X019415Y020602D01*
X019215D01*
X019214Y02064D01*
X019211Y02067D01*
X019129D01*
X019145Y020672D01*
X01916Y020678D01*
X019173Y020688D01*
X019184Y020702D01*
X019194Y02072D01*
X0192Y020739D01*
X019196Y020752D01*
X019188Y02077D01*
X019178Y020784D01*
X019166Y020794D01*
X019153Y0208D01*
X019139Y020802D01*
X019212D01*
X019214Y020832D01*
X019215Y02087D01*
X019415D01*
X019416Y020832D01*
D02*
G37*
G36*
X017826Y022611D02*
X017814Y022605D01*
X017802Y022595D01*
X017792Y022581D01*
X017784Y022563D01*
X017777Y022541D01*
X017772Y022515D01*
X017768Y022485D01*
X017766Y022451D01*
X017765Y022413D01*
X017565D01*
X017564Y022451D01*
X017558Y022515D01*
X017553Y022541D01*
X017546Y022563D01*
X017538Y022581D01*
X017528Y022595D01*
X017516Y022605D01*
X017503Y022611D01*
X017489Y022613D01*
X017841D01*
X017826Y022611D01*
D02*
G37*
G36*
X017766Y021749D02*
X017772Y021685D01*
X017777Y021659D01*
X017784Y021637D01*
X017792Y021619D01*
X017802Y021605D01*
X017814Y021595D01*
X017826Y021589D01*
X017841Y021587D01*
X017489D01*
X017503Y021589D01*
X017516Y021595D01*
X017528Y021605D01*
X017538Y021619D01*
X017546Y021637D01*
X017553Y021659D01*
X017558Y021685D01*
X017562Y021715D01*
X017564Y021749D01*
X017565Y021787D01*
X017765D01*
X017766Y021749D01*
D02*
G37*
G36*
X017758Y020832D02*
X017761Y020802D01*
X017841D01*
X017825Y0208D01*
X017811Y020794D01*
X017798Y020784D01*
X017788Y020771D01*
X017778Y020753D01*
X017772Y020736D01*
X017777Y02072D01*
X017786Y020702D01*
X017796Y020688D01*
X017808Y020678D01*
X017821Y020672D01*
X017836Y02067D01*
X01776D01*
X017758Y020644D01*
X017757Y020607D01*
X017557D01*
X017557Y020644D01*
X017555Y02067D01*
X017464D01*
X017482Y020672D01*
X017498Y020678D01*
X017512Y020688D01*
X017524Y020702D01*
X017534Y02072D01*
X017543Y020742D01*
X017543Y020744D01*
X01754Y020753D01*
X017533Y020771D01*
X017524Y020784D01*
X017514Y020794D01*
X017502Y0208D01*
X017489Y020802D01*
X017554D01*
X017557Y020832D01*
X017557Y02087D01*
X017757D01*
X017758Y020832D01*
D02*
G37*
G36*
X019701Y019772D02*
X019663Y019771D01*
X019628Y019768D01*
X019598Y019763D01*
X019572Y019756D01*
X01955Y019747D01*
X019532Y019736D01*
X019518Y019723D01*
X019508Y019708D01*
X019502Y019691D01*
X0195Y019672D01*
X019501Y019942D01*
X019701Y019972D01*
Y019772D01*
D02*
G37*
G36*
X018036D02*
X017998Y019771D01*
X017964Y019768D01*
X017933Y019763D01*
X017907Y019756D01*
X017885Y019747D01*
X017867Y019736D01*
X017853Y019723D01*
X017843Y019708D01*
X017837Y019691D01*
X017835Y019672D01*
X017836Y019942D01*
X018036Y019972D01*
Y019772D01*
D02*
G37*
%LPC*%
G36*
X002813Y019225D02*
X002687D01*
X002567Y019192D01*
X002458Y01913D01*
X00237Y019042D01*
X002308Y018933D01*
X002275Y018813D01*
Y018687D01*
X002308Y018567D01*
X00237Y018458D01*
X002458Y01837D01*
X002567Y018308D01*
X002687Y018275D01*
X002813D01*
X002933Y018308D01*
X003042Y01837D01*
X00313Y018458D01*
X003192Y018567D01*
X003225Y018687D01*
Y018813D01*
X003192Y018933D01*
X00313Y019042D01*
X003042Y01913D01*
X002933Y019192D01*
X002813Y019225D01*
D02*
G37*
G36*
X002225D02*
X001275D01*
Y018275D01*
X002225D01*
Y019225D01*
D02*
G37*
G36*
X001813Y018225D02*
X001687D01*
X001567Y018192D01*
X001458Y01813D01*
X00137Y018042D01*
X001308Y017933D01*
X001275Y017813D01*
Y017687D01*
X001308Y017567D01*
X00137Y017458D01*
X001458Y01737D01*
X001567Y017308D01*
X001687Y017275D01*
X001813D01*
X001933Y017308D01*
X002042Y01737D01*
X00213Y017458D01*
X002192Y017567D01*
X002225Y017687D01*
Y017813D01*
X002192Y017933D01*
X00213Y018042D01*
X002042Y01813D01*
X001933Y018192D01*
X001813Y018225D01*
D02*
G37*
G36*
X001806Y013175D02*
X001694D01*
X001586Y013146D01*
X001489Y01309D01*
X001485Y013086D01*
X001566Y013005D01*
X001495Y012934D01*
X001414Y013015D01*
X00141Y013011D01*
X001354Y012914D01*
X001325Y012806D01*
Y012694D01*
X001354Y012586D01*
X00141Y012489D01*
X001414Y012485D01*
X001495Y012566D01*
X001566Y012495D01*
X001485Y012414D01*
X001489Y01241D01*
X001586Y012354D01*
X001694Y012325D01*
X001806D01*
X001914Y012354D01*
X002011Y01241D01*
X002015Y012414D01*
X001934Y012495D01*
X002005Y012566D01*
X002086Y012485D01*
X00209Y012489D01*
X002146Y012586D01*
X002175Y012694D01*
Y012806D01*
X002146Y012914D01*
X00209Y013011D01*
X002086Y013015D01*
X002005Y012934D01*
X001934Y013005D01*
X002015Y013086D01*
X002011Y01309D01*
X001914Y013146D01*
X001806Y013175D01*
D02*
G37*
G36*
Y012175D02*
X001694D01*
X001586Y012146D01*
X001489Y01209D01*
X001485Y012086D01*
X001566Y012005D01*
X001495Y011934D01*
X001414Y012015D01*
X00141Y012011D01*
X001354Y011914D01*
X001325Y011806D01*
Y011694D01*
X001354Y011586D01*
X00141Y011489D01*
X001414Y011485D01*
X001495Y011566D01*
X001566Y011495D01*
X001485Y011414D01*
X001489Y01141D01*
X001586Y011354D01*
X001694Y011325D01*
X001806D01*
X001914Y011354D01*
X002011Y01141D01*
X002015Y011414D01*
X001934Y011495D01*
X002005Y011566D01*
X002086Y011485D01*
X00209Y011489D01*
X002146Y011586D01*
X002175Y011694D01*
Y011806D01*
X002146Y011914D01*
X00209Y012011D01*
X002086Y012015D01*
X002005Y011934D01*
X001934Y012005D01*
X002015Y012086D01*
X002011Y01209D01*
X001914Y012146D01*
X001806Y012175D01*
D02*
G37*
G36*
X009937Y008493D02*
X0097D01*
Y008383D01*
X0096D01*
Y008493D01*
X009363D01*
Y008286D01*
X009474D01*
Y008186D01*
X009363D01*
Y007978D01*
X0096D01*
Y008089D01*
X0097D01*
Y007978D01*
X009937D01*
Y008186D01*
X009826D01*
Y008286D01*
X009937D01*
Y008493D01*
D02*
G37*
G36*
X013337Y009193D02*
X010863D01*
Y008578D01*
X010893D01*
Y008043D01*
X012707D01*
Y008057D01*
X013307D01*
Y008578D01*
X013337D01*
Y009193D01*
D02*
G37*
G36*
X013257Y007993D02*
X01305D01*
Y007882D01*
X01295D01*
Y007993D01*
X012743D01*
Y007785D01*
X012853D01*
Y007685D01*
X012743D01*
Y007478D01*
X01295D01*
Y007588D01*
X01305D01*
Y007478D01*
X013257D01*
Y007685D01*
X013147D01*
Y007785D01*
X013257D01*
Y007993D01*
D02*
G37*
G36*
X012657Y007978D02*
X01245D01*
Y007867D01*
X01235D01*
Y007978D01*
X012143D01*
Y00777D01*
X012253D01*
Y00767D01*
X012143D01*
Y007463D01*
X01235D01*
Y007573D01*
X01245D01*
Y007463D01*
X012657D01*
Y00767D01*
X012547D01*
Y00777D01*
X012657D01*
Y007978D01*
D02*
G37*
G36*
X012057D02*
X01185D01*
Y007867D01*
X01175D01*
Y007978D01*
X011543D01*
Y00777D01*
X011653D01*
Y00767D01*
X011543D01*
Y007463D01*
X01175D01*
Y007573D01*
X01185D01*
Y007463D01*
X012057D01*
Y00767D01*
X011947D01*
Y00777D01*
X012057D01*
Y007978D01*
D02*
G37*
G36*
X011457D02*
X01125D01*
Y007867D01*
X01115D01*
Y007978D01*
X010943D01*
Y00777D01*
X011053D01*
Y00767D01*
X010943D01*
Y007463D01*
X01115D01*
Y007573D01*
X01125D01*
Y007463D01*
X011457D01*
Y00767D01*
X011347D01*
Y00777D01*
X011457D01*
Y007978D01*
D02*
G37*
%LPD*%
G36*
X01309Y008729D02*
X013082Y008726D01*
X013075Y008721D01*
X013068Y008714D01*
X013062Y008705D01*
X013058Y008694D01*
X013054Y008681D01*
X013052Y008666D01*
X013051Y008649D01*
X01305Y00863D01*
X01295D01*
X01295Y008649D01*
X012948Y008666D01*
X012945Y008681D01*
X012942Y008694D01*
X012938Y008705D01*
X012932Y008714D01*
X012925Y008721D01*
X012918Y008726D01*
X012909Y008729D01*
X0129Y00873D01*
X0131D01*
X01309Y008729D01*
D02*
G37*
G36*
X012491D02*
X012482Y008726D01*
X012474Y008721D01*
X012468Y008714D01*
X012463Y008705D01*
X012458Y008694D01*
X012455Y008681D01*
X012452Y008666D01*
X01245Y008649D01*
X01245Y00863D01*
X01235D01*
X012349Y008649D01*
X012348Y008666D01*
X012345Y008681D01*
X012342Y008694D01*
X012337Y008705D01*
X012332Y008714D01*
X012326Y008721D01*
X012318Y008726D01*
X012309Y008729D01*
X0123Y00873D01*
X0125D01*
X012491Y008729D01*
D02*
G37*
G36*
X01189D02*
X011882Y008726D01*
X011875Y008721D01*
X011868Y008714D01*
X011862Y008705D01*
X011858Y008694D01*
X011854Y008681D01*
X011852Y008666D01*
X011851Y008649D01*
X01185Y00863D01*
X01175D01*
X01175Y008649D01*
X011748Y008666D01*
X011746Y008681D01*
X011742Y008694D01*
X011738Y008705D01*
X011732Y008714D01*
X011725Y008721D01*
X011718Y008726D01*
X01171Y008729D01*
X0117Y00873D01*
X0119D01*
X01189Y008729D01*
D02*
G37*
G36*
X011291D02*
X011282Y008726D01*
X011274Y008721D01*
X011268Y008714D01*
X011263Y008705D01*
X011258Y008694D01*
X011255Y008681D01*
X011252Y008666D01*
X01125Y008649D01*
X01125Y00863D01*
X01115D01*
X011149Y008649D01*
X011148Y008666D01*
X011145Y008681D01*
X011142Y008694D01*
X011137Y008705D01*
X011132Y008714D01*
X011126Y008721D01*
X011118Y008726D01*
X011109Y008729D01*
X0111Y00873D01*
X0113D01*
X011291Y008729D01*
D02*
G37*
G36*
X013051Y008602D02*
X013052Y008585D01*
X013054Y00857D01*
X013058Y008556D01*
X013062Y008545D01*
X013068Y008536D01*
X013075Y008529D01*
X013082Y008524D01*
X01309Y008521D01*
X0131Y00852D01*
X0129D01*
X012909Y008521D01*
X012918Y008524D01*
X012925Y008529D01*
X012932Y008536D01*
X012938Y008545D01*
X012942Y008556D01*
X012945Y00857D01*
X012948Y008585D01*
X01295Y008602D01*
X01295Y008621D01*
X01305D01*
X013051Y008602D01*
D02*
G37*
G36*
X01245Y008587D02*
X012452Y00857D01*
X012455Y008555D01*
X012458Y008542D01*
X012463Y00853D01*
X012468Y008521D01*
X012474Y008514D01*
X012482Y008509D01*
X012491Y008506D01*
X0125Y008505D01*
X0123D01*
X012309Y008506D01*
X012318Y008509D01*
X012326Y008514D01*
X012332Y008521D01*
X012337Y00853D01*
X012342Y008542D01*
X012345Y008555D01*
X012348Y00857D01*
X012349Y008587D01*
X01235Y008606D01*
X01245D01*
X01245Y008587D01*
D02*
G37*
G36*
X011851D02*
X011852Y00857D01*
X011854Y008555D01*
X011858Y008542D01*
X011862Y00853D01*
X011868Y008521D01*
X011875Y008514D01*
X011882Y008509D01*
X01189Y008506D01*
X0119Y008505D01*
X0117D01*
X01171Y008506D01*
X011718Y008509D01*
X011725Y008514D01*
X011732Y008521D01*
X011738Y00853D01*
X011742Y008542D01*
X011746Y008555D01*
X011748Y00857D01*
X01175Y008587D01*
X01175Y008606D01*
X01185D01*
X011851Y008587D01*
D02*
G37*
G36*
X01125D02*
X011252Y00857D01*
X011255Y008555D01*
X011258Y008542D01*
X011263Y00853D01*
X011268Y008521D01*
X011274Y008514D01*
X011282Y008509D01*
X011291Y008506D01*
X0113Y008505D01*
X0111D01*
X011109Y008506D01*
X011118Y008509D01*
X011126Y008514D01*
X011132Y008521D01*
X011137Y00853D01*
X011142Y008542D01*
X011145Y008555D01*
X011148Y00857D01*
X011149Y008587D01*
X01115Y008606D01*
X01125D01*
X01125Y008587D01*
D02*
G37*
%LPC*%
G36*
X010126Y003493D02*
X009897D01*
Y003382D01*
X009797D01*
Y003493D01*
X009567D01*
Y003186D01*
X009678D01*
Y003086D01*
X009567D01*
Y002779D01*
X009797D01*
Y00289D01*
X009897D01*
Y002779D01*
X010126D01*
Y003086D01*
X010016D01*
Y003186D01*
X010126D01*
Y003493D01*
D02*
G37*
G36*
X01825Y002687D02*
X018131Y002671D01*
X018021Y002626D01*
X017966Y002583D01*
X018045Y002505D01*
X017974Y002434D01*
X017895Y002513D01*
X017853Y002458D01*
X017807Y002347D01*
X017792Y002229D01*
Y0022D01*
X017906D01*
Y0021D01*
X017792D01*
Y002071D01*
X017807Y001953D01*
X017853Y001842D01*
X017895Y001787D01*
X017974Y001866D01*
X018045Y001795D01*
X017966Y001717D01*
X018021Y001674D01*
X018131Y001629D01*
X01825Y001613D01*
X018369Y001629D01*
X018479Y001674D01*
X018534Y001717D01*
X018455Y001795D01*
X018526Y001866D01*
X018605Y001787D01*
X018647Y001842D01*
X018693Y001953D01*
X018708Y002071D01*
Y0021D01*
X018594D01*
Y0022D01*
X018708D01*
Y002229D01*
X018693Y002347D01*
X018647Y002458D01*
X018605Y002513D01*
X018526Y002434D01*
X018455Y002505D01*
X018534Y002583D01*
X018479Y002626D01*
X018369Y002671D01*
X01825Y002687D01*
D02*
G37*
G36*
X004137Y009379D02*
X0039D01*
Y009268D01*
X0038D01*
Y009379D01*
X003563D01*
Y009172D01*
X003674D01*
Y009072D01*
X003563D01*
Y008864D01*
X0038D01*
Y008975D01*
X0039D01*
Y008864D01*
X004137D01*
Y009072D01*
X004026D01*
Y009172D01*
X004137D01*
Y009379D01*
D02*
G37*
G36*
X002955Y009265D02*
X002845D01*
X00274Y009237D01*
X002645Y009182D01*
X002642Y009179D01*
X002723Y009098D01*
X002652Y009027D01*
X002571Y009108D01*
X002568Y009105D01*
X002513Y00901D01*
X002485Y008905D01*
Y008795D01*
X002513Y00869D01*
X002568Y008595D01*
X002571Y008592D01*
X002652Y008673D01*
X002723Y008602D01*
X002642Y008521D01*
X002645Y008518D01*
X00274Y008463D01*
X002845Y008435D01*
X002955D01*
X00306Y008463D01*
X003155Y008518D01*
X003158Y008521D01*
X003077Y008602D01*
X003148Y008673D01*
X003229Y008592D01*
X003232Y008595D01*
X003287Y00869D01*
X003315Y008795D01*
Y008905D01*
X003287Y00901D01*
X003232Y009105D01*
X003229Y009108D01*
X003148Y009027D01*
X003077Y009098D01*
X003158Y009179D01*
X003155Y009182D01*
X00306Y009237D01*
X002955Y009265D01*
D02*
G37*
G36*
X001705D02*
X001595D01*
X00149Y009237D01*
X001395Y009182D01*
X001392Y009179D01*
X001473Y009098D01*
X001402Y009027D01*
X001321Y009108D01*
X001318Y009105D01*
X001263Y00901D01*
X001235Y008905D01*
Y008795D01*
X001263Y00869D01*
X001318Y008595D01*
X001321Y008592D01*
X001402Y008673D01*
X001473Y008602D01*
X001392Y008521D01*
X001395Y008518D01*
X00149Y008463D01*
X001595Y008435D01*
X001705D01*
X00181Y008463D01*
X001905Y008518D01*
X001908Y008521D01*
X001827Y008602D01*
X001898Y008673D01*
X001979Y008592D01*
X001982Y008595D01*
X002037Y00869D01*
X002065Y008795D01*
Y008905D01*
X002037Y00901D01*
X001982Y009105D01*
X001979Y009108D01*
X001898Y009027D01*
X001827Y009098D01*
X001908Y009179D01*
X001905Y009182D01*
X00181Y009237D01*
X001705Y009265D01*
D02*
G37*
G36*
X002961Y008315D02*
X002839D01*
X002721Y008283D01*
X002615Y008222D01*
X002528Y008135D01*
X002467Y008029D01*
X002435Y007911D01*
Y007789D01*
X002467Y007671D01*
X002528Y007565D01*
X002615Y007478D01*
X002721Y007417D01*
X002839Y007385D01*
X002961D01*
X003079Y007417D01*
X003185Y007478D01*
X003272Y007565D01*
X003333Y007671D01*
X003365Y007789D01*
Y007911D01*
X003333Y008029D01*
X003272Y008135D01*
X003185Y008222D01*
X003079Y008283D01*
X002961Y008315D01*
D02*
G37*
G36*
X001711D02*
X001589D01*
X001471Y008283D01*
X001365Y008222D01*
X001278Y008135D01*
X001217Y008029D01*
X001185Y007911D01*
Y007789D01*
X001217Y007671D01*
X001278Y007565D01*
X001365Y007478D01*
X001471Y007417D01*
X001589Y007385D01*
X001711D01*
X001829Y007417D01*
X001935Y007478D01*
X002022Y007565D01*
X002083Y007671D01*
X002115Y007789D01*
Y007911D01*
X002083Y008029D01*
X002022Y008135D01*
X001935Y008222D01*
X001829Y008283D01*
X001711Y008315D01*
D02*
G37*
G36*
X003365Y007315D02*
X002435D01*
Y006385D01*
X003365D01*
Y007315D01*
D02*
G37*
G36*
X002115D02*
X001185D01*
Y006385D01*
X002115D01*
Y007315D01*
D02*
G37*
%LPD*%
D13*
X01695Y0178D02*
X0174Y01825D01*
X01565Y0178D02*
X01695D01*
X017441Y0024D02*
X01765D01*
X017688Y002438D01*
X017689D01*
X017412Y002371D02*
X017441Y0024D01*
X017412Y002029D02*
Y002371D01*
Y002029D02*
X017441Y002D01*
X017676D01*
X01765Y007054D02*
X018288D01*
X01765Y007D02*
Y007054D01*
X015512Y008078D02*
X0162D01*
Y0081D01*
X0178Y008846D02*
X018288D01*
X0178D02*
Y00885D01*
X017899Y009102D02*
X018288D01*
X017276Y0033D02*
Y00385D01*
X01735Y0078D02*
X017372Y007822D01*
X018288D01*
X013686Y003864D02*
X01375Y0038D01*
X01315Y003864D02*
X013686D01*
X01315Y005041D02*
X013706D01*
X01375Y005085D01*
X01604Y00859D02*
X0167Y00925D01*
X015512Y00859D02*
X01604D01*
X0167Y00925D02*
Y0099D01*
X01695D01*
X01495Y00785D02*
Y00845D01*
X01509Y00859D01*
X015512D01*
X014401Y009613D02*
X015512D01*
X0144Y009614D02*
X014401Y009613D01*
X013836Y009614D02*
X0144D01*
X013938Y010512D02*
X01455Y0099D01*
X014736Y007636D02*
X01495Y00785D01*
X0144Y007636D02*
X014736D01*
X018288Y008078D02*
X018778D01*
X018684Y008334D02*
X01885Y0085D01*
X018288Y008334D02*
X018684D01*
X019001Y008301D02*
X019151D01*
X01925Y0084D01*
X018778Y008078D02*
X019001Y008301D01*
X01885Y0085D02*
Y00885D01*
X019Y009D01*
X01925D01*
X01455Y0099D02*
X0167D01*
X02145Y01525D02*
X02195Y01575D01*
X01785Y01525D02*
X02145D01*
Y01625D02*
X02195Y01675D01*
X01785Y01625D02*
X02145D01*
X01785Y01725D02*
X02145D01*
X02195Y01775D01*
X02145Y01825D02*
X02195Y01875D01*
X0174Y01825D02*
X02145D01*
X0169Y0133D02*
X01835Y01475D01*
X02095D01*
X01565Y0133D02*
X0169D01*
X01565Y0143D02*
X0169D01*
X01785Y01525D01*
X0169Y0148D02*
X01785Y01575D01*
X01565Y0148D02*
X0169D01*
X01785Y01575D02*
X02095D01*
X01565Y0153D02*
X0169D01*
X01785Y01625D01*
Y01675D02*
X02095D01*
X0169Y0158D02*
X01785Y01675D01*
X01565Y0158D02*
X0169D01*
Y0183D02*
X01735Y01875D01*
X02095D01*
X01565Y0183D02*
X0169D01*
X01565Y0163D02*
X0169D01*
X01785Y01725D01*
X0169Y0168D02*
X01785Y01775D01*
X02095D01*
X01565Y0168D02*
X0169D01*
X013438Y010012D02*
X013836Y009614D01*
X013438Y010012D02*
Y012D01*
X0112Y00835D02*
Y008886D01*
X0118Y00835D02*
Y008886D01*
X0124Y00835D02*
Y008886D01*
X013Y008365D02*
Y008886D01*
X013938Y010512D02*
Y012D01*
D23*
X0209Y020514D02*
D03*
Y019786D02*
D03*
X0144Y007636D02*
D03*
Y008364D02*
D03*
Y009614D02*
D03*
Y008886D02*
D03*
X019315Y019786D02*
D03*
Y020514D02*
D03*
X00965Y009686D02*
D03*
Y010414D02*
D03*
X0071Y003914D02*
D03*
Y003186D02*
D03*
X022465Y019786D02*
D03*
Y020514D02*
D03*
X01315Y003864D02*
D03*
Y003136D02*
D03*
X00385Y00985D02*
D03*
Y009122D02*
D03*
X00965Y008964D02*
D03*
Y008236D02*
D03*
X0103Y010414D02*
D03*
Y009686D02*
D03*
X0096Y001714D02*
D03*
Y000986D02*
D03*
X0065Y003914D02*
D03*
Y003186D02*
D03*
X01315Y00577D02*
D03*
Y005041D02*
D03*
X01464Y003864D02*
D03*
Y003136D02*
D03*
X0125D02*
D03*
Y003864D02*
D03*
Y00577D02*
D03*
Y005041D02*
D03*
X0067Y0188D02*
D03*
Y019528D02*
D03*
X006Y0188D02*
D03*
Y019528D02*
D03*
X013Y008886D02*
D03*
Y009614D02*
D03*
X0124Y008886D02*
D03*
Y009614D02*
D03*
X0118Y008886D02*
D03*
Y009614D02*
D03*
X0112Y008886D02*
D03*
Y009614D02*
D03*
X01765Y020514D02*
D03*
Y019786D02*
D03*
X01535Y003864D02*
D03*
Y003136D02*
D03*
D24*
X01375Y005715D02*
D03*
Y005085D02*
D03*
Y00317D02*
D03*
Y0038D02*
D03*
X013Y008365D02*
D03*
Y007735D02*
D03*
X0124Y00835D02*
D03*
Y00772D02*
D03*
X0118Y00835D02*
D03*
Y00772D02*
D03*
X0112Y00835D02*
D03*
Y00772D02*
D03*
D25*
X019915Y00735D02*
D03*
X019285D02*
D03*
X019915Y00785D02*
D03*
X019285D02*
D03*
D26*
X019964Y0068D02*
D03*
X019236D02*
D03*
X01925Y0084D02*
D03*
X019978D02*
D03*
X01925Y009D02*
D03*
X019978D02*
D03*
D27*
X018288Y006287D02*
D03*
Y006543D02*
D03*
Y006798D02*
D03*
Y007054D02*
D03*
Y00731D02*
D03*
Y007566D02*
D03*
Y007822D02*
D03*
Y008078D02*
D03*
Y008334D02*
D03*
Y00859D02*
D03*
Y008846D02*
D03*
Y009102D02*
D03*
Y009357D02*
D03*
Y009613D02*
D03*
X015512Y006287D02*
D03*
Y006543D02*
D03*
Y006798D02*
D03*
Y007054D02*
D03*
Y00731D02*
D03*
Y007566D02*
D03*
Y007822D02*
D03*
Y008078D02*
D03*
Y008334D02*
D03*
Y00859D02*
D03*
Y008846D02*
D03*
Y009102D02*
D03*
Y009357D02*
D03*
Y009613D02*
D03*
D28*
X020915Y023006D02*
D03*
X020285Y021194D02*
D03*
Y023006D02*
D03*
X020915Y021194D02*
D03*
X019315Y023006D02*
D03*
X018685Y021194D02*
D03*
Y023006D02*
D03*
X019315Y021194D02*
D03*
X022465Y023006D02*
D03*
X021835Y021194D02*
D03*
Y023006D02*
D03*
X022465Y021194D02*
D03*
X017665Y023006D02*
D03*
X017035Y021194D02*
D03*
Y023006D02*
D03*
X017665Y021194D02*
D03*
D29*
X013938Y012D02*
D03*
X009438D02*
D03*
X009938D02*
D03*
X010438D02*
D03*
X010938D02*
D03*
X011438D02*
D03*
X011938D02*
D03*
X012438D02*
D03*
X012938D02*
D03*
X013438D02*
D03*
D30*
X007737Y0128D02*
D03*
Y0133D02*
D03*
Y0138D02*
D03*
Y0143D02*
D03*
Y0148D02*
D03*
Y0153D02*
D03*
Y0158D02*
D03*
Y0163D02*
D03*
Y0168D02*
D03*
Y0173D02*
D03*
Y0178D02*
D03*
Y0183D02*
D03*
Y0188D02*
D03*
X01565Y0128D02*
D03*
Y0133D02*
D03*
Y0138D02*
D03*
Y0143D02*
D03*
Y0148D02*
D03*
Y0153D02*
D03*
Y0158D02*
D03*
Y0163D02*
D03*
Y0168D02*
D03*
Y0173D02*
D03*
Y0178D02*
D03*
Y0183D02*
D03*
Y0188D02*
D03*
D31*
X017156Y002192D02*
D03*
X0169D02*
D03*
X016644D02*
D03*
X017412D02*
D03*
X016388D02*
D03*
D32*
X019194Y001065D02*
D03*
X021006Y000435D02*
D03*
X019194D02*
D03*
X021006Y001065D02*
D03*
D33*
X008483Y01035D02*
D03*
Y00985D02*
D03*
Y00935D02*
D03*
Y00885D02*
D03*
Y00835D02*
D03*
Y00785D02*
D03*
Y00735D02*
D03*
Y00685D02*
D03*
X004917D02*
D03*
Y00735D02*
D03*
Y00785D02*
D03*
Y00835D02*
D03*
Y00885D02*
D03*
Y00935D02*
D03*
Y00985D02*
D03*
D34*
Y01035D02*
D03*
D35*
X005204Y00495D02*
D03*
X006896D02*
D03*
D36*
X00345Y00335D02*
D03*
Y00461D02*
D03*
D37*
X005674Y003018D02*
D03*
X0053D02*
D03*
X004926D02*
D03*
Y004081D02*
D03*
X0053D02*
D03*
X005674D02*
D03*
D38*
X0083Y000641D02*
D03*
Y002059D02*
D03*
X0051Y000641D02*
D03*
Y002059D02*
D03*
D39*
X010748Y00577D02*
D03*
D40*
X01165Y003136D02*
D03*
X010748D02*
D03*
D41*
X009847D02*
D03*
D42*
X0229Y0054D02*
D03*
Y002487D02*
D03*
D43*
X00305Y0205D02*
D03*
Y021D02*
D03*
Y0215D02*
D03*
Y022D02*
D03*
Y0225D02*
D03*
X001448Y0205D02*
D03*
Y021D02*
D03*
Y0215D02*
D03*
Y022D02*
D03*
Y0225D02*
D03*
D44*
X00525Y0249D02*
D03*
X0037D02*
D03*
X00125Y00535D02*
D03*
Y00435D02*
D03*
Y00335D02*
D03*
D45*
X016902Y004838D02*
D03*
X017276D02*
D03*
X01765D02*
D03*
Y00385D02*
D03*
X017276D02*
D03*
X016902D02*
D03*
D71*
X0209Y020514D02*
Y023056D01*
X013237Y005827D02*
Y006387D01*
X0137Y00685D02*
Y0084D01*
X013237Y006387D02*
X0137Y00685D01*
X01318Y00577D02*
X013237Y005827D01*
X01315Y00577D02*
X01318D01*
X0137Y0084D02*
X013925Y008625D01*
X0144D01*
X00385Y00985D02*
X004917D01*
X00965Y010414D02*
X0103D01*
X008483Y00935D02*
X008487Y009346D01*
X008854D02*
X009236Y008964D01*
X008487Y009346D02*
X008854D01*
X009236Y008964D02*
X0102D01*
X019194Y001065D02*
X021006D01*
X00305Y02015D02*
Y0205D01*
X017657Y020607D02*
Y021244D01*
X017665D02*
Y023056D01*
X019315Y0206D02*
Y023056D01*
X022465Y020514D02*
Y023056D01*
X01765Y0206D02*
X017657Y020607D01*
X019315Y019872D02*
X01985D01*
X01765D02*
X0182D01*
D72*
X0169Y002192D02*
Y00275D01*
X016644Y002192D02*
Y002794D01*
X00615Y003186D02*
X0065D01*
X021006Y001065D02*
Y00935D01*
Y009694D01*
X0207Y00935D02*
X021006D01*
X01715Y0091D02*
X01735Y0093D01*
Y0102D01*
X015512Y009102D02*
X015513Y009101D01*
X016049D01*
X01605Y0091D01*
X016118Y011432D02*
X01735Y0102D01*
X0146Y01145D02*
X014618Y011432D01*
X016118D01*
X0162Y01165D02*
X01755Y0103D01*
Y00845D02*
Y0103D01*
X016154Y007054D02*
X01755Y00845D01*
X01495Y01165D02*
X0162D01*
X0147Y0119D02*
X0188D01*
X0143Y0123D02*
X0147Y0119D01*
X0188D02*
X021006Y009694D01*
X0146Y0153D02*
X01565D01*
X01505Y0121D02*
X019D01*
X01475Y0124D02*
X01505Y0121D01*
X019D02*
X02125Y00985D01*
X01475Y0124D02*
Y0136D01*
X01495Y0158D02*
X01565D01*
X0143Y0168D02*
X0148Y0173D01*
X0143Y0123D02*
Y0168D01*
X00495Y0163D02*
X007737D01*
X00395Y0173D02*
Y01775D01*
Y0173D02*
X00495Y0163D01*
X0038Y007D02*
Y0074D01*
X00425Y00655D02*
X00695D01*
X0038Y007D02*
X00425Y00655D01*
X008483Y00985D02*
X00885D01*
X00775D02*
X008483D01*
X009553Y0014D02*
X0096Y001447D01*
Y001714D01*
X00785Y0014D02*
X009553D01*
X0076Y00165D02*
X00785Y0014D01*
X0076Y00165D02*
Y002686D01*
X00713Y003186D02*
X007247Y003068D01*
Y003039D02*
Y003068D01*
X0071Y003186D02*
X00713D01*
X007247Y003039D02*
X0076Y002686D01*
X0065Y003914D02*
X0071D01*
X005067Y003583D02*
X006139D01*
X00647Y003914D01*
X004926Y003724D02*
X005067Y003583D01*
X004926Y003724D02*
Y004081D01*
X016Y0036D02*
X01675Y00435D01*
X01715D01*
X017276Y004476D01*
Y004838D01*
X016902D02*
Y006052D01*
X017393Y006543D02*
X018288D01*
X016902Y006052D02*
X017393Y006543D01*
X01765Y004838D02*
Y005856D01*
X018081Y006287D02*
X018288D01*
X01765Y005856D02*
X018081Y006287D01*
X01475Y0136D02*
X01495Y0138D01*
X01565D01*
X015512Y007054D02*
X016154D01*
X02125Y00625D02*
Y00985D01*
X0221Y0054D02*
X0229D01*
X02125Y00625D02*
X0221Y0054D01*
X009385Y01065D02*
X00962Y010414D01*
X0076Y01065D02*
X009385D01*
X00962Y010414D02*
X00965D01*
X0068Y00985D02*
X0076Y01065D01*
X00725Y0098D02*
X0078Y01035D01*
X008483D01*
X004917Y00985D02*
X0068D01*
X00585Y01095D02*
X009938D01*
X00725Y00685D02*
Y0098D01*
X00355Y01325D02*
X00585Y01095D01*
X00935Y00935D02*
X0102D01*
X00885Y00985D02*
X00935Y00935D01*
X019915Y00785D02*
Y008337D01*
X0203Y007735D02*
Y008649D01*
X019915Y00735D02*
X0203Y007735D01*
X019915Y008337D02*
X019978Y0084D01*
Y00897D02*
X0203Y008649D01*
X019978Y00897D02*
Y009D01*
X0174Y00295D02*
X01765Y0032D01*
X0169Y00275D02*
X0171Y00295D01*
X0174D01*
X016902Y003052D02*
Y00385D01*
X016644Y002794D02*
X016902Y003052D01*
X01765Y0032D02*
Y00385D01*
X02095Y01275D02*
X02145Y01325D01*
X020835Y012635D02*
X02095Y01275D01*
X02145Y01325D02*
Y01405D01*
X00485Y0193D02*
Y0215D01*
Y0181D02*
Y0193D01*
X00385Y0225D02*
X00485Y0215D01*
X00455Y01875D02*
Y0213D01*
Y0178D02*
Y01875D01*
X00395Y01775D02*
Y02085D01*
X0038Y021D02*
X00395Y02085D01*
X00425Y01825D02*
Y0211D01*
Y01755D02*
Y01825D01*
X00385Y0215D02*
X00425Y0211D01*
X00275Y01775D02*
X00395D01*
X00515Y0178D02*
X007737D01*
X00485Y0181D02*
X00515Y0178D01*
X00505Y0173D02*
X007737D01*
X00455Y0178D02*
X00505Y0173D01*
X005Y0168D02*
X007737D01*
X00425Y01755D02*
X005Y0168D01*
X008483Y01035D02*
X008503Y01033D01*
X00897D01*
X009497Y009803D01*
X009533D02*
X00965Y009686D01*
X009497Y009803D02*
X009533D01*
X0103Y00945D02*
Y009686D01*
X0102Y00935D02*
X0103Y00945D01*
X0045Y0138D02*
X007737D01*
X0229Y014D02*
Y019351D01*
X022612Y019639D02*
X0229Y019351D01*
X02265Y01375D02*
X0229Y014D01*
X02225Y01375D02*
X02265D01*
X02235Y01425D02*
X0226Y0145D01*
X021415Y0193D02*
X022553D01*
X0226Y0145D02*
Y019253D01*
X022553Y0193D02*
X0226Y019253D01*
X02165Y01425D02*
X02235D01*
X02145Y01405D02*
X02165Y01425D01*
X0148Y0173D02*
X01565D01*
X0209Y019786D02*
X02093D01*
X021415Y0193D01*
X022494Y019786D02*
X022612Y019668D01*
Y019639D02*
Y019668D01*
X022465Y019786D02*
X022494D01*
X012938Y009676D02*
Y0112D01*
X0072Y00635D02*
X00755Y0067D01*
X00375Y00635D02*
X0072D01*
X00695Y00655D02*
X00725Y00685D01*
X00755Y00965D02*
X00775Y00985D01*
X00755Y0067D02*
Y00965D01*
X012938Y0112D02*
Y012D01*
X012438Y0112D02*
Y012D01*
Y009652D02*
Y0112D01*
X0112Y009614D02*
Y01005D01*
X011938Y0112D02*
Y012D01*
X011438Y0112D02*
Y012D01*
X010938Y0112D02*
Y012D01*
X010438Y0112D02*
Y012D01*
X009938Y01095D02*
X01135D01*
X0118Y0105D01*
Y009614D02*
Y0105D01*
X009938Y01095D02*
Y012D01*
X0124Y009614D02*
X012438Y009652D01*
X012938Y009676D02*
X013Y009614D01*
X00455Y0158D02*
X007737D01*
X00275Y01675D02*
X0036D01*
X00455Y0158D01*
X00225Y01625D02*
X00355D01*
X0045Y0153D01*
X007737D01*
X00275Y01575D02*
X00355D01*
X0045Y0148D02*
X007737D01*
X00355Y01575D02*
X0045Y0148D01*
X00225Y01525D02*
X00355D01*
X0045Y0143D02*
X007737D01*
X00355Y01525D02*
X0045Y0143D01*
X00275Y01475D02*
X00355D01*
X0045Y0138D01*
X00225Y01325D02*
X00355D01*
X0045Y0128D02*
X007737D01*
X00275Y01375D02*
X00355D01*
X0045Y0128D01*
X00175Y01375D02*
X00225Y01325D01*
X00355Y01425D02*
X0045Y0133D01*
X007737D01*
X00175Y01475D02*
X00225Y01425D01*
X00355D01*
X00175Y01575D02*
X00225Y01525D01*
X00175Y01675D02*
X00225Y01625D01*
X00305Y0225D02*
X00385D01*
X00305Y022D02*
X00385D01*
X00455Y0213D01*
X00305Y0215D02*
X00385D01*
X00305Y021D02*
X0038D01*
D73*
X0163Y0063D02*
X017566Y007566D01*
X0163Y005D02*
Y0063D01*
X0158Y0045D02*
X0163Y005D01*
X015512Y009613D02*
X015514Y009612D01*
X016138D02*
X01615Y0096D01*
X015514Y009612D02*
X016138D01*
X0037Y02315D02*
Y0249D01*
X012Y0045D02*
X0158D01*
X01165Y00415D02*
X012Y0045D01*
X017566Y007566D02*
X018288D01*
X01165Y003136D02*
Y00415D01*
X019285Y0076D02*
Y00785D01*
Y00735D02*
Y0076D01*
X019251Y007566D02*
X019285Y0076D01*
X018288Y007566D02*
X019251D01*
X019236Y0063D02*
Y0068D01*
X014439Y008847D02*
X015511D01*
X015512Y008846D01*
X0144Y008886D02*
X014439Y008847D01*
X018288Y006798D02*
X018289Y006799D01*
X019235D01*
D74*
X00065Y0225D02*
X001448D01*
X00065Y00985D02*
X00165D01*
X00065D02*
Y0225D01*
Y0062D02*
X000995Y005855D01*
X00065Y0062D02*
Y00985D01*
Y0225D02*
Y0228D01*
X001Y02315D01*
X0037D01*
X0047D01*
X000995Y005855D02*
X001459D01*
X010668Y00585D02*
X010748Y00577D01*
X001465Y00585D02*
X010668D01*
X001459Y005855D02*
X001465Y00585D01*
X0144Y008625D02*
Y008886D01*
Y008364D02*
Y008625D01*
X002275Y00985D02*
X0029D01*
X00165D02*
X002275D01*
X00225Y009875D02*
Y01045D01*
Y009875D02*
X002275Y00985D01*
X00225Y01045D02*
X00275Y01095D01*
Y01175D01*
Y01275D01*
X0029Y00985D02*
X00385D01*
X0047Y02315D02*
X00545Y0224D01*
X005693Y018807D02*
X005993D01*
X00545Y01905D02*
Y0224D01*
X005993Y018807D02*
X006Y0188D01*
X00545Y01905D02*
X005693Y018807D01*
X0067Y0188D02*
X007737D01*
X006D02*
X0067D01*
D75*
X0125Y00577D02*
X01315D01*
X010748D02*
X0125D01*
X010748Y003136D02*
Y00577D01*
D76*
X00665Y02285D02*
D03*
Y001D02*
D03*
D77*
X00125Y00235D02*
D03*
D78*
X02195Y00885D02*
D03*
Y00785D02*
D03*
Y00685D02*
D03*
X00165Y00985D02*
D03*
Y00885D02*
D03*
Y00785D02*
D03*
X0029Y00985D02*
D03*
Y00885D02*
D03*
Y00785D02*
D03*
D79*
X02195Y00985D02*
D03*
X00165Y00685D02*
D03*
X0029D02*
D03*
D80*
X02195Y01175D02*
D03*
Y01275D02*
D03*
X02095Y01175D02*
D03*
Y01275D02*
D03*
X02195Y01575D02*
D03*
X02095D02*
D03*
X02195Y01675D02*
D03*
X02095D02*
D03*
X02195Y01875D02*
D03*
X02095Y01775D02*
D03*
X02195D02*
D03*
X02095Y01475D02*
D03*
X02195D02*
D03*
X02095Y01375D02*
D03*
X02195D02*
D03*
X00275D02*
D03*
X00175D02*
D03*
X00275Y01475D02*
D03*
X00175D02*
D03*
X00275Y01775D02*
D03*
X00175D02*
D03*
X00275Y01875D02*
D03*
X00175Y01675D02*
D03*
X00275D02*
D03*
X00175Y01575D02*
D03*
X00275D02*
D03*
X00175Y01275D02*
D03*
Y01175D02*
D03*
X00275Y01275D02*
D03*
Y01175D02*
D03*
D81*
X02095Y01875D02*
D03*
X00175D02*
D03*
D82*
X0227Y00095D02*
D03*
X02265Y0244D02*
D03*
X00105Y0245D02*
D03*
X001Y001D02*
D03*
D83*
X0155Y0007D02*
D03*
X0183D02*
D03*
D84*
X01555Y00215D02*
D03*
X01825D02*
D03*
D85*
X01435Y00135D02*
D03*
X0125D02*
D03*
X01065D02*
D03*
D86*
X003806Y001684D02*
D03*
X0102Y008964D02*
D03*
X01765Y007D02*
D03*
X00615Y003186D02*
D03*
X022704Y006409D02*
D03*
Y004046D02*
D03*
X021522Y020582D02*
D03*
Y004046D02*
D03*
Y001684D02*
D03*
X020341Y020582D02*
D03*
X019751Y019401D02*
D03*
X020341Y006409D02*
D03*
X01857Y019401D02*
D03*
Y005228D02*
D03*
Y002865D02*
D03*
X017979Y013495D02*
D03*
Y001684D02*
D03*
X017389Y000503D02*
D03*
X016798Y020582D02*
D03*
X016207Y019401D02*
D03*
X016798Y008771D02*
D03*
X016207Y00759D02*
D03*
X016798Y001684D02*
D03*
X016207Y000503D02*
D03*
X015026Y019401D02*
D03*
Y005228D02*
D03*
Y000503D02*
D03*
X013845Y019401D02*
D03*
Y014676D02*
D03*
Y000503D02*
D03*
X012664Y019401D02*
D03*
X013255Y01822D02*
D03*
X012664Y017039D02*
D03*
X013255Y015857D02*
D03*
X012664Y014676D02*
D03*
X013255Y013495D02*
D03*
Y001684D02*
D03*
X012664Y000503D02*
D03*
X011483Y019401D02*
D03*
X012074Y01822D02*
D03*
X011483Y017039D02*
D03*
X012074Y015857D02*
D03*
X011483Y014676D02*
D03*
X012074Y013495D02*
D03*
X011483Y005228D02*
D03*
X012074Y004046D02*
D03*
X011483Y000503D02*
D03*
X010302Y019401D02*
D03*
X010893Y01822D02*
D03*
X010302Y017039D02*
D03*
X010893Y015857D02*
D03*
X010302Y014676D02*
D03*
X010893Y013495D02*
D03*
X010302Y00759D02*
D03*
X010893Y006409D02*
D03*
X010302Y002865D02*
D03*
X009121Y019401D02*
D03*
X009711Y01822D02*
D03*
X009121Y017039D02*
D03*
X009711Y015857D02*
D03*
X009121Y014676D02*
D03*
X009711Y013495D02*
D03*
X009121Y00759D02*
D03*
X009711Y006409D02*
D03*
X009121Y005228D02*
D03*
X009711Y004046D02*
D03*
X009121Y002865D02*
D03*
Y000503D02*
D03*
X00794Y019401D02*
D03*
X00853Y01822D02*
D03*
Y015857D02*
D03*
Y013495D02*
D03*
X00794Y012314D02*
D03*
X00853Y006409D02*
D03*
X005578Y024125D02*
D03*
X006168Y020582D02*
D03*
Y01822D02*
D03*
X005578Y012314D02*
D03*
X004396Y024125D02*
D03*
Y000503D02*
D03*
X003215D02*
D03*
X002625Y001684D02*
D03*
X002034Y000503D02*
D03*
X001444Y011133D02*
D03*
X0207Y00935D02*
D03*
X01615Y0096D02*
D03*
X01715Y0091D02*
D03*
X01605D02*
D03*
X0146Y01145D02*
D03*
X01495Y01165D02*
D03*
Y0158D02*
D03*
X0146Y0153D02*
D03*
X0038Y0074D02*
D03*
X00375Y00635D02*
D03*
X017276Y0033D02*
D03*
X0053Y004081D02*
D03*
X019236Y0063D02*
D03*
X0127Y00635D02*
D03*
X0123D02*
D03*
X01695Y0099D02*
D03*
X00485Y0193D02*
D03*
X00455Y01875D02*
D03*
X00305Y02015D02*
D03*
X00425Y01825D02*
D03*
X0068Y0138D02*
D03*
X01985Y019872D02*
D03*
X0182D02*
D03*
X0112Y01005D02*
D03*
X012438Y0112D02*
D03*
X012938D02*
D03*
X011438D02*
D03*
X011938D02*
D03*
X010938D02*
D03*
X010438D02*
D03*
M02*
