G04*
G04 #@! TF.GenerationSoftware,Altium Limited,Altium Designer,24.4.1 (13)*
G04*
G04 Layer_Color=2752767*
%FSTAX24Y24*%
%MOIN*%
G70*
G04*
G04 #@! TF.SameCoordinates,973A198C-3906-4392-A1E8-A13353080A71*
G04*
G04*
G04 #@! TF.FilePolarity,Positive*
G04*
G01*
G75*
%ADD18C,0.0050*%
%ADD95C,0.0067*%
D18*
X00645Y02265D02*
X00655D01*
X00665Y02275D01*
X00675Y02265D01*
X00685D01*
Y02275D01*
X00675Y02285D01*
X00685Y02295D01*
Y02305D01*
X00675D01*
X00665Y02295D01*
X00655Y02305D01*
X00645D01*
Y02295D01*
X00655Y02285D01*
X00645Y02275D01*
Y02265D01*
Y0008D02*
X00655D01*
X00665Y0009D01*
X00675Y0008D01*
X00685D01*
Y0009D01*
X00675Y001D01*
X00685Y0011D01*
Y0012D01*
X00675D01*
X00665Y0011D01*
X00655Y0012D01*
X00645D01*
Y0011D01*
X00655Y001D01*
X00645Y0009D01*
Y0008D01*
X00105Y00515D02*
Y00555D01*
X00145D01*
Y00515D01*
X00105D01*
Y00415D02*
Y00455D01*
X00145D01*
Y00415D01*
X00105D01*
Y00315D02*
Y00355D01*
X00145D01*
Y00315D01*
X00105D01*
Y00215D02*
Y00255D01*
X00145D01*
Y00215D01*
X00105D01*
X0226Y00085D02*
Y00075D01*
X0228D01*
Y00085D01*
X0229D01*
Y00105D01*
X0228D01*
Y00115D01*
X0226D01*
Y00105D01*
X0225D01*
Y00085D01*
X0226D01*
X0155Y0005D02*
X0156Y0006D01*
X0157D01*
X0156Y0007D01*
X0157Y0008D01*
X0156D01*
X0155Y0009D01*
X0154Y0008D01*
X0153D01*
X0154Y0007D01*
X0153Y0006D01*
X0154D01*
X0155Y0005D01*
X0183D02*
X0184Y0006D01*
X0185D01*
X0184Y0007D01*
X0185Y0008D01*
X0184D01*
X0183Y0009D01*
X0182Y0008D01*
X0181D01*
X0182Y0007D01*
X0181Y0006D01*
X0182D01*
X0183Y0005D01*
X01535Y00195D02*
X01545Y00215D01*
X01535Y00235D01*
X01555Y00225D01*
X01575Y00235D01*
X01565Y00215D01*
X01575Y00195D01*
X01555Y00205D01*
X01535Y00195D01*
X01805D02*
X01815Y00215D01*
X01805Y00235D01*
X01825Y00225D01*
X01845Y00235D01*
X01835Y00215D01*
X01845Y00195D01*
X01825Y00205D01*
X01805Y00195D01*
X01415Y00115D02*
Y00155D01*
X01455D01*
Y00115D01*
X01415D01*
X0123D02*
Y00155D01*
X0127D01*
Y00115D01*
X0123D01*
X01045D02*
Y00155D01*
X01085D01*
Y00115D01*
X01045D01*
X02255Y0243D02*
Y0242D01*
X02275D01*
Y0243D01*
X02285D01*
Y0245D01*
X02275D01*
Y0246D01*
X02255D01*
Y0245D01*
X02245D01*
Y0243D01*
X02255D01*
X00095Y0244D02*
Y0243D01*
X00115D01*
Y0244D01*
X00125D01*
Y0246D01*
X00115D01*
Y0247D01*
X00095D01*
Y0246D01*
X00085D01*
Y0244D01*
X00095D01*
X0009Y0009D02*
Y0008D01*
X0011D01*
Y0009D01*
X0012D01*
Y0011D01*
X0011D01*
Y0012D01*
X0009D01*
Y0011D01*
X0008D01*
Y0009D01*
X0009D01*
X003606Y001684D02*
X003806Y001884D01*
X004006Y001684D01*
X003806Y001484D01*
X003606Y001684D01*
X01Y008964D02*
X0102Y009164D01*
X0104Y008964D01*
X0102Y008764D01*
X01Y008964D01*
X01745Y007D02*
X01765Y0072D01*
X01785Y007D01*
X01765Y0068D01*
X01745Y007D01*
X00595Y003186D02*
X00615Y003386D01*
X00635Y003186D01*
X00615Y002986D01*
X00595Y003186D01*
X022504Y006409D02*
X022704Y006609D01*
X022904Y006409D01*
X022704Y006209D01*
X022504Y006409D01*
Y004046D02*
X022704Y004246D01*
X022904Y004046D01*
X022704Y003846D01*
X022504Y004046D01*
X021322Y020582D02*
X021522Y020782D01*
X021722Y020582D01*
X021522Y020382D01*
X021322Y020582D01*
Y004046D02*
X021522Y004246D01*
X021722Y004046D01*
X021522Y003846D01*
X021322Y004046D01*
Y001684D02*
X021522Y001884D01*
X021722Y001684D01*
X021522Y001484D01*
X021322Y001684D01*
X020141Y020582D02*
X020341Y020782D01*
X020541Y020582D01*
X020341Y020382D01*
X020141Y020582D01*
X019551Y019401D02*
X019751Y019601D01*
X019951Y019401D01*
X019751Y019201D01*
X019551Y019401D01*
X020141Y006409D02*
X020341Y006609D01*
X020541Y006409D01*
X020341Y006209D01*
X020141Y006409D01*
X01837Y019401D02*
X01857Y019601D01*
X01877Y019401D01*
X01857Y019201D01*
X01837Y019401D01*
Y005228D02*
X01857Y005428D01*
X01877Y005228D01*
X01857Y005028D01*
X01837Y005228D01*
Y002865D02*
X01857Y003065D01*
X01877Y002865D01*
X01857Y002665D01*
X01837Y002865D01*
X017779Y013495D02*
X017979Y013695D01*
X018179Y013495D01*
X017979Y013295D01*
X017779Y013495D01*
Y001684D02*
X017979Y001884D01*
X018179Y001684D01*
X017979Y001484D01*
X017779Y001684D01*
X017189Y000503D02*
X017389Y000703D01*
X017589Y000503D01*
X017389Y000303D01*
X017189Y000503D01*
X016598Y020582D02*
X016798Y020782D01*
X016998Y020582D01*
X016798Y020382D01*
X016598Y020582D01*
X016007Y019401D02*
X016207Y019601D01*
X016407Y019401D01*
X016207Y019201D01*
X016007Y019401D01*
X016598Y008771D02*
X016798Y008971D01*
X016998Y008771D01*
X016798Y008571D01*
X016598Y008771D01*
X016007Y00759D02*
X016207Y00779D01*
X016407Y00759D01*
X016207Y00739D01*
X016007Y00759D01*
X016598Y001684D02*
X016798Y001884D01*
X016998Y001684D01*
X016798Y001484D01*
X016598Y001684D01*
X016007Y000503D02*
X016207Y000703D01*
X016407Y000503D01*
X016207Y000303D01*
X016007Y000503D01*
X014826Y019401D02*
X015026Y019601D01*
X015226Y019401D01*
X015026Y019201D01*
X014826Y019401D01*
Y005228D02*
X015026Y005428D01*
X015226Y005228D01*
X015026Y005028D01*
X014826Y005228D01*
Y000503D02*
X015026Y000703D01*
X015226Y000503D01*
X015026Y000303D01*
X014826Y000503D01*
X013645Y019401D02*
X013845Y019601D01*
X014045Y019401D01*
X013845Y019201D01*
X013645Y019401D01*
Y014676D02*
X013845Y014876D01*
X014045Y014676D01*
X013845Y014476D01*
X013645Y014676D01*
Y000503D02*
X013845Y000703D01*
X014045Y000503D01*
X013845Y000303D01*
X013645Y000503D01*
X012464Y019401D02*
X012664Y019601D01*
X012864Y019401D01*
X012664Y019201D01*
X012464Y019401D01*
X013055Y01822D02*
X013255Y01842D01*
X013455Y01822D01*
X013255Y01802D01*
X013055Y01822D01*
X012464Y017039D02*
X012664Y017239D01*
X012864Y017039D01*
X012664Y016839D01*
X012464Y017039D01*
X013055Y015857D02*
X013255Y016057D01*
X013455Y015857D01*
X013255Y015657D01*
X013055Y015857D01*
X012464Y014676D02*
X012664Y014876D01*
X012864Y014676D01*
X012664Y014476D01*
X012464Y014676D01*
X013055Y013495D02*
X013255Y013695D01*
X013455Y013495D01*
X013255Y013295D01*
X013055Y013495D01*
Y001684D02*
X013255Y001884D01*
X013455Y001684D01*
X013255Y001484D01*
X013055Y001684D01*
X012464Y000503D02*
X012664Y000703D01*
X012864Y000503D01*
X012664Y000303D01*
X012464Y000503D01*
X011283Y019401D02*
X011483Y019601D01*
X011683Y019401D01*
X011483Y019201D01*
X011283Y019401D01*
X011874Y01822D02*
X012074Y01842D01*
X012274Y01822D01*
X012074Y01802D01*
X011874Y01822D01*
X011283Y017039D02*
X011483Y017239D01*
X011683Y017039D01*
X011483Y016839D01*
X011283Y017039D01*
X011874Y015857D02*
X012074Y016057D01*
X012274Y015857D01*
X012074Y015657D01*
X011874Y015857D01*
X011283Y014676D02*
X011483Y014876D01*
X011683Y014676D01*
X011483Y014476D01*
X011283Y014676D01*
X011874Y013495D02*
X012074Y013695D01*
X012274Y013495D01*
X012074Y013295D01*
X011874Y013495D01*
X011283Y005228D02*
X011483Y005428D01*
X011683Y005228D01*
X011483Y005028D01*
X011283Y005228D01*
X011874Y004046D02*
X012074Y004246D01*
X012274Y004046D01*
X012074Y003846D01*
X011874Y004046D01*
X011283Y000503D02*
X011483Y000703D01*
X011683Y000503D01*
X011483Y000303D01*
X011283Y000503D01*
X010102Y019401D02*
X010302Y019601D01*
X010502Y019401D01*
X010302Y019201D01*
X010102Y019401D01*
X010693Y01822D02*
X010893Y01842D01*
X011093Y01822D01*
X010893Y01802D01*
X010693Y01822D01*
X010102Y017039D02*
X010302Y017239D01*
X010502Y017039D01*
X010302Y016839D01*
X010102Y017039D01*
X010693Y015857D02*
X010893Y016057D01*
X011093Y015857D01*
X010893Y015657D01*
X010693Y015857D01*
X010102Y014676D02*
X010302Y014876D01*
X010502Y014676D01*
X010302Y014476D01*
X010102Y014676D01*
X010693Y013495D02*
X010893Y013695D01*
X011093Y013495D01*
X010893Y013295D01*
X010693Y013495D01*
X010102Y00759D02*
X010302Y00779D01*
X010502Y00759D01*
X010302Y00739D01*
X010102Y00759D01*
X010693Y006409D02*
X010893Y006609D01*
X011093Y006409D01*
X010893Y006209D01*
X010693Y006409D01*
X010102Y002865D02*
X010302Y003065D01*
X010502Y002865D01*
X010302Y002665D01*
X010102Y002865D01*
X008921Y019401D02*
X009121Y019601D01*
X009321Y019401D01*
X009121Y019201D01*
X008921Y019401D01*
X009511Y01822D02*
X009711Y01842D01*
X009911Y01822D01*
X009711Y01802D01*
X009511Y01822D01*
X008921Y017039D02*
X009121Y017239D01*
X009321Y017039D01*
X009121Y016839D01*
X008921Y017039D01*
X009511Y015857D02*
X009711Y016057D01*
X009911Y015857D01*
X009711Y015657D01*
X009511Y015857D01*
X008921Y014676D02*
X009121Y014876D01*
X009321Y014676D01*
X009121Y014476D01*
X008921Y014676D01*
X009511Y013495D02*
X009711Y013695D01*
X009911Y013495D01*
X009711Y013295D01*
X009511Y013495D01*
X008921Y00759D02*
X009121Y00779D01*
X009321Y00759D01*
X009121Y00739D01*
X008921Y00759D01*
X009511Y006409D02*
X009711Y006609D01*
X009911Y006409D01*
X009711Y006209D01*
X009511Y006409D01*
X008921Y005228D02*
X009121Y005428D01*
X009321Y005228D01*
X009121Y005028D01*
X008921Y005228D01*
X009511Y004046D02*
X009711Y004246D01*
X009911Y004046D01*
X009711Y003846D01*
X009511Y004046D01*
X008921Y002865D02*
X009121Y003065D01*
X009321Y002865D01*
X009121Y002665D01*
X008921Y002865D01*
Y000503D02*
X009121Y000703D01*
X009321Y000503D01*
X009121Y000303D01*
X008921Y000503D01*
X00774Y019401D02*
X00794Y019601D01*
X00814Y019401D01*
X00794Y019201D01*
X00774Y019401D01*
X00833Y01822D02*
X00853Y01842D01*
X00873Y01822D01*
X00853Y01802D01*
X00833Y01822D01*
Y015857D02*
X00853Y016057D01*
X00873Y015857D01*
X00853Y015657D01*
X00833Y015857D01*
Y013495D02*
X00853Y013695D01*
X00873Y013495D01*
X00853Y013295D01*
X00833Y013495D01*
X00774Y012314D02*
X00794Y012514D01*
X00814Y012314D01*
X00794Y012114D01*
X00774Y012314D01*
X00833Y006409D02*
X00853Y006609D01*
X00873Y006409D01*
X00853Y006209D01*
X00833Y006409D01*
X005378Y024125D02*
X005578Y024325D01*
X005778Y024125D01*
X005578Y023925D01*
X005378Y024125D01*
X005968Y020582D02*
X006168Y020782D01*
X006368Y020582D01*
X006168Y020382D01*
X005968Y020582D01*
Y01822D02*
X006168Y01842D01*
X006368Y01822D01*
X006168Y01802D01*
X005968Y01822D01*
X005378Y012314D02*
X005578Y012514D01*
X005778Y012314D01*
X005578Y012114D01*
X005378Y012314D01*
X004196Y024125D02*
X004396Y024325D01*
X004596Y024125D01*
X004396Y023925D01*
X004196Y024125D01*
Y000503D02*
X004396Y000703D01*
X004596Y000503D01*
X004396Y000303D01*
X004196Y000503D01*
X003015D02*
X003215Y000703D01*
X003415Y000503D01*
X003215Y000303D01*
X003015Y000503D01*
X002425Y001684D02*
X002625Y001884D01*
X002825Y001684D01*
X002625Y001484D01*
X002425Y001684D01*
X001834Y000503D02*
X002034Y000703D01*
X002234Y000503D01*
X002034Y000303D01*
X001834Y000503D01*
X001244Y011133D02*
X001444Y011333D01*
X001644Y011133D01*
X001444Y010933D01*
X001244Y011133D01*
X0205Y00935D02*
X0207Y00955D01*
X0209Y00935D01*
X0207Y00915D01*
X0205Y00935D01*
X01595Y0096D02*
X01615Y0098D01*
X01635Y0096D01*
X01615Y0094D01*
X01595Y0096D01*
X01695Y0091D02*
X01715Y0093D01*
X01735Y0091D01*
X01715Y0089D01*
X01695Y0091D01*
X01585D02*
X01605Y0093D01*
X01625Y0091D01*
X01605Y0089D01*
X01585Y0091D01*
X0144Y01145D02*
X0146Y01165D01*
X0148Y01145D01*
X0146Y01125D01*
X0144Y01145D01*
X01475Y01165D02*
X01495Y01185D01*
X01515Y01165D01*
X01495Y01145D01*
X01475Y01165D01*
Y0158D02*
X01495Y016D01*
X01515Y0158D01*
X01495Y0156D01*
X01475Y0158D01*
X0144Y0153D02*
X0146Y0155D01*
X0148Y0153D01*
X0146Y0151D01*
X0144Y0153D01*
X0036Y0074D02*
X0038Y0076D01*
X004Y0074D01*
X0038Y0072D01*
X0036Y0074D01*
X00355Y00635D02*
X00375Y00655D01*
X00395Y00635D01*
X00375Y00615D01*
X00355Y00635D01*
X017076Y0033D02*
X017276Y0035D01*
X017476Y0033D01*
X017276Y0031D01*
X017076Y0033D01*
X0051Y004081D02*
X0053Y004281D01*
X0055Y004081D01*
X0053Y003882D01*
X0051Y004081D01*
X019036Y0063D02*
X019236Y0065D01*
X019436Y0063D01*
X019236Y0061D01*
X019036Y0063D01*
X0125Y00635D02*
X0127Y00655D01*
X0129Y00635D01*
X0127Y00615D01*
X0125Y00635D01*
X0121D02*
X0123Y00655D01*
X0125Y00635D01*
X0123Y00615D01*
X0121Y00635D01*
X01675Y0099D02*
X01695Y0101D01*
X01715Y0099D01*
X01695Y0097D01*
X01675Y0099D01*
X00465Y0193D02*
X00485Y0195D01*
X00505Y0193D01*
X00485Y0191D01*
X00465Y0193D01*
X00435Y01875D02*
X00455Y01895D01*
X00475Y01875D01*
X00455Y01855D01*
X00435Y01875D01*
X00285Y02015D02*
X00305Y02035D01*
X00325Y02015D01*
X00305Y01995D01*
X00285Y02015D01*
X00405Y01825D02*
X00425Y01845D01*
X00445Y01825D01*
X00425Y01805D01*
X00405Y01825D01*
X0066Y0138D02*
X0068Y014D01*
X007Y0138D01*
X0068Y0136D01*
X0066Y0138D01*
X01965Y019872D02*
X01985Y020072D01*
X02005Y019872D01*
X01985Y019672D01*
X01965Y019872D01*
X018D02*
X0182Y020072D01*
X0184Y019872D01*
X0182Y019672D01*
X018Y019872D01*
X011Y01005D02*
X0112Y01025D01*
X0114Y01005D01*
X0112Y00985D01*
X011Y01005D01*
X012238Y0112D02*
X012438Y0114D01*
X012638Y0112D01*
X012438Y011D01*
X012238Y0112D01*
X012738D02*
X012938Y0114D01*
X013138Y0112D01*
X012938Y011D01*
X012738Y0112D01*
X011238D02*
X011438Y0114D01*
X011638Y0112D01*
X011438Y011D01*
X011238Y0112D01*
X011738D02*
X011938Y0114D01*
X012138Y0112D01*
X011938Y011D01*
X011738Y0112D01*
X010738D02*
X010938Y0114D01*
X011138Y0112D01*
X010938Y011D01*
X010738Y0112D01*
X010238D02*
X010438Y0114D01*
X010638Y0112D01*
X010438Y011D01*
X010238Y0112D01*
D95*
X02215Y00885D02*
G03*
X02215Y00885I-0002J0D01*
G01*
Y00985D02*
G03*
X02215Y00985I-0002J0D01*
G01*
Y00785D02*
G03*
X02215Y00785I-0002J0D01*
G01*
Y00685D02*
G03*
X02215Y00685I-0002J0D01*
G01*
Y01175D02*
G03*
X02215Y01175I-0002J0D01*
G01*
Y01275D02*
G03*
X02215Y01275I-0002J0D01*
G01*
X02115Y01175D02*
G03*
X02115Y01175I-0002J0D01*
G01*
Y01275D02*
G03*
X02115Y01275I-0002J0D01*
G01*
X02215Y01575D02*
G03*
X02215Y01575I-0002J0D01*
G01*
X02115D02*
G03*
X02115Y01575I-0002J0D01*
G01*
X02215Y01675D02*
G03*
X02215Y01675I-0002J0D01*
G01*
X02115D02*
G03*
X02115Y01675I-0002J0D01*
G01*
Y01875D02*
G03*
X02115Y01875I-0002J0D01*
G01*
X02215D02*
G03*
X02215Y01875I-0002J0D01*
G01*
X02115Y01775D02*
G03*
X02115Y01775I-0002J0D01*
G01*
X02215D02*
G03*
X02215Y01775I-0002J0D01*
G01*
X02115Y01475D02*
G03*
X02115Y01475I-0002J0D01*
G01*
X02215D02*
G03*
X02215Y01475I-0002J0D01*
G01*
X02115Y01375D02*
G03*
X02115Y01375I-0002J0D01*
G01*
X02215D02*
G03*
X02215Y01375I-0002J0D01*
G01*
X00185Y00985D02*
G03*
X00185Y00985I-0002J0D01*
G01*
Y00885D02*
G03*
X00185Y00885I-0002J0D01*
G01*
Y00685D02*
G03*
X00185Y00685I-0002J0D01*
G01*
Y00785D02*
G03*
X00185Y00785I-0002J0D01*
G01*
X0031Y00985D02*
G03*
X0031Y00985I-0002J0D01*
G01*
Y00885D02*
G03*
X0031Y00885I-0002J0D01*
G01*
Y00685D02*
G03*
X0031Y00685I-0002J0D01*
G01*
Y00785D02*
G03*
X0031Y00785I-0002J0D01*
G01*
X00295Y01375D02*
G03*
X00295Y01375I-0002J0D01*
G01*
X00195D02*
G03*
X00195Y01375I-0002J0D01*
G01*
X00295Y01475D02*
G03*
X00295Y01475I-0002J0D01*
G01*
X00195D02*
G03*
X00195Y01475I-0002J0D01*
G01*
X00295Y01775D02*
G03*
X00295Y01775I-0002J0D01*
G01*
X00195D02*
G03*
X00195Y01775I-0002J0D01*
G01*
X00295Y01875D02*
G03*
X00295Y01875I-0002J0D01*
G01*
X00195D02*
G03*
X00195Y01875I-0002J0D01*
G01*
Y01675D02*
G03*
X00195Y01675I-0002J0D01*
G01*
X00295D02*
G03*
X00295Y01675I-0002J0D01*
G01*
X00195Y01575D02*
G03*
X00195Y01575I-0002J0D01*
G01*
X00295D02*
G03*
X00295Y01575I-0002J0D01*
G01*
X00195Y01275D02*
G03*
X00195Y01275I-0002J0D01*
G01*
Y01175D02*
G03*
X00195Y01175I-0002J0D01*
G01*
X00295Y01275D02*
G03*
X00295Y01275I-0002J0D01*
G01*
Y01175D02*
G03*
X00295Y01175I-0002J0D01*
G01*
M02*
