G04*
G04 #@! TF.GenerationSoftware,Altium Limited,Altium Designer,24.4.1 (13)*
G04*
G04 Layer_Color=16711935*
%FSTAX24Y24*%
%MOIN*%
G70*
G04*
G04 #@! TF.SameCoordinates,973A198C-3906-4392-A1E8-A13353080A71*
G04*
G04*
G04 #@! TF.FilePolarity,Negative*
G04*
G01*
G75*
%ADD59C,0.0671*%
%ADD61C,0.0946*%
%ADD62R,0.0671X0.0671*%
%ADD63C,0.0710*%
%ADD64R,0.0710X0.0710*%
%ADD65C,0.0730*%
%ADD66R,0.0730X0.0730*%
%ADD67C,0.1379*%
%ADD68O,0.0671X0.0946*%
%ADD69O,0.0789X0.0946*%
%ADD70C,0.0789*%
%ADD87R,0.1969X0.1969*%
D59*
X00125Y00535D02*
D03*
Y00435D02*
D03*
Y00335D02*
D03*
D61*
X00665Y02285D02*
D03*
Y001D02*
D03*
D62*
X00125Y00235D02*
D03*
D63*
X02195Y00885D02*
D03*
Y00785D02*
D03*
Y00685D02*
D03*
X00165Y00985D02*
D03*
Y00885D02*
D03*
Y00785D02*
D03*
X0029Y00985D02*
D03*
Y00885D02*
D03*
Y00785D02*
D03*
D64*
X02195Y00985D02*
D03*
X00165Y00685D02*
D03*
X0029D02*
D03*
D65*
X02195Y01175D02*
D03*
Y01275D02*
D03*
X02095Y01175D02*
D03*
Y01275D02*
D03*
X02195Y01575D02*
D03*
X02095D02*
D03*
X02195Y01675D02*
D03*
X02095D02*
D03*
X02195Y01875D02*
D03*
X02095Y01775D02*
D03*
X02195D02*
D03*
X02095Y01475D02*
D03*
X02195D02*
D03*
X02095Y01375D02*
D03*
X02195D02*
D03*
X00275D02*
D03*
X00175D02*
D03*
X00275Y01475D02*
D03*
X00175D02*
D03*
X00275Y01775D02*
D03*
X00175D02*
D03*
X00275Y01875D02*
D03*
X00175Y01675D02*
D03*
X00275D02*
D03*
X00175Y01575D02*
D03*
X00275D02*
D03*
X00175Y01275D02*
D03*
Y01175D02*
D03*
X00275Y01275D02*
D03*
Y01175D02*
D03*
D66*
X02095Y01875D02*
D03*
X00175D02*
D03*
D67*
X0227Y00095D02*
D03*
X02265Y0244D02*
D03*
X00105Y0245D02*
D03*
X001Y001D02*
D03*
D68*
X0155Y0007D02*
D03*
X0183D02*
D03*
D69*
X01555Y00215D02*
D03*
X01825D02*
D03*
D70*
X01435Y00135D02*
D03*
X0125D02*
D03*
X01065D02*
D03*
D87*
X0148Y006532D02*
D03*
Y018068D02*
D03*
M02*
