G04*
G04 #@! TF.GenerationSoftware,Altium Limited,Altium Designer,24.4.1 (13)*
G04*
G04 Layer_Color=12632256*
%FSTAX24Y24*%
%MOIN*%
G70*
G04*
G04 #@! TF.SameCoordinates,973A198C-3906-4392-A1E8-A13353080A71*
G04*
G04*
G04 #@! TF.FilePolarity,Positive*
G04*
G01*
G75*
%ADD44C,0.0591*%
%ADD76C,0.0866*%
%ADD77R,0.0591X0.0591*%
%ADD78C,0.0630*%
%ADD79R,0.0630X0.0630*%
%ADD80C,0.0650*%
%ADD81R,0.0650X0.0650*%
%ADD82C,0.1299*%
%ADD83O,0.0591X0.0866*%
%ADD84O,0.0709X0.0866*%
%ADD85C,0.0709*%
D44*
X00125Y00535D02*
D03*
Y00435D02*
D03*
Y00335D02*
D03*
D76*
X00665Y02285D02*
D03*
Y001D02*
D03*
D77*
X00125Y00235D02*
D03*
D78*
X02195Y00885D02*
D03*
Y00785D02*
D03*
Y00685D02*
D03*
X00165Y00985D02*
D03*
Y00885D02*
D03*
Y00785D02*
D03*
X0029Y00985D02*
D03*
Y00885D02*
D03*
Y00785D02*
D03*
D79*
X02195Y00985D02*
D03*
X00165Y00685D02*
D03*
X0029D02*
D03*
D80*
X02195Y01175D02*
D03*
Y01275D02*
D03*
X02095Y01175D02*
D03*
Y01275D02*
D03*
X02195Y01575D02*
D03*
X02095D02*
D03*
X02195Y01675D02*
D03*
X02095D02*
D03*
X02195Y01875D02*
D03*
X02095Y01775D02*
D03*
X02195D02*
D03*
X02095Y01475D02*
D03*
X02195D02*
D03*
X02095Y01375D02*
D03*
X02195D02*
D03*
X00275D02*
D03*
X00175D02*
D03*
X00275Y01475D02*
D03*
X00175D02*
D03*
X00275Y01775D02*
D03*
X00175D02*
D03*
X00275Y01875D02*
D03*
X00175Y01675D02*
D03*
X00275D02*
D03*
X00175Y01575D02*
D03*
X00275D02*
D03*
X00175Y01275D02*
D03*
Y01175D02*
D03*
X00275Y01275D02*
D03*
Y01175D02*
D03*
D81*
X02095Y01875D02*
D03*
X00175D02*
D03*
D82*
X0227Y00095D02*
D03*
X02265Y0244D02*
D03*
X00105Y0245D02*
D03*
X001Y001D02*
D03*
D83*
X0155Y0007D02*
D03*
X0183D02*
D03*
D84*
X01555Y00215D02*
D03*
X01825D02*
D03*
D85*
X01435Y00135D02*
D03*
X0125D02*
D03*
X01065D02*
D03*
M02*
