G04*
G04 #@! TF.GenerationSoftware,Altium Limited,Altium Designer,24.4.1 (13)*
G04*
G04 Layer_Color=32768*
%FSTAX24Y24*%
%MOIN*%
G70*
G04*
G04 #@! TF.SameCoordinates,973A198C-3906-4392-A1E8-A13353080A71*
G04*
G04*
G04 #@! TF.FilePolarity,Positive*
G04*
G01*
G75*
%ADD18C,0.0050*%
%ADD92C,0.0039*%
D18*
X023115Y00292D02*
X023148Y002937D01*
X023182Y00297D01*
X023198Y003003D01*
X023215Y003053D01*
Y003137D01*
X023198Y003187D01*
X023182Y00322D01*
X023148Y003253D01*
X023115Y00327D01*
X023048D01*
X023015Y003253D01*
X022982Y00322D01*
X022965Y003187D01*
X022948Y003137D01*
Y003053D01*
X022965Y003003D01*
X022982Y00297D01*
X023015Y002937D01*
X023048Y00292D01*
X023115D01*
X022867D02*
Y00327D01*
Y00292D02*
X022633Y00327D01*
Y00292D02*
Y00327D01*
D92*
X002781Y003074D02*
G03*
X002781Y003074I-000118J0D01*
G01*
X002426Y002838D02*
Y005122D01*
X004474D01*
Y002838D02*
Y005122D01*
X002426Y002838D02*
X004474D01*
X007768Y002196D02*
X008831D01*
X007454Y001882D02*
X007768Y002196D01*
X008831D02*
X009146Y001882D01*
X007454Y000504D02*
Y001882D01*
X009146Y000504D02*
Y001882D01*
X007454Y000504D02*
X009146D01*
X004568Y002196D02*
X005631D01*
X004254Y001882D02*
X004568Y002196D01*
X005631D02*
X005946Y001882D01*
X004254Y000504D02*
Y001882D01*
X005946Y000504D02*
Y001882D01*
X004254Y000504D02*
X005946D01*
X02242Y002758D02*
X02338D01*
X02242D02*
Y005042D01*
X02338D01*
Y002758D02*
Y005042D01*
X022989Y002199D02*
Y002758D01*
X022811Y002199D02*
X022989D01*
X022811D02*
Y002758D01*
Y005042D02*
Y005601D01*
X022989D01*
Y005042D02*
Y005601D01*
X022987Y005042D02*
X02338Y004648D01*
M02*
