G04*
G04 #@! TF.GenerationSoftware,Altium Limited,Altium Designer,24.4.1 (13)*
G04*
G04 Layer_Color=16711935*
%FSTAX24Y24*%
%MOIN*%
G70*
G04*
G04 #@! TF.SameCoordinates,973A198C-3906-4392-A1E8-A13353080A71*
G04*
G04*
G04 #@! TF.FilePolarity,Positive*
G04*
G01*
G75*
%ADD14C,0.0079*%
%ADD18C,0.0050*%
%ADD92C,0.0039*%
G36*
X0112Y007943D02*
X011318Y008133D01*
X011082D01*
X0112Y007943D01*
D02*
G37*
G36*
X0118D02*
X011918Y008133D01*
X011682D01*
X0118Y007943D01*
D02*
G37*
G36*
X0124D02*
X012518Y008133D01*
X012282D01*
X0124Y007943D01*
D02*
G37*
G36*
X013Y007958D02*
X013118Y008148D01*
X012882D01*
X013Y007958D01*
D02*
G37*
G36*
X01375Y003393D02*
X013868Y003583D01*
X013632D01*
X01375Y003393D01*
D02*
G37*
G36*
Y005492D02*
X013632Y005302D01*
X013868D01*
X01375Y005492D01*
D02*
G37*
G36*
X019692Y00735D02*
X019502Y007468D01*
Y007232D01*
X019692Y00735D01*
D02*
G37*
G36*
Y00785D02*
X019502Y007968D01*
Y007732D01*
X019692Y00785D01*
D02*
G37*
D14*
X016943Y003338D02*
G03*
X016943Y003338I-000039J0D01*
G01*
X005224Y006572D02*
Y010628D01*
Y006572D02*
X008176D01*
Y010628D01*
X005224D02*
X008176D01*
X009468Y003763D02*
X012029D01*
Y005143D01*
X009468D02*
X012029D01*
X009468Y003763D02*
Y005143D01*
X001548Y022776D02*
X00295D01*
X001548Y020224D02*
Y022776D01*
Y020224D02*
X00295D01*
Y022776D01*
D18*
X0167Y004024D02*
X017852D01*
Y004664D01*
X0167D02*
X017852D01*
X0167Y004024D02*
Y004664D01*
D92*
X016349Y009663D02*
G03*
X016349Y009663I-000197J0D01*
G01*
X002781Y003074D02*
G03*
X002781Y003074I-000118J0D01*
G01*
X000266Y00185D02*
Y00585D01*
X002234D01*
Y002322D02*
Y00585D01*
X000266Y00185D02*
X001762D01*
X002234Y002322D01*
X013593Y005715D02*
X013907D01*
X013593Y005085D02*
Y005715D01*
Y005085D02*
X013907D01*
Y005715D01*
X013593Y00317D02*
X013907D01*
Y0038D01*
X013593D02*
X013907D01*
X013593Y00317D02*
Y0038D01*
X02145Y00635D02*
X02245D01*
X02145Y01035D02*
X02245D01*
X02145Y00635D02*
Y01035D01*
X02245Y00635D02*
Y01035D01*
X019915Y007193D02*
Y007507D01*
X019285D02*
X019915D01*
X019285Y007193D02*
Y007507D01*
Y007193D02*
X019915D01*
Y007693D02*
Y008007D01*
X019285D02*
X019915D01*
X019285Y007693D02*
Y008007D01*
Y007693D02*
X019915D01*
X015798Y005883D02*
X018002D01*
X015798Y010017D02*
X018002D01*
Y005883D02*
Y010017D01*
X015798Y005883D02*
Y010017D01*
X02245Y01125D02*
Y01925D01*
X02045Y01125D02*
X02245D01*
X02045D02*
Y01925D01*
X02245D01*
X018357Y000223D02*
X018475D01*
X018357Y-000249D02*
Y000223D01*
X015443Y-000249D02*
X018357D01*
X015443D02*
Y000223D01*
X015325D02*
X015443D01*
X015325Y002349D02*
X018475D01*
X015325Y000223D02*
Y002349D01*
X018475Y000223D02*
Y002349D01*
X00115Y00635D02*
Y01035D01*
X00215Y00635D02*
Y01035D01*
X00115Y00635D02*
X00215D01*
X00115Y01035D02*
X00215D01*
X005189Y004414D02*
Y005486D01*
X006911Y004414D02*
Y005486D01*
X005189Y004414D02*
X006911D01*
X005189Y005486D02*
X006911D01*
X002426Y002838D02*
Y005122D01*
X004474D01*
Y002838D02*
Y005122D01*
X002426Y002838D02*
X004474D01*
X004709Y003215D02*
Y003885D01*
X005891Y003215D02*
Y003885D01*
X004709Y003215D02*
X005891D01*
X004709Y003885D02*
X005891D01*
X007768Y002196D02*
X008831D01*
X007454Y001882D02*
X007768Y002196D01*
X008831D02*
X009146Y001882D01*
X007454Y000504D02*
Y001882D01*
X009146Y000504D02*
Y001882D01*
X007454Y000504D02*
X009146D01*
X004568Y002196D02*
X005631D01*
X004254Y001882D02*
X004568Y002196D01*
X005631D02*
X005946Y001882D01*
X004254Y000504D02*
Y001882D01*
X005946Y000504D02*
Y001882D01*
X004254Y000504D02*
X005946D01*
X0024Y00635D02*
Y01035D01*
X0034Y00635D02*
Y01035D01*
X0024Y00635D02*
X0034D01*
X0024Y01035D02*
X0034D01*
X00125Y01925D02*
X00325D01*
X00125Y01125D02*
Y01925D01*
Y01125D02*
X00325D01*
Y01925D01*
X012843Y007735D02*
Y008365D01*
X013157D01*
Y007735D02*
Y008365D01*
X012843Y007735D02*
X013157D01*
X012243Y00772D02*
Y00835D01*
X012557D01*
Y00772D02*
Y00835D01*
X012243Y00772D02*
X012557D01*
X011643D02*
Y00835D01*
X011957D01*
Y00772D02*
Y00835D01*
X011643Y00772D02*
X011957D01*
X011043D02*
Y00835D01*
X011357D01*
Y00772D02*
Y00835D01*
X011043Y00772D02*
X011357D01*
M02*
