G04*
G04 #@! TF.GenerationSoftware,Altium Limited,Altium Designer,24.4.1 (13)*
G04*
G04 Layer_Color=128*
%FSTAX24Y24*%
%MOIN*%
G70*
G04*
G04 #@! TF.SameCoordinates,973A198C-3906-4392-A1E8-A13353080A71*
G04*
G04*
G04 #@! TF.FilePolarity,Positive*
G04*
G01*
G75*
%ADD18C,0.0050*%
D18*
X006394Y02285D02*
X006906D01*
X00665Y022594D02*
Y023106D01*
X006394Y001D02*
X006906D01*
X00665Y000744D02*
Y001256D01*
X001053Y00535D02*
X001447D01*
X00125Y005153D02*
Y005547D01*
X001053Y00435D02*
X001447D01*
X00125Y004153D02*
Y004547D01*
X001053Y00335D02*
X001447D01*
X00125Y003153D02*
Y003547D01*
X001053Y00235D02*
X001447D01*
X00125Y002153D02*
Y002547D01*
X021733Y00885D02*
X022167D01*
X02195Y008633D02*
Y009067D01*
X021733Y00985D02*
X022167D01*
X02195Y009633D02*
Y010067D01*
X021733Y00785D02*
X022167D01*
X02195Y007633D02*
Y008067D01*
X021733Y00685D02*
X022167D01*
X02195Y006633D02*
Y007067D01*
X021733Y01175D02*
X022167D01*
X02195Y011533D02*
Y011967D01*
X021733Y01275D02*
X022167D01*
X02195Y012533D02*
Y012967D01*
X020733Y01175D02*
X021167D01*
X02095Y011533D02*
Y011967D01*
X020733Y01275D02*
X021167D01*
X02095Y012533D02*
Y012967D01*
X021733Y01575D02*
X022167D01*
X02195Y015533D02*
Y015967D01*
X020733Y01575D02*
X021167D01*
X02095Y015533D02*
Y015967D01*
X021733Y01675D02*
X022167D01*
X02195Y016533D02*
Y016967D01*
X020733Y01675D02*
X021167D01*
X02095Y016533D02*
Y016967D01*
X020733Y01875D02*
X021167D01*
X02095Y018533D02*
Y018967D01*
X021733Y01875D02*
X022167D01*
X02195Y018533D02*
Y018967D01*
X020733Y01775D02*
X021167D01*
X02095Y017533D02*
Y017967D01*
X021733Y01775D02*
X022167D01*
X02195Y017533D02*
Y017967D01*
X020733Y01475D02*
X021167D01*
X02095Y014533D02*
Y014967D01*
X021733Y01475D02*
X022167D01*
X02195Y014533D02*
Y014967D01*
X020733Y01375D02*
X021167D01*
X02095Y013533D02*
Y013967D01*
X021733Y01375D02*
X022167D01*
X02195Y013533D02*
Y013967D01*
X02205Y00095D02*
X02335D01*
X0227Y0003D02*
Y0016D01*
X015343Y0007D02*
X015657D01*
X0155Y000543D02*
Y000857D01*
X018143Y0007D02*
X018457D01*
X0183Y000543D02*
Y000857D01*
X015353Y00215D02*
X015747D01*
X01555Y001953D02*
Y002347D01*
X018053Y00215D02*
X018447D01*
X01825Y001953D02*
Y002347D01*
X001433Y00985D02*
X001867D01*
X00165Y009633D02*
Y010067D01*
X001433Y00885D02*
X001867D01*
X00165Y008633D02*
Y009067D01*
X001433Y00685D02*
X001867D01*
X00165Y006633D02*
Y007067D01*
X001433Y00785D02*
X001867D01*
X00165Y007633D02*
Y008067D01*
X014154Y00135D02*
X014547D01*
X01435Y001153D02*
Y001547D01*
X012303Y00135D02*
X012697D01*
X0125Y001153D02*
Y001547D01*
X010453Y00135D02*
X010846D01*
X01065Y001153D02*
Y001547D01*
X002683Y00985D02*
X003117D01*
X0029Y009633D02*
Y010067D01*
X002683Y00885D02*
X003117D01*
X0029Y008633D02*
Y009067D01*
X002683Y00685D02*
X003117D01*
X0029Y006633D02*
Y007067D01*
X002683Y00785D02*
X003117D01*
X0029Y007633D02*
Y008067D01*
X002533Y01375D02*
X002967D01*
X00275Y013533D02*
Y013967D01*
X001533Y01375D02*
X001967D01*
X00175Y013533D02*
Y013967D01*
X002533Y01475D02*
X002967D01*
X00275Y014533D02*
Y014967D01*
X001533Y01475D02*
X001967D01*
X00175Y014533D02*
Y014967D01*
X002533Y01775D02*
X002967D01*
X00275Y017533D02*
Y017967D01*
X001533Y01775D02*
X001967D01*
X00175Y017533D02*
Y017967D01*
X002533Y01875D02*
X002967D01*
X00275Y018533D02*
Y018967D01*
X001533Y01875D02*
X001967D01*
X00175Y018533D02*
Y018967D01*
X001533Y01675D02*
X001967D01*
X00175Y016533D02*
Y016967D01*
X002533Y01675D02*
X002967D01*
X00275Y016533D02*
Y016967D01*
X001533Y01575D02*
X001967D01*
X00175Y015533D02*
Y015967D01*
X002533Y01575D02*
X002967D01*
X00275Y015533D02*
Y015967D01*
X001533Y01275D02*
X001967D01*
X00175Y012533D02*
Y012967D01*
X001533Y01175D02*
X001967D01*
X00175Y011533D02*
Y011967D01*
X002533Y01275D02*
X002967D01*
X00275Y012533D02*
Y012967D01*
X002533Y01175D02*
X002967D01*
X00275Y011533D02*
Y011967D01*
X022Y0244D02*
X0233D01*
X02265Y02375D02*
Y02505D01*
X0004Y0245D02*
X0017D01*
X00105Y02385D02*
Y02515D01*
X00035Y001D02*
X00165D01*
X001Y00035D02*
Y00165D01*
X003747Y001684D02*
X003865D01*
X003806Y001625D02*
Y001743D01*
X010141Y008964D02*
X010259D01*
X0102Y008905D02*
Y009023D01*
X017591Y007D02*
X017709D01*
X01765Y006941D02*
Y007059D01*
X006091Y003186D02*
X006209D01*
X00615Y003127D02*
Y003245D01*
X022644Y006409D02*
X022763D01*
X022704Y00635D02*
Y006468D01*
X022644Y004046D02*
X022763D01*
X022704Y003987D02*
Y004105D01*
X021463Y020582D02*
X021581D01*
X021522Y020523D02*
Y020641D01*
X021463Y004046D02*
X021581D01*
X021522Y003987D02*
Y004105D01*
X021463Y001684D02*
X021581D01*
X021522Y001625D02*
Y001743D01*
X020282Y020582D02*
X0204D01*
X020341Y020523D02*
Y020641D01*
X019692Y019401D02*
X01981D01*
X019751Y019342D02*
Y01946D01*
X020282Y006409D02*
X0204D01*
X020341Y00635D02*
Y006468D01*
X018511Y019401D02*
X018629D01*
X01857Y019342D02*
Y01946D01*
X018511Y005228D02*
X018629D01*
X01857Y005168D02*
Y005287D01*
X018511Y002865D02*
X018629D01*
X01857Y002806D02*
Y002924D01*
X01792Y013495D02*
X018038D01*
X017979Y013436D02*
Y013554D01*
X01792Y001684D02*
X018038D01*
X017979Y001625D02*
Y001743D01*
X01733Y000503D02*
X017448D01*
X017389Y000444D02*
Y000562D01*
X016739Y020582D02*
X016857D01*
X016798Y020523D02*
Y020641D01*
X016148Y019401D02*
X016267D01*
X016207Y019342D02*
Y01946D01*
X016739Y008771D02*
X016857D01*
X016798Y008712D02*
Y00883D01*
X016148Y00759D02*
X016267D01*
X016207Y007531D02*
Y007649D01*
X016739Y001684D02*
X016857D01*
X016798Y001625D02*
Y001743D01*
X016148Y000503D02*
X016267D01*
X016207Y000444D02*
Y000562D01*
X014967Y019401D02*
X015085D01*
X015026Y019342D02*
Y01946D01*
X014967Y005228D02*
X015085D01*
X015026Y005168D02*
Y005287D01*
X014967Y000503D02*
X015085D01*
X015026Y000444D02*
Y000562D01*
X013786Y019401D02*
X013904D01*
X013845Y019342D02*
Y01946D01*
X013786Y014676D02*
X013904D01*
X013845Y014617D02*
Y014735D01*
X013786Y000503D02*
X013904D01*
X013845Y000444D02*
Y000562D01*
X012605Y019401D02*
X012723D01*
X012664Y019342D02*
Y01946D01*
X013196Y01822D02*
X013314D01*
X013255Y018161D02*
Y018279D01*
X012605Y017039D02*
X012723D01*
X012664Y01698D02*
Y017098D01*
X013196Y015857D02*
X013314D01*
X013255Y015798D02*
Y015917D01*
X012605Y014676D02*
X012723D01*
X012664Y014617D02*
Y014735D01*
X013196Y013495D02*
X013314D01*
X013255Y013436D02*
Y013554D01*
X013196Y001684D02*
X013314D01*
X013255Y001625D02*
Y001743D01*
X012605Y000503D02*
X012723D01*
X012664Y000444D02*
Y000562D01*
X011424Y019401D02*
X011542D01*
X011483Y019342D02*
Y01946D01*
X012015Y01822D02*
X012133D01*
X012074Y018161D02*
Y018279D01*
X011424Y017039D02*
X011542D01*
X011483Y01698D02*
Y017098D01*
X012015Y015857D02*
X012133D01*
X012074Y015798D02*
Y015917D01*
X011424Y014676D02*
X011542D01*
X011483Y014617D02*
Y014735D01*
X012015Y013495D02*
X012133D01*
X012074Y013436D02*
Y013554D01*
X011424Y005228D02*
X011542D01*
X011483Y005168D02*
Y005287D01*
X012015Y004046D02*
X012133D01*
X012074Y003987D02*
Y004105D01*
X011424Y000503D02*
X011542D01*
X011483Y000444D02*
Y000562D01*
X010243Y019401D02*
X010361D01*
X010302Y019342D02*
Y01946D01*
X010833Y01822D02*
X010952D01*
X010893Y018161D02*
Y018279D01*
X010243Y017039D02*
X010361D01*
X010302Y01698D02*
Y017098D01*
X010833Y015857D02*
X010952D01*
X010893Y015798D02*
Y015917D01*
X010243Y014676D02*
X010361D01*
X010302Y014617D02*
Y014735D01*
X010833Y013495D02*
X010952D01*
X010893Y013436D02*
Y013554D01*
X010243Y00759D02*
X010361D01*
X010302Y007531D02*
Y007649D01*
X010833Y006409D02*
X010952D01*
X010893Y00635D02*
Y006468D01*
X010243Y002865D02*
X010361D01*
X010302Y002806D02*
Y002924D01*
X009062Y019401D02*
X00918D01*
X009121Y019342D02*
Y01946D01*
X009652Y01822D02*
X00977D01*
X009711Y018161D02*
Y018279D01*
X009062Y017039D02*
X00918D01*
X009121Y01698D02*
Y017098D01*
X009652Y015857D02*
X00977D01*
X009711Y015798D02*
Y015917D01*
X009062Y014676D02*
X00918D01*
X009121Y014617D02*
Y014735D01*
X009652Y013495D02*
X00977D01*
X009711Y013436D02*
Y013554D01*
X009062Y00759D02*
X00918D01*
X009121Y007531D02*
Y007649D01*
X009652Y006409D02*
X00977D01*
X009711Y00635D02*
Y006468D01*
X009062Y005228D02*
X00918D01*
X009121Y005168D02*
Y005287D01*
X009652Y004046D02*
X00977D01*
X009711Y003987D02*
Y004105D01*
X009062Y002865D02*
X00918D01*
X009121Y002806D02*
Y002924D01*
X009062Y000503D02*
X00918D01*
X009121Y000444D02*
Y000562D01*
X007881Y019401D02*
X007999D01*
X00794Y019342D02*
Y01946D01*
X008471Y01822D02*
X008589D01*
X00853Y018161D02*
Y018279D01*
X008471Y015857D02*
X008589D01*
X00853Y015798D02*
Y015917D01*
X008471Y013495D02*
X008589D01*
X00853Y013436D02*
Y013554D01*
X007881Y012314D02*
X007999D01*
X00794Y012255D02*
Y012373D01*
X008471Y006409D02*
X008589D01*
X00853Y00635D02*
Y006468D01*
X005519Y024125D02*
X005637D01*
X005578Y024066D02*
Y024184D01*
X006109Y020582D02*
X006227D01*
X006168Y020523D02*
Y020641D01*
X006109Y01822D02*
X006227D01*
X006168Y018161D02*
Y018279D01*
X005519Y012314D02*
X005637D01*
X005578Y012255D02*
Y012373D01*
X004337Y024125D02*
X004455D01*
X004396Y024066D02*
Y024184D01*
X004337Y000503D02*
X004455D01*
X004396Y000444D02*
Y000562D01*
X003156Y000503D02*
X003274D01*
X003215Y000444D02*
Y000562D01*
X002566Y001684D02*
X002684D01*
X002625Y001625D02*
Y001743D01*
X001975Y000503D02*
X002093D01*
X002034Y000444D02*
Y000562D01*
X001385Y011133D02*
X001503D01*
X001444Y011074D02*
Y011192D01*
X020641Y00935D02*
X020759D01*
X0207Y009291D02*
Y009409D01*
X016091Y0096D02*
X016209D01*
X01615Y009541D02*
Y009659D01*
X017091Y0091D02*
X017209D01*
X01715Y009041D02*
Y009159D01*
X015991Y0091D02*
X016109D01*
X01605Y009041D02*
Y009159D01*
X014541Y01145D02*
X014659D01*
X0146Y011391D02*
Y011509D01*
X014891Y01165D02*
X015009D01*
X01495Y011591D02*
Y011709D01*
X014891Y0158D02*
X015009D01*
X01495Y015741D02*
Y015859D01*
X014541Y0153D02*
X014659D01*
X0146Y015241D02*
Y015359D01*
X003741Y0074D02*
X003859D01*
X0038Y007341D02*
Y007459D01*
X003691Y00635D02*
X003809D01*
X00375Y006291D02*
Y006409D01*
X017217Y0033D02*
X017335D01*
X017276Y003241D02*
Y003359D01*
X005241Y004081D02*
X005359D01*
X0053Y004022D02*
Y004141D01*
X019177Y0063D02*
X019295D01*
X019236Y006241D02*
Y006359D01*
X012641Y00635D02*
X012759D01*
X0127Y006291D02*
Y006409D01*
X012241Y00635D02*
X012359D01*
X0123Y006291D02*
Y006409D01*
X016891Y0099D02*
X017009D01*
X01695Y009841D02*
Y009959D01*
X004791Y0193D02*
X004909D01*
X00485Y019241D02*
Y019359D01*
X004491Y01875D02*
X004609D01*
X00455Y018691D02*
Y018809D01*
X002991Y02015D02*
X003109D01*
X00305Y020091D02*
Y020209D01*
X004191Y01825D02*
X004309D01*
X00425Y018191D02*
Y018309D01*
X006741Y0138D02*
X006859D01*
X0068Y013741D02*
Y013859D01*
X019791Y019872D02*
X019909D01*
X01985Y019813D02*
Y019931D01*
X018141Y019872D02*
X018259D01*
X0182Y019813D02*
Y019931D01*
X011141Y01005D02*
X011259D01*
X0112Y009991D02*
Y010109D01*
X012379Y0112D02*
X012497D01*
X012438Y011141D02*
Y011259D01*
X012879Y0112D02*
X012997D01*
X012938Y011141D02*
Y011259D01*
X011379Y0112D02*
X011497D01*
X011438Y011141D02*
Y011259D01*
X011879Y0112D02*
X011997D01*
X011938Y011141D02*
Y011259D01*
X010879Y0112D02*
X010997D01*
X010938Y011141D02*
Y011259D01*
X010379Y0112D02*
X010497D01*
X010438Y011141D02*
Y011259D01*
M02*
