G04*
G04 #@! TF.GenerationSoftware,Altium Limited,Altium Designer,24.4.1 (13)*
G04*
G04 Layer_Color=32768*
%FSTAX24Y24*%
%MOIN*%
G70*
G04*
G04 #@! TF.SameCoordinates,973A198C-3906-4392-A1E8-A13353080A71*
G04*
G04*
G04 #@! TF.FilePolarity,Positive*
G04*
G01*
G75*
%ADD13C,0.0100*%
%ADD14C,0.0079*%
%ADD90C,0.0047*%
%ADD92C,0.0039*%
%ADD93C,0.0020*%
%ADD94C,0.0020*%
D13*
X-00555Y013717D02*
X002324D01*
X-00555Y-004D02*
X002324D01*
Y013717D01*
X-00555Y-004D02*
Y013717D01*
X007658Y01205D02*
X015729D01*
X007658Y025042D02*
X015729D01*
Y01205D02*
Y025042D01*
X007658Y01205D02*
Y025042D01*
D14*
X004367Y006474D02*
Y010726D01*
Y006474D02*
X009033D01*
Y010726D01*
X004367D02*
X009033D01*
X009369Y002781D02*
X012127D01*
Y006125D01*
X009369D02*
X012127D01*
X009369Y002781D02*
Y006125D01*
X000859Y022815D02*
X003639D01*
X000859Y020185D02*
Y022815D01*
Y020185D02*
X003639D01*
Y022815D01*
D90*
X021136Y01956D02*
X020664D01*
Y019796D01*
X020743Y019875D01*
X0209D01*
X020979Y019796D01*
Y01956D01*
Y019717D02*
X021136Y019875D01*
Y020032D02*
Y020189D01*
Y020111D01*
X020664D01*
X020743Y020032D01*
X021136Y020662D02*
X020664D01*
X0209Y020426D01*
Y02074D01*
X006736Y003156D02*
X006264D01*
Y003393D01*
X006343Y003471D01*
X0065D01*
X006579Y003393D01*
Y003156D01*
Y003314D02*
X006736Y003471D01*
Y003944D02*
Y003629D01*
X006421Y003944D01*
X006343D01*
X006264Y003865D01*
Y003707D01*
X006343Y003629D01*
X019221Y008164D02*
Y008636D01*
X019457D01*
X019535Y008557D01*
Y0084D01*
X019457Y008321D01*
X019221D01*
X019378D02*
X019535Y008164D01*
X019693Y008557D02*
X019772Y008636D01*
X019929D01*
X020008Y008557D01*
Y008479D01*
X019929Y0084D01*
X020008Y008321D01*
Y008243D01*
X019929Y008164D01*
X019772D01*
X019693Y008243D01*
Y008321D01*
X019772Y0084D01*
X019693Y008479D01*
Y008557D01*
X019772Y0084D02*
X019929D01*
X019221Y008764D02*
Y009236D01*
X019457D01*
X019535Y009157D01*
Y009D01*
X019457Y008921D01*
X019221D01*
X019378D02*
X019535Y008764D01*
X019693Y009236D02*
X020008D01*
Y009157D01*
X019693Y008843D01*
Y008764D01*
X014636Y007606D02*
X014164D01*
Y007843D01*
X014243Y007921D01*
X0144D01*
X014479Y007843D01*
Y007606D01*
Y007764D02*
X014636Y007921D01*
X014164Y008394D02*
Y008079D01*
X0144D01*
X014321Y008236D01*
Y008315D01*
X0144Y008394D01*
X014557D01*
X014636Y008315D01*
Y008157D01*
X014557Y008079D01*
X014164Y009644D02*
X014636D01*
Y009407D01*
X014557Y009329D01*
X0144D01*
X014321Y009407D01*
Y009644D01*
Y009486D02*
X014164Y009329D01*
X014636Y008856D02*
X014557Y009014D01*
X0144Y009171D01*
X014243D01*
X014164Y009093D01*
Y008935D01*
X014243Y008856D01*
X014321D01*
X0144Y008935D01*
Y009171D01*
X019551Y01956D02*
X019079D01*
Y019796D01*
X019158Y019875D01*
X019315D01*
X019394Y019796D01*
Y01956D01*
Y019717D02*
X019551Y019875D01*
Y020032D02*
Y020189D01*
Y020111D01*
X019079D01*
X019158Y020032D01*
X019079Y02074D02*
Y020426D01*
X019315D01*
X019236Y020583D01*
Y020662D01*
X019315Y02074D01*
X019472D01*
X019551Y020662D01*
Y020504D01*
X019472Y020426D01*
X010536Y00946D02*
X010064D01*
Y009696D01*
X010143Y009775D01*
X0103D01*
X010379Y009696D01*
Y00946D01*
Y009617D02*
X010536Y009775D01*
Y009932D02*
Y010089D01*
Y010011D01*
X010064D01*
X010143Y009932D01*
Y010325D02*
X010064Y010404D01*
Y010562D01*
X010143Y01064D01*
X010221D01*
X0103Y010562D01*
X010379Y01064D01*
X010457D01*
X010536Y010562D01*
Y010404D01*
X010457Y010325D01*
X010379D01*
X0103Y010404D01*
X010221Y010325D01*
X010143D01*
X0103Y010404D02*
Y010562D01*
X009886Y00946D02*
X009414D01*
Y009696D01*
X009493Y009775D01*
X00965D01*
X009729Y009696D01*
Y00946D01*
Y009617D02*
X009886Y009775D01*
Y009932D02*
Y010089D01*
Y010011D01*
X009414D01*
X009493Y009932D01*
X009414Y010325D02*
Y01064D01*
X009493D01*
X009807Y010325D01*
X009886D01*
X006864Y003865D02*
X007336D01*
Y003629D01*
X007257Y00355D01*
X0071D01*
X007021Y003629D01*
Y003865D01*
Y003707D02*
X006864Y00355D01*
Y003393D02*
Y003235D01*
Y003314D01*
X007336D01*
X007257Y003393D01*
X022701Y01956D02*
X022229D01*
Y019796D01*
X022308Y019875D01*
X022465D01*
X022544Y019796D01*
Y01956D01*
Y019717D02*
X022701Y019875D01*
Y020032D02*
Y020189D01*
Y020111D01*
X022229D01*
X022308Y020032D01*
X022701Y02074D02*
Y020426D01*
X022386Y02074D01*
X022308D01*
X022229Y020662D01*
Y020504D01*
X022308Y020426D01*
X011564Y009762D02*
X012036D01*
Y009525D01*
X011957Y009447D01*
X0118D01*
X011721Y009525D01*
Y009762D01*
Y009604D02*
X011564Y009447D01*
Y009289D02*
Y009132D01*
Y009211D01*
X012036D01*
X011957Y009289D01*
X011564Y008896D02*
Y008738D01*
Y008817D01*
X012036D01*
X011957Y008896D01*
X012264Y004258D02*
X012736D01*
Y004022D01*
X012657Y003943D01*
X0125D01*
X012421Y004022D01*
Y004258D01*
Y0041D02*
X012264Y003943D01*
Y003549D02*
X012736D01*
X0125Y003785D01*
Y003471D01*
X013386Y005012D02*
X012914D01*
Y005248D01*
X012993Y005327D01*
X01315D01*
X013229Y005248D01*
Y005012D01*
Y005169D02*
X013386Y005327D01*
X012993Y005484D02*
X012914Y005563D01*
Y00572D01*
X012993Y005799D01*
X013071D01*
X01315Y00572D01*
Y005642D01*
Y00572D01*
X013229Y005799D01*
X013307D01*
X013386Y00572D01*
Y005563D01*
X013307Y005484D01*
X014876Y003736D02*
Y004051D01*
X01464D01*
Y003894D01*
Y004051D01*
X014404D01*
X014876Y003579D02*
X014404D01*
Y003343D01*
X014483Y003264D01*
X014561D01*
X01464Y003343D01*
Y003579D01*
Y003343D01*
X014719Y003264D01*
X014797D01*
X014876Y003343D01*
Y003579D01*
X014404Y003106D02*
Y002949D01*
Y003028D01*
X014876D01*
X014797Y003106D01*
X012764Y009644D02*
X013236D01*
Y009407D01*
X013157Y009329D01*
X013D01*
X012921Y009407D01*
Y009644D01*
Y009486D02*
X012764Y009329D01*
X012843Y009171D02*
X012764Y009093D01*
Y008935D01*
X012843Y008856D01*
X013157D01*
X013236Y008935D01*
Y009093D01*
X013157Y009171D01*
X013079D01*
X013Y009093D01*
Y008856D01*
X012164Y00984D02*
X012636D01*
Y009604D01*
X012557Y009525D01*
X0124D01*
X012321Y009604D01*
Y00984D01*
Y009683D02*
X012164Y009525D01*
Y009368D02*
Y009211D01*
Y009289D01*
X012636D01*
X012557Y009368D01*
Y008974D02*
X012636Y008896D01*
Y008738D01*
X012557Y00866D01*
X012243D01*
X012164Y008738D01*
Y008896D01*
X012243Y008974D01*
X012557D01*
X010964Y00984D02*
X011436D01*
Y009604D01*
X011357Y009525D01*
X0112D01*
X011121Y009604D01*
Y00984D01*
Y009683D02*
X010964Y009525D01*
Y009368D02*
Y009211D01*
Y009289D01*
X011436D01*
X011357Y009368D01*
Y008974D02*
X011436Y008896D01*
Y008738D01*
X011357Y00866D01*
X011279D01*
X0112Y008738D01*
Y008817D01*
Y008738D01*
X011121Y00866D01*
X011043D01*
X010964Y008738D01*
Y008896D01*
X011043Y008974D01*
X017886Y01956D02*
X017414D01*
Y019796D01*
X017493Y019875D01*
X01765D01*
X017729Y019796D01*
Y01956D01*
Y019717D02*
X017886Y019875D01*
Y020032D02*
Y020189D01*
Y020111D01*
X017414D01*
X017493Y020032D01*
X017414Y02074D02*
X017493Y020583D01*
X01765Y020426D01*
X017807D01*
X017886Y020504D01*
Y020662D01*
X017807Y02074D01*
X017729D01*
X01765Y020662D01*
Y020426D01*
D92*
X019423Y0068D02*
X019777D01*
X0196Y006623D02*
Y006977D01*
X0169Y007753D02*
Y008147D01*
X016703Y00795D02*
X017097D01*
X015443Y-000013D02*
X018357D01*
X003673Y009486D02*
X004027D01*
X00385Y009309D02*
Y009663D01*
X009473Y0086D02*
X009827D01*
X00965Y008423D02*
Y008777D01*
X005853Y00495D02*
X006247D01*
X00605Y004753D02*
Y005147D01*
X005103Y00355D02*
X005497D01*
X0053Y003353D02*
Y003747D01*
X009423Y00135D02*
X009777D01*
X0096Y001173D02*
Y001527D01*
X012323Y0035D02*
X012677D01*
X0125Y003323D02*
Y003677D01*
X012323Y005406D02*
X012677D01*
X0125Y005228D02*
Y005583D01*
X006523Y019164D02*
X006877D01*
X0067Y018987D02*
Y019341D01*
X005823Y019164D02*
X006177D01*
X006Y018987D02*
Y019341D01*
X015173Y0035D02*
X015527D01*
X01535Y003323D02*
Y003677D01*
D93*
X000167Y005968D02*
X002333D01*
X000167Y001732D02*
Y005968D01*
Y001732D02*
X002333D01*
Y005968D01*
X00125Y003653D02*
Y004047D01*
X001053Y00385D02*
X001447D01*
X013494Y005951D02*
X014006D01*
X013494Y004849D02*
Y005951D01*
Y004849D02*
X014006D01*
Y005951D01*
X013553Y0054D02*
X013947D01*
X01375Y005203D02*
Y005597D01*
X013494Y002934D02*
X014006D01*
Y004036D01*
X013494D02*
X014006D01*
X013494Y002934D02*
Y004036D01*
X013553Y003485D02*
X013947D01*
X01375Y003288D02*
Y003682D01*
X021342Y010488D02*
X022558D01*
X021342Y006212D02*
Y010488D01*
Y006212D02*
X022558D01*
Y010488D01*
X021753Y00835D02*
X022147D01*
X02195Y008153D02*
Y008547D01*
X020151Y007094D02*
Y007606D01*
X019049D02*
X020151D01*
X019049Y007094D02*
Y007606D01*
Y007094D02*
X020151D01*
X0196Y007153D02*
Y007547D01*
X019403Y00735D02*
X019797D01*
X020151Y007594D02*
Y008106D01*
X019049D02*
X020151D01*
X019049Y007594D02*
Y008106D01*
Y007594D02*
X020151D01*
X0196Y007653D02*
Y008047D01*
X019403Y00785D02*
X019797D01*
X02023Y006505D02*
Y007095D01*
X01897Y006505D02*
Y007095D01*
Y006505D02*
X02023D01*
X01897Y007095D02*
X02023D01*
X015187Y005844D02*
X018613D01*
X015187Y010056D02*
X018613D01*
Y005844D02*
Y010056D01*
X015187Y005844D02*
Y010056D01*
X02145Y015053D02*
Y015447D01*
X021253Y01525D02*
X021647D01*
X020342Y019388D02*
X022558D01*
X020342Y011112D02*
Y019388D01*
Y011112D02*
X022558D01*
Y019388D01*
X016703Y00105D02*
X017097D01*
X0169Y000853D02*
Y001247D01*
X00165Y008153D02*
Y008547D01*
X001453Y00835D02*
X001847D01*
X001042Y006212D02*
Y010488D01*
X002258D01*
Y006212D02*
Y010488D01*
X001042Y006212D02*
X002258D01*
X004145Y008856D02*
Y010116D01*
X003555Y008856D02*
Y010116D01*
X004145D01*
X003555Y008856D02*
X004145D01*
X009945Y00797D02*
Y00923D01*
X009355Y00797D02*
Y00923D01*
X009945D01*
X009355Y00797D02*
X009945D01*
X004643Y005526D02*
X007457D01*
X004643Y004374D02*
Y005526D01*
Y004374D02*
X007457D01*
Y005526D01*
X002289Y00272D02*
X004611D01*
Y00524D01*
X002289D02*
X004611D01*
X002289Y00272D02*
Y00524D01*
X003253Y00398D02*
X003647D01*
X00345Y003783D02*
Y004177D01*
X004611Y002723D02*
Y004377D01*
X005989Y002723D02*
Y004377D01*
X004611Y002723D02*
X005989D01*
X004611Y004377D02*
X005989D01*
X007335Y000051D02*
Y002649D01*
X009265D01*
Y000051D02*
Y002649D01*
X007335Y000051D02*
X009265D01*
X0083Y001153D02*
Y001547D01*
X008103Y00135D02*
X008497D01*
X009895Y00072D02*
Y00198D01*
X009305Y00072D02*
Y00198D01*
X009895D01*
X009305Y00072D02*
X009895D01*
X004135Y000051D02*
Y002649D01*
X006065D01*
Y000051D02*
Y002649D01*
X004135Y000051D02*
X006065D01*
X0051Y001153D02*
Y001547D01*
X004903Y00135D02*
X005297D01*
X012205Y00287D02*
Y00413D01*
X012795Y00287D02*
Y00413D01*
X012205Y00287D02*
X012795D01*
X012205Y00413D02*
X012795D01*
X012795Y004776D02*
Y006035D01*
X012205Y004776D02*
Y006035D01*
X012795D01*
X012205Y004776D02*
X012795D01*
X006405Y018534D02*
Y019794D01*
X006995Y018534D02*
Y019794D01*
X006405Y018534D02*
X006995D01*
X006405Y019794D02*
X006995D01*
X005705Y018534D02*
Y019794D01*
X006295Y018534D02*
Y019794D01*
X005705Y018534D02*
X006295D01*
X005705Y019794D02*
X006295D01*
X0029Y008153D02*
Y008547D01*
X002703Y00835D02*
X003097D01*
X002292Y006212D02*
Y010488D01*
X003508D01*
Y006212D02*
Y010488D01*
X002292Y006212D02*
X003508D01*
X003358Y011112D02*
Y019388D01*
X001142Y011112D02*
X003358D01*
X001142D02*
Y019388D01*
X003358D01*
X002053Y01525D02*
X002447D01*
X00225Y015053D02*
Y015447D01*
X023518Y002071D02*
Y005729D01*
X022282D02*
X023518D01*
X022282Y002071D02*
Y005729D01*
Y002071D02*
X023518D01*
X0229Y003703D02*
Y004097D01*
X022703Y0039D02*
X023097D01*
X013Y007853D02*
Y008247D01*
X012803Y00805D02*
X013197D01*
X012744Y007499D02*
Y008601D01*
X013256D01*
Y007499D02*
Y008601D01*
X012744Y007499D02*
X013256D01*
X0124Y007838D02*
Y008232D01*
X012203Y008035D02*
X012597D01*
X012144Y007484D02*
Y008586D01*
X012656D01*
Y007484D02*
Y008586D01*
X012144Y007484D02*
X012656D01*
X0118Y007838D02*
Y008232D01*
X011603Y008035D02*
X011997D01*
X011544Y007484D02*
Y008586D01*
X012056D01*
Y007484D02*
Y008586D01*
X011544Y007484D02*
X012056D01*
X0112Y007838D02*
Y008232D01*
X011003Y008035D02*
X011397D01*
X010944Y007484D02*
Y008586D01*
X011456D01*
Y007484D02*
Y008586D01*
X010944Y007484D02*
X011456D01*
X016602Y003513D02*
Y005175D01*
X01795D01*
Y003513D02*
Y005175D01*
X016602Y003513D02*
X01795D01*
X015645Y00287D02*
Y00413D01*
X015055Y00287D02*
Y00413D01*
X015645D01*
X015055Y00287D02*
X015645D01*
D94*
X016388Y-000173D02*
X016457D01*
X01648Y-000165D01*
X016487Y-000158D01*
X016495Y-000143D01*
Y-00012D01*
X016487Y-000104D01*
X01648Y-000097D01*
X016457Y-000089D01*
X016388D01*
Y-000249D01*
X016645Y-000127D02*
X016637Y-000112D01*
X016622Y-000097D01*
X016607Y-000089D01*
X016576D01*
X016561Y-000097D01*
X016546Y-000112D01*
X016538Y-000127D01*
X016531Y-00015D01*
Y-000188D01*
X016538Y-000211D01*
X016546Y-000226D01*
X016561Y-000242D01*
X016576Y-000249D01*
X016607D01*
X016622Y-000242D01*
X016637Y-000226D01*
X016645Y-000211D01*
X01669Y-000089D02*
Y-000249D01*
Y-000089D02*
X016758D01*
X016781Y-000097D01*
X016789Y-000104D01*
X016796Y-00012D01*
Y-000135D01*
X016789Y-00015D01*
X016781Y-000158D01*
X016758Y-000165D01*
X01669D02*
X016758D01*
X016781Y-000173D01*
X016789Y-000181D01*
X016796Y-000196D01*
Y-000219D01*
X016789Y-000234D01*
X016781Y-000242D01*
X016758Y-000249D01*
X01669D01*
X017057Y-000089D02*
X016958D01*
Y-000249D01*
X017057D01*
X016958Y-000165D02*
X017019D01*
X017175Y-000089D02*
Y-000249D01*
Y-000165D02*
X01716Y-00015D01*
X017145Y-000143D01*
X017122D01*
X017107Y-00015D01*
X017091Y-000165D01*
X017084Y-000188D01*
Y-000204D01*
X017091Y-000226D01*
X017107Y-000242D01*
X017122Y-000249D01*
X017145D01*
X01716Y-000242D01*
X017175Y-000226D01*
X017309Y-000143D02*
Y-000264D01*
X017302Y-000287D01*
X017294Y-000295D01*
X017279Y-000303D01*
X017256D01*
X017241Y-000295D01*
X017309Y-000165D02*
X017294Y-00015D01*
X017279Y-000143D01*
X017256D01*
X017241Y-00015D01*
X017225Y-000165D01*
X017218Y-000188D01*
Y-000204D01*
X017225Y-000226D01*
X017241Y-000242D01*
X017256Y-000249D01*
X017279D01*
X017294Y-000242D01*
X017309Y-000226D01*
X017352Y-000188D02*
X017443D01*
Y-000173D01*
X017436Y-000158D01*
X017428Y-00015D01*
X017413Y-000143D01*
X01739D01*
X017375Y-00015D01*
X017359Y-000165D01*
X017352Y-000188D01*
Y-000204D01*
X017359Y-000226D01*
X017375Y-000242D01*
X01739Y-000249D01*
X017413D01*
X017428Y-000242D01*
X017443Y-000226D01*
M02*
