M48
;Layer_Color=9474304
;FILE_FORMAT=2:4
INCH,LZ
;TYPE=PLATED
T01F00S00C0.0118
T03F00S00C0.0394
T05F00S00C0.0433
T06F00S00C0.0512
;TYPE=NON_PLATED
T07F00S00C0.1299
%
T01
X033071Y024803
X035433
X036614
X037795
X038976
X040157
X041339
X041929Y025984
X040748
X041226Y0276
X04252Y027165
Y029528
X043186Y0306
X044291Y030709
X046654
Y028346
X045472
Y025984
X037205
X036024Y028346
X035433Y029528
X034843Y030709
X033661
X03248
X033071Y029528
X033661Y028346
X034252Y027165
X033071
X03625Y03065
X03665
X038976Y029528
X02925Y028382
X0301Y027486
X027756Y025984
X026575
X027165Y024803
X028346
X025984
X0277Y03065
X02775Y0317
X025394Y035433
X029528Y036614
X03075Y0381
X030118Y04252
X0282Y04255
X0285Y04305
X0288Y0436
X030118Y044882
X027Y04445
X03189Y043701
X033071
X034252
X035433
X036614
X037795
X038976
X040157
X040748Y044882
X04215Y044172
X04252Y043701
X043701
X0438Y044172
X044291Y044882
X045472
X041929Y037795
X0409Y0342
X0411Y0334
X040748Y033071
X04Y0334
X0401Y0339
X040157Y03189
X0416Y0313
X04465Y03365
X0389Y03595
X03855Y03575
X036888Y0355
X036388
X035888
X035388
X034888
X034388
X03515Y03435
X03415Y033264
X034252Y03189
X033071
X03189Y036614
X03248Y037795
X033661
X034843
X036024
X037205
X037795Y038976
X036614
X035433
X034252
X033071
X033661Y040157
X034843
X036024
X037205
X0389Y0401
X03855Y0396
X036614Y041339
X035433
X034252
X033071
X033661Y04252
X034843
X036024
X037205
X03248
Y040157
X029528Y048425
X028346
T03
X0346Y02565
X03645
X0383
X0252Y02665
Y02765
Y02865
Y02965
T05
X0459Y03115
X02685Y03115
X0256
Y03215
Y03315
Y03415
X02685
Y03315
Y03215
X0267Y03605
X0257
Y03705
Y03805
X0267
Y03905
X0257
Y04005
Y04105
Y04205
X0267
Y04305
X0257
X0267Y04105
Y04005
Y03705
X0449
X0459
Y03605
X0449
Y03805
Y03905
Y04005
X0459
Y04105
X0449
Y04205
Y04305
X0459
Y04205
Y03905
Y03805
Y03415
Y03315
Y03215
T06
X0306Y0253
Y04715
T07
X04665Y02525
X02495Y0253
X0466Y0487
X025Y0488
M30
