G04*
G04 #@! TF.GenerationSoftware,Altium Limited,Altium Designer,24.4.1 (13)*
G04*
G04 Layer_Physical_Order=2*
G04 Layer_Color=16711680*
%FSTAX24Y24*%
%MOIN*%
G70*
G04*
G04 #@! TF.SameCoordinates,973A198C-3906-4392-A1E8-A13353080A71*
G04*
G04*
G04 #@! TF.FilePolarity,Positive*
G04*
G01*
G75*
%ADD44C,0.0591*%
%ADD71C,0.0200*%
%ADD72C,0.0080*%
%ADD76C,0.0866*%
%ADD77R,0.0591X0.0591*%
%ADD78C,0.0630*%
%ADD79R,0.0630X0.0630*%
%ADD80C,0.0650*%
%ADD81R,0.0650X0.0650*%
%ADD82C,0.1299*%
%ADD83O,0.0591X0.0866*%
%ADD84O,0.0709X0.0866*%
%ADD85C,0.0709*%
%ADD86C,0.0236*%
%ADD87R,0.1969X0.1969*%
%ADD88C,0.0400*%
%ADD89C,0.0600*%
G36*
X01715Y025246D02*
X022549D01*
X022554Y025196D01*
X022417Y025169D01*
X022271Y025109D01*
X02214Y025021D01*
X022029Y02491D01*
X021941Y024779D01*
X021881Y024633D01*
X02185Y024479D01*
Y024321D01*
X021881Y024167D01*
X021941Y024021D01*
X022029Y02389D01*
X02214Y023779D01*
X022271Y023691D01*
X022417Y023631D01*
X022571Y0236D01*
X022729D01*
X022883Y023631D01*
X023029Y023691D01*
X02316Y023779D01*
X023271Y02389D01*
X023359Y024021D01*
X023419Y024167D01*
X023446Y024304D01*
X023496Y024299D01*
X023496Y001248D01*
X023446Y001238D01*
X023409Y001329D01*
X023321Y00146D01*
X02321Y001571D01*
X023079Y001659D01*
X022933Y001719D01*
X022779Y00175D01*
X022621D01*
X022467Y001719D01*
X022321Y001659D01*
X02219Y001571D01*
X022079Y00146D01*
X021991Y001329D01*
X021931Y001183D01*
X0219Y001029D01*
Y000871D01*
X021931Y000717D01*
X021991Y000571D01*
X022079Y00044D01*
X02219Y000329D01*
X022321Y000241D01*
X02241Y000204D01*
X0224Y000155D01*
X018502Y000164D01*
X018492Y000214D01*
X018499Y000217D01*
X018542Y00025D01*
X018463Y000329D01*
X018534Y000399D01*
X018613Y00032D01*
X018645Y000363D01*
X018685Y000459D01*
X018699Y000562D01*
Y00065D01*
X018585D01*
Y00075D01*
X018699D01*
Y000838D01*
X018685Y000941D01*
X018645Y001037D01*
X018613Y00108D01*
X018534Y001001D01*
X018463Y001071D01*
X018542Y00115D01*
X018499Y001183D01*
X018403Y001223D01*
X0183Y001236D01*
X018197Y001223D01*
X018101Y001183D01*
X018058Y00115D01*
X018137Y001071D01*
X018066Y001001D01*
X017987Y00108D01*
X017955Y001037D01*
X017915Y000941D01*
X017901Y000838D01*
Y00075D01*
X018015D01*
Y00065D01*
X017901D01*
Y000562D01*
X017915Y000459D01*
X017955Y000363D01*
X017987Y00032D01*
X018066Y000399D01*
X018137Y000329D01*
X018058Y00025D01*
X018101Y000217D01*
X018106Y000215D01*
X018096Y000165D01*
X015718Y00017D01*
X015704Y000205D01*
X015704Y00022D01*
X015742Y00025D01*
X015663Y000329D01*
X015734Y000399D01*
X015813Y00032D01*
X015845Y000363D01*
X015885Y000459D01*
X015899Y000562D01*
Y00065D01*
X015785D01*
Y00075D01*
X015899D01*
Y000838D01*
X015885Y000941D01*
X015845Y001037D01*
X015813Y00108D01*
X015734Y001001D01*
X015663Y001071D01*
X015742Y00115D01*
X015699Y001183D01*
X015603Y001223D01*
X0155Y001236D01*
X015397Y001223D01*
X015301Y001183D01*
X015258Y00115D01*
X015337Y001071D01*
X015266Y001001D01*
X015187Y00108D01*
X015155Y001037D01*
X015115Y000941D01*
X015101Y000838D01*
Y00075D01*
X015215D01*
Y00065D01*
X015101D01*
Y000562D01*
X015115Y000459D01*
X015155Y000363D01*
X015187Y00032D01*
X015266Y000399D01*
X015337Y000329D01*
X015258Y00025D01*
X015295Y000221D01*
X015294Y000201D01*
X015281Y000171D01*
X0013Y000205D01*
X00129Y000255D01*
X001379Y000291D01*
X00151Y000379D01*
X001621Y00049D01*
X001709Y000621D01*
X001769Y000767D01*
X0018Y000921D01*
Y001079D01*
X001769Y001233D01*
X001709Y001379D01*
X001621Y00151D01*
X00151Y001621D01*
X001379Y001709D01*
X001233Y001769D01*
X001079Y0018D01*
X000921D01*
X000767Y001769D01*
X000621Y001709D01*
X00049Y001621D01*
X000379Y00151D01*
X000291Y001379D01*
X000254Y001288D01*
X000204Y001298D01*
X000204Y024399D01*
X000254Y024404D01*
X000281Y024267D01*
X000341Y024121D01*
X000429Y02399D01*
X00054Y023879D01*
X000671Y023791D01*
X000817Y023731D01*
X000971Y0237D01*
X001129D01*
X001283Y023731D01*
X001429Y023791D01*
X00156Y023879D01*
X001671Y02399D01*
X001759Y024121D01*
X001819Y024267D01*
X00185Y024421D01*
Y024579D01*
X001819Y024733D01*
X001759Y024879D01*
X001671Y02501D01*
X00156Y025121D01*
X001447Y025196D01*
X001463Y025246D01*
X0063D01*
X006309Y025248D01*
X006456Y025234D01*
X006606Y025188D01*
X006744Y025114D01*
X006865Y025015D01*
X006964Y024894D01*
X007038Y024756D01*
X007084Y024606D01*
X007098Y024459D01*
X007096Y02445D01*
Y023229D01*
X007046Y023208D01*
X006977Y023277D01*
X006856Y023347D01*
X00672Y023383D01*
X00658D01*
X006444Y023347D01*
X006323Y023277D01*
X006308Y023263D01*
X006389Y023182D01*
X006318Y023112D01*
X006238Y023192D01*
X006223Y023178D01*
X006153Y023056D01*
X006117Y022921D01*
Y02278D01*
X006153Y022645D01*
X006223Y022523D01*
X006238Y022509D01*
X006318Y022589D01*
X006389Y022518D01*
X006308Y022438D01*
X006323Y022424D01*
X006444Y022354D01*
X00658Y022317D01*
X00672D01*
X006856Y022354D01*
X006977Y022424D01*
X007046Y022493D01*
X007096Y022472D01*
Y0205D01*
X007097Y020495D01*
X00711Y020363D01*
X00715Y020231D01*
X007215Y020109D01*
X007303Y020003D01*
X007409Y019915D01*
X007531Y01985D01*
X007663Y01981D01*
X007795Y019797D01*
X0078Y019796D01*
X01565D01*
X015655Y019797D01*
X015787Y01981D01*
X015919Y01985D01*
X016041Y019915D01*
X016147Y020003D01*
X016235Y020109D01*
X0163Y020231D01*
X01634Y020363D01*
X016353Y020495D01*
X016354Y0205D01*
Y021D01*
Y02445D01*
X016352Y024459D01*
X016366Y024606D01*
X016412Y024756D01*
X016486Y024894D01*
X016585Y025015D01*
X016706Y025114D01*
X016844Y025188D01*
X016994Y025234D01*
X017141Y025248D01*
X01715Y025246D01*
D02*
G37*
%LPC*%
G36*
X003085Y020418D02*
X003015D01*
X002947Y0204D01*
X002885Y020365D01*
X002835Y020315D01*
X0028Y020253D01*
X002782Y020185D01*
Y020115D01*
X0028Y020047D01*
X002835Y019985D01*
X002885Y019935D01*
X002947Y0199D01*
X003015Y019882D01*
X003085D01*
X003153Y0199D01*
X003215Y019935D01*
X003229Y01995D01*
X003239Y019956D01*
X00482D01*
X005106Y01967D01*
Y019491D01*
X00509Y019481D01*
X005056Y019473D01*
X005015Y019515D01*
X004953Y01955D01*
X004885Y019568D01*
X004815D01*
X004747Y01955D01*
X004685Y019515D01*
X004671Y0195D01*
X004661Y019494D01*
X0023D01*
X002226Y019479D01*
X002163Y019437D01*
X001951Y019225D01*
X001951Y019225D01*
X001275D01*
Y018275D01*
X001668D01*
X00169Y018225D01*
X00169Y018225D01*
X001687D01*
X001567Y018192D01*
X001458Y01813D01*
X00137Y018042D01*
X001308Y017933D01*
X001275Y017813D01*
Y017687D01*
X001308Y017567D01*
X00137Y017458D01*
X001458Y01737D01*
X001567Y017308D01*
X001687Y017275D01*
X001813D01*
X001933Y017308D01*
X002042Y01737D01*
X00213Y017458D01*
X002192Y017567D01*
X002225Y017687D01*
Y01769D01*
X002225Y01769D01*
X00224Y017689D01*
X002279Y017672D01*
X002308Y017567D01*
X00237Y017458D01*
X002458Y01737D01*
X002567Y017308D01*
X002687Y017275D01*
X002813D01*
X002933Y017308D01*
X003042Y01737D01*
X00313Y017458D01*
X003192Y017567D01*
X003225Y017687D01*
Y017813D01*
X003192Y017933D01*
X00315Y018006D01*
X003179Y018056D01*
X004061D01*
X004071Y01805D01*
X004085Y018035D01*
X004147Y018D01*
X004215Y017982D01*
X004285D01*
X004353Y018D01*
X004415Y018035D01*
X004465Y018085D01*
X0045Y018147D01*
X004518Y018215D01*
Y018285D01*
X0045Y018353D01*
X004465Y018415D01*
X004422Y018457D01*
X004447Y0185D01*
X004515Y018482D01*
X004585D01*
X004653Y0185D01*
X004715Y018535D01*
X004765Y018585D01*
X0048Y018647D01*
X004818Y018715D01*
Y018785D01*
X0048Y018853D01*
X004765Y018915D01*
X004715Y018965D01*
X004653Y019D01*
X004585Y019018D01*
X004515D01*
X004447Y019D01*
X004385Y018965D01*
X004371Y01895D01*
X004361Y018944D01*
X003269D01*
X003261Y018947D01*
X003247Y018954D01*
X003229Y018965D01*
X00321Y018978D01*
X003122Y019054D01*
X00312Y019056D01*
X00314Y019106D01*
X004661D01*
X004671Y0191D01*
X004685Y019085D01*
X004747Y01905D01*
X004815Y019032D01*
X004885D01*
X004953Y01905D01*
X005015Y019085D01*
X005056Y019127D01*
X00509Y019119D01*
X005106Y019109D01*
Y0134D01*
X005121Y013326D01*
X005163Y013263D01*
X009213Y009213D01*
X009276Y009171D01*
X00935Y009156D01*
X009945D01*
X009972Y009106D01*
X00995Y009068D01*
X009932Y008999D01*
Y008929D01*
X00995Y008861D01*
X009985Y0088D01*
X010035Y00875D01*
X01008Y008724D01*
X011584Y00722D01*
X011667Y007165D01*
X011764Y007145D01*
X013659D01*
X013666Y007145D01*
Y005398D01*
X015934D01*
Y007667D01*
X013825D01*
X013816Y007668D01*
X013808Y007667D01*
X013666D01*
Y007655D01*
X01187D01*
X01044Y009085D01*
X010428Y009106D01*
X010455Y009156D01*
X015766D01*
X015782Y009135D01*
Y009065D01*
X0158Y008997D01*
X015835Y008935D01*
X015885Y008885D01*
X015947Y00885D01*
X016015Y008832D01*
X016085D01*
X016153Y00885D01*
X016215Y008885D01*
X016229Y0089D01*
X016239Y008906D01*
X016961D01*
X016971Y0089D01*
X016985Y008885D01*
X017047Y00885D01*
X017115Y008832D01*
X017185D01*
X017253Y00885D01*
X017315Y008885D01*
X017365Y008935D01*
X0174Y008997D01*
X017418Y009065D01*
Y009135D01*
X017434Y009156D01*
X020511D01*
X020521Y00915D01*
X020535Y009135D01*
X020597Y0091D01*
X020665Y009082D01*
X020735D01*
X020803Y0091D01*
X020865Y009135D01*
X020915Y009185D01*
X02095Y009247D01*
X020968Y009315D01*
Y009385D01*
X02095Y009453D01*
X020915Y009515D01*
X020865Y009565D01*
X020803Y0096D01*
X020735Y009618D01*
X020665D01*
X020597Y0096D01*
X020535Y009565D01*
X020521Y00955D01*
X020511Y009544D01*
X016446D01*
X01642Y009594D01*
X016421Y009597D01*
X016648Y009824D01*
X016696Y009811D01*
X0167Y009797D01*
X016735Y009735D01*
X016785Y009685D01*
X016847Y00965D01*
X016915Y009632D01*
X016985D01*
X017053Y00965D01*
X017115Y009685D01*
X017129Y0097D01*
X017139Y009706D01*
X02082D01*
X021457Y009069D01*
X02146Y009062D01*
X021465Y009048D01*
X02147Y009029D01*
X021473Y009007D01*
X021482Y008896D01*
X021482Y008852D01*
X021485Y008838D01*
Y008789D01*
X021517Y008671D01*
X021578Y008565D01*
X021665Y008478D01*
X021771Y008417D01*
X021889Y008385D01*
X022011D01*
X022129Y008417D01*
X022235Y008478D01*
X022322Y008565D01*
X022383Y008671D01*
X022415Y008789D01*
Y008911D01*
X022383Y009029D01*
X022322Y009135D01*
X022235Y009222D01*
X022129Y009283D01*
X022011Y009315D01*
X021962D01*
X021948Y009318D01*
X021903Y009318D01*
X021825Y009322D01*
X0218Y009325D01*
X021775Y009335D01*
X021784Y009385D01*
X022415D01*
Y010315D01*
X021644D01*
X021635Y010317D01*
X021626Y010315D01*
X021617D01*
X021614Y010315D01*
X021614Y010315D01*
X021485D01*
Y010312D01*
X019351D01*
X019332Y010358D01*
X020473Y011499D01*
X020538Y011494D01*
X020558Y011474D01*
X020568Y011462D01*
X02057Y011458D01*
X020576Y011453D01*
X020581Y011447D01*
X020585Y011443D01*
X020586Y011442D01*
X020589Y011437D01*
X020594Y011434D01*
X020658Y01137D01*
X020767Y011308D01*
X020887Y011275D01*
X020938D01*
X020953Y011272D01*
X020999Y011272D01*
X02108Y011268D01*
X02111Y011264D01*
X021137Y011259D01*
X021157Y011254D01*
X021172Y01125D01*
X02118Y011246D01*
X021413Y011013D01*
X021476Y010971D01*
X02155Y010956D01*
X0224D01*
X022474Y010971D01*
X022537Y011013D01*
X022987Y011463D01*
X023029Y011526D01*
X023044Y0116D01*
Y0195D01*
X023029Y019574D01*
X022987Y019637D01*
X022284Y02034D01*
X022221Y020382D01*
X022147Y020396D01*
X018531D01*
X018457Y020382D01*
X018394Y02034D01*
X018197Y020143D01*
X018185Y02014D01*
X018165D01*
X018097Y020121D01*
X018035Y020086D01*
X017985Y020036D01*
X01795Y019975D01*
X017932Y019907D01*
Y019836D01*
X01795Y019768D01*
X017985Y019707D01*
X018035Y019657D01*
X018097Y019622D01*
X018165Y019604D01*
X018235D01*
X018303Y019622D01*
X018365Y019657D01*
X018415Y019707D01*
X01845Y019768D01*
X018468Y019836D01*
Y019856D01*
X018471Y019869D01*
X018611Y020009D01*
X019568D01*
X019596Y019959D01*
X019582Y019907D01*
Y019836D01*
X0196Y019768D01*
X019635Y019707D01*
X019685Y019657D01*
X019747Y019622D01*
X019815Y019604D01*
X019885D01*
X019953Y019622D01*
X020015Y019657D01*
X020029Y019671D01*
X020039Y019678D01*
X021948D01*
X022356Y01927D01*
Y019086D01*
X022306Y019065D01*
X022242Y01913D01*
X022133Y019192D01*
X022013Y019225D01*
X021887D01*
X021767Y019192D01*
X021658Y01913D01*
X02157Y019042D01*
X021508Y018933D01*
X021475Y018813D01*
Y018687D01*
X021508Y018567D01*
X02157Y018458D01*
X021658Y01837D01*
X021767Y018308D01*
X021887Y018275D01*
X022013D01*
X022133Y018308D01*
X022242Y01837D01*
X022306Y018435D01*
X022356Y018414D01*
Y018086D01*
X022306Y018065D01*
X022242Y01813D01*
X022133Y018192D01*
X022013Y018225D01*
X021887D01*
X021767Y018192D01*
X021658Y01813D01*
X02157Y018042D01*
X021508Y017933D01*
X021475Y017813D01*
Y017687D01*
X021508Y017567D01*
X02157Y017458D01*
X021658Y01737D01*
X021767Y017308D01*
X021887Y017275D01*
X022013D01*
X022133Y017308D01*
X022242Y01737D01*
X022306Y017435D01*
X022356Y017414D01*
Y017086D01*
X022306Y017065D01*
X022242Y01713D01*
X022133Y017192D01*
X022013Y017225D01*
X021887D01*
X021767Y017192D01*
X021658Y01713D01*
X02157Y017042D01*
X021508Y016933D01*
X021475Y016813D01*
Y016687D01*
X021508Y016567D01*
X02157Y016458D01*
X021658Y01637D01*
X021767Y016308D01*
X021887Y016275D01*
X022013D01*
X022133Y016308D01*
X022242Y01637D01*
X022306Y016435D01*
X022356Y016414D01*
Y016086D01*
X022306Y016065D01*
X022242Y01613D01*
X022133Y016192D01*
X022013Y016225D01*
X021887D01*
X021767Y016192D01*
X021658Y01613D01*
X02157Y016042D01*
X021508Y015933D01*
X021475Y015813D01*
Y015687D01*
X021508Y015567D01*
X02157Y015458D01*
X021658Y01537D01*
X021767Y015308D01*
X021887Y015275D01*
X022013D01*
X022133Y015308D01*
X022242Y01537D01*
X022306Y015435D01*
X022356Y015414D01*
Y015086D01*
X022306Y015065D01*
X022242Y01513D01*
X022133Y015192D01*
X022013Y015225D01*
X021887D01*
X021767Y015192D01*
X021658Y01513D01*
X02157Y015042D01*
X021508Y014933D01*
X021475Y014813D01*
Y01481D01*
X021475Y01481D01*
X02146Y014811D01*
X021421Y014828D01*
X021392Y014933D01*
X02133Y015042D01*
X021242Y01513D01*
X021133Y015192D01*
X021013Y015225D01*
X020887D01*
X020767Y015192D01*
X020658Y01513D01*
X02057Y015042D01*
X020508Y014933D01*
X020475Y014813D01*
Y014687D01*
X020508Y014567D01*
X02055Y014494D01*
X020521Y014444D01*
X01985D01*
X019776Y014429D01*
X019713Y014387D01*
X01672Y011394D01*
X015141D01*
X015131Y01141D01*
X015123Y011444D01*
X015165Y011485D01*
X0152Y011547D01*
X015218Y011615D01*
Y011685D01*
X0152Y011753D01*
X015165Y011815D01*
X01515Y011829D01*
X015144Y011839D01*
Y015611D01*
X01515Y015621D01*
X015165Y015635D01*
X0152Y015697D01*
X015218Y015765D01*
Y015835D01*
X0152Y015903D01*
X015165Y015965D01*
X015115Y016015D01*
X015053Y01605D01*
X014985Y016068D01*
X014915D01*
X014847Y01605D01*
X014785Y016015D01*
X014735Y015965D01*
X0147Y015903D01*
X014682Y015835D01*
Y015765D01*
X0147Y015697D01*
X014735Y015635D01*
X01475Y015621D01*
X014753Y015616D01*
X014747Y015576D01*
X014735Y015569D01*
X0147Y015551D01*
X014635Y015568D01*
X014565D01*
X014497Y01555D01*
X014435Y015515D01*
X014385Y015465D01*
X01435Y015403D01*
X014332Y015335D01*
Y015265D01*
X01435Y015197D01*
X014385Y015135D01*
X0144Y015121D01*
X014406Y015111D01*
Y011639D01*
X0144Y011629D01*
X014385Y011615D01*
X01435Y011553D01*
X014332Y011485D01*
Y011415D01*
X014316Y011394D01*
X013127D01*
X013117Y0114D01*
X013103Y011415D01*
X013041Y01145D01*
X012973Y011468D01*
X012903D01*
X012834Y01145D01*
X012773Y011415D01*
X012723Y011365D01*
X012717Y011353D01*
X012659D01*
X012652Y011365D01*
X012602Y011415D01*
X012541Y01145D01*
X012473Y011468D01*
X012403D01*
X012334Y01145D01*
X012273Y011415D01*
X012223Y011365D01*
X012217Y011353D01*
X012159D01*
X012152Y011365D01*
X012103Y011415D01*
X012041Y01145D01*
X011973Y011468D01*
X011903D01*
X011834Y01145D01*
X011773Y011415D01*
X011723Y011365D01*
X011717Y011353D01*
X011659D01*
X011652Y011365D01*
X011602Y011415D01*
X011541Y01145D01*
X011473Y011468D01*
X011403D01*
X011334Y01145D01*
X011273Y011415D01*
X011223Y011365D01*
X011217Y011353D01*
X011159D01*
X011152Y011365D01*
X011102Y011415D01*
X011041Y01145D01*
X010973Y011468D01*
X010903D01*
X010834Y01145D01*
X010773Y011415D01*
X010723Y011365D01*
X010717Y011353D01*
X010659D01*
X010652Y011365D01*
X010603Y011415D01*
X010541Y01145D01*
X010473Y011468D01*
X010403D01*
X010334Y01145D01*
X010273Y011415D01*
X010223Y011365D01*
X010188Y011303D01*
X01017Y011235D01*
Y011165D01*
X010188Y011097D01*
X010223Y011035D01*
X010237Y011021D01*
X010244Y011011D01*
Y010762D01*
X010259Y010688D01*
X010301Y010625D01*
X010636Y01029D01*
X010617Y010244D01*
X00923D01*
X006994Y01248D01*
Y013611D01*
X007Y013621D01*
X007015Y013635D01*
X00705Y013697D01*
X007068Y013765D01*
Y013835D01*
X00705Y013903D01*
X007015Y013965D01*
X006965Y014015D01*
X006903Y01405D01*
X006835Y014068D01*
X006765D01*
X006697Y01405D01*
X006635Y014015D01*
X006585Y013965D01*
X00655Y013903D01*
X006532Y013835D01*
Y013765D01*
X00655Y013697D01*
X006585Y013635D01*
X0066Y013621D01*
X006606Y013611D01*
Y012438D01*
X006556Y012418D01*
X005494Y01348D01*
Y01975D01*
X005479Y019824D01*
X005437Y019887D01*
X005037Y020287D01*
X004974Y020329D01*
X0049Y020344D01*
X003239D01*
X003229Y02035D01*
X003215Y020365D01*
X003153Y0204D01*
X003085Y020418D01*
D02*
G37*
G36*
X015884Y019152D02*
X01485D01*
Y019041D01*
X01475D01*
Y019152D01*
X013716D01*
Y018118D01*
X013827D01*
Y018018D01*
X013716D01*
Y016983D01*
X01475D01*
Y017094D01*
X01485D01*
Y016983D01*
X015884D01*
Y018018D01*
X015773D01*
Y018118D01*
X015884D01*
Y019152D01*
D02*
G37*
G36*
X021425Y019225D02*
X020475D01*
Y018275D01*
X021425D01*
Y019225D01*
D02*
G37*
G36*
X021013Y018225D02*
X020887D01*
X020767Y018192D01*
X020658Y01813D01*
X02057Y018042D01*
X020508Y017933D01*
X020475Y017813D01*
Y017687D01*
X020508Y017567D01*
X02057Y017458D01*
X020658Y01737D01*
X020767Y017308D01*
X020887Y017275D01*
X021013D01*
X021133Y017308D01*
X021242Y01737D01*
X02133Y017458D01*
X021392Y017567D01*
X021425Y017687D01*
Y017813D01*
X021392Y017933D01*
X02133Y018042D01*
X021242Y01813D01*
X021133Y018192D01*
X021013Y018225D01*
D02*
G37*
G36*
Y017225D02*
X020887D01*
X020767Y017192D01*
X020658Y01713D01*
X02057Y017042D01*
X020508Y016933D01*
X020475Y016813D01*
Y016687D01*
X020508Y016567D01*
X02057Y016458D01*
X020658Y01637D01*
X020767Y016308D01*
X020887Y016275D01*
X021013D01*
X021133Y016308D01*
X021242Y01637D01*
X02133Y016458D01*
X021392Y016567D01*
X021425Y016687D01*
Y016813D01*
X021392Y016933D01*
X02133Y017042D01*
X021242Y01713D01*
X021133Y017192D01*
X021013Y017225D01*
D02*
G37*
G36*
X002813D02*
X002687D01*
X002567Y017192D01*
X002458Y01713D01*
X00237Y017042D01*
X002308Y016933D01*
X002275Y016813D01*
Y016687D01*
X002308Y016567D01*
X00237Y016458D01*
X002458Y01637D01*
X002567Y016308D01*
X002687Y016275D01*
X002813D01*
X002933Y016308D01*
X003042Y01637D01*
X00313Y016458D01*
X003192Y016567D01*
X003225Y016687D01*
Y016813D01*
X003192Y016933D01*
X00313Y017042D01*
X003042Y01713D01*
X002933Y017192D01*
X002813Y017225D01*
D02*
G37*
G36*
X021013Y016225D02*
X020887D01*
X020767Y016192D01*
X020658Y01613D01*
X02057Y016042D01*
X020508Y015933D01*
X020475Y015813D01*
Y015687D01*
X020508Y015567D01*
X02057Y015458D01*
X020658Y01537D01*
X020767Y015308D01*
X020887Y015275D01*
X021013D01*
X021133Y015308D01*
X021242Y01537D01*
X02133Y015458D01*
X021392Y015567D01*
X021425Y015687D01*
Y015813D01*
X021392Y015933D01*
X02133Y016042D01*
X021242Y01613D01*
X021133Y016192D01*
X021013Y016225D01*
D02*
G37*
G36*
X001813Y017225D02*
X001687D01*
X001567Y017192D01*
X001458Y01713D01*
X00137Y017042D01*
X001308Y016933D01*
X001275Y016813D01*
Y016762D01*
X001272Y016747D01*
X001272Y016701D01*
X001268Y01662D01*
X001264Y01659D01*
X001259Y016563D01*
X001254Y016543D01*
X00125Y016528D01*
X001246Y01652D01*
X000663Y015937D01*
X000621Y015874D01*
X000606Y0158D01*
Y0067D01*
X000621Y006626D01*
X000663Y006563D01*
X001013Y006213D01*
X001076Y006171D01*
X00115Y006156D01*
X003561D01*
X003571Y00615D01*
X003585Y006135D01*
X003647Y0061D01*
X003715Y006082D01*
X003785D01*
X003853Y0061D01*
X003915Y006135D01*
X003965Y006185D01*
X004Y006247D01*
X004018Y006315D01*
Y006385D01*
X004Y006453D01*
X003965Y006515D01*
X003915Y006565D01*
X003853Y0066D01*
X003785Y006618D01*
X003715D01*
X003647Y0066D01*
X003585Y006565D01*
X003571Y00655D01*
X003561Y006544D01*
X003365D01*
Y007206D01*
X003611D01*
X003621Y0072D01*
X003635Y007185D01*
X003697Y00715D01*
X003765Y007132D01*
X003835D01*
X003903Y00715D01*
X003965Y007185D01*
X004015Y007235D01*
X00405Y007297D01*
X004068Y007365D01*
Y007435D01*
X00405Y007503D01*
X004015Y007565D01*
X003965Y007615D01*
X003903Y00765D01*
X003835Y007668D01*
X003765D01*
X003697Y00765D01*
X003635Y007615D01*
X003621Y0076D01*
X003611Y007594D01*
X003339D01*
X003314Y007637D01*
X003333Y007671D01*
X003365Y007789D01*
Y007911D01*
X003333Y008029D01*
X003272Y008135D01*
X003185Y008222D01*
X003079Y008283D01*
X002961Y008315D01*
X002839D01*
X002721Y008283D01*
X002615Y008222D01*
X002528Y008135D01*
X002467Y008029D01*
X002435Y007911D01*
Y007789D01*
X002467Y007671D01*
X002486Y007637D01*
X002461Y007594D01*
X002089D01*
X002064Y007637D01*
X002083Y007671D01*
X002115Y007789D01*
Y007911D01*
X002083Y008029D01*
X002022Y008135D01*
X001935Y008222D01*
X001829Y008283D01*
X001711Y008315D01*
X001589D01*
X001471Y008283D01*
X001365Y008222D01*
X00134Y008197D01*
X001294Y008217D01*
Y008549D01*
X001344Y008569D01*
X001395Y008518D01*
X00149Y008463D01*
X001595Y008435D01*
X001705D01*
X00181Y008463D01*
X001905Y008518D01*
X001908Y008521D01*
X001827Y008602D01*
X001898Y008673D01*
X001979Y008592D01*
X001982Y008595D01*
X002037Y00869D01*
X002065Y008795D01*
Y008905D01*
X002037Y00901D01*
X001982Y009105D01*
X001979Y009108D01*
X001898Y009027D01*
X001827Y009098D01*
X001908Y009179D01*
X001905Y009182D01*
X00181Y009237D01*
X001705Y009265D01*
X001595D01*
X00149Y009237D01*
X001395Y009182D01*
X001344Y009131D01*
X001294Y009151D01*
Y009483D01*
X00134Y009503D01*
X001365Y009478D01*
X001471Y009417D01*
X001589Y009385D01*
X001711D01*
X001829Y009417D01*
X001935Y009478D01*
X002022Y009565D01*
X002083Y009671D01*
X002115Y009789D01*
Y009911D01*
X002083Y010029D01*
X002022Y010135D01*
X001935Y010222D01*
X001829Y010283D01*
X001711Y010315D01*
X001589D01*
X001471Y010283D01*
X001365Y010222D01*
X00134Y010197D01*
X001294Y010217D01*
Y011618D01*
X001344Y011625D01*
X001354Y011586D01*
X00141Y011489D01*
X001414Y011485D01*
X001495Y011566D01*
X001566Y011495D01*
X001485Y011414D01*
X001489Y01141D01*
X001586Y011354D01*
X001694Y011325D01*
X001806D01*
X001914Y011354D01*
X002011Y01141D01*
X002015Y011414D01*
X001934Y011495D01*
X002005Y011566D01*
X002086Y011485D01*
X00209Y011489D01*
X002146Y011586D01*
X002175Y011694D01*
Y011806D01*
X002146Y011914D01*
X00209Y012011D01*
X002086Y012015D01*
X002005Y011934D01*
X001934Y012005D01*
X002015Y012086D01*
X002011Y01209D01*
X001914Y012146D01*
X001806Y012175D01*
X001694D01*
X001586Y012146D01*
X001489Y01209D01*
X001485Y012086D01*
X001566Y012005D01*
X001495Y011934D01*
X001414Y012015D01*
X00141Y012011D01*
X001354Y011914D01*
X001344Y011875D01*
X001294Y011882D01*
Y012618D01*
X001344Y012625D01*
X001354Y012586D01*
X00141Y012489D01*
X001414Y012485D01*
X001495Y012566D01*
X001566Y012495D01*
X001485Y012414D01*
X001489Y01241D01*
X001586Y012354D01*
X001694Y012325D01*
X001806D01*
X001914Y012354D01*
X002011Y01241D01*
X002015Y012414D01*
X001934Y012495D01*
X002005Y012566D01*
X002086Y012485D01*
X00209Y012489D01*
X002146Y012586D01*
X002175Y012694D01*
Y012806D01*
X002146Y012914D01*
X00209Y013011D01*
X002086Y013015D01*
X002005Y012934D01*
X001934Y013005D01*
X002015Y013086D01*
X002011Y01309D01*
X001914Y013146D01*
X001806Y013175D01*
X001694D01*
X001586Y013146D01*
X001489Y01309D01*
X001485Y013086D01*
X001566Y013005D01*
X001495Y012934D01*
X001414Y013015D01*
X00141Y013011D01*
X001354Y012914D01*
X001344Y012875D01*
X001294Y012882D01*
Y013491D01*
X001344Y013504D01*
X00137Y013458D01*
X001458Y01337D01*
X001567Y013308D01*
X001687Y013275D01*
X001813D01*
X001933Y013308D01*
X002042Y01337D01*
X00213Y013458D01*
X002192Y013567D01*
X002225Y013687D01*
Y013813D01*
X002192Y013933D01*
X00213Y014042D01*
X002042Y01413D01*
X001933Y014192D01*
X001813Y014225D01*
X001687D01*
X001567Y014192D01*
X001458Y01413D01*
X00137Y014042D01*
X001344Y013996D01*
X001294Y014009D01*
Y014491D01*
X001344Y014504D01*
X00137Y014458D01*
X001458Y01437D01*
X001567Y014308D01*
X001687Y014275D01*
X001813D01*
X001933Y014308D01*
X002042Y01437D01*
X00213Y014458D01*
X002192Y014567D01*
X002225Y014687D01*
Y014813D01*
X002192Y014933D01*
X00215Y015006D01*
X002179Y015056D01*
X00225D01*
X002324Y015071D01*
X002338Y01508D01*
X00237Y015042D01*
X00237Y015042D01*
X002308Y014933D01*
X002275Y014813D01*
Y014687D01*
X002308Y014567D01*
X00237Y014458D01*
X002458Y01437D01*
X002567Y014308D01*
X002687Y014275D01*
X002813D01*
X002933Y014308D01*
X003042Y01437D01*
X00313Y014458D01*
X003192Y014567D01*
X003225Y014687D01*
Y014813D01*
X003192Y014933D01*
X00313Y015042D01*
X003042Y01513D01*
X002933Y015192D01*
X002828Y015221D01*
X002811Y01526D01*
X00281Y015275D01*
X00281Y015275D01*
X002813D01*
X002933Y015308D01*
X003042Y01537D01*
X00313Y015458D01*
X003192Y015567D01*
X003225Y015687D01*
Y015813D01*
X003192Y015933D01*
X00313Y016042D01*
X003042Y01613D01*
X002933Y016192D01*
X002813Y016225D01*
X002687D01*
X002567Y016192D01*
X002458Y01613D01*
X00237Y016042D01*
X002308Y015933D01*
X002275Y015813D01*
Y01581D01*
X002275Y01581D01*
X00226Y015811D01*
X002221Y015828D01*
X002192Y015933D01*
X00213Y016042D01*
X002042Y01613D01*
X001933Y016192D01*
X001828Y016221D01*
X001811Y01626D01*
X00181Y016275D01*
X00181Y016275D01*
X001813D01*
X001933Y016308D01*
X002042Y01637D01*
X00213Y016458D01*
X002192Y016567D01*
X002225Y016687D01*
Y016813D01*
X002192Y016933D01*
X00213Y017042D01*
X002042Y01713D01*
X001933Y017192D01*
X001813Y017225D01*
D02*
G37*
G36*
X002813Y014225D02*
X002687D01*
X002567Y014192D01*
X002458Y01413D01*
X00237Y014042D01*
X002308Y013933D01*
X002275Y013813D01*
Y013687D01*
X002308Y013567D01*
X00237Y013458D01*
X002458Y01337D01*
X002567Y013308D01*
X002687Y013275D01*
X002813D01*
X002933Y013308D01*
X003042Y01337D01*
X00313Y013458D01*
X003192Y013567D01*
X003225Y013687D01*
Y013813D01*
X003192Y013933D01*
X00313Y014042D01*
X003042Y01413D01*
X002933Y014192D01*
X002813Y014225D01*
D02*
G37*
G36*
Y013225D02*
X002687D01*
X002567Y013192D01*
X002458Y01313D01*
X00237Y013042D01*
X002308Y012933D01*
X002275Y012813D01*
Y012687D01*
X002308Y012567D01*
X00237Y012458D01*
X002458Y01237D01*
X002567Y012308D01*
X002687Y012275D01*
X002813D01*
X002933Y012308D01*
X003042Y01237D01*
X00313Y012458D01*
X003192Y012567D01*
X003225Y012687D01*
Y012813D01*
X003192Y012933D01*
X00313Y013042D01*
X003042Y01313D01*
X002933Y013192D01*
X002813Y013225D01*
D02*
G37*
G36*
Y012225D02*
X002687D01*
X002567Y012192D01*
X002458Y01213D01*
X00237Y012042D01*
X002308Y011933D01*
X002275Y011813D01*
Y011687D01*
X002308Y011567D01*
X00237Y011458D01*
X002458Y01137D01*
X002567Y011308D01*
X002687Y011275D01*
X002813D01*
X002933Y011308D01*
X003042Y01137D01*
X00313Y011458D01*
X003192Y011567D01*
X003225Y011687D01*
Y011813D01*
X003192Y011933D01*
X00313Y012042D01*
X003042Y01213D01*
X002933Y012192D01*
X002813Y012225D01*
D02*
G37*
G36*
X002961Y010315D02*
X002839D01*
X002721Y010283D01*
X002615Y010222D01*
X002528Y010135D01*
X002467Y010029D01*
X002435Y009911D01*
Y009789D01*
X002467Y009671D01*
X002528Y009565D01*
X002615Y009478D01*
X002721Y009417D01*
X002839Y009385D01*
X002961D01*
X003079Y009417D01*
X003185Y009478D01*
X003272Y009565D01*
X003333Y009671D01*
X003365Y009789D01*
Y009911D01*
X003333Y010029D01*
X003272Y010135D01*
X003185Y010222D01*
X003079Y010283D01*
X002961Y010315D01*
D02*
G37*
G36*
X002955Y009265D02*
X002845D01*
X00274Y009237D01*
X002645Y009182D01*
X002642Y009179D01*
X002723Y009098D01*
X002652Y009027D01*
X002571Y009108D01*
X002568Y009105D01*
X002513Y00901D01*
X002485Y008905D01*
Y008795D01*
X002513Y00869D01*
X002568Y008595D01*
X002571Y008592D01*
X002652Y008673D01*
X002723Y008602D01*
X002642Y008521D01*
X002645Y008518D01*
X00274Y008463D01*
X002845Y008435D01*
X002955D01*
X00306Y008463D01*
X003155Y008518D01*
X003158Y008521D01*
X003077Y008602D01*
X003148Y008673D01*
X003229Y008592D01*
X003232Y008595D01*
X003287Y00869D01*
X003315Y008795D01*
Y008905D01*
X003287Y00901D01*
X003232Y009105D01*
X003229Y009108D01*
X003148Y009027D01*
X003077Y009098D01*
X003158Y009179D01*
X003155Y009182D01*
X00306Y009237D01*
X002955Y009265D01*
D02*
G37*
G36*
X022005Y008265D02*
X021895D01*
X02179Y008237D01*
X021695Y008182D01*
X021692Y008179D01*
X021773Y008098D01*
X021702Y008027D01*
X021621Y008108D01*
X021618Y008105D01*
X021563Y00801D01*
X021535Y007905D01*
Y007795D01*
X021563Y00769D01*
X021618Y007595D01*
X021621Y007592D01*
X021702Y007673D01*
X021773Y007602D01*
X021692Y007521D01*
X021695Y007518D01*
X02179Y007463D01*
X021895Y007435D01*
X022005D01*
X02211Y007463D01*
X022205Y007518D01*
X022208Y007521D01*
X022127Y007602D01*
X022198Y007673D01*
X022279Y007592D01*
X022282Y007595D01*
X022337Y00769D01*
X022365Y007795D01*
Y007905D01*
X022337Y00801D01*
X022282Y008105D01*
X022279Y008108D01*
X022198Y008027D01*
X022127Y008098D01*
X022208Y008179D01*
X022205Y008182D01*
X02211Y008237D01*
X022005Y008265D01*
D02*
G37*
G36*
X022011Y007315D02*
X021889D01*
X021771Y007283D01*
X021665Y007222D01*
X021578Y007135D01*
X021517Y007029D01*
X021485Y006911D01*
Y006789D01*
X021517Y006671D01*
X021578Y006565D01*
X021612Y006531D01*
X021619Y006519D01*
X021639Y006499D01*
X021652Y006483D01*
X021664Y006467D01*
X021673Y006451D01*
X021681Y006437D01*
X021687Y006422D01*
X021691Y006408D01*
X021694Y006393D01*
X021695Y006387D01*
Y005306D01*
X020994Y004605D01*
X019491D01*
Y006215D01*
X019504Y006265D01*
Y006335D01*
X019486Y006403D01*
X01945Y006465D01*
X0194Y006515D01*
X019339Y00655D01*
X019271Y006568D01*
X019201D01*
X019132Y00655D01*
X019071Y006515D01*
X019021Y006465D01*
X018986Y006403D01*
X018968Y006335D01*
Y006265D01*
X018981Y006215D01*
Y004605D01*
X013506D01*
X012755Y005356D01*
X012757Y005465D01*
X01277Y005626D01*
X012779Y005689D01*
X012789Y005742D01*
X012801Y005783D01*
X012812Y005812D01*
X012819Y005827D01*
X012822Y00583D01*
X013021Y006029D01*
X013093Y006123D01*
X013138Y006233D01*
X013154Y00635D01*
X013138Y006467D01*
X013093Y006577D01*
X013021Y006671D01*
X012927Y006743D01*
X012817Y006788D01*
X0127Y006804D01*
X012583Y006788D01*
X0125Y006754D01*
X012417Y006788D01*
X0123Y006804D01*
X012183Y006788D01*
X012073Y006743D01*
X011979Y006671D01*
X011907Y006577D01*
X011862Y006467D01*
X011846Y00635D01*
X011862Y006233D01*
X011907Y006123D01*
X011979Y006029D01*
X012178Y00583D01*
X012181Y005827D01*
X012188Y005812D01*
X012199Y005783D01*
X012211Y005742D01*
X01222Y005693D01*
X012245Y005379D01*
Y00525D01*
X012264Y005152D01*
X01232Y00507D01*
X01322Y00417D01*
X013302Y004114D01*
X0134Y004095D01*
X0211D01*
X021198Y004114D01*
X02128Y00417D01*
X02213Y00502D01*
X022185Y005102D01*
X022205Y0052D01*
Y006387D01*
X022206Y006393D01*
X022209Y006408D01*
X022213Y006422D01*
X022219Y006437D01*
X022227Y006451D01*
X022236Y006467D01*
X022248Y006483D01*
X022262Y006499D01*
X022281Y006519D01*
X022288Y006531D01*
X022322Y006565D01*
X022383Y006671D01*
X022415Y006789D01*
Y006911D01*
X022383Y007029D01*
X022322Y007135D01*
X022235Y007222D01*
X022129Y007283D01*
X022011Y007315D01*
D02*
G37*
G36*
X001309Y005795D02*
X001191D01*
X001078Y005765D01*
X000977Y005706D01*
X000894Y005623D01*
X000835Y005522D01*
X000805Y005409D01*
Y005291D01*
X000835Y005178D01*
X000894Y005077D01*
X000977Y004994D01*
X001078Y004935D01*
X001189Y004905D01*
X00128Y004821D01*
X001308Y004793D01*
X001285Y004745D01*
X001198D01*
X001097Y004718D01*
X001007Y004666D01*
X001006Y004665D01*
X001087Y004584D01*
X001016Y004513D01*
X000935Y004594D01*
X000934Y004593D01*
X000882Y004503D01*
X000855Y004402D01*
Y004298D01*
X000882Y004197D01*
X000934Y004107D01*
X000935Y004106D01*
X001016Y004187D01*
X001087Y004116D01*
X001006Y004035D01*
X001007Y004034D01*
X001097Y003982D01*
X001198Y003955D01*
X001302D01*
X001403Y003982D01*
X001493Y004034D01*
X001494Y004035D01*
X001413Y004116D01*
X001484Y004187D01*
X001565Y004106D01*
X001566Y004107D01*
X001618Y004197D01*
X001645Y004298D01*
Y004385D01*
X001693Y004408D01*
X0024Y003701D01*
Y00285D01*
X003251D01*
X00535Y00075D01*
X005423Y000694D01*
X005509Y000659D01*
X0056Y000647D01*
X006008D01*
X006044Y000646D01*
X006079Y000644D01*
X00611Y00064D01*
X006137Y000634D01*
X006161Y000628D01*
X006181Y000621D01*
X006198Y000613D01*
X006212Y000605D01*
X006223Y000598D01*
X006238Y000584D01*
X006248Y000578D01*
X006278Y000547D01*
X006374Y000483D01*
X00648Y000439D01*
X006593Y000417D01*
X006707D01*
X00682Y000439D01*
X006926Y000483D01*
X007022Y000547D01*
X007103Y000628D01*
X007167Y000724D01*
X007211Y00083D01*
X007233Y000943D01*
Y001057D01*
X007211Y00117D01*
X007167Y001276D01*
X007103Y001372D01*
X007022Y001453D01*
X006926Y001517D01*
X00682Y001561D01*
X006707Y001583D01*
X006593D01*
X00648Y001561D01*
X006374Y001517D01*
X006278Y001453D01*
X006248Y001422D01*
X006238Y001416D01*
X006223Y001402D01*
X006212Y001395D01*
X006198Y001387D01*
X006181Y001379D01*
X006161Y001372D01*
X006137Y001366D01*
X006112Y001361D01*
X006042Y001354D01*
X006008Y001353D01*
X005746D01*
X004295Y002804D01*
X004315Y00285D01*
X0045D01*
Y00515D01*
X0024D01*
Y004765D01*
X002354Y004745D01*
X001773Y005326D01*
X001701Y005399D01*
X001695Y005406D01*
Y005409D01*
X001665Y005522D01*
X001606Y005623D01*
X001523Y005706D01*
X001422Y005765D01*
X001309Y005795D01*
D02*
G37*
G36*
Y003795D02*
X001191D01*
X001078Y003765D01*
X000977Y003706D01*
X000894Y003623D01*
X000835Y003522D01*
X000805Y003409D01*
Y003291D01*
X000835Y003178D01*
X000894Y003077D01*
X000977Y002994D01*
X001078Y002935D01*
X001191Y002905D01*
X001309D01*
X001422Y002935D01*
X001523Y002994D01*
X001606Y003077D01*
X001665Y003178D01*
X001695Y003291D01*
Y003409D01*
X001665Y003522D01*
X001606Y003623D01*
X001523Y003706D01*
X001422Y003765D01*
X001309Y003795D01*
D02*
G37*
G36*
X01825Y002687D02*
X018131Y002671D01*
X018021Y002626D01*
X017966Y002583D01*
X018045Y002505D01*
X017974Y002434D01*
X017895Y002513D01*
X017853Y002458D01*
X017807Y002347D01*
X017792Y002229D01*
Y0022D01*
X017906D01*
Y0021D01*
X017792D01*
Y002071D01*
X017807Y001953D01*
X017853Y001842D01*
X017895Y001787D01*
X017974Y001866D01*
X018045Y001795D01*
X017966Y001717D01*
X018021Y001674D01*
X018131Y001629D01*
X01825Y001613D01*
X018369Y001629D01*
X018479Y001674D01*
X018534Y001717D01*
X018455Y001795D01*
X018526Y001866D01*
X018605Y001787D01*
X018647Y001842D01*
X018693Y001953D01*
X018708Y002071D01*
Y0021D01*
X018594D01*
Y0022D01*
X018708D01*
Y002229D01*
X018693Y002347D01*
X018647Y002458D01*
X018605Y002513D01*
X018526Y002434D01*
X018455Y002505D01*
X018534Y002583D01*
X018479Y002626D01*
X018369Y002671D01*
X01825Y002687D01*
D02*
G37*
G36*
X01555D02*
X015431Y002671D01*
X015321Y002626D01*
X015266Y002583D01*
X015345Y002505D01*
X015274Y002434D01*
X015195Y002513D01*
X015153Y002458D01*
X015107Y002347D01*
X015092Y002229D01*
Y0022D01*
X015206D01*
Y0021D01*
X015092D01*
Y002071D01*
X015107Y001953D01*
X015153Y001842D01*
X015195Y001787D01*
X015274Y001866D01*
X015345Y001795D01*
X015266Y001717D01*
X015321Y001674D01*
X015431Y001629D01*
X01555Y001613D01*
X015669Y001629D01*
X015779Y001674D01*
X015834Y001717D01*
X015755Y001795D01*
X015826Y001866D01*
X015905Y001787D01*
X015947Y001842D01*
X015993Y001953D01*
X016008Y002071D01*
Y0021D01*
X015894D01*
Y0022D01*
X016008D01*
Y002229D01*
X015993Y002347D01*
X015947Y002458D01*
X015905Y002513D01*
X015826Y002434D01*
X015755Y002505D01*
X015834Y002583D01*
X015779Y002626D01*
X015669Y002671D01*
X01555Y002687D01*
D02*
G37*
G36*
X001695Y002795D02*
X000805D01*
Y001905D01*
X001695D01*
Y002795D01*
D02*
G37*
G36*
X014417Y001854D02*
X014284D01*
X014156Y00182D01*
X014041Y001754D01*
X013947Y00166D01*
X01388Y001545D01*
X013846Y001416D01*
Y001284D01*
X01388Y001155D01*
X013947Y00104D01*
X014041Y000946D01*
X014156Y00088D01*
X014284Y000846D01*
X014417D01*
X014545Y00088D01*
X01466Y000946D01*
X014754Y00104D01*
X01482Y001155D01*
X014855Y001284D01*
Y001416D01*
X01482Y001545D01*
X014754Y00166D01*
X01466Y001754D01*
X014545Y00182D01*
X014417Y001854D01*
D02*
G37*
G36*
X012566D02*
X012434D01*
X012305Y00182D01*
X01219Y001754D01*
X012096Y00166D01*
X01203Y001545D01*
X011996Y001416D01*
Y001284D01*
X01203Y001155D01*
X012096Y00104D01*
X01219Y000946D01*
X012305Y00088D01*
X012434Y000846D01*
X012566D01*
X012695Y00088D01*
X01281Y000946D01*
X012904Y00104D01*
X01297Y001155D01*
X013004Y001284D01*
Y001416D01*
X01297Y001545D01*
X012904Y00166D01*
X01281Y001754D01*
X012695Y00182D01*
X012566Y001854D01*
D02*
G37*
G36*
X010716D02*
X010583D01*
X010455Y00182D01*
X01034Y001754D01*
X010246Y00166D01*
X01018Y001545D01*
X010145Y001416D01*
Y001284D01*
X01018Y001155D01*
X010246Y00104D01*
X01034Y000946D01*
X010455Y00088D01*
X010583Y000846D01*
X010716D01*
X010844Y00088D01*
X010959Y000946D01*
X011053Y00104D01*
X01112Y001155D01*
X011154Y001284D01*
Y001416D01*
X01112Y001545D01*
X011053Y00166D01*
X010959Y001754D01*
X010844Y00182D01*
X010716Y001854D01*
D02*
G37*
%LPD*%
G36*
X003143Y020225D02*
X003152Y020217D01*
X003161Y020211D01*
X00317Y020205D01*
X00318Y020201D01*
X00319Y020197D01*
X0032Y020194D01*
X00321Y020192D01*
X003221Y02019D01*
X003232Y02019D01*
Y02011D01*
X003221Y02011D01*
X00321Y020108D01*
X0032Y020106D01*
X00319Y020103D01*
X00318Y020099D01*
X00317Y020095D01*
X003161Y020089D01*
X003152Y020083D01*
X003143Y020075D01*
X003134Y020067D01*
Y020233D01*
X003143Y020225D01*
D02*
G37*
G36*
X018357Y019972D02*
X018349Y019964D01*
X018343Y019955D01*
X018337Y019947D01*
X018332Y019937D01*
X018328Y019928D01*
X018324Y019917D01*
X018321Y019907D01*
X018319Y019896D01*
X018318Y019885D01*
X018318Y019873D01*
X018201Y01999D01*
X018213Y01999D01*
X018224Y019991D01*
X018235Y019993D01*
X018246Y019996D01*
X018256Y019999D01*
X018266Y020003D01*
X018275Y020009D01*
X018284Y020014D01*
X018292Y020021D01*
X0183Y020029D01*
X018357Y019972D01*
D02*
G37*
G36*
X019943Y019946D02*
X019952Y019939D01*
X019961Y019933D01*
X01997Y019927D01*
X01998Y019922D01*
X01999Y019918D01*
X02Y019915D01*
X02001Y019913D01*
X020021Y019912D01*
X020032Y019912D01*
Y019832D01*
X020021Y019831D01*
X02001Y01983D01*
X02Y019828D01*
X01999Y019825D01*
X01998Y019821D01*
X01997Y019816D01*
X019961Y019811D01*
X019952Y019804D01*
X019943Y019797D01*
X019934Y019789D01*
Y019954D01*
X019943Y019946D01*
D02*
G37*
G36*
X004766Y019217D02*
X004757Y019225D01*
X004748Y019233D01*
X004739Y019239D01*
X00473Y019245D01*
X00472Y019249D01*
X00471Y019253D01*
X0047Y019256D01*
X00469Y019258D01*
X004679Y01926D01*
X004668Y01926D01*
Y01934D01*
X004679Y01934D01*
X00469Y019342D01*
X0047Y019344D01*
X00471Y019347D01*
X00472Y019351D01*
X00473Y019355D01*
X004739Y019361D01*
X004748Y019367D01*
X004757Y019375D01*
X004766Y019383D01*
Y019217D01*
D02*
G37*
G36*
X00213Y019074D02*
X002114Y019057D01*
X002089Y019028D01*
X00208Y019014D01*
X002073Y019003D01*
X002068Y018992D01*
X002066Y018982D01*
X002066Y018974D01*
X002068Y018967D01*
X002072Y01896D01*
X00196Y019072D01*
X001967Y019068D01*
X001974Y019066D01*
X001982Y019066D01*
X001992Y019068D01*
X002003Y019073D01*
X002014Y01908D01*
X002028Y019089D01*
X002042Y019101D01*
X002074Y01913D01*
X00213Y019074D01*
D02*
G37*
G36*
X004466Y018667D02*
X004457Y018675D01*
X004448Y018683D01*
X004439Y018689D01*
X00443Y018695D01*
X00442Y018699D01*
X00441Y018703D01*
X0044Y018706D01*
X00439Y018708D01*
X004379Y01871D01*
X004368Y01871D01*
Y01879D01*
X004379Y01879D01*
X00439Y018792D01*
X0044Y018794D01*
X00441Y018797D01*
X00442Y018801D01*
X00443Y018805D01*
X004439Y018811D01*
X004448Y018817D01*
X004457Y018825D01*
X004466Y018833D01*
Y018667D01*
D02*
G37*
G36*
X003018Y018942D02*
X003116Y018857D01*
X003145Y018837D01*
X003173Y01882D01*
X003199Y018807D01*
X003223Y018797D01*
X003246Y018792D01*
X003267Y01879D01*
Y01871D01*
X003246Y018708D01*
X003223Y018703D01*
X003199Y018693D01*
X003173Y01868D01*
X003145Y018663D01*
X003116Y018643D01*
X003085Y018618D01*
X003018Y018558D01*
X002982Y018523D01*
Y018977D01*
X003018Y018942D01*
D02*
G37*
G36*
X004166Y018167D02*
X004157Y018175D01*
X004148Y018183D01*
X004139Y018189D01*
X00413Y018195D01*
X00412Y018199D01*
X00411Y018203D01*
X0041Y018206D01*
X00409Y018208D01*
X004079Y01821D01*
X004068Y01821D01*
Y01829D01*
X004079Y01829D01*
X00409Y018292D01*
X0041Y018294D01*
X00411Y018297D01*
X00412Y018301D01*
X00413Y018305D01*
X004139Y018311D01*
X004148Y018317D01*
X004157Y018325D01*
X004166Y018333D01*
Y018167D01*
D02*
G37*
G36*
X002144Y018087D02*
X00213Y018071D01*
X002118Y018051D01*
X002108Y018027D01*
X002098Y017999D01*
X002091Y017968D01*
X002085Y017933D01*
X00208Y017894D01*
X002075Y017804D01*
X002075Y017753D01*
X001753Y018075D01*
X001804Y018075D01*
X001933Y018085D01*
X001968Y018091D01*
X001999Y018098D01*
X002027Y018108D01*
X002051Y018118D01*
X002071Y01813D01*
X002087Y018144D01*
X002144Y018087D01*
D02*
G37*
G36*
X015025Y015707D02*
X015017Y015698D01*
X015011Y015689D01*
X015005Y01568D01*
X015001Y01567D01*
X014997Y01566D01*
X014994Y01565D01*
X014992Y01564D01*
X01499Y015629D01*
X01499Y015618D01*
X01491D01*
X01491Y015629D01*
X014908Y01564D01*
X014906Y01565D01*
X014903Y01566D01*
X014899Y01567D01*
X014895Y01568D01*
X014889Y015689D01*
X014883Y015698D01*
X014875Y015707D01*
X014867Y015716D01*
X015033D01*
X015025Y015707D01*
D02*
G37*
G36*
X014675Y015207D02*
X014667Y015198D01*
X014661Y015189D01*
X014655Y01518D01*
X014651Y01517D01*
X014647Y01516D01*
X014644Y01515D01*
X014642Y01514D01*
X01464Y015129D01*
X01464Y015118D01*
X01456D01*
X01456Y015129D01*
X014558Y01514D01*
X014556Y01515D01*
X014553Y01516D01*
X014549Y01517D01*
X014545Y01518D01*
X014539Y015189D01*
X014533Y015198D01*
X014525Y015207D01*
X014517Y015216D01*
X014683D01*
X014675Y015207D01*
D02*
G37*
G36*
X021947Y014425D02*
X021896Y014425D01*
X021767Y014415D01*
X021732Y014409D01*
X021701Y014402D01*
X021673Y014392D01*
X021649Y014382D01*
X021629Y01437D01*
X021613Y014356D01*
X021556Y014413D01*
X02157Y014429D01*
X021582Y014449D01*
X021592Y014473D01*
X021602Y014501D01*
X021609Y014532D01*
X021615Y014567D01*
X02162Y014606D01*
X021625Y014696D01*
X021625Y014747D01*
X021947Y014425D01*
D02*
G37*
G36*
X006875Y013707D02*
X006867Y013698D01*
X006861Y013689D01*
X006855Y01368D01*
X006851Y01367D01*
X006847Y01366D01*
X006844Y01365D01*
X006842Y01364D01*
X00684Y013629D01*
X00684Y013618D01*
X00676D01*
X00676Y013629D01*
X006758Y01364D01*
X006756Y01365D01*
X006753Y01366D01*
X006749Y01367D01*
X006745Y01368D01*
X006739Y013689D01*
X006733Y013698D01*
X006725Y013707D01*
X006717Y013716D01*
X006883D01*
X006875Y013707D01*
D02*
G37*
G36*
X020718Y013523D02*
X020682Y013558D01*
X020584Y013643D01*
X020555Y013663D01*
X020527Y01368D01*
X020501Y013693D01*
X020477Y013703D01*
X020454Y013708D01*
X020433Y01371D01*
Y01379D01*
X020454Y013792D01*
X020477Y013797D01*
X020501Y013807D01*
X020527Y01382D01*
X020555Y013837D01*
X020584Y013857D01*
X020615Y013882D01*
X020682Y013942D01*
X020718Y013977D01*
Y013523D01*
D02*
G37*
G36*
X021947Y013425D02*
X021896Y013425D01*
X021767Y013415D01*
X021732Y013409D01*
X021701Y013402D01*
X021673Y013392D01*
X021649Y013382D01*
X021629Y01337D01*
X021613Y013356D01*
X021556Y013413D01*
X02157Y013429D01*
X021582Y013449D01*
X021592Y013473D01*
X021602Y013501D01*
X021609Y013532D01*
X021615Y013567D01*
X02162Y013606D01*
X021625Y013696D01*
X021625Y013747D01*
X021947Y013425D01*
D02*
G37*
G36*
X022344Y013087D02*
X02233Y013071D01*
X022318Y013051D01*
X022308Y013027D01*
X022298Y012999D01*
X022291Y012968D01*
X022285Y012933D01*
X02228Y012894D01*
X022275Y012804D01*
X022275Y012753D01*
X021953Y013075D01*
X022004Y013075D01*
X022133Y013085D01*
X022168Y013091D01*
X022199Y013098D01*
X022227Y013108D01*
X022251Y013118D01*
X022271Y01313D01*
X022287Y013144D01*
X022344Y013087D01*
D02*
G37*
G36*
X020718Y012523D02*
X020682Y012558D01*
X020584Y012643D01*
X020555Y012663D01*
X020527Y01268D01*
X020501Y012693D01*
X020477Y012703D01*
X020454Y012708D01*
X020433Y01271D01*
Y01279D01*
X020454Y012792D01*
X020477Y012797D01*
X020501Y012807D01*
X020527Y01282D01*
X020555Y012837D01*
X020584Y012857D01*
X020615Y012882D01*
X020682Y012942D01*
X020718Y012977D01*
Y012523D01*
D02*
G37*
G36*
X021947Y012425D02*
X021896Y012425D01*
X021767Y012415D01*
X021732Y012409D01*
X021701Y012402D01*
X021673Y012392D01*
X021649Y012382D01*
X021629Y01237D01*
X021613Y012356D01*
X021556Y012413D01*
X02157Y012429D01*
X021582Y012449D01*
X021592Y012473D01*
X021602Y012501D01*
X021609Y012532D01*
X021615Y012567D01*
X02162Y012606D01*
X021625Y012696D01*
X021625Y012747D01*
X021947Y012425D01*
D02*
G37*
G36*
X01499Y011821D02*
X014992Y01181D01*
X014994Y0118D01*
X014997Y01179D01*
X015001Y01178D01*
X015005Y01177D01*
X015011Y011761D01*
X015017Y011752D01*
X015025Y011743D01*
X015033Y011734D01*
X014867D01*
X014875Y011743D01*
X014883Y011752D01*
X014889Y011761D01*
X014895Y01177D01*
X014899Y01178D01*
X014903Y01179D01*
X014906Y0118D01*
X014908Y01181D01*
X01491Y011821D01*
X01491Y011832D01*
X01499D01*
X01499Y011821D01*
D02*
G37*
G36*
X020698Y011546D02*
X020671Y011577D01*
X020619Y011629D01*
X020594Y011651D01*
X020569Y011669D01*
X020545Y011684D01*
X02052Y011695D01*
X020497Y011703D01*
X020473Y011708D01*
X02045Y01171D01*
Y01179D01*
X020473Y011792D01*
X020497Y011797D01*
X02052Y011805D01*
X020545Y011816D01*
X020569Y011831D01*
X020594Y011849D01*
X020619Y011871D01*
X020645Y011895D01*
X020671Y011923D01*
X020698Y011954D01*
Y011546D01*
D02*
G37*
G36*
X01464Y011621D02*
X014642Y01161D01*
X014644Y0116D01*
X014647Y01159D01*
X014651Y01158D01*
X014655Y01157D01*
X014661Y011561D01*
X014667Y011552D01*
X014675Y011543D01*
X014683Y011534D01*
X014517D01*
X014525Y011543D01*
X014533Y011552D01*
X014539Y011561D01*
X014545Y01157D01*
X014549Y01158D01*
X014553Y01159D01*
X014556Y0116D01*
X014558Y01161D01*
X01456Y011621D01*
X01456Y011632D01*
X01464D01*
X01464Y011621D01*
D02*
G37*
G36*
X022656Y013117D02*
Y01168D01*
X02232Y011344D01*
X022196D01*
X022183Y011394D01*
X022211Y01141D01*
X022215Y011414D01*
X022134Y011495D01*
X022205Y011566D01*
X022286Y011485D01*
X02229Y011489D01*
X022346Y011586D01*
X022375Y011694D01*
Y011806D01*
X022346Y011914D01*
X02229Y012011D01*
X022286Y012015D01*
X022205Y011934D01*
X022134Y012005D01*
X022215Y012086D01*
X022211Y01209D01*
X022114Y012146D01*
X022006Y012175D01*
X021894D01*
X021786Y012146D01*
X021689Y01209D01*
X021685Y012086D01*
X021766Y012005D01*
X021695Y011934D01*
X021614Y012015D01*
X02161Y012011D01*
X021554Y011914D01*
X021525Y011806D01*
Y011694D01*
X021554Y011586D01*
X02161Y011489D01*
X021614Y011485D01*
X021695Y011566D01*
X021766Y011495D01*
X021685Y011414D01*
X021689Y01141D01*
X021717Y011394D01*
X021704Y011344D01*
X02163D01*
X021454Y01152D01*
X02145Y011528D01*
X021446Y011543D01*
X021441Y011563D01*
X021437Y011586D01*
X021428Y011702D01*
X021428Y011747D01*
X021425Y011762D01*
Y011813D01*
X021392Y011933D01*
X02135Y012006D01*
X021379Y012056D01*
X02145D01*
X021524Y012071D01*
X021587Y012113D01*
X02172Y012246D01*
X021728Y01225D01*
X021743Y012254D01*
X021763Y012259D01*
X021786Y012263D01*
X021902Y012272D01*
X021947Y012272D01*
X021962Y012275D01*
X022013D01*
X022133Y012308D01*
X022242Y01237D01*
X02233Y012458D01*
X022392Y012567D01*
X022425Y012687D01*
Y012738D01*
X022428Y012753D01*
X022428Y012799D01*
X022432Y01288D01*
X022436Y01291D01*
X022441Y012937D01*
X022446Y012957D01*
X02245Y012972D01*
X022454Y01298D01*
X02261Y013136D01*
X022656Y013117D01*
D02*
G37*
G36*
X021275Y011696D02*
X021285Y011567D01*
X021291Y011532D01*
X021298Y011501D01*
X021308Y011473D01*
X021318Y011449D01*
X02133Y011429D01*
X021344Y011413D01*
X021287Y011356D01*
X021271Y01137D01*
X021251Y011382D01*
X021227Y011392D01*
X021199Y011402D01*
X021168Y011409D01*
X021133Y011415D01*
X021094Y01142D01*
X021004Y011425D01*
X020953Y011425D01*
X021275Y011747D01*
X021275Y011696D01*
D02*
G37*
G36*
X013031Y011275D02*
X01304Y011267D01*
X013049Y011261D01*
X013058Y011255D01*
X013068Y011251D01*
X013077Y011247D01*
X013088Y011244D01*
X013098Y011242D01*
X013109Y01124D01*
X01312Y01124D01*
Y01116D01*
X013109Y01116D01*
X013098Y011158D01*
X013088Y011156D01*
X013077Y011153D01*
X013068Y011149D01*
X013058Y011145D01*
X013049Y011139D01*
X01304Y011133D01*
X013031Y011125D01*
X013022Y011117D01*
Y011283D01*
X013031Y011275D01*
D02*
G37*
G36*
X012511Y011106D02*
X012504Y011098D01*
X012498Y011089D01*
X012493Y01108D01*
X012488Y011071D01*
X012485Y011061D01*
X012482Y011051D01*
X01248Y01104D01*
X012478Y011029D01*
X012478Y011018D01*
X012398D01*
X012397Y011029D01*
X012396Y01104D01*
X012394Y011051D01*
X012391Y011061D01*
X012388Y011071D01*
X012383Y01108D01*
X012378Y011089D01*
X012371Y011098D01*
X012364Y011106D01*
X012356Y011114D01*
X012519D01*
X012511Y011106D01*
D02*
G37*
G36*
X012012Y011107D02*
X012005Y011098D01*
X011999Y011089D01*
X011993Y01108D01*
X011989Y01107D01*
X011985Y01106D01*
X011982Y01105D01*
X01198Y01104D01*
X011978Y011029D01*
X011978Y011018D01*
X011898D01*
X011897Y011029D01*
X011896Y01104D01*
X011894Y01105D01*
X011891Y01106D01*
X011887Y01107D01*
X011883Y01108D01*
X011877Y011089D01*
X011871Y011098D01*
X011863Y011107D01*
X011855Y011116D01*
X012021D01*
X012012Y011107D01*
D02*
G37*
G36*
X011512D02*
X011505Y011098D01*
X011499Y011089D01*
X011493Y01108D01*
X011489Y01107D01*
X011485Y01106D01*
X011482Y01105D01*
X01148Y01104D01*
X011478Y011029D01*
X011478Y011018D01*
X011398D01*
X011397Y011029D01*
X011396Y01104D01*
X011394Y01105D01*
X011391Y01106D01*
X011387Y01107D01*
X011383Y01108D01*
X011377Y011089D01*
X011371Y011098D01*
X011363Y011107D01*
X011355Y011116D01*
X011521D01*
X011512Y011107D01*
D02*
G37*
G36*
X011012D02*
X011005Y011098D01*
X010999Y011089D01*
X010993Y01108D01*
X010989Y01107D01*
X010985Y01106D01*
X010982Y01105D01*
X01098Y01104D01*
X010978Y011029D01*
X010978Y011018D01*
X010898D01*
X010897Y011029D01*
X010896Y01104D01*
X010894Y01105D01*
X010891Y01106D01*
X010887Y01107D01*
X010883Y01108D01*
X010877Y011089D01*
X010871Y011098D01*
X010863Y011107D01*
X010855Y011116D01*
X011021D01*
X011012Y011107D01*
D02*
G37*
G36*
X010512D02*
X010505Y011098D01*
X010499Y011089D01*
X010493Y01108D01*
X010489Y01107D01*
X010485Y01106D01*
X010482Y01105D01*
X01048Y01104D01*
X010478Y011029D01*
X010478Y011018D01*
X010398D01*
X010397Y011029D01*
X010396Y01104D01*
X010394Y01105D01*
X010391Y01106D01*
X010387Y01107D01*
X010383Y01108D01*
X010377Y011089D01*
X010371Y011098D01*
X010363Y011107D01*
X010355Y011116D01*
X010521D01*
X010512Y011107D01*
D02*
G37*
G36*
X021637Y010038D02*
X021637Y010046D01*
X021634Y010053D01*
X02163Y010059D01*
X021624Y010064D01*
X021617Y010068D01*
X021608Y010072D01*
X021597Y010075D01*
X021585Y010077D01*
X021572Y010078D01*
X021556Y010078D01*
Y010158D01*
X021571Y010158D01*
X021633Y010162D01*
X021635Y010163D01*
X021636Y010164D01*
X021637Y010038D01*
D02*
G37*
G36*
X011116Y009967D02*
X011107Y009975D01*
X011098Y009983D01*
X011089Y009989D01*
X01108Y009995D01*
X01107Y009999D01*
X01106Y010003D01*
X01105Y010006D01*
X01104Y010008D01*
X011029Y01001D01*
X011018Y01001D01*
Y01009D01*
X011029Y01009D01*
X01104Y010092D01*
X01105Y010094D01*
X01106Y010097D01*
X01107Y010101D01*
X01108Y010105D01*
X011089Y010111D01*
X011098Y010117D01*
X011107Y010125D01*
X011116Y010133D01*
Y009967D01*
D02*
G37*
G36*
X017043Y009975D02*
X017052Y009967D01*
X017061Y009961D01*
X01707Y009955D01*
X01708Y009951D01*
X01709Y009947D01*
X0171Y009944D01*
X01711Y009942D01*
X017121Y00994D01*
X017132Y00994D01*
Y00986D01*
X017121Y00986D01*
X01711Y009858D01*
X0171Y009856D01*
X01709Y009853D01*
X01708Y009849D01*
X01707Y009845D01*
X017061Y009839D01*
X017052Y009833D01*
X017043Y009825D01*
X017034Y009817D01*
Y009983D01*
X017043Y009975D01*
D02*
G37*
G36*
X016307Y0097D02*
X016299Y009692D01*
X016293Y009684D01*
X016287Y009675D01*
X016282Y009666D01*
X016278Y009656D01*
X016274Y009646D01*
X016271Y009635D01*
X016269Y009624D01*
X016268Y009613D01*
X016268Y009601D01*
X016151Y009718D01*
X016163Y009718D01*
X016174Y009719D01*
X016185Y009721D01*
X016196Y009724D01*
X016206Y009728D01*
X016216Y009732D01*
X016225Y009737D01*
X016234Y009743D01*
X016242Y009749D01*
X01625Y009757D01*
X016307Y0097D01*
D02*
G37*
G36*
X020616Y009267D02*
X020607Y009275D01*
X020598Y009283D01*
X020589Y009289D01*
X02058Y009295D01*
X02057Y009299D01*
X02056Y009303D01*
X02055Y009306D01*
X02054Y009308D01*
X020529Y00931D01*
X020518Y00931D01*
Y00939D01*
X020529Y00939D01*
X02054Y009392D01*
X02055Y009394D01*
X02056Y009397D01*
X02057Y009401D01*
X02058Y009405D01*
X020589Y009411D01*
X020598Y009417D01*
X020607Y009425D01*
X020616Y009433D01*
Y009267D01*
D02*
G37*
G36*
X017066Y009017D02*
X017057Y009025D01*
X017048Y009033D01*
X017039Y009039D01*
X01703Y009045D01*
X01702Y009049D01*
X01701Y009053D01*
X017Y009056D01*
X01699Y009058D01*
X016979Y00906D01*
X016968Y00906D01*
Y00914D01*
X016979Y00914D01*
X01699Y009142D01*
X017Y009144D01*
X01701Y009147D01*
X01702Y009151D01*
X01703Y009155D01*
X017039Y009161D01*
X017048Y009167D01*
X017057Y009175D01*
X017066Y009183D01*
Y009017D01*
D02*
G37*
G36*
X016143Y009175D02*
X016152Y009167D01*
X016161Y009161D01*
X01617Y009155D01*
X01618Y009151D01*
X01619Y009147D01*
X0162Y009144D01*
X01621Y009142D01*
X016221Y00914D01*
X016232Y00914D01*
Y00906D01*
X016221Y00906D01*
X01621Y009058D01*
X0162Y009056D01*
X01619Y009053D01*
X01618Y009049D01*
X01617Y009045D01*
X016161Y009039D01*
X016152Y009033D01*
X016143Y009025D01*
X016134Y009017D01*
Y009183D01*
X016143Y009175D01*
D02*
G37*
G36*
X02164Y009219D02*
X021659Y009208D01*
X021682Y009197D01*
X021709Y009188D01*
X02174Y009181D01*
X021774Y009175D01*
X021812Y00917D01*
X021898Y009165D01*
X021947Y009165D01*
X021635Y008853D01*
X021635Y008902D01*
X021625Y009026D01*
X021619Y00906D01*
X021612Y009091D01*
X021603Y009118D01*
X021592Y009141D01*
X021581Y00916D01*
X021567Y009176D01*
X021624Y009233D01*
X02164Y009219D01*
D02*
G37*
G36*
X013818Y0072D02*
X013816Y007219D01*
X01381Y007236D01*
X0138Y007251D01*
X013786Y007264D01*
X013768Y007275D01*
X013746Y007284D01*
X013719Y007291D01*
X013689Y007296D01*
X013655Y007299D01*
X013617Y0073D01*
Y0075D01*
X013655Y0075D01*
X013809Y00751D01*
X013815Y007512D01*
X013817Y007515D01*
X013818Y0072D01*
D02*
G37*
G36*
X001747Y016425D02*
X001696Y016425D01*
X001567Y016415D01*
X001532Y016409D01*
X001501Y016402D01*
X001473Y016392D01*
X001449Y016382D01*
X001429Y01637D01*
X001413Y016356D01*
X001356Y016413D01*
X00137Y016429D01*
X001382Y016449D01*
X001392Y016473D01*
X001402Y016501D01*
X001409Y016532D01*
X001415Y016567D01*
X00142Y016606D01*
X001425Y016696D01*
X001425Y016747D01*
X001747Y016425D01*
D02*
G37*
G36*
X002747Y015425D02*
X002696Y015425D01*
X002567Y015415D01*
X002532Y015409D01*
X002501Y015402D01*
X002473Y015392D01*
X002449Y015382D01*
X002429Y01537D01*
X002413Y015356D01*
X002356Y015413D01*
X00237Y015429D01*
X002382Y015449D01*
X002392Y015473D01*
X002402Y015501D01*
X002409Y015532D01*
X002415Y015567D01*
X00242Y015606D01*
X002425Y015696D01*
X002425Y015747D01*
X002747Y015425D01*
D02*
G37*
G36*
X003035Y007563D02*
X003015Y007548D01*
X002998Y007533D01*
X002982Y007516D01*
X002969Y007499D01*
X002959Y007481D01*
X002953Y007468D01*
X00296Y00746D01*
X002969Y007453D01*
X002979Y007447D01*
X002991Y007443D01*
X003005Y007441D01*
X00302Y00744D01*
X0029Y00736D01*
X00278Y00744D01*
X002795Y007441D01*
X002809Y007443D01*
X002821Y007447D01*
X002831Y007453D01*
X00284Y00746D01*
X002847Y007468D01*
X002841Y007481D01*
X002831Y007499D01*
X002818Y007516D01*
X002802Y007533D01*
X002785Y007548D01*
X002765Y007563D01*
X002742Y007577D01*
X003058D01*
X003035Y007563D01*
D02*
G37*
G36*
X001785D02*
X001765Y007548D01*
X001748Y007533D01*
X001732Y007516D01*
X001719Y007499D01*
X001709Y007481D01*
X001703Y007468D01*
X00171Y00746D01*
X001719Y007453D01*
X001729Y007447D01*
X001741Y007443D01*
X001755Y007441D01*
X00177Y00744D01*
X00165Y00736D01*
X00153Y00744D01*
X001545Y007441D01*
X001559Y007443D01*
X001571Y007447D01*
X001581Y007453D01*
X00159Y00746D01*
X001597Y007468D01*
X001591Y007481D01*
X001581Y007499D01*
X001568Y007516D01*
X001552Y007533D01*
X001535Y007548D01*
X001515Y007563D01*
X001492Y007577D01*
X001808D01*
X001785Y007563D01*
D02*
G37*
G36*
X003716Y007317D02*
X003707Y007325D01*
X003698Y007333D01*
X003689Y007339D01*
X00368Y007345D01*
X00367Y007349D01*
X00366Y007353D01*
X00365Y007356D01*
X00364Y007358D01*
X003629Y00736D01*
X003618Y00736D01*
Y00744D01*
X003629Y00744D01*
X00364Y007442D01*
X00365Y007444D01*
X00366Y007447D01*
X00367Y007451D01*
X00368Y007455D01*
X003689Y007461D01*
X003698Y007467D01*
X003707Y007475D01*
X003716Y007483D01*
Y007317D01*
D02*
G37*
G36*
X002972Y006535D02*
X002966Y006533D01*
X00296Y006529D01*
X002954Y006523D01*
X00295Y006516D01*
X002946Y006507D01*
X002944Y006497D01*
X002942Y006485D01*
X00294Y006471D01*
X00294Y006465D01*
X002941Y006455D01*
X002943Y006441D01*
X002947Y006429D01*
X002953Y006419D01*
X00296Y00641D01*
X002969Y006403D01*
X002979Y006397D01*
X002991Y006393D01*
X003005Y006391D01*
X00302Y00639D01*
X0029Y00631D01*
X00278Y00639D01*
X002795Y006391D01*
X002809Y006393D01*
X002821Y006397D01*
X002831Y006403D01*
X00284Y00641D01*
X002847Y006419D01*
X002853Y006429D01*
X002857Y006441D01*
X002859Y006455D01*
X00286Y006465D01*
X00286Y006471D01*
X002858Y006485D01*
X002856Y006497D01*
X002854Y006507D01*
X00285Y006516D01*
X002846Y006523D01*
X00284Y006529D01*
X002834Y006533D01*
X002828Y006535D01*
X00282Y006536D01*
X00298D01*
X002972Y006535D01*
D02*
G37*
G36*
X001722D02*
X001716Y006533D01*
X00171Y006529D01*
X001704Y006523D01*
X0017Y006516D01*
X001696Y006507D01*
X001694Y006497D01*
X001692Y006485D01*
X00169Y006471D01*
X00169Y006465D01*
X001691Y006455D01*
X001693Y006441D01*
X001697Y006429D01*
X001703Y006419D01*
X00171Y00641D01*
X001719Y006403D01*
X001729Y006397D01*
X001741Y006393D01*
X001755Y006391D01*
X00177Y00639D01*
X00165Y00631D01*
X00153Y00639D01*
X001545Y006391D01*
X001559Y006393D01*
X001571Y006397D01*
X001581Y006403D01*
X00159Y00641D01*
X001597Y006419D01*
X001603Y006429D01*
X001607Y006441D01*
X001609Y006455D01*
X00161Y006465D01*
X00161Y006471D01*
X001608Y006485D01*
X001606Y006497D01*
X001604Y006507D01*
X0016Y006516D01*
X001596Y006523D01*
X00159Y006529D01*
X001584Y006533D01*
X001578Y006535D01*
X00157Y006536D01*
X00173D01*
X001722Y006535D01*
D02*
G37*
G36*
X003666Y006267D02*
X003657Y006275D01*
X003648Y006283D01*
X003639Y006289D01*
X00363Y006295D01*
X00362Y006299D01*
X00361Y006303D01*
X0036Y006306D01*
X00359Y006308D01*
X003579Y00631D01*
X003568Y00631D01*
Y00639D01*
X003579Y00639D01*
X00359Y006392D01*
X0036Y006394D01*
X00361Y006397D01*
X00362Y006401D01*
X00363Y006405D01*
X003639Y006411D01*
X003648Y006417D01*
X003657Y006425D01*
X003666Y006433D01*
Y006267D01*
D02*
G37*
G36*
X022148Y006601D02*
X022127Y006577D01*
X022109Y006552D01*
X022093Y006526D01*
X02208Y0065D01*
X022069Y006474D01*
X022061Y006447D01*
X022055Y006419D01*
X022051Y006391D01*
X02205Y006362D01*
X02185D01*
X021849Y006391D01*
X021845Y006419D01*
X021839Y006447D01*
X021831Y006474D01*
X02182Y0065D01*
X021807Y006526D01*
X021791Y006552D01*
X021773Y006577D01*
X021752Y006601D01*
X02173Y006625D01*
X02217D01*
X022148Y006601D01*
D02*
G37*
G36*
X012691Y005911D02*
X012672Y005875D01*
X012655Y00583D01*
X01264Y005777D01*
X012628Y005714D01*
X012618Y005643D01*
X012604Y005473D01*
X0126Y005267D01*
X0124D01*
X012399Y005374D01*
X012372Y005714D01*
X01236Y005777D01*
X012345Y00583D01*
X012328Y005875D01*
X012309Y005911D01*
X012288Y005938D01*
X012712D01*
X012691Y005911D01*
D02*
G37*
G36*
X019315Y004477D02*
X019327Y004472D01*
X019342Y004467D01*
X01936Y004462D01*
X019382Y004458D01*
X019502Y00445D01*
X01954Y00445D01*
X019299Y00425D01*
Y00435D01*
X019307Y004484D01*
X019315Y004477D01*
D02*
G37*
G36*
X001546Y005344D02*
X00155Y005339D01*
X001556Y005331D01*
X00159Y005294D01*
X00167Y005213D01*
X001387Y00493D01*
X001253Y005055D01*
X001545Y005347D01*
X001546Y005344D01*
D02*
G37*
G36*
X006341Y000697D02*
X006319Y000716D01*
X006295Y000734D01*
X006268Y000749D01*
X006239Y000763D01*
X006206Y000774D01*
X006172Y000784D01*
X006134Y000791D01*
X006094Y000796D01*
X006051Y000799D01*
X006006Y0008D01*
Y0012D01*
X006051Y001201D01*
X006134Y001209D01*
X006172Y001217D01*
X006206Y001226D01*
X006239Y001237D01*
X006268Y001251D01*
X006295Y001266D01*
X006319Y001284D01*
X006341Y001303D01*
Y000697D01*
D02*
G37*
D44*
X00125Y00535D02*
D03*
Y00435D02*
D03*
Y00335D02*
D03*
D71*
X013932Y0074D02*
X0148Y006532D01*
X0102Y008964D02*
X011764Y0074D01*
X013932D01*
X019236Y004413D02*
Y0063D01*
Y004413D02*
X019299Y00435D01*
X0211D01*
X02195Y0052D01*
Y00685D01*
X0125Y00525D02*
Y00615D01*
X0134Y00435D02*
X019299D01*
X0125Y00525D02*
X0134Y00435D01*
D72*
X00935Y00935D02*
X0207D01*
X01615Y0096D02*
X016668Y010118D01*
X021682D01*
X0053Y0134D02*
X00935Y00935D01*
X01605Y0091D02*
X01715D01*
X0146Y01145D02*
Y0153D01*
X01495Y01165D02*
Y0158D01*
X018531Y020203D02*
X022147D01*
X02285Y0116D02*
Y0195D01*
X022147Y020203D02*
X02285Y0195D01*
X0029Y0074D02*
X0038D01*
X00165D02*
X0029D01*
Y00785D01*
X0013Y0074D02*
X00165D01*
Y00785D01*
X0011Y0076D02*
Y015D01*
Y0076D02*
X0013Y0074D01*
X0011Y015D02*
X00135Y01525D01*
X00225D01*
X00275Y01575D01*
X0008Y0067D02*
X00115Y00635D01*
X0008Y0067D02*
Y0158D01*
X00175Y01675D01*
X0029Y00635D02*
X00375D01*
X00165D02*
X0029D01*
Y00685D01*
X00115Y00635D02*
X00165D01*
Y00685D01*
X012938Y0112D02*
X0168D01*
X01985Y01425D01*
X01695Y0099D02*
X0209D01*
X021682Y010118D02*
X02195Y00985D01*
X0209Y0099D02*
X02195Y00885D01*
X00305Y02015D02*
X0049D01*
X0053Y0134D02*
Y01975D01*
X0049Y02015D02*
X0053Y01975D01*
X0023Y0193D02*
X00485D01*
X00175Y01875D02*
X0023Y0193D01*
X00275Y01875D02*
X00455D01*
X00225Y01825D02*
X00425D01*
X00175Y01775D02*
X00225Y01825D01*
X0068Y0124D02*
Y0138D01*
Y0124D02*
X00915Y01005D01*
X01205Y01075D02*
X0179D01*
X0204Y01325D01*
X02145D01*
X0204Y01225D02*
X02145D01*
X01125Y01045D02*
X0186D01*
X0204Y01225D01*
X0109Y0103D02*
X019D01*
X02045Y01175D02*
X02095D01*
X019Y0103D02*
X02045Y01175D01*
X02095D02*
X02155Y01115D01*
X0224D01*
X02285Y0116D01*
X022028Y019872D02*
X02255Y01935D01*
Y01335D02*
Y01935D01*
X02145Y01225D02*
X02195Y01275D01*
X02255Y01335D01*
X02145Y01325D02*
X02195Y01375D01*
Y014D01*
X022053Y013751D01*
X01985Y01425D02*
X02145D01*
X02195Y01475D01*
X02Y01375D02*
X02095D01*
X01715Y0109D02*
X02Y01375D01*
X0204Y01275D02*
X02095D01*
X01825Y0106D02*
X0204Y01275D01*
X01165Y0106D02*
X01825D01*
X00915Y01005D02*
X0112D01*
X010438Y010762D02*
X0109Y0103D01*
X01985Y019872D02*
X022028D01*
X0182D02*
X018531Y020203D01*
X012438Y011012D02*
X01255Y0109D01*
X010938Y010762D02*
X01125Y01045D01*
X011938Y010862D02*
X01205Y01075D01*
X01255Y0109D02*
X01715D01*
X011938Y010862D02*
Y0112D01*
X012438Y011012D02*
Y0112D01*
X011438Y010812D02*
X01165Y0106D01*
X011438Y010812D02*
Y0112D01*
X010938Y010762D02*
Y0112D01*
X010438Y010762D02*
Y0112D01*
D76*
X00665Y02285D02*
D03*
Y001D02*
D03*
D77*
X00125Y00235D02*
D03*
D78*
X02195Y00885D02*
D03*
Y00785D02*
D03*
Y00685D02*
D03*
X00165Y00985D02*
D03*
Y00885D02*
D03*
Y00785D02*
D03*
X0029Y00985D02*
D03*
Y00885D02*
D03*
Y00785D02*
D03*
D79*
X02195Y00985D02*
D03*
X00165Y00685D02*
D03*
X0029D02*
D03*
D80*
X02195Y01175D02*
D03*
Y01275D02*
D03*
X02095Y01175D02*
D03*
Y01275D02*
D03*
X02195Y01575D02*
D03*
X02095D02*
D03*
X02195Y01675D02*
D03*
X02095D02*
D03*
X02195Y01875D02*
D03*
X02095Y01775D02*
D03*
X02195D02*
D03*
X02095Y01475D02*
D03*
X02195D02*
D03*
X02095Y01375D02*
D03*
X02195D02*
D03*
X00275D02*
D03*
X00175D02*
D03*
X00275Y01475D02*
D03*
X00175D02*
D03*
X00275Y01775D02*
D03*
X00175D02*
D03*
X00275Y01875D02*
D03*
X00175Y01675D02*
D03*
X00275D02*
D03*
X00175Y01575D02*
D03*
X00275D02*
D03*
X00175Y01275D02*
D03*
Y01175D02*
D03*
X00275Y01275D02*
D03*
Y01175D02*
D03*
D81*
X02095Y01875D02*
D03*
X00175D02*
D03*
D82*
X0227Y00095D02*
D03*
X02265Y0244D02*
D03*
X00105Y0245D02*
D03*
X001Y001D02*
D03*
D83*
X0155Y0007D02*
D03*
X0183D02*
D03*
D84*
X01555Y00215D02*
D03*
X01825D02*
D03*
D85*
X01435Y00135D02*
D03*
X0125D02*
D03*
X01065D02*
D03*
D86*
X003806Y001684D02*
D03*
X0102Y008964D02*
D03*
X01765Y007D02*
D03*
X00615Y003186D02*
D03*
X022704Y006409D02*
D03*
Y004046D02*
D03*
X021522Y020582D02*
D03*
Y004046D02*
D03*
Y001684D02*
D03*
X020341Y020582D02*
D03*
X019751Y019401D02*
D03*
X020341Y006409D02*
D03*
X01857Y019401D02*
D03*
Y005228D02*
D03*
Y002865D02*
D03*
X017979Y013495D02*
D03*
Y001684D02*
D03*
X017389Y000503D02*
D03*
X016798Y020582D02*
D03*
X016207Y019401D02*
D03*
X016798Y008771D02*
D03*
X016207Y00759D02*
D03*
X016798Y001684D02*
D03*
X016207Y000503D02*
D03*
X015026Y019401D02*
D03*
Y005228D02*
D03*
Y000503D02*
D03*
X013845Y019401D02*
D03*
Y014676D02*
D03*
Y000503D02*
D03*
X012664Y019401D02*
D03*
X013255Y01822D02*
D03*
X012664Y017039D02*
D03*
X013255Y015857D02*
D03*
X012664Y014676D02*
D03*
X013255Y013495D02*
D03*
Y001684D02*
D03*
X012664Y000503D02*
D03*
X011483Y019401D02*
D03*
X012074Y01822D02*
D03*
X011483Y017039D02*
D03*
X012074Y015857D02*
D03*
X011483Y014676D02*
D03*
X012074Y013495D02*
D03*
X011483Y005228D02*
D03*
X012074Y004046D02*
D03*
X011483Y000503D02*
D03*
X010302Y019401D02*
D03*
X010893Y01822D02*
D03*
X010302Y017039D02*
D03*
X010893Y015857D02*
D03*
X010302Y014676D02*
D03*
X010893Y013495D02*
D03*
X010302Y00759D02*
D03*
X010893Y006409D02*
D03*
X010302Y002865D02*
D03*
X009121Y019401D02*
D03*
X009711Y01822D02*
D03*
X009121Y017039D02*
D03*
X009711Y015857D02*
D03*
X009121Y014676D02*
D03*
X009711Y013495D02*
D03*
X009121Y00759D02*
D03*
X009711Y006409D02*
D03*
X009121Y005228D02*
D03*
X009711Y004046D02*
D03*
X009121Y002865D02*
D03*
Y000503D02*
D03*
X00794Y019401D02*
D03*
X00853Y01822D02*
D03*
Y015857D02*
D03*
Y013495D02*
D03*
X00794Y012314D02*
D03*
X00853Y006409D02*
D03*
X005578Y024125D02*
D03*
X006168Y020582D02*
D03*
Y01822D02*
D03*
X005578Y012314D02*
D03*
X004396Y024125D02*
D03*
Y000503D02*
D03*
X003215D02*
D03*
X002625Y001684D02*
D03*
X002034Y000503D02*
D03*
X001444Y011133D02*
D03*
X0207Y00935D02*
D03*
X01615Y0096D02*
D03*
X01715Y0091D02*
D03*
X01605D02*
D03*
X0146Y01145D02*
D03*
X01495Y01165D02*
D03*
Y0158D02*
D03*
X0146Y0153D02*
D03*
X0038Y0074D02*
D03*
X00375Y00635D02*
D03*
X017276Y0033D02*
D03*
X0053Y004081D02*
D03*
X019236Y0063D02*
D03*
X0127Y00635D02*
D03*
X0123D02*
D03*
X01695Y0099D02*
D03*
X00485Y0193D02*
D03*
X00455Y01875D02*
D03*
X00305Y02015D02*
D03*
X00425Y01825D02*
D03*
X0068Y0138D02*
D03*
X01985Y019872D02*
D03*
X0182D02*
D03*
X0112Y01005D02*
D03*
X012438Y0112D02*
D03*
X012938D02*
D03*
X011438D02*
D03*
X011938D02*
D03*
X010938D02*
D03*
X010438D02*
D03*
D87*
X0148Y006532D02*
D03*
Y018068D02*
D03*
D88*
X0056Y001D02*
X006746D01*
X00125Y00535D02*
X0056Y001D01*
D89*
X0125Y00615D02*
X0127Y00635D01*
X0123D02*
X0125Y00615D01*
M02*
