G04*
G04 #@! TF.GenerationSoftware,Altium Limited,Altium Designer,24.4.1 (13)*
G04*
G04 Layer_Color=255*
%FSTAX24Y24*%
%MOIN*%
G70*
G04*
G04 #@! TF.SameCoordinates,973A198C-3906-4392-A1E8-A13353080A71*
G04*
G04*
G04 #@! TF.FilePolarity,Positive*
G04*
G01*
G75*
%ADD23R,0.0374X0.0315*%
%ADD24R,0.0315X0.0315*%
%ADD25R,0.0315X0.0315*%
%ADD26R,0.0315X0.0374*%
%ADD27O,0.0571X0.0157*%
%ADD28R,0.0354X0.0787*%
%ADD29R,0.0315X0.0984*%
%ADD30R,0.0984X0.0315*%
%ADD31R,0.0157X0.0591*%
%ADD32R,0.0787X0.0354*%
G04:AMPARAMS|DCode=33|XSize=90.5mil|YSize=22.3mil|CornerRadius=11.2mil|HoleSize=0mil|Usage=FLASHONLY|Rotation=0.000|XOffset=0mil|YOffset=0mil|HoleType=Round|Shape=RoundedRectangle|*
%AMROUNDEDRECTD33*
21,1,0.0905,0.0000,0,0,0.0*
21,1,0.0681,0.0223,0,0,0.0*
1,1,0.0223,0.0341,0.0000*
1,1,0.0223,-0.0341,0.0000*
1,1,0.0223,-0.0341,0.0000*
1,1,0.0223,0.0341,0.0000*
%
%ADD33ROUNDEDRECTD33*%
%ADD34R,0.0905X0.0223*%
%ADD35R,0.1043X0.0689*%
%ADD36R,0.1850X0.0591*%
%ADD37R,0.0236X0.0394*%
%ADD38R,0.0630X0.1024*%
G04:AMPARAMS|DCode=39|XSize=51.4mil|YSize=126.9mil|CornerRadius=18mil|HoleSize=0mil|Usage=FLASHONLY|Rotation=90.000|XOffset=0mil|YOffset=0mil|HoleType=Round|Shape=RoundedRectangle|*
%AMROUNDEDRECTD39*
21,1,0.0514,0.0909,0,0,90.0*
21,1,0.0154,0.1269,0,0,90.0*
1,1,0.0359,0.0455,0.0077*
1,1,0.0359,0.0455,-0.0077*
1,1,0.0359,-0.0455,-0.0077*
1,1,0.0359,-0.0455,0.0077*
%
%ADD39ROUNDEDRECTD39*%
G04:AMPARAMS|DCode=40|XSize=51.4mil|YSize=35.9mil|CornerRadius=18mil|HoleSize=0mil|Usage=FLASHONLY|Rotation=90.000|XOffset=0mil|YOffset=0mil|HoleType=Round|Shape=RoundedRectangle|*
%AMROUNDEDRECTD40*
21,1,0.0514,0.0000,0,0,90.0*
21,1,0.0154,0.0359,0,0,90.0*
1,1,0.0359,0.0000,0.0077*
1,1,0.0359,0.0000,-0.0077*
1,1,0.0359,0.0000,-0.0077*
1,1,0.0359,0.0000,0.0077*
%
%ADD40ROUNDEDRECTD40*%
%ADD41R,0.0359X0.0514*%
%ADD42R,0.0433X0.1000*%
%ADD43R,0.1098X0.0291*%
%ADD44C,0.0591*%
G04:AMPARAMS|DCode=45|XSize=55.1mil|YSize=19.7mil|CornerRadius=2.5mil|HoleSize=0mil|Usage=FLASHONLY|Rotation=90.000|XOffset=0mil|YOffset=0mil|HoleType=Round|Shape=RoundedRectangle|*
%AMROUNDEDRECTD45*
21,1,0.0551,0.0148,0,0,90.0*
21,1,0.0502,0.0197,0,0,90.0*
1,1,0.0049,0.0074,0.0251*
1,1,0.0049,0.0074,-0.0251*
1,1,0.0049,-0.0074,-0.0251*
1,1,0.0049,-0.0074,0.0251*
%
%ADD45ROUNDEDRECTD45*%
%ADD76C,0.0866*%
%ADD77R,0.0591X0.0591*%
%ADD78C,0.0630*%
%ADD79R,0.0630X0.0630*%
%ADD80C,0.0650*%
%ADD81R,0.0650X0.0650*%
%ADD82C,0.1299*%
%ADD83O,0.0591X0.0866*%
%ADD84O,0.0709X0.0866*%
%ADD85C,0.0709*%
D23*
X0209Y020514D02*
D03*
Y019786D02*
D03*
X0144Y007636D02*
D03*
Y008364D02*
D03*
Y009614D02*
D03*
Y008886D02*
D03*
X019315Y019786D02*
D03*
Y020514D02*
D03*
X00965Y009686D02*
D03*
Y010414D02*
D03*
X0071Y003914D02*
D03*
Y003186D02*
D03*
X022465Y019786D02*
D03*
Y020514D02*
D03*
X01315Y003864D02*
D03*
Y003136D02*
D03*
X00385Y00985D02*
D03*
Y009122D02*
D03*
X00965Y008964D02*
D03*
Y008236D02*
D03*
X0103Y010414D02*
D03*
Y009686D02*
D03*
X0096Y001714D02*
D03*
Y000986D02*
D03*
X0065Y003914D02*
D03*
Y003186D02*
D03*
X01315Y00577D02*
D03*
Y005041D02*
D03*
X01464Y003864D02*
D03*
Y003136D02*
D03*
X0125D02*
D03*
Y003864D02*
D03*
Y00577D02*
D03*
Y005041D02*
D03*
X0067Y0188D02*
D03*
Y019528D02*
D03*
X006Y0188D02*
D03*
Y019528D02*
D03*
X013Y008886D02*
D03*
Y009614D02*
D03*
X0124Y008886D02*
D03*
Y009614D02*
D03*
X0118Y008886D02*
D03*
Y009614D02*
D03*
X0112Y008886D02*
D03*
Y009614D02*
D03*
X01765Y020514D02*
D03*
Y019786D02*
D03*
X01535Y003864D02*
D03*
Y003136D02*
D03*
D24*
X01375Y005715D02*
D03*
Y005085D02*
D03*
Y00317D02*
D03*
Y0038D02*
D03*
X013Y008365D02*
D03*
Y007735D02*
D03*
X0124Y00835D02*
D03*
Y00772D02*
D03*
X0118Y00835D02*
D03*
Y00772D02*
D03*
X0112Y00835D02*
D03*
Y00772D02*
D03*
D25*
X019915Y00735D02*
D03*
X019285D02*
D03*
X019915Y00785D02*
D03*
X019285D02*
D03*
D26*
X019964Y0068D02*
D03*
X019236D02*
D03*
X01925Y0084D02*
D03*
X019978D02*
D03*
X01925Y009D02*
D03*
X019978D02*
D03*
D27*
X018288Y006287D02*
D03*
Y006543D02*
D03*
Y006798D02*
D03*
Y007054D02*
D03*
Y00731D02*
D03*
Y007566D02*
D03*
Y007822D02*
D03*
Y008078D02*
D03*
Y008334D02*
D03*
Y00859D02*
D03*
Y008846D02*
D03*
Y009102D02*
D03*
Y009357D02*
D03*
Y009613D02*
D03*
X015512Y006287D02*
D03*
Y006543D02*
D03*
Y006798D02*
D03*
Y007054D02*
D03*
Y00731D02*
D03*
Y007566D02*
D03*
Y007822D02*
D03*
Y008078D02*
D03*
Y008334D02*
D03*
Y00859D02*
D03*
Y008846D02*
D03*
Y009102D02*
D03*
Y009357D02*
D03*
Y009613D02*
D03*
D28*
X020915Y023006D02*
D03*
X020285Y021194D02*
D03*
Y023006D02*
D03*
X020915Y021194D02*
D03*
X019315Y023006D02*
D03*
X018685Y021194D02*
D03*
Y023006D02*
D03*
X019315Y021194D02*
D03*
X022465Y023006D02*
D03*
X021835Y021194D02*
D03*
Y023006D02*
D03*
X022465Y021194D02*
D03*
X017665Y023006D02*
D03*
X017035Y021194D02*
D03*
Y023006D02*
D03*
X017665Y021194D02*
D03*
D29*
X013938Y012D02*
D03*
X009438D02*
D03*
X009938D02*
D03*
X010438D02*
D03*
X010938D02*
D03*
X011438D02*
D03*
X011938D02*
D03*
X012438D02*
D03*
X012938D02*
D03*
X013438D02*
D03*
D30*
X007737Y0128D02*
D03*
Y0133D02*
D03*
Y0138D02*
D03*
Y0143D02*
D03*
Y0148D02*
D03*
Y0153D02*
D03*
Y0158D02*
D03*
Y0163D02*
D03*
Y0168D02*
D03*
Y0173D02*
D03*
Y0178D02*
D03*
Y0183D02*
D03*
Y0188D02*
D03*
X01565Y0128D02*
D03*
Y0133D02*
D03*
Y0138D02*
D03*
Y0143D02*
D03*
Y0148D02*
D03*
Y0153D02*
D03*
Y0158D02*
D03*
Y0163D02*
D03*
Y0168D02*
D03*
Y0173D02*
D03*
Y0178D02*
D03*
Y0183D02*
D03*
Y0188D02*
D03*
D31*
X017156Y002192D02*
D03*
X0169D02*
D03*
X016644D02*
D03*
X017412D02*
D03*
X016388D02*
D03*
D32*
X019194Y001065D02*
D03*
X021006Y000435D02*
D03*
X019194D02*
D03*
X021006Y001065D02*
D03*
D33*
X008483Y01035D02*
D03*
Y00985D02*
D03*
Y00935D02*
D03*
Y00885D02*
D03*
Y00835D02*
D03*
Y00785D02*
D03*
Y00735D02*
D03*
Y00685D02*
D03*
X004917D02*
D03*
Y00735D02*
D03*
Y00785D02*
D03*
Y00835D02*
D03*
Y00885D02*
D03*
Y00935D02*
D03*
Y00985D02*
D03*
D34*
Y01035D02*
D03*
D35*
X005204Y00495D02*
D03*
X006896D02*
D03*
D36*
X00345Y00335D02*
D03*
Y00461D02*
D03*
D37*
X005674Y003018D02*
D03*
X0053D02*
D03*
X004926D02*
D03*
Y004081D02*
D03*
X0053D02*
D03*
X005674D02*
D03*
D38*
X0083Y000641D02*
D03*
Y002059D02*
D03*
X0051Y000641D02*
D03*
Y002059D02*
D03*
D39*
X010748Y00577D02*
D03*
D40*
X01165Y003136D02*
D03*
X010748D02*
D03*
D41*
X009847D02*
D03*
D42*
X0229Y0054D02*
D03*
Y002487D02*
D03*
D43*
X00305Y0205D02*
D03*
Y021D02*
D03*
Y0215D02*
D03*
Y022D02*
D03*
Y0225D02*
D03*
X001448Y0205D02*
D03*
Y021D02*
D03*
Y0215D02*
D03*
Y022D02*
D03*
Y0225D02*
D03*
D44*
X00525Y0249D02*
D03*
X0037D02*
D03*
X00125Y00535D02*
D03*
Y00435D02*
D03*
Y00335D02*
D03*
D45*
X016902Y004838D02*
D03*
X017276D02*
D03*
X01765D02*
D03*
Y00385D02*
D03*
X017276D02*
D03*
X016902D02*
D03*
D76*
X00665Y02285D02*
D03*
Y001D02*
D03*
D77*
X00125Y00235D02*
D03*
D78*
X02195Y00885D02*
D03*
Y00785D02*
D03*
Y00685D02*
D03*
X00165Y00985D02*
D03*
Y00885D02*
D03*
Y00785D02*
D03*
X0029Y00985D02*
D03*
Y00885D02*
D03*
Y00785D02*
D03*
D79*
X02195Y00985D02*
D03*
X00165Y00685D02*
D03*
X0029D02*
D03*
D80*
X02195Y01175D02*
D03*
Y01275D02*
D03*
X02095Y01175D02*
D03*
Y01275D02*
D03*
X02195Y01575D02*
D03*
X02095D02*
D03*
X02195Y01675D02*
D03*
X02095D02*
D03*
X02195Y01875D02*
D03*
X02095Y01775D02*
D03*
X02195D02*
D03*
X02095Y01475D02*
D03*
X02195D02*
D03*
X02095Y01375D02*
D03*
X02195D02*
D03*
X00275D02*
D03*
X00175D02*
D03*
X00275Y01475D02*
D03*
X00175D02*
D03*
X00275Y01775D02*
D03*
X00175D02*
D03*
X00275Y01875D02*
D03*
X00175Y01675D02*
D03*
X00275D02*
D03*
X00175Y01575D02*
D03*
X00275D02*
D03*
X00175Y01275D02*
D03*
Y01175D02*
D03*
X00275Y01275D02*
D03*
Y01175D02*
D03*
D81*
X02095Y01875D02*
D03*
X00175D02*
D03*
D82*
X0227Y00095D02*
D03*
X02265Y0244D02*
D03*
X00105Y0245D02*
D03*
X001Y001D02*
D03*
D83*
X0155Y0007D02*
D03*
X0183D02*
D03*
D84*
X01555Y00215D02*
D03*
X01825D02*
D03*
D85*
X01435Y00135D02*
D03*
X0125D02*
D03*
X01065D02*
D03*
M02*
